<svg width="332" height="332" viewBox="0 0 332 332" fill="none" xmlns="http://www.w3.org/2000/svg">
<path d="M317.219 211.792C311.205 231.651 301.339 250.13 288.184 266.175C275.029 282.221 258.842 295.518 240.548 305.308C222.253 315.098 202.21 321.188 181.562 323.232C160.914 325.275 140.066 323.232 120.208 317.219C100.349 311.205 81.8699 301.339 65.8245 288.184C49.7791 275.029 36.482 258.842 26.6922 240.548C16.9025 222.253 10.8119 202.21 8.76827 181.562C6.72461 160.914 8.76788 140.066 14.7814 120.208C20.795 100.349 30.661 81.8699 43.8162 65.8245C56.9715 49.7791 73.1583 36.4819 91.4524 26.6922C109.747 16.9025 129.79 10.8119 150.438 8.76827C171.086 6.72461 191.934 8.76788 211.792 14.7814C231.651 20.795 250.13 30.661 266.175 43.8162C282.221 56.9715 295.518 73.1583 305.308 91.4524C315.098 109.747 321.188 129.79 323.232 150.438C325.275 171.086 323.232 191.934 317.219 211.792L317.219 211.792Z" stroke="url(#paint0_linear_296_2902)" stroke-opacity="0.6" stroke-width="16" stroke-linecap="round"/>
<defs>
<linearGradient id="paint0_linear_296_2902" x1="439.593" y1="-90.3629" x2="-176.487" y2="393.241" gradientUnits="userSpaceOnUse">
<stop stop-color="white" stop-opacity="0.3"/>
<stop offset="0.518857" stop-color="white" stop-opacity="0.05"/>
<stop offset="1" stop-color="white" stop-opacity="0.2"/>
</linearGradient>
</defs>
</svg>
