<svg width="108" height="44" viewBox="0 0 108 44" fill="none" xmlns="http://www.w3.org/2000/svg">
<path d="M77.6644 29.8242C76.5251 28.3075 75.7412 26.6068 75.3584 24.7132C75.1579 23.705 75.0212 22.6968 74.9391 21.6711C74.93 21.5747 74.9209 21.4783 74.9209 21.3818C75.0394 21.3906 75.1579 21.3994 75.2855 21.4081V21.6273C75.2855 24.494 76.1149 27.2906 77.6644 29.8242Z" fill="url(#paint0_linear_547_93)"/>
<path d="M89.1497 33.7347C89.2044 33.875 89.2409 34.024 89.25 34.1818C89.3411 33.9714 89.4505 33.7698 89.5872 33.5682C90.1614 32.7704 91.0729 32.3584 91.9844 31.9814C92.0026 31.9639 92.0208 31.9463 92.039 31.9288C92.2943 31.7272 92.5859 31.5957 92.8958 31.4817C92.8594 31.0434 93.1966 30.307 93.3971 30.1755C94.4362 29.5267 95.5937 29.1585 96.7877 28.9043C96.8242 28.4397 97.0794 27.8611 97.3711 27.8435C97.8632 27.826 98.3646 27.7997 98.8567 27.7822C99.3398 27.4052 99.8593 27.2123 100.461 27.7296C100.525 27.7909 100.57 27.8874 100.589 28.0101C100.716 28.0189 100.844 28.0189 100.971 28.0276C101.017 27.9838 101.062 27.94 101.108 27.9049C101.618 27.414 102.138 26.8967 102.585 26.3444C102.767 26.1165 102.904 25.836 103.095 25.6256C103.113 25.5993 103.131 25.5642 103.141 25.5291C103.122 25.4941 103.113 25.4678 103.104 25.459H92.1211C92.0573 26.4496 91.9752 26.9318 91.319 27.7296C90.6172 28.5799 90.0065 29.2111 88.9766 29.0358V33.5769C89.0495 33.5769 89.1042 33.612 89.1497 33.7347Z" fill="url(#paint1_linear_547_93)"/>
<path d="M74.7393 10.6427L78.4944 10.52V7.36396L74.7666 6.10156L74.7393 10.6427Z" fill="url(#paint2_linear_547_93)"/>
<path d="M81.9492 7.60059H84.8665V4.44459L82.0051 3.19043L81.9492 7.60059Z" fill="url(#paint3_linear_547_93)"/>
<path d="M107.57 21.4607C107.497 22.2321 107.424 22.7581 107.333 23.4595H92.9961L94.9648 21.3555L107.57 21.4607Z" fill="url(#paint4_linear_547_93)"/>
<path d="M103.214 10.5901L99.4951 10.52V7.36396L103.214 6.10156V10.5901Z" fill="url(#paint5_linear_547_93)"/>
<path d="M95.9945 7.57466H93.1143L93.1416 4.41865L95.9945 3.15625V7.57466Z" fill="url(#paint6_linear_547_93)"/>
<path d="M88.9759 9.94142C90.1061 10.4061 91.2272 10.9058 92.3301 11.4318C94.0072 12.1769 95.6478 12.9572 97.3066 13.7374C98.3548 14.1933 99.3665 14.693 100.415 15.1225C100.415 16.2096 100.415 18.6643 100.415 18.6643H103.24V13.8514C103.24 13.8514 100.506 12.5977 99.9225 12.3347C99.7402 12.2471 99.5488 12.1682 99.3665 12.0805C98.2363 11.572 97.1152 11.0548 95.985 10.5463C95.3196 10.2395 94.6543 9.93266 93.998 9.63459C93.7155 9.50309 93.4329 9.38035 93.1413 9.24885C92.9134 9.14365 92.6947 9.04722 92.4759 8.94202C91.3184 8.42479 90.1426 7.92508 88.985 7.40785V0L92.8861 1.77964L93.1504 1.8936V6.22435C94.071 6.58378 94.9733 7.00458 95.8665 7.41662C95.9212 7.43415 95.9577 7.46045 95.9941 7.47799V3.15601L99.9316 5.04961C99.9316 5.04961 99.9316 5.04961 99.886 9.11735C100.333 9.31022 103.204 10.5814 103.204 10.5814C103.204 9.08812 103.204 7.59476 103.204 6.10161L107.579 7.99522V12.5364C107.615 13.7549 107.579 14.9735 107.579 16.1833C107.579 17.9279 107.579 19.7075 107.579 21.4521C103.45 21.4521 99.3209 21.3995 95.192 21.4433C95.1191 21.4433 95.0462 21.4346 94.9915 21.4872C94.9551 21.5047 94.9186 21.5222 94.8913 21.5398C94.8913 20.9261 95.3288 16.8846 95.11 16.7444C94.4446 16.4288 93.4785 15.9115 92.8131 15.5959C91.6009 15.0173 90.4069 14.4387 89.222 13.8075C89.2129 13.7988 89.1947 13.7988 89.1764 13.7988C89.14 13.7812 89.1126 13.7637 89.0853 13.7549C89.0397 13.7199 88.9941 13.6936 88.9395 13.6585" fill="url(#paint7_linear_547_93)"/>
<path d="M100.98 28.9039C100.442 29.6403 99.8952 30.3679 99.248 31.0254C98.9017 31.3849 98.5644 31.7706 98.1999 32.1125C97.2793 32.9892 96.304 33.7869 95.2832 34.5321C95.5111 34.348 95.7298 34.1639 95.9395 33.971C97.5436 32.5596 99.0293 31.0167 100.451 29.4387C100.652 29.2107 100.852 28.9828 101.044 28.7461C101.071 28.8075 101.016 28.8601 100.98 28.9039Z" fill="url(#paint8_linear_547_93)"/>
<path d="M106.959 25.2918C106.877 25.6512 106.776 26.0194 106.676 26.3701C105.965 29.0177 104.789 31.4197 103.185 33.5939C100.004 37.9071 95.1736 41.3261 88.9392 43.9912L88.9119 43.5967C88.9028 43.5967 88.9028 43.6054 88.9028 43.6054C88.9028 43.5967 88.9028 43.5879 88.9028 43.5704C88.9028 43.5616 88.9028 43.5616 88.9028 43.5616C88.9028 43.5441 88.9028 43.5353 88.8937 43.5178V43.3775C88.8937 42.9918 88.8754 42.606 88.9028 42.229V40.3442L88.9483 38.4243C90.0239 37.872 90.9991 37.2759 92.02 36.6534C92.1931 36.5482 92.3663 36.443 92.5486 36.3291C93.1319 35.9959 93.7061 35.654 94.2348 35.2946C94.6085 35.0404 94.9731 34.7861 95.3377 34.5231C96.3676 33.778 97.3429 32.9802 98.2634 32.1035C98.628 31.7529 98.9561 31.3759 99.3116 31.0165C99.9587 30.359 100.506 29.6313 101.043 28.8949C101.08 28.8511 101.135 28.7985 101.107 28.7459C101.107 28.7459 101.107 28.7459 101.107 28.7371C101.071 28.6845 101.007 28.7021 100.952 28.7021C100.943 28.7021 100.943 28.7021 100.943 28.7021C99.8949 28.7021 98.8468 28.7021 97.8077 28.7021C97.6892 28.7021 97.5981 28.7371 97.5343 28.8248C96.8871 29.6489 96.1124 30.3502 95.3285 31.0428C94.3533 31.9019 93.2869 32.6383 92.1931 33.3572C91.1541 34.041 90.0786 34.6809 89.0213 35.3384C89.0122 35.3297 88.9693 35.3788 88.9602 35.3701C88.9602 33.757 88.6859 32.1035 88.6859 30.4905L88.6768 30.3239C88.6859 30.2888 88.695 30.2625 88.7041 30.2362C88.7132 30.2187 88.7132 30.2012 88.7223 30.1836C88.7588 30.1223 88.7861 30.0784 88.8135 30.0346C89.3695 29.719 90.2517 29.4122 90.7986 29.0878C91.4549 28.7021 92.1202 28.3076 92.6944 27.8079C93.1502 27.4046 93.615 27.0013 94.0252 26.5542C94.1801 26.3876 94.1234 26.5916 93.2119 26.4075C93.3031 26.2234 93.376 26.0305 93.4306 25.8377C93.4489 25.7588 93.4762 25.6799 93.4853 25.5922L94.8658 25.2217H94.9639L102.329 25.2392H102.411L106.959 25.2918Z" fill="url(#paint9_linear_547_93)"/>
<path d="M92.0205 36.6535C90.9905 37.2759 89.9606 37.8983 88.8942 38.4506V40.353L88.8213 38.2928C90.0244 37.6529 91.3187 37.0217 92.54 36.3291C92.376 36.4431 92.1937 36.5483 92.0205 36.6535Z" fill="url(#paint10_linear_547_93)"/>
<path d="M88.958 38.4591C87.8825 37.9068 86.8525 37.2757 85.8226 36.6533C84.5374 35.8731 83.2887 35.0402 82.0947 34.1197C81.2744 33.4885 80.4632 32.8485 79.7432 32.0946C79.725 32.0771 79.7067 32.0595 79.6976 32.042C79.6794 32.0245 79.6612 32.0157 79.652 31.9982C79.6338 31.9806 79.6156 31.9631 79.6065 31.9543C79.5882 31.9368 79.57 31.9193 79.5609 31.9105C79.5427 31.893 79.5244 31.8754 79.5153 31.8667C79.4971 31.8491 79.4789 31.8316 79.4606 31.8228C79.333 31.7176 79.2054 31.6037 79.0961 31.4722C77.1729 29.561 75.8786 27.3343 75.35 24.7043C75.1495 23.6961 75.0127 22.688 74.9307 21.6623C74.8851 21.0661 74.8578 20.47 74.8396 19.8651C74.8031 18.629 74.7758 17.3929 74.8031 16.1568C74.8213 15.3765 74.8396 14.5875 74.8396 13.8073V13.6846L77.975 15.3152C77.8838 15.4028 77.8474 15.5168 77.8474 15.6746C77.8565 16.2532 77.8291 16.8318 77.8291 17.4016C77.8109 19.2251 77.7653 21.0486 77.9841 22.8633C78.0935 23.74 78.2849 24.5903 78.5401 25.4319C78.9138 26.6768 79.5791 27.7639 80.4359 28.7545C80.5362 28.8948 80.6364 29.035 80.7367 29.1753C80.7731 29.2104 80.8096 29.2367 80.8369 29.263C81.8122 30.3237 82.9242 31.253 84.1091 32.1034C85.1208 32.831 88.958 35.3628 88.958 35.3628C88.958 35.3628 88.9863 37.0624 88.9954 37.9917" fill="url(#paint11_linear_547_93)"/>
<path d="M88.9759 7.41686V9.95043C88.9759 9.95043 87.2714 10.7745 86.5423 11.1252C84.9655 11.8966 83.3978 12.6418 81.8209 13.4308C81.0189 13.8341 80.1986 14.2023 79.3874 14.6055C78.9863 14.8072 78.5762 15.0088 78.166 15.2104C78.084 15.2455 78.0202 15.2893 77.9837 15.3332L74.8574 13.6938C74.8757 13.65 74.9303 13.6324 74.9941 13.6061C75.5319 13.3782 76.0605 13.1415 76.5983 12.9048C77.4004 12.5454 78.1933 12.1772 78.9954 11.809C81.4017 10.7044 83.8079 9.591 86.2233 8.4864C87.1074 8.08313 87.9824 7.67986 88.9121 7.36426C88.903 7.37302 88.9667 7.41686 88.9759 7.41686Z" fill="url(#paint12_linear_547_93)"/>
<path d="M75.7582 34.1289C75.7496 34.1376 75.7496 34.1463 75.741 34.1636L75.7324 34.1463C75.741 34.1376 75.7496 34.1289 75.7582 34.1289Z" fill="#006B44"/>
<path d="M74.8672 13.7023C74.8398 15.7011 74.7943 17.8753 74.8581 19.8741C74.8763 20.3738 74.8945 20.8822 74.931 21.3819C74.9401 21.4784 74.9401 21.5748 74.9492 21.6713C75.0221 22.697 75.1588 23.7139 75.3685 24.7133C75.7513 26.6157 76.5351 28.3076 77.6745 29.8243C78.1028 30.3941 78.5859 30.9464 79.1146 31.4724C79.2148 31.6039 79.3424 31.7179 79.4791 31.8231C79.4974 31.8406 79.5156 31.8494 79.5338 31.8669C79.5521 31.8844 79.5703 31.902 79.5794 31.9107C79.5976 31.9195 79.6159 31.937 79.625 31.9546C79.6432 31.9721 79.6523 31.9896 79.6705 31.9984C79.6888 32.0159 79.6979 32.0335 79.7161 32.0422C79.7343 32.0598 79.7526 32.0773 79.7617 32.0948C80.4817 32.84 81.2929 33.48 82.1132 34.1199C83.2981 35.0317 84.5468 35.8645 85.8411 36.6448C86.871 37.2672 87.901 37.8896 88.9674 38.4419C88.9674 40.3005 88.9491 42.1415 88.9491 44C79.5429 40.0024 73.2904 34.2514 71.1849 26.379C71.0117 25.7828 70.8659 25.1867 70.7474 24.5643C70.6836 24.2136 70.6198 23.8717 70.5742 23.521C70.474 22.7145 70.4102 21.8992 70.3919 21.0839V19.6637C70.3919 18.4626 70.3828 17.2528 70.3828 16.043V15.105C70.3919 15.105 70.3919 15.105 70.401 15.1138C70.3919 14.2634 70.3828 13.4218 70.4102 12.5714V8.02152L74.7851 6.12791C74.7851 7.59195 74.7943 9.12612 74.7943 10.6428C74.7943 10.6428 77.5833 9.37159 78.0299 9.17872C78.0299 9.17872 78.0664 6.39968 78.0664 5.08468L82.0039 3.19107V7.51305C82.0403 7.49552 82.0768 7.47798 82.1315 7.45168C83.0247 7.03965 83.927 6.61885 84.8476 6.25942V1.8936L85.1119 1.77964L89.0038 0V7.40785C87.8463 7.92509 86.6887 8.43355 85.5221 8.95079C85.2942 9.04722 85.0755 9.15242 84.8567 9.25762C84.5742 9.38036 84.2916 9.51186 84 9.64336C83.3346 9.94142 82.6783 10.2483 82.013 10.5551C80.8828 11.0723 79.7617 11.5896 78.6315 12.0893C78.4492 12.1769 78.2578 12.2558 78.0755 12.3435C77.4648 12.6065 74.8672 13.7023 74.8672 13.7023Z" fill="url(#paint13_linear_547_93)"/>
<path d="M75.7965 34.2076L75.7607 34.1725C75.7965 34.155 75.8144 34.1638 75.7965 34.2076Z" fill="#006B44"/>
<path d="M79.5693 31.9199C79.5872 31.9375 79.6051 31.955 79.614 31.9638C79.5962 31.9462 79.5872 31.9287 79.5693 31.9199Z" fill="#004233"/>
<path d="M79.6162 31.9629C79.6341 31.9804 79.652 31.998 79.6609 32.0067C79.643 31.9892 79.6341 31.9804 79.6162 31.9629Z" fill="#004233"/>
<path d="M79.6621 32.0068C79.68 32.0244 79.6979 32.0419 79.7068 32.0507C79.6889 32.0331 79.671 32.0244 79.6621 32.0068Z" fill="#004233"/>
<path d="M88.9857 13.6409C88.9857 13.6409 84.948 15.631 82.9884 16.5865C82.8517 16.6567 82.8061 16.7268 82.8061 16.8758C82.7787 18.7256 82.7605 20.5666 82.7878 22.4076C82.797 23.1791 82.8517 23.9418 83.0522 24.6957C83.1433 25.0201 83.2618 25.3269 83.4532 25.6162C83.4988 25.6776 83.5352 25.739 83.5261 25.8179C83.7631 26.0107 83.9272 26.2737 84.155 26.4841C84.2188 26.5455 84.2826 26.6069 84.3464 26.677C84.4194 26.7471 84.4923 26.826 84.5652 26.8962C84.6381 26.9838 84.711 27.0627 84.8022 27.1153C84.8204 27.1329 84.8386 27.1504 84.8477 27.1679C84.8568 27.1767 84.8751 27.1855 84.8842 27.203C84.9024 27.2205 84.9207 27.2381 84.9389 27.2556C85.4675 27.7816 86.0691 28.2199 86.6889 28.6407C87.3725 29.1054 88.0652 29.5525 88.7579 29.9996C88.8581 30.0697 89.0222 30.1661 88.9949 30.2976C88.9949 31.9896 88.9589 33.678 88.9589 35.3699C87.3001 34.3793 85.6772 33.252 84.1186 32.1299C81.7123 30.3941 79.4337 28.2988 78.5587 25.4584C78.3035 24.6168 78.1121 23.7664 78.0027 22.8898C77.784 21.0663 77.8295 19.2428 77.8478 17.4281V15.2452C79.06 14.6579 80.6004 14.0004 81.8126 13.4042C83.3894 12.624 84.9753 11.8525 86.5613 11.0723C87.2996 10.7129 88.2475 10.2921 88.9949 9.93262C88.9766 9.94138 88.9766 13.0711 88.9857 13.6409Z" fill="url(#paint14_linear_547_93)"/>
<path d="M88.958 38.4331C88.958 37.3987 88.9671 36.3817 88.958 35.3473C90.0062 34.6985 91.0635 34.041 92.1025 33.366C93.1872 32.6471 94.2627 31.9107 95.2379 31.0516C95.7392 30.6133 97.6259 28.7109 97.6259 28.7109C98.0543 28.7109 101.217 28.6934 101.217 28.6934C99.1845 31.7968 96.9241 33.515 94.1806 35.3736C92.5218 36.4957 90.7353 37.4951 88.958 38.4331Z" fill="url(#paint15_linear_547_93)"/>
<path d="M100.415 15.1139C101.336 14.7194 102.339 14.2723 103.241 13.834V18.6644C102.293 18.6644 101.354 18.6644 100.406 18.6644C100.415 17.5774 100.415 16.201 100.415 15.1139Z" fill="#0B1826"/>
<path d="M103.241 13.843C102.338 14.2813 101.336 14.7284 100.415 15.1229C99.677 14.8248 98.957 14.4829 98.2369 14.1498C98.0729 14.0797 97.9088 14.0008 97.7356 13.9219C94.819 12.5893 91.9114 11.2217 88.9766 9.94177V7.4082C90.1615 7.9342 91.2917 8.42514 92.4766 8.95114C92.987 9.17907 93.4974 9.40701 93.9987 9.64371C95.2474 10.2135 96.4961 10.7834 97.7356 11.3444C98.2734 11.5899 98.8203 11.8354 99.3672 12.0896C100.342 12.5279 101.327 12.9487 102.293 13.4046C102.493 13.5098 103.241 13.843 103.241 13.843Z" fill="url(#paint16_linear_547_93)"/>
<path d="M87.6816 27.0359C86.0228 26.1593 84.9837 24.5024 84.9837 22.7052L85.0384 17.9624L82.7598 16.6299V23.2137C82.7598 26.9921 86.1868 28.6753 88.9941 30.5689L89.0019 27.7338L87.6816 27.0359Z" fill="url(#paint17_linear_547_93)"/>
<path d="M88.9759 13.6328V16.0086L85.0384 17.9548L82.7598 16.6223L88.9759 13.6328Z" fill="url(#paint18_linear_547_93)"/>
<path d="M94.8714 25.2207C93.9144 27.8419 91.21 29.0613 88.9951 30.5604V27.7288C90.2347 27.0713 91.5421 26.4305 92.2712 25.2119L94.8714 25.2207Z" fill="url(#paint19_linear_547_93)"/>
<path d="M95.2292 16.7441V21.4606L92.9961 23.4682V17.9802L95.2292 16.7441Z" fill="url(#paint20_linear_547_93)"/>
<path d="M95.2291 16.7099V16.745L92.9961 17.9811L92.7135 17.8408L91.7292 17.3587L88.9766 16.0086V13.6328L92.7135 15.465L94.1445 16.1752L95.2291 16.7099Z" fill="url(#paint21_linear_547_93)"/>
<path d="M63.322 25.3271V41.2036H60.5795L54.659 30.2102V41.2036H51.9443V25.3271H54.6498L60.6166 36.3995V25.3271H63.322Z" fill="url(#paint22_linear_547_93)"/>
<path d="M48.85 27.7818C48.4331 27.0191 47.8308 26.4142 47.0525 25.9846C46.2743 25.5463 45.3292 25.3271 44.2174 25.3271H38.6768V41.2036H41.4749V35.3124H44.2174C45.3292 35.3124 46.2743 35.1195 47.0525 34.725C47.8401 34.3218 48.4331 33.7607 48.85 33.0243C49.2669 32.2879 49.4708 31.4112 49.4708 30.3855C49.4708 29.4124 49.2669 28.5358 48.85 27.7818ZM46.3947 31.797C46.2372 32.2002 45.9778 32.5246 45.6257 32.7613C45.2736 32.998 44.8011 33.112 44.2174 33.112H41.4749V27.5627H44.2174C44.8011 27.5627 45.2736 27.6942 45.6257 27.9659C45.9778 28.2377 46.2372 28.5884 46.3947 29.0267C46.5615 29.465 46.6449 29.9297 46.6449 30.4206C46.6449 30.9291 46.5615 31.3937 46.3947 31.797Z" fill="url(#paint23_linear_547_93)"/>
<path d="M36.749 25.3271L31.7365 41.2036H29.0125L24 25.3271H27.0205L30.356 37.4865L33.7192 25.3271H36.749Z" fill="url(#paint24_linear_547_93)"/>
<path d="M63.3832 5.60156H60.6963V21.478H63.3832V5.60156Z" fill="white"/>
<path d="M58.3798 15.1047C58.3798 14.193 58.2872 13.3777 58.1019 12.6764C57.9258 11.975 57.6479 11.3789 57.268 10.8967C56.8974 10.4146 56.4249 10.0551 55.8504 9.81842C55.276 9.58172 54.5903 9.45898 53.8121 9.45898C53.1172 9.45898 52.4779 9.57295 51.8849 9.80089C51.3012 10.0288 50.7916 10.3707 50.3654 10.8354C49.9392 11.3 49.5964 11.8961 49.3555 12.6238C49.1146 13.3426 48.9941 14.2018 48.9941 15.2012V16.3321C48.9941 17.2087 49.1053 17.989 49.337 18.6552C49.5686 19.3127 49.9021 19.8738 50.3376 20.3384C50.7731 20.7855 51.3105 21.1274 51.9405 21.3641C52.5705 21.5921 53.2932 21.706 54.0993 21.706C54.8127 21.706 55.4335 21.6184 55.9709 21.443C56.5083 21.2677 56.9622 21.0485 57.3421 20.7768C57.722 20.505 58.0185 20.2245 58.2409 19.9352L57.0549 18.3747C56.7214 18.7341 56.3322 19.0234 55.8782 19.2514C55.4335 19.4705 54.8961 19.5757 54.2753 19.5757C53.8491 19.5757 53.4785 19.5144 53.1542 19.4004C52.8392 19.2777 52.5705 19.0848 52.3482 18.8306C52.1258 18.5676 51.959 18.2344 51.8386 17.8312C51.7367 17.4367 51.6811 16.9545 51.6811 16.3934H58.3798V15.1047ZM55.73 14.4648H51.7089C51.7274 14.0966 51.7737 13.7722 51.8293 13.4917C51.922 13.027 52.0517 12.6588 52.2184 12.3783C52.3945 12.1065 52.6168 11.9049 52.8855 11.7822C53.1542 11.6594 53.46 11.5981 53.8028 11.5981C54.2753 11.5981 54.6552 11.7033 54.9239 11.9137C55.2019 12.1153 55.3964 12.4134 55.5261 12.8079C55.6466 13.1936 55.7207 13.6582 55.73 14.193V14.4648Z" fill="white"/>
<path d="M43.898 5.60156V10.7388C43.62 10.3706 43.2957 10.0813 42.9159 9.86217C42.4619 9.5904 41.9245 9.4589 41.3037 9.4589C40.6644 9.4589 40.09 9.57287 39.5896 9.80081C39.0801 10.0287 38.6446 10.3794 38.2833 10.844C37.9312 11.3174 37.6625 11.9048 37.4772 12.6237C37.2919 13.325 37.1992 14.1666 37.1992 15.131V16.0602C37.1992 16.9895 37.2919 17.8048 37.4772 18.5149C37.6625 19.2162 37.9312 19.7948 38.2833 20.2682C38.6446 20.7416 39.0708 21.1011 39.5711 21.3378C40.0807 21.5745 40.6552 21.6972 41.2852 21.6972C41.8967 21.6972 42.4341 21.5657 42.8881 21.3027C43.3328 21.0397 43.7034 20.689 44.0184 20.2332L44.1482 21.4868L46.5756 21.478V5.60156H43.898ZM43.898 18.3746C43.7312 18.699 43.5181 18.962 43.2402 19.1636C42.9344 19.4003 42.536 19.5143 42.0449 19.5143C41.6558 19.5143 41.3223 19.4529 41.0443 19.3214C40.7663 19.1812 40.544 18.9795 40.3772 18.699C40.2104 18.4185 40.0807 18.059 40.0066 17.6207C39.9325 17.1824 39.8954 16.6651 39.8954 16.0602V15.131C39.8954 14.526 39.9325 14.0088 40.0066 13.5705C40.09 13.1234 40.2197 12.7639 40.3865 12.4834C40.5532 12.1941 40.7756 11.9749 41.0536 11.8434C41.3315 11.6944 41.6651 11.6243 42.0542 11.6243C42.4063 11.6243 42.712 11.6944 42.9715 11.8434C43.2402 11.9837 43.4718 12.1766 43.6478 12.422C43.7405 12.5448 43.8146 12.6675 43.8887 12.8078V18.3746H43.898Z" fill="white"/>
<path d="M34.9762 20.1982C34.9114 19.7686 34.8743 19.2777 34.8743 18.7341V13.2287C34.8743 12.3257 34.6983 11.5981 34.3369 11.0458C33.9849 10.4847 33.4938 10.0814 32.873 9.83595C32.2523 9.58172 31.5388 9.45898 30.742 9.45898C30.0749 9.45898 29.4634 9.55542 28.9168 9.75705C28.3701 9.94992 27.9069 10.2217 27.5177 10.5636C27.1378 10.9055 26.8414 11.2912 26.6283 11.7296C26.4244 12.1679 26.3318 12.6238 26.3318 13.0972H29.0187C29.0187 12.7903 29.0835 12.5186 29.204 12.2906C29.3244 12.0539 29.5097 11.8611 29.7506 11.7208C30.0008 11.5805 30.2973 11.5104 30.6494 11.5104C30.9829 11.5104 31.2701 11.5718 31.4925 11.6857C31.7241 11.7909 31.9002 11.975 32.0114 12.2205C32.1318 12.466 32.1967 12.7991 32.1967 13.2024V14.2894H31.0663C30.2324 14.2894 29.5097 14.3859 28.889 14.57C28.2775 14.7628 27.7586 15.0258 27.3602 15.3765C26.9525 15.7184 26.6468 16.1304 26.443 16.6126C26.2391 17.0948 26.1279 17.6295 26.1279 18.2169C26.1279 18.9445 26.2854 19.567 26.5912 20.093C26.9062 20.6102 27.3324 21.0047 27.8791 21.2852C28.4257 21.5658 29.0465 21.6973 29.7506 21.6973C30.2324 21.6973 30.6586 21.6096 31.0292 21.443C31.3999 21.2677 31.7149 21.0398 31.9743 20.768C32.0947 20.6453 32.1967 20.5138 32.2986 20.3823C32.3634 20.8294 32.4561 21.1888 32.5765 21.4693H35.3098V21.294C35.1523 20.9872 35.0504 20.6277 34.9762 20.1982ZM31.3813 19.3215C31.0663 19.4968 30.6957 19.5845 30.2602 19.5845C29.9452 19.5845 29.6765 19.5319 29.4542 19.4179C29.2411 19.304 29.0743 19.1286 28.9631 18.8919C28.8519 18.6552 28.8056 18.3572 28.8056 17.989C28.8056 17.6821 28.8612 17.4016 28.9631 17.1474C29.0743 16.8931 29.241 16.674 29.4449 16.5074C29.658 16.3233 29.9174 16.1918 30.2324 16.0954C30.5382 15.9902 30.881 15.9463 31.2701 15.9463H32.1967V18.5676C32.1781 18.6026 32.1503 18.6377 32.1318 18.6728C31.9465 18.9182 31.7056 19.1374 31.3813 19.3215Z" fill="white"/>
<path d="M24.3484 19.3829V21.4343C24.1446 21.5044 23.9222 21.5658 23.6535 21.6184C23.3941 21.671 23.0791 21.6973 22.7085 21.6973C22.1618 21.6973 21.6708 21.5921 21.2445 21.3817C20.8183 21.1625 20.4755 20.8119 20.2346 20.3209C19.9845 19.83 19.864 19.1725 19.864 18.3572V11.6419H18.1963V9.67816H19.864V6.78516H22.5417V9.67816H24.3206V11.6419H22.5417V18.1818C22.5417 18.5413 22.588 18.8218 22.6714 19.0147C22.7548 19.2076 22.8752 19.3303 23.0327 19.4004C23.1903 19.4706 23.3663 19.4969 23.5701 19.4969C23.7276 19.4969 23.8759 19.4881 24.0241 19.4618C24.1631 19.4267 24.2835 19.4092 24.3484 19.3829Z" fill="white"/>
<path d="M16.4086 9.67871H13.7217V21.4787H16.4086V9.67871Z" fill="white"/>
<path d="M13.583 7.10966C13.583 6.70639 13.7127 6.36449 13.9721 6.09272C14.2316 5.82095 14.6022 5.68945 15.0654 5.68945C15.538 5.68945 15.8993 5.82095 16.1587 6.09272C16.4182 6.36449 16.5479 6.69762 16.5479 7.10966C16.5479 7.51292 16.4182 7.84606 16.1587 8.10906C15.8993 8.38083 15.5287 8.51233 15.0654 8.51233C14.5929 8.51233 14.2316 8.38083 13.9721 8.10906C13.7127 7.84606 13.583 7.50416 13.583 7.10966Z" fill="white"/>
<path d="M8.52402 16.2973H11.3129C11.2573 17.4457 11.0164 18.4276 10.5716 19.2341C10.1362 20.0319 9.50614 20.6456 8.68153 21.0664C7.86619 21.4872 6.87481 21.6976 5.69812 21.6976C4.80866 21.6976 4.01185 21.5485 3.29843 21.2417C2.60354 20.9349 2.00129 20.4965 1.51023 19.9179C1.01918 19.3393 0.639305 18.6292 0.379878 17.7876C0.129717 16.9548 0 15.9992 0 14.9385V12.1244C0 11.0636 0.129714 10.1168 0.389141 9.27518C0.657833 8.44234 1.03771 7.73224 1.53803 7.14487C2.03836 6.56627 2.64059 6.11917 3.36328 5.8211C4.08597 5.51427 4.90131 5.36523 5.80931 5.36523C6.96746 5.36523 7.94957 5.57563 8.73712 5.99644C9.52466 6.41724 10.1362 7.03967 10.5716 7.84621C10.9978 8.66151 11.248 9.65214 11.3221 10.8269H8.53329C8.49623 10.0379 8.37578 9.39791 8.19047 8.93327C8.00517 8.45111 7.71795 8.10921 7.33807 7.89881C6.9582 7.68841 6.45787 7.5832 5.81857 7.5832C5.29045 7.5832 4.82719 7.67964 4.44731 7.86374C4.06744 8.05661 3.76169 8.33714 3.51153 8.71411C3.27063 9.08231 3.09459 9.55571 2.97414 10.1168C2.86296 10.6778 2.7981 11.3353 2.7981 12.0893V14.9209C2.7981 15.6486 2.84443 16.2885 2.94634 16.8496C3.04826 17.4107 3.20577 17.8841 3.42814 18.2786C3.6505 18.6643 3.947 18.9624 4.3176 19.164C4.68821 19.3569 5.15147 19.4621 5.69812 19.4621C6.35595 19.4621 6.88407 19.3656 7.27321 19.164C7.67162 18.9711 7.96811 18.638 8.16268 18.1734C8.35725 17.7263 8.47769 17.0951 8.52402 16.2973Z" fill="white"/>
<defs>
<linearGradient id="paint0_linear_547_93" x1="86.6502" y1="12.9798" x2="72.7231" y2="31.3208" gradientUnits="userSpaceOnUse">
<stop/>
<stop offset="0.1041" stop-color="#0E321E"/>
<stop offset="0.2136" stop-color="#1A5F39"/>
<stop offset="0.328" stop-color="#258550"/>
<stop offset="0.4456" stop-color="#2EA563"/>
<stop offset="0.5675" stop-color="#34BD71"/>
<stop offset="0.6955" stop-color="#39CE7C"/>
<stop offset="0.8335" stop-color="#3CD982"/>
<stop offset="1" stop-color="#3DDC84"/>
</linearGradient>
<linearGradient id="paint1_linear_547_93" x1="88.9931" y1="29.8179" x2="107.44" y2="29.8179" gradientUnits="userSpaceOnUse">
<stop offset="0.052" stop-color="#3BD680"/>
<stop offset="0.099" stop-color="#3BD580"/>
<stop offset="0.433" stop-color="#31B46B"/>
<stop offset="0.4885" stop-color="#31B46B"/>
<stop offset="0.637" stop-color="#31B56C"/>
<stop offset="1" stop-color="#3DDC84"/>
</linearGradient>
<linearGradient id="paint2_linear_547_93" x1="72.6657" y1="1.18801" x2="82.4513" y2="22.1342" gradientUnits="userSpaceOnUse">
<stop offset="0.002" stop-color="#0D1B2A"/>
<stop offset="0.0544416" stop-color="#133235"/>
<stop offset="0.1701" stop-color="#1E5F4A"/>
<stop offset="0.2908" stop-color="#27855C"/>
<stop offset="0.4149" stop-color="#2FA56A"/>
<stop offset="0.5436" stop-color="#35BD76"/>
<stop offset="0.6786" stop-color="#3ACE7E"/>
<stop offset="0.8243" stop-color="#3CD982"/>
<stop offset="1" stop-color="#3DDC84"/>
</linearGradient>
<linearGradient id="paint3_linear_547_93" x1="79.3769" y1="-1.94723" x2="89.1625" y2="18.9989" gradientUnits="userSpaceOnUse">
<stop offset="0.002" stop-color="#0D1B2A"/>
<stop offset="0.0544416" stop-color="#133235"/>
<stop offset="0.1701" stop-color="#1E5F4A"/>
<stop offset="0.2908" stop-color="#27855C"/>
<stop offset="0.4149" stop-color="#2FA56A"/>
<stop offset="0.5436" stop-color="#35BD76"/>
<stop offset="0.6786" stop-color="#3ACE7E"/>
<stop offset="0.8243" stop-color="#3CD982"/>
<stop offset="1" stop-color="#3DDC84"/>
</linearGradient>
<linearGradient id="paint4_linear_547_93" x1="97.2004" y1="26.2138" x2="109.568" y2="13.3559" gradientUnits="userSpaceOnUse">
<stop offset="0.2398" stop-color="#0D1B2A"/>
<stop offset="0.8085" stop-color="#35BD76"/>
<stop offset="0.8432" stop-color="#1E5F4A"/>
<stop offset="1" stop-color="#3DDC84"/>
</linearGradient>
<linearGradient id="paint5_linear_547_93" x1="103.851" y1="7.17116" x2="95.8292" y2="13.4532" gradientUnits="userSpaceOnUse">
<stop offset="0.002" stop-color="#0D1B2A"/>
<stop offset="0.1701" stop-color="#1E5F4A"/>
<stop offset="0.2908" stop-color="#27855C"/>
<stop offset="0.4149" stop-color="#2FA56A"/>
<stop offset="0.5436" stop-color="#35BD76"/>
<stop offset="0.6786" stop-color="#3ACE7E"/>
<stop offset="0.8243" stop-color="#3CD982"/>
<stop offset="1" stop-color="#3DDC84"/>
</linearGradient>
<linearGradient id="paint6_linear_547_93" x1="96.2922" y1="3.57613" x2="90.0925" y2="12.9804" gradientUnits="userSpaceOnUse">
<stop offset="0.002" stop-color="#0D1B2A"/>
<stop offset="0.1701" stop-color="#1E5F4A"/>
<stop offset="0.2908" stop-color="#27855C"/>
<stop offset="0.4149" stop-color="#2FA56A"/>
<stop offset="0.5436" stop-color="#35BD76"/>
<stop offset="0.6786" stop-color="#3ACE7E"/>
<stop offset="0.8243" stop-color="#3CD982"/>
<stop offset="1" stop-color="#3DDC84"/>
</linearGradient>
<linearGradient id="paint7_linear_547_93" x1="105.523" y1="-0.0860268" x2="82.1942" y2="37.5609" gradientUnits="userSpaceOnUse">
<stop offset="0.002" stop-color="#0D1B2A"/>
<stop offset="0.1514" stop-color="#1E5F4A"/>
<stop offset="0.507" stop-color="#27855C"/>
<stop offset="0.8085" stop-color="#35BD76"/>
<stop offset="1" stop-color="#3DDC84"/>
</linearGradient>
<linearGradient id="paint8_linear_547_93" x1="90.7447" y1="30.1194" x2="102.734" y2="32.7823" gradientUnits="userSpaceOnUse">
<stop offset="0.002" stop-color="#0D1B2A"/>
<stop offset="0.0544416" stop-color="#133235"/>
<stop offset="0.1701" stop-color="#1E5F4A"/>
<stop offset="0.2908" stop-color="#27855C"/>
<stop offset="0.4149" stop-color="#2FA56A"/>
<stop offset="0.5436" stop-color="#35BD76"/>
<stop offset="0.6786" stop-color="#3ACE7E"/>
<stop offset="0.8243" stop-color="#3CD982"/>
<stop offset="1" stop-color="#3DDC84"/>
</linearGradient>
<linearGradient id="paint9_linear_547_93" x1="93.427" y1="44.0845" x2="100.193" y2="17.9469" gradientUnits="userSpaceOnUse">
<stop offset="0.002" stop-color="#0D1B2A"/>
<stop offset="0.3405" stop-color="#1E5F4A"/>
<stop offset="0.507" stop-color="#27855C"/>
<stop offset="0.8085" stop-color="#35BD76"/>
<stop offset="1" stop-color="#3DDC84"/>
</linearGradient>
<linearGradient id="paint10_linear_547_93" x1="88.8287" y1="38.3386" x2="92.5474" y2="38.3386" gradientUnits="userSpaceOnUse">
<stop offset="0.052" stop-color="#3BD680"/>
<stop offset="0.099" stop-color="#3BD580"/>
<stop offset="0.433" stop-color="#31B46B"/>
<stop offset="0.4885" stop-color="#31B46B"/>
<stop offset="0.637" stop-color="#31B56C"/>
<stop offset="1" stop-color="#3DDC84"/>
</linearGradient>
<linearGradient id="paint11_linear_547_93" x1="78.2194" y1="23.1465" x2="90.5388" y2="48.2835" gradientUnits="userSpaceOnUse">
<stop offset="0.1047" stop-color="#0D1B2A"/>
<stop offset="0.2246" stop-color="#0E1F2C"/>
<stop offset="0.3343" stop-color="#112A31"/>
<stop offset="0.4401" stop-color="#153C3A"/>
<stop offset="0.5436" stop-color="#1C5746"/>
<stop offset="0.6453" stop-color="#247856"/>
<stop offset="0.8432" stop-color="#3AD27F"/>
<stop offset="0.8622" stop-color="#3DDC84"/>
<stop offset="0.8706" stop-color="#3DDC84"/>
<stop offset="0.9676" stop-color="#3DDC84"/>
</linearGradient>
<linearGradient id="paint12_linear_547_93" x1="81.9222" y1="11.7917" x2="80.688" y2="20.8415" gradientUnits="userSpaceOnUse">
<stop offset="0.1047" stop-color="#0D1B2A"/>
<stop offset="0.2246" stop-color="#0E1F2C"/>
<stop offset="0.3343" stop-color="#112A31"/>
<stop offset="0.4401" stop-color="#153C3A"/>
<stop offset="0.5436" stop-color="#1C5746"/>
<stop offset="0.6453" stop-color="#247856"/>
<stop offset="0.7457" stop-color="#2EA269"/>
<stop offset="0.8432" stop-color="#3AD27F"/>
<stop offset="0.8622" stop-color="#3DDC84"/>
<stop offset="0.8706" stop-color="#3DDC84"/>
<stop offset="0.9676" stop-color="#3DDC84"/>
</linearGradient>
<linearGradient id="paint13_linear_547_93" x1="76.7553" y1="44.8998" x2="83.3322" y2="-1.28345" gradientUnits="userSpaceOnUse">
<stop offset="0.002" stop-color="#0D1B2A"/>
<stop offset="0.0544416" stop-color="#133235"/>
<stop offset="0.1701" stop-color="#1E5F4A"/>
<stop offset="0.2908" stop-color="#27855C"/>
<stop offset="0.4149" stop-color="#2FA56A"/>
<stop offset="0.5436" stop-color="#35BD76"/>
<stop offset="0.6786" stop-color="#3ACE7E"/>
<stop offset="0.8243" stop-color="#3CD982"/>
<stop offset="1" stop-color="#3DDC84"/>
</linearGradient>
<linearGradient id="paint14_linear_547_93" x1="79.4743" y1="33.8318" x2="88.4942" y2="12.634" gradientUnits="userSpaceOnUse">
<stop offset="0.002" stop-color="#0D1B2A"/>
<stop offset="0.0544416" stop-color="#133235"/>
<stop offset="0.1701" stop-color="#1E5F4A"/>
<stop offset="0.2908" stop-color="#27855C"/>
<stop offset="0.4149" stop-color="#2FA56A"/>
<stop offset="0.5436" stop-color="#35BD76"/>
<stop offset="0.6786" stop-color="#3ACE7E"/>
<stop offset="0.8243" stop-color="#3CD982"/>
<stop offset="1" stop-color="#3DDC84"/>
</linearGradient>
<linearGradient id="paint15_linear_547_93" x1="96.3472" y1="29.554" x2="86.2771" y2="50.904" gradientUnits="userSpaceOnUse">
<stop offset="0.0074054" stop-color="#0D1B2A"/>
<stop offset="0.1514" stop-color="#1E5F4A"/>
<stop offset="0.507" stop-color="#27855C"/>
<stop offset="0.8085" stop-color="#35BD76"/>
<stop offset="1" stop-color="#3DDC84"/>
</linearGradient>
<linearGradient id="paint16_linear_547_93" x1="96.1143" y1="11.6944" x2="94.9677" y2="20.4686" gradientUnits="userSpaceOnUse">
<stop offset="0.1047" stop-color="#0D1B2A"/>
<stop offset="0.2246" stop-color="#0E1F2C"/>
<stop offset="0.3343" stop-color="#112A31"/>
<stop offset="0.4401" stop-color="#153C3A"/>
<stop offset="0.5436" stop-color="#1C5746"/>
<stop offset="0.6453" stop-color="#247856"/>
<stop offset="0.7457" stop-color="#2EA269"/>
<stop offset="0.8432" stop-color="#3AD27F"/>
<stop offset="0.8622" stop-color="#3DDC84"/>
<stop offset="0.8706" stop-color="#3DDC84"/>
<stop offset="0.9676" stop-color="#3DDC84"/>
</linearGradient>
<linearGradient id="paint17_linear_547_93" x1="84.0703" y1="21.919" x2="101.672" y2="40.8697" gradientUnits="userSpaceOnUse">
<stop offset="0.0648649" stop-color="#0D1B2A"/>
<stop offset="0.2079" stop-color="#1E5F4A"/>
<stop offset="0.2908" stop-color="#27855C"/>
<stop offset="0.4149" stop-color="#2FA56A"/>
<stop offset="0.5436" stop-color="#35BD76"/>
<stop offset="0.6786" stop-color="#3ACE7E"/>
<stop offset="0.8108" stop-color="#133235"/>
<stop offset="0.8243" stop-color="#3CD982"/>
<stop offset="1" stop-color="#3DDC84"/>
</linearGradient>
<linearGradient id="paint18_linear_547_93" x1="88.2454" y1="17.4691" x2="82.4554" y2="11.3094" gradientUnits="userSpaceOnUse">
<stop stop-color="#133235"/>
<stop offset="0.1047" stop-color="#0D1B2A"/>
<stop offset="0.2246" stop-color="#0E1F2C"/>
<stop offset="0.3343" stop-color="#112A31"/>
<stop offset="0.4401" stop-color="#153C3A"/>
<stop offset="0.5436" stop-color="#1C5746"/>
<stop offset="0.6453" stop-color="#247856"/>
<stop offset="0.7457" stop-color="#2EA269"/>
<stop offset="0.8432" stop-color="#3AD27F"/>
<stop offset="0.849" stop-color="#3DDC84"/>
<stop offset="0.8622" stop-color="#3DDC84"/>
<stop offset="0.9676" stop-color="#3DDC84"/>
</linearGradient>
<linearGradient id="paint19_linear_547_93" x1="90.9461" y1="25.055" x2="93.2987" y2="32.393" gradientUnits="userSpaceOnUse">
<stop offset="0.002" stop-color="#0D1B2A"/>
<stop offset="0.0544416" stop-color="#133235"/>
<stop offset="0.1701" stop-color="#1E5F4A"/>
<stop offset="0.2908" stop-color="#27855C"/>
<stop offset="0.4149" stop-color="#2FA56A"/>
<stop offset="0.5436" stop-color="#35BD76"/>
<stop offset="0.6786" stop-color="#3ACE7E"/>
<stop offset="0.8243" stop-color="#3CD982"/>
<stop offset="1" stop-color="#3DDC84"/>
</linearGradient>
<linearGradient id="paint20_linear_547_93" x1="89.1484" y1="23.5914" x2="100.036" y2="14.819" gradientUnits="userSpaceOnUse">
<stop stop-color="#133235"/>
<stop offset="0.1047" stop-color="#0D1B2A"/>
<stop offset="0.2246" stop-color="#0E1F2C"/>
<stop offset="0.3343" stop-color="#112A31"/>
<stop offset="0.4401" stop-color="#153C3A"/>
<stop offset="0.5436" stop-color="#1C5746"/>
<stop offset="0.6453" stop-color="#247856"/>
<stop offset="0.7457" stop-color="#2EA269"/>
<stop offset="0.8432" stop-color="#3AD27F"/>
<stop offset="0.849" stop-color="#3DDC84"/>
<stop offset="0.8622" stop-color="#3DDC84"/>
<stop offset="0.9676" stop-color="#3DDC84"/>
</linearGradient>
<linearGradient id="paint21_linear_547_93" x1="88.9916" y1="20.5111" x2="94.6719" y2="10.0045" gradientUnits="userSpaceOnUse">
<stop stop-color="#133235"/>
<stop offset="0.1047" stop-color="#0D1B2A"/>
<stop offset="0.2246" stop-color="#0E1F2C"/>
<stop offset="0.3343" stop-color="#112A31"/>
<stop offset="0.4401" stop-color="#153C3A"/>
<stop offset="0.5436" stop-color="#1C5746"/>
<stop offset="0.6453" stop-color="#247856"/>
<stop offset="0.7457" stop-color="#2EA269"/>
<stop offset="0.8432" stop-color="#3AD27F"/>
<stop offset="0.849" stop-color="#3DDC84"/>
<stop offset="0.8622" stop-color="#3DDC84"/>
<stop offset="0.9676" stop-color="#3DDC84"/>
</linearGradient>
<linearGradient id="paint22_linear_547_93" x1="59.9002" y1="17.7236" x2="54.9135" y2="55.967" gradientUnits="userSpaceOnUse">
<stop offset="0.002" stop-color="#0D1B2A"/>
<stop offset="0.0544416" stop-color="#133235"/>
<stop offset="0.1701" stop-color="#1E5F4A"/>
<stop offset="0.2908" stop-color="#27855C"/>
<stop offset="0.4149" stop-color="#2FA56A"/>
<stop offset="0.5436" stop-color="#35BD76"/>
<stop offset="0.6786" stop-color="#3ACE7E"/>
<stop offset="0.8243" stop-color="#3CD982"/>
<stop offset="1" stop-color="#3DDC84"/>
</linearGradient>
<linearGradient id="paint23_linear_547_93" x1="45.8504" y1="15.8915" x2="40.8637" y2="54.135" gradientUnits="userSpaceOnUse">
<stop offset="0.002" stop-color="#0D1B2A"/>
<stop offset="0.0544416" stop-color="#133235"/>
<stop offset="0.1701" stop-color="#1E5F4A"/>
<stop offset="0.2908" stop-color="#27855C"/>
<stop offset="0.4149" stop-color="#2FA56A"/>
<stop offset="0.5436" stop-color="#35BD76"/>
<stop offset="0.6786" stop-color="#3ACE7E"/>
<stop offset="0.8243" stop-color="#3CD982"/>
<stop offset="1" stop-color="#3DDC84"/>
</linearGradient>
<linearGradient id="paint24_linear_547_93" x1="32.0098" y1="14.0869" x2="27.0231" y2="52.3303" gradientUnits="userSpaceOnUse">
<stop offset="0.002" stop-color="#0D1B2A"/>
<stop offset="0.0544416" stop-color="#133235"/>
<stop offset="0.1701" stop-color="#1E5F4A"/>
<stop offset="0.2908" stop-color="#27855C"/>
<stop offset="0.4149" stop-color="#2FA56A"/>
<stop offset="0.5436" stop-color="#35BD76"/>
<stop offset="0.6786" stop-color="#3ACE7E"/>
<stop offset="0.8243" stop-color="#3CD982"/>
<stop offset="1" stop-color="#3DDC84"/>
</linearGradient>
</defs>
</svg>
