<svg width="39" height="46" viewBox="0 0 39 46" fill="none" xmlns="http://www.w3.org/2000/svg">
<path d="M7.58829 31.1806C6.40108 29.595 5.58428 27.8169 5.18537 25.8373C4.97643 24.7833 4.83396 23.7293 4.74848 22.6569C4.73899 22.5561 4.72949 22.4553 4.72949 22.3545C4.85296 22.3637 4.97643 22.3728 5.1094 22.382V22.6111C5.1094 25.6081 5.97369 28.5318 7.58829 31.1806Z" fill="url(#paint0_linear_292_1115)"/>
<path d="M19.5555 35.2672C19.6124 35.4138 19.6504 35.5696 19.6599 35.7346C19.7549 35.5146 19.8689 35.3038 20.0113 35.093C20.6097 34.259 21.5595 33.8282 22.5092 33.4341C22.5282 33.4158 22.5472 33.3975 22.5662 33.3791C22.8322 33.1683 23.1361 33.0309 23.459 32.9117C23.421 32.4534 23.7724 31.6836 23.9814 31.5461C25.0641 30.8679 26.2703 30.4829 27.5145 30.2171C27.5525 29.7314 27.8184 29.1265 28.1224 29.1082C28.6352 29.0898 29.1576 29.0623 29.6705 29.044C30.1739 28.6499 30.7152 28.4483 31.3421 28.989C31.4086 29.0532 31.4561 29.154 31.4751 29.2823C31.608 29.2915 31.741 29.2915 31.874 29.3006C31.9214 29.2548 31.9689 29.209 32.0164 29.1723C32.5483 28.6591 33.0897 28.1183 33.5551 27.5409C33.745 27.3026 33.8875 27.0093 34.0869 26.7894C34.1059 26.7619 34.1249 26.7252 34.1344 26.6886C34.1154 26.6519 34.1059 26.6244 34.0964 26.6152H22.6517C22.5852 27.6509 22.4997 28.155 21.8159 28.989C21.0846 29.878 20.4482 30.5379 19.375 30.3546V35.1022C19.451 35.1022 19.508 35.1388 19.5555 35.2672Z" fill="url(#paint1_linear_292_1115)"/>
<path d="M4.54004 11.1265L8.45308 10.9982V7.69869L4.56853 6.37891L4.54004 11.1265Z" fill="url(#paint2_linear_292_1115)"/>
<path d="M12.0522 7.94656H15.0922V4.6471L12.1105 3.33594L12.0522 7.94656Z" fill="url(#paint3_linear_292_1115)"/>
<path d="M38.7513 22.4362C38.6753 23.2427 38.5993 23.7926 38.5043 24.5258H23.5645L25.616 22.3262L38.7513 22.4362Z" fill="url(#paint4_linear_292_1115)"/>
<path d="M34.211 11.0715L30.3359 10.9982V7.69869L34.211 6.37891V11.0715Z" fill="url(#paint5_linear_292_1115)"/>
<path d="M26.6888 7.91905H23.6875L23.716 4.61959L26.6888 3.2998V7.91905Z" fill="url(#paint6_linear_292_1115)"/>
<path d="M19.3749 10.3933C20.5526 10.8791 21.7208 11.4015 22.8701 11.9514C24.6176 12.7304 26.3272 13.5461 28.0558 14.3618C29.148 14.8384 30.2023 15.3608 31.2945 15.8099C31.2945 16.9464 31.2945 19.5127 31.2945 19.5127H34.2388V14.481C34.2388 14.481 31.3895 13.1704 30.7816 12.8954C30.5917 12.8037 30.3922 12.7213 30.2023 12.6296C29.0246 12.098 27.8563 11.5573 26.6786 11.0257C25.9853 10.7049 25.292 10.3841 24.6081 10.0725C24.3137 9.93505 24.0193 9.80673 23.7153 9.66926C23.4779 9.55927 23.25 9.45846 23.022 9.34848C21.8158 8.80773 20.5906 8.28532 19.3844 7.74457V0L23.4494 1.86053L23.7249 1.97968V6.50727C24.6841 6.88304 25.6244 7.32297 26.5552 7.75374C26.6121 7.77207 26.6501 7.79956 26.6881 7.81789V3.29946L30.7911 5.27914C30.7911 5.27914 30.7911 5.27914 30.7436 9.53178C31.209 9.73341 34.2008 11.0624 34.2008 11.0624C34.2008 9.50122 34.2008 7.93997 34.2008 6.37896L38.7597 8.35864V13.1062C38.7977 14.3802 38.7597 15.6541 38.7597 16.9189C38.7597 18.7428 38.7597 20.6033 38.7597 22.4272C34.4572 22.4272 30.1548 22.3722 25.8523 22.418C25.7763 22.418 25.7004 22.4088 25.6434 22.4638C25.6054 22.4822 25.5674 22.5005 25.5389 22.5188C25.5389 21.8773 25.9948 17.6521 25.7669 17.5055C25.0735 17.1755 24.0668 16.6348 23.3734 16.3048C22.1102 15.6999 20.866 15.095 19.6313 14.4351C19.6218 14.426 19.6028 14.426 19.5839 14.426C19.5459 14.4076 19.5174 14.3893 19.4889 14.3802C19.4414 14.3435 19.3939 14.316 19.3369 14.2793" fill="url(#paint7_linear_292_1115)"/>
<path d="M31.8833 30.2177C31.323 30.9876 30.7531 31.7483 30.0788 32.4357C29.7178 32.8115 29.3664 33.2147 28.9865 33.5722C28.0273 34.4887 27.011 35.3227 25.9473 36.1017C26.1847 35.9093 26.4127 35.7168 26.6311 35.5152C28.3027 34.0396 29.8508 32.4265 31.3325 30.7768C31.5414 30.5385 31.7504 30.3002 31.9498 30.0527C31.9783 30.1169 31.9213 30.1719 31.8833 30.2177Z" fill="url(#paint8_linear_292_1115)"/>
<path d="M38.1139 26.4415C38.0284 26.8173 37.924 27.2022 37.8195 27.5688C37.0787 30.3367 35.8535 32.8479 34.1819 35.1209C30.8672 39.6302 25.8334 43.2046 19.337 45.9908L19.3085 45.5784C19.299 45.5784 19.299 45.5875 19.299 45.5875C19.299 45.5784 19.299 45.5692 19.299 45.5509C19.299 45.5417 19.299 45.5417 19.299 45.5417C19.299 45.5234 19.299 45.5142 19.2895 45.4959V45.3492C19.2895 44.946 19.2705 44.5427 19.299 44.1486V42.1781L19.3465 40.1709C20.4672 39.5935 21.4835 38.9703 22.5472 38.3195C22.7277 38.2096 22.9081 38.0996 23.0981 37.9804C23.7059 37.6322 24.3043 37.2747 24.8551 36.8989C25.2445 36.6332 25.6245 36.3674 26.0044 36.0924C27.0776 35.3134 28.0939 34.4793 29.0531 33.5628C29.433 33.1962 29.775 32.8021 30.1454 32.4263C30.8197 31.739 31.3896 30.9782 31.9499 30.2084C31.9879 30.1625 32.0449 30.1076 32.0164 30.0526C32.0164 30.0526 32.0164 30.0526 32.0164 30.0434C31.9784 29.9884 31.9119 30.0067 31.8549 30.0067C31.8454 30.0067 31.8455 30.0067 31.8455 30.0067C30.7532 30.0067 29.661 30.0067 28.5782 30.0067C28.4548 30.0067 28.3598 30.0434 28.2933 30.1351C27.619 30.9966 26.8117 31.7298 25.9949 32.4538C24.9786 33.352 23.8674 34.1219 22.7277 34.8734C21.6449 35.5883 20.5242 36.2574 19.4225 36.9448C19.413 36.9356 19.3683 36.987 19.3588 36.9778C19.3588 35.2915 19.073 33.5628 19.073 31.8764L19.0635 31.7023C19.073 31.6656 19.0825 31.6381 19.092 31.6106C19.1015 31.5923 19.1015 31.574 19.111 31.5557C19.149 31.4915 19.1774 31.4457 19.2059 31.3998C19.7853 31.0699 20.7047 30.7491 21.2745 30.41C21.9584 30.0067 22.6517 29.5943 23.25 29.0719C23.7249 28.6503 24.2093 28.2287 24.6367 27.7613C24.7982 27.5871 24.739 27.8004 23.7893 27.6079C23.8842 27.4154 23.9602 27.2138 24.0172 27.0122C24.0362 26.9297 24.0647 26.8472 24.0742 26.7555L25.5127 26.3682H25.615L33.2891 26.3865H33.3746L38.1139 26.4415Z" fill="url(#paint9_linear_292_1115)"/>
<path d="M22.5476 38.3196C21.4743 38.9703 20.4011 39.621 19.2898 40.1984V42.1873L19.2139 40.0335C20.4676 39.3644 21.8162 38.7045 23.0889 37.9805C22.918 38.0996 22.728 38.2096 22.5476 38.3196Z" fill="url(#paint10_linear_292_1115)"/>
<path d="M19.3562 40.2073C18.2355 39.6299 17.1622 38.9701 16.089 38.3194C14.7498 37.5037 13.4486 36.633 12.2045 35.6707C11.3497 35.0108 10.5044 34.3417 9.75404 33.5535C9.73505 33.5352 9.71605 33.5168 9.70656 33.4985C9.68756 33.4802 9.66856 33.471 9.65907 33.4527C9.64007 33.4344 9.62108 33.416 9.61158 33.4069C9.59258 33.3885 9.57359 33.3702 9.56409 33.361C9.54509 33.3427 9.5261 33.3244 9.5166 33.3152C9.49761 33.2969 9.47861 33.2786 9.45962 33.2694C9.32665 33.1594 9.19368 33.0403 9.07971 32.9028C7.0757 30.9048 5.72703 28.5768 5.17616 25.8273C4.96721 24.7733 4.82475 23.7193 4.73927 22.6469C4.69178 22.0237 4.66329 21.4005 4.64429 20.7681C4.6063 19.4758 4.57781 18.1835 4.6063 16.8912C4.6253 16.0755 4.64429 15.2507 4.64429 14.435V14.3066L7.9115 16.0114C7.81652 16.103 7.77853 16.2222 7.77853 16.3871C7.78803 16.992 7.75953 17.5969 7.75953 18.1927C7.74053 20.099 7.69305 22.0054 7.921 23.9026C8.03497 24.8191 8.23442 25.7081 8.50035 26.588C8.88976 27.8894 9.5831 29.0259 10.4759 30.0616C10.5804 30.2082 10.6848 30.3549 10.7893 30.5015C10.8273 30.5382 10.8653 30.5657 10.8938 30.5932C11.91 31.7021 13.0687 32.6736 14.3034 33.5627C15.3577 34.3234 19.3562 36.9702 19.3562 36.9702C19.3562 36.9702 19.3857 38.7471 19.3952 39.7187" fill="url(#paint11_linear_292_1115)"/>
<path d="M19.375 7.75421V10.4029C19.375 10.4029 17.5989 11.2645 16.8391 11.6311C15.196 12.4376 13.5624 13.2167 11.9193 14.0415C11.0835 14.4631 10.2287 14.8481 9.38344 15.2697C8.96555 15.4805 8.53815 15.6912 8.11075 15.902C8.02527 15.9387 7.95879 15.9845 7.9208 16.0304L4.66309 14.3165C4.68208 14.2706 4.73907 14.2523 4.80555 14.2248C5.36592 13.9865 5.91678 13.7391 6.47714 13.4916C7.31294 13.1158 8.13924 12.7309 8.97504 12.346C11.4824 11.1912 13.9898 10.0272 16.5067 8.87236C17.428 8.45076 18.3398 8.02916 19.3085 7.69922C19.299 7.70838 19.3655 7.75421 19.375 7.75421Z" fill="url(#paint12_linear_292_1115)"/>
<path d="M5.60159 35.6807C5.59263 35.6897 5.59263 35.6988 5.58367 35.7169L5.57471 35.6988C5.58367 35.6897 5.59263 35.6807 5.60159 35.6807Z" fill="#006B44"/>
<path d="M4.6731 14.3252C4.64461 16.4148 4.59712 18.6878 4.66361 20.7774C4.6826 21.2999 4.7016 21.8314 4.73959 22.3539C4.74909 22.4547 4.74909 22.5555 4.75858 22.6563C4.83457 23.7286 4.97703 24.7918 5.19548 25.8366C5.59438 27.8255 6.41119 29.5943 7.5984 31.1799C8.04479 31.7757 8.54817 32.3531 9.09904 32.903C9.20351 33.0404 9.33648 33.1596 9.47894 33.2696C9.49794 33.2879 9.51693 33.2971 9.53593 33.3154C9.55492 33.3337 9.57392 33.3521 9.58342 33.3612C9.60241 33.3704 9.62141 33.3887 9.63091 33.4071C9.6499 33.4254 9.6594 33.4437 9.67839 33.4529C9.69739 33.4712 9.70689 33.4895 9.72588 33.4987C9.74488 33.517 9.76387 33.5354 9.77337 33.5537C10.5237 34.3327 11.369 35.0018 12.2238 35.6708C13.4585 36.624 14.7597 37.4947 16.1083 38.3104C17.1816 38.9612 18.2548 39.6119 19.366 40.1893C19.366 42.1323 19.347 44.057 19.347 46C9.54542 41.8207 3.03001 35.8083 0.836046 27.578C0.655589 26.9548 0.503622 26.3315 0.380152 25.6808C0.313668 25.3142 0.247182 24.9568 0.199693 24.5902C0.0952187 23.747 0.0287349 22.8946 0.00973951 22.0422V20.5575C0.00973951 19.3019 0.000244141 18.0371 0.000244141 16.7723V15.7916C0.00974183 15.7916 0.00973719 15.7916 0.0192349 15.8008C0.00973719 14.9117 0.000248777 14.0319 0.0287419 13.1429V8.38613L4.58763 6.40646C4.58763 7.93704 4.59713 9.54094 4.59713 11.1265C4.59713 11.1265 7.50342 9.79757 7.96881 9.59594C7.96881 9.59594 8.0068 6.69058 8.0068 5.3158L12.1098 3.33612V7.85455C12.1478 7.83622 12.1858 7.81789 12.2428 7.7904C13.1735 7.35963 14.1138 6.91971 15.0731 6.54393V1.97968L15.3485 1.86053L19.404 0V7.74457C18.1978 8.28532 16.9916 8.8169 15.7759 9.35764C15.5385 9.45846 15.3105 9.56844 15.0826 9.67842C14.7882 9.80674 14.4937 9.94421 14.1898 10.0817C13.4965 10.3933 12.8126 10.7141 12.1193 11.0349C10.9416 11.5756 9.77337 12.1164 8.59565 12.6388C8.4057 12.7304 8.20625 12.8129 8.0163 12.9046C7.37995 13.1795 4.6731 14.3252 4.6731 14.3252Z" fill="url(#paint13_linear_292_1115)"/>
<path d="M5.64127 35.7623L5.604 35.7256C5.64127 35.7073 5.6599 35.7165 5.64127 35.7623Z" fill="#006B44"/>
<path d="M9.57324 33.3711C9.59187 33.3894 9.61051 33.4078 9.61982 33.4169C9.60119 33.3986 9.59187 33.3803 9.57324 33.3711Z" fill="#004233"/>
<path d="M9.62109 33.416C9.63973 33.4343 9.65836 33.4527 9.66767 33.4618C9.64904 33.4435 9.63973 33.4343 9.62109 33.416Z" fill="#004233"/>
<path d="M9.66895 33.4619C9.68758 33.4802 9.70621 33.4986 9.71553 33.5077C9.69689 33.4894 9.67826 33.4802 9.66895 33.4619Z" fill="#004233"/>
<path d="M19.3853 14.2607C19.3853 14.2607 15.1778 16.3412 13.1358 17.3402C12.9934 17.4135 12.9459 17.4868 12.9459 17.6426C12.9174 19.5765 12.8984 21.5011 12.9269 23.4258C12.9364 24.2324 12.9934 25.0297 13.2023 25.8179C13.2973 26.157 13.4208 26.4778 13.6202 26.7803C13.6677 26.8444 13.7057 26.9086 13.6962 26.9911C13.9431 27.1927 14.1141 27.4677 14.3515 27.6876C14.418 27.7518 14.4845 27.8159 14.551 27.8893C14.627 27.9626 14.7029 28.0451 14.7789 28.1184C14.8549 28.21 14.9309 28.2925 15.0259 28.3475C15.0449 28.3659 15.0639 28.3842 15.0734 28.4025C15.0828 28.4117 15.1018 28.4208 15.1113 28.4392C15.1303 28.4575 15.1493 28.4758 15.1683 28.4942C15.7192 29.0441 16.346 29.5023 16.9919 29.9423C17.7042 30.428 18.426 30.8954 19.1479 31.3629C19.2523 31.4362 19.4233 31.537 19.3948 31.6745C19.3948 33.4434 19.3574 35.2085 19.3574 36.9774C17.6288 35.9417 15.9376 34.7631 14.3135 33.59C11.8061 31.7753 9.43172 29.5848 8.51995 26.6153C8.25401 25.7354 8.05456 24.8464 7.94059 23.9299C7.71264 22.0236 7.76014 20.1172 7.77913 18.22V15.9379C9.04233 15.3238 10.6474 14.6364 11.9106 14.0132C13.5537 13.1975 15.2063 12.391 16.8589 11.5753C17.6282 11.1995 18.616 10.7596 19.3948 10.3838C19.3758 10.393 19.3758 13.6649 19.3853 14.2607Z" fill="url(#paint14_linear_292_1115)"/>
<path d="M19.3564 40.1806C19.3564 39.0991 19.3659 38.0359 19.3564 36.9544C20.4487 36.2762 21.5504 35.5888 22.6331 34.8831C23.7634 34.1315 24.8841 33.3617 25.9003 32.4635C26.4227 32.0052 28.3887 30.0164 28.3887 30.0164C28.8351 30.0164 32.1308 29.998 32.1308 29.998C30.0129 33.2425 27.6574 35.0389 24.7986 36.9819C23.07 38.1551 21.2085 39.1999 19.3564 40.1806Z" fill="url(#paint15_linear_292_1115)"/>
<path d="M31.2951 15.801C32.2544 15.3886 33.2992 14.9211 34.2394 14.4629V19.5129C33.2517 19.5129 32.2734 19.5129 31.2856 19.5129C31.2951 18.3764 31.2951 16.9375 31.2951 15.801Z" fill="#0B1826"/>
<path d="M34.2389 14.4724C33.2986 14.9306 32.2539 15.398 31.2946 15.8105C30.5253 15.4989 29.775 15.1414 29.0247 14.7931C28.8537 14.7198 28.6827 14.6373 28.5023 14.5548C25.463 13.1617 22.4333 11.732 19.375 10.3939V7.74512C20.6097 8.29503 21.7874 8.80828 23.0221 9.35819C23.554 9.59648 24.0859 9.83478 24.6082 10.0822C25.9094 10.678 27.2106 11.2737 28.5023 11.8603C29.0626 12.1169 29.6325 12.3735 30.2024 12.6393C31.2186 13.0976 32.2444 13.5375 33.2511 14.0141C33.4601 14.1241 34.2389 14.4724 34.2389 14.4724Z" fill="url(#paint16_linear_292_1115)"/>
<path d="M18.0262 28.2658C16.2976 27.3493 15.2149 25.617 15.2149 23.7382L15.2719 18.7798L12.8975 17.3867V24.2698C12.8975 28.22 16.4686 29.9797 19.3939 31.9593L19.4019 28.9954L18.0262 28.2658Z" fill="url(#paint17_linear_292_1115)"/>
<path d="M19.3749 14.252V16.7357L15.2719 18.7704L12.8975 17.3773L19.3749 14.252Z" fill="url(#paint18_linear_292_1115)"/>
<path d="M25.5178 26.3675C24.5206 29.1079 21.7025 30.3828 19.3945 31.95V28.9897C20.6862 28.3023 22.0485 27.6324 22.8084 26.3584L25.5178 26.3675Z" fill="url(#paint19_linear_292_1115)"/>
<path d="M25.8914 17.5059V22.4367L23.5645 24.5355V18.7981L25.8914 17.5059Z" fill="url(#paint20_linear_292_1115)"/>
<path d="M25.8904 17.4689V17.5056L23.5635 18.7979L23.2691 18.6512L22.2433 18.1472L19.375 16.7357V14.252L23.2691 16.1675L24.7602 16.9099L25.8904 17.4689Z" fill="url(#paint21_linear_292_1115)"/>
<defs>
<linearGradient id="paint0_linear_292_1115" x1="16.9518" y1="13.5705" x2="2.37895" y2="32.6992" gradientUnits="userSpaceOnUse">
<stop/>
<stop offset="0.1041" stop-color="#0E321E"/>
<stop offset="0.2136" stop-color="#1A5F39"/>
<stop offset="0.328" stop-color="#258550"/>
<stop offset="0.4456" stop-color="#2EA563"/>
<stop offset="0.5675" stop-color="#34BD71"/>
<stop offset="0.6955" stop-color="#39CE7C"/>
<stop offset="0.8335" stop-color="#3CD982"/>
<stop offset="1" stop-color="#3DDC84"/>
</linearGradient>
<linearGradient id="paint1_linear_292_1115" x1="19.3922" y1="31.1723" x2="38.6148" y2="31.1723" gradientUnits="userSpaceOnUse">
<stop offset="0.052" stop-color="#3BD680"/>
<stop offset="0.099" stop-color="#3BD580"/>
<stop offset="0.433" stop-color="#31B46B"/>
<stop offset="0.4885" stop-color="#31B46B"/>
<stop offset="0.637" stop-color="#31B56C"/>
<stop offset="1" stop-color="#3DDC84"/>
</linearGradient>
<linearGradient id="paint2_linear_292_1115" x1="2.37936" y1="1.24201" x2="12.6312" y2="23.1145" gradientUnits="userSpaceOnUse">
<stop offset="0.002" stop-color="#0D1B2A"/>
<stop offset="0.0544416" stop-color="#133235"/>
<stop offset="0.1701" stop-color="#1E5F4A"/>
<stop offset="0.2908" stop-color="#27855C"/>
<stop offset="0.4149" stop-color="#2FA56A"/>
<stop offset="0.5436" stop-color="#35BD76"/>
<stop offset="0.6786" stop-color="#3ACE7E"/>
<stop offset="0.8243" stop-color="#3CD982"/>
<stop offset="1" stop-color="#3DDC84"/>
</linearGradient>
<linearGradient id="paint3_linear_292_1115" x1="9.37183" y1="-2.03525" x2="19.6237" y2="19.8372" gradientUnits="userSpaceOnUse">
<stop offset="0.002" stop-color="#0D1B2A"/>
<stop offset="0.0544416" stop-color="#133235"/>
<stop offset="0.1701" stop-color="#1E5F4A"/>
<stop offset="0.2908" stop-color="#27855C"/>
<stop offset="0.4149" stop-color="#2FA56A"/>
<stop offset="0.5436" stop-color="#35BD76"/>
<stop offset="0.6786" stop-color="#3ACE7E"/>
<stop offset="0.8243" stop-color="#3CD982"/>
<stop offset="1" stop-color="#3DDC84"/>
</linearGradient>
<linearGradient id="paint4_linear_292_1115" x1="27.9455" y1="27.4054" x2="40.8763" y2="14.0054" gradientUnits="userSpaceOnUse">
<stop offset="0.2398" stop-color="#0D1B2A"/>
<stop offset="0.8085" stop-color="#35BD76"/>
<stop offset="0.8432" stop-color="#1E5F4A"/>
<stop offset="1" stop-color="#3DDC84"/>
</linearGradient>
<linearGradient id="paint5_linear_292_1115" x1="34.8748" y1="7.49712" x2="26.4951" y2="14.0381" gradientUnits="userSpaceOnUse">
<stop offset="0.002" stop-color="#0D1B2A"/>
<stop offset="0.1701" stop-color="#1E5F4A"/>
<stop offset="0.2908" stop-color="#27855C"/>
<stop offset="0.4149" stop-color="#2FA56A"/>
<stop offset="0.5436" stop-color="#35BD76"/>
<stop offset="0.6786" stop-color="#3ACE7E"/>
<stop offset="0.8243" stop-color="#3CD982"/>
<stop offset="1" stop-color="#3DDC84"/>
</linearGradient>
<linearGradient id="paint6_linear_292_1115" x1="26.999" y1="3.73877" x2="20.5092" y2="13.551" gradientUnits="userSpaceOnUse">
<stop offset="0.002" stop-color="#0D1B2A"/>
<stop offset="0.1701" stop-color="#1E5F4A"/>
<stop offset="0.2908" stop-color="#27855C"/>
<stop offset="0.4149" stop-color="#2FA56A"/>
<stop offset="0.5436" stop-color="#35BD76"/>
<stop offset="0.6786" stop-color="#3ACE7E"/>
<stop offset="0.8243" stop-color="#3CD982"/>
<stop offset="1" stop-color="#3DDC84"/>
</linearGradient>
<linearGradient id="paint7_linear_292_1115" x1="36.6174" y1="-0.0899371" x2="12.1929" y2="39.1965" gradientUnits="userSpaceOnUse">
<stop offset="0.002" stop-color="#0D1B2A"/>
<stop offset="0.1514" stop-color="#1E5F4A"/>
<stop offset="0.507" stop-color="#27855C"/>
<stop offset="0.8085" stop-color="#35BD76"/>
<stop offset="1" stop-color="#3DDC84"/>
</linearGradient>
<linearGradient id="paint8_linear_292_1115" x1="21.2179" y1="31.4885" x2="33.7146" y2="34.2551" gradientUnits="userSpaceOnUse">
<stop offset="0.002" stop-color="#0D1B2A"/>
<stop offset="0.0544416" stop-color="#133235"/>
<stop offset="0.1701" stop-color="#1E5F4A"/>
<stop offset="0.2908" stop-color="#27855C"/>
<stop offset="0.4149" stop-color="#2FA56A"/>
<stop offset="0.5436" stop-color="#35BD76"/>
<stop offset="0.6786" stop-color="#3ACE7E"/>
<stop offset="0.8243" stop-color="#3CD982"/>
<stop offset="1" stop-color="#3DDC84"/>
</linearGradient>
<linearGradient id="paint9_linear_292_1115" x1="24.0134" y1="46.0884" x2="31.1069" y2="18.774" gradientUnits="userSpaceOnUse">
<stop offset="0.002" stop-color="#0D1B2A"/>
<stop offset="0.3405" stop-color="#1E5F4A"/>
<stop offset="0.507" stop-color="#27855C"/>
<stop offset="0.8085" stop-color="#35BD76"/>
<stop offset="1" stop-color="#3DDC84"/>
</linearGradient>
<linearGradient id="paint10_linear_292_1115" x1="19.2216" y1="40.0813" x2="23.0967" y2="40.0813" gradientUnits="userSpaceOnUse">
<stop offset="0.052" stop-color="#3BD680"/>
<stop offset="0.099" stop-color="#3BD580"/>
<stop offset="0.433" stop-color="#31B46B"/>
<stop offset="0.4885" stop-color="#31B46B"/>
<stop offset="0.637" stop-color="#31B56C"/>
<stop offset="1" stop-color="#3DDC84"/>
</linearGradient>
<linearGradient id="paint11_linear_292_1115" x1="8.16619" y1="24.1986" x2="21.0714" y2="50.4448" gradientUnits="userSpaceOnUse">
<stop offset="0.1047" stop-color="#0D1B2A"/>
<stop offset="0.2246" stop-color="#0E1F2C"/>
<stop offset="0.3343" stop-color="#112A31"/>
<stop offset="0.4401" stop-color="#153C3A"/>
<stop offset="0.5436" stop-color="#1C5746"/>
<stop offset="0.6453" stop-color="#247856"/>
<stop offset="0.8432" stop-color="#3AD27F"/>
<stop offset="0.8622" stop-color="#3DDC84"/>
<stop offset="0.8706" stop-color="#3DDC84"/>
<stop offset="0.9676" stop-color="#3DDC84"/>
</linearGradient>
<linearGradient id="paint12_linear_292_1115" x1="12.0248" y1="12.3279" x2="10.7304" y2="21.7879" gradientUnits="userSpaceOnUse">
<stop offset="0.1047" stop-color="#0D1B2A"/>
<stop offset="0.2246" stop-color="#0E1F2C"/>
<stop offset="0.3343" stop-color="#112A31"/>
<stop offset="0.4401" stop-color="#153C3A"/>
<stop offset="0.5436" stop-color="#1C5746"/>
<stop offset="0.6453" stop-color="#247856"/>
<stop offset="0.7457" stop-color="#2EA269"/>
<stop offset="0.8432" stop-color="#3AD27F"/>
<stop offset="0.8622" stop-color="#3DDC84"/>
<stop offset="0.8706" stop-color="#3DDC84"/>
<stop offset="0.9676" stop-color="#3DDC84"/>
</linearGradient>
<linearGradient id="paint13_linear_292_1115" x1="6.64061" y1="46.9406" x2="13.5381" y2="-1.33549" gradientUnits="userSpaceOnUse">
<stop offset="0.002" stop-color="#0D1B2A"/>
<stop offset="0.0544416" stop-color="#133235"/>
<stop offset="0.1701" stop-color="#1E5F4A"/>
<stop offset="0.2908" stop-color="#27855C"/>
<stop offset="0.4149" stop-color="#2FA56A"/>
<stop offset="0.5436" stop-color="#35BD76"/>
<stop offset="0.6786" stop-color="#3ACE7E"/>
<stop offset="0.8243" stop-color="#3CD982"/>
<stop offset="1" stop-color="#3DDC84"/>
</linearGradient>
<linearGradient id="paint14_linear_292_1115" x1="9.47402" y1="35.3693" x2="18.9253" y2="13.2303" gradientUnits="userSpaceOnUse">
<stop offset="0.002" stop-color="#0D1B2A"/>
<stop offset="0.0544416" stop-color="#133235"/>
<stop offset="0.1701" stop-color="#1E5F4A"/>
<stop offset="0.2908" stop-color="#27855C"/>
<stop offset="0.4149" stop-color="#2FA56A"/>
<stop offset="0.5436" stop-color="#35BD76"/>
<stop offset="0.6786" stop-color="#3ACE7E"/>
<stop offset="0.8243" stop-color="#3CD982"/>
<stop offset="1" stop-color="#3DDC84"/>
</linearGradient>
<linearGradient id="paint15_linear_292_1115" x1="27.0562" y1="30.8978" x2="16.5065" y2="53.1916" gradientUnits="userSpaceOnUse">
<stop offset="0.0074054" stop-color="#0D1B2A"/>
<stop offset="0.1514" stop-color="#1E5F4A"/>
<stop offset="0.507" stop-color="#27855C"/>
<stop offset="0.8085" stop-color="#35BD76"/>
<stop offset="1" stop-color="#3DDC84"/>
</linearGradient>
<linearGradient id="paint16_linear_292_1115" x1="26.8128" y1="12.2261" x2="25.6103" y2="21.3981" gradientUnits="userSpaceOnUse">
<stop offset="0.1047" stop-color="#0D1B2A"/>
<stop offset="0.2246" stop-color="#0E1F2C"/>
<stop offset="0.3343" stop-color="#112A31"/>
<stop offset="0.4401" stop-color="#153C3A"/>
<stop offset="0.5436" stop-color="#1C5746"/>
<stop offset="0.6453" stop-color="#247856"/>
<stop offset="0.7457" stop-color="#2EA269"/>
<stop offset="0.8432" stop-color="#3AD27F"/>
<stop offset="0.8622" stop-color="#3DDC84"/>
<stop offset="0.8706" stop-color="#3DDC84"/>
<stop offset="0.9676" stop-color="#3DDC84"/>
</linearGradient>
<linearGradient id="paint17_linear_292_1115" x1="14.2631" y1="22.9163" x2="32.6695" y2="42.6682" gradientUnits="userSpaceOnUse">
<stop offset="0.0648649" stop-color="#0D1B2A"/>
<stop offset="0.2079" stop-color="#1E5F4A"/>
<stop offset="0.2908" stop-color="#27855C"/>
<stop offset="0.4149" stop-color="#2FA56A"/>
<stop offset="0.5436" stop-color="#35BD76"/>
<stop offset="0.6786" stop-color="#3ACE7E"/>
<stop offset="0.8108" stop-color="#133235"/>
<stop offset="0.8243" stop-color="#3CD982"/>
<stop offset="1" stop-color="#3DDC84"/>
</linearGradient>
<linearGradient id="paint18_linear_292_1115" x1="18.6136" y1="18.2626" x2="12.5593" y2="11.8427" gradientUnits="userSpaceOnUse">
<stop stop-color="#133235"/>
<stop offset="0.1047" stop-color="#0D1B2A"/>
<stop offset="0.2246" stop-color="#0E1F2C"/>
<stop offset="0.3343" stop-color="#112A31"/>
<stop offset="0.4401" stop-color="#153C3A"/>
<stop offset="0.5436" stop-color="#1C5746"/>
<stop offset="0.6453" stop-color="#247856"/>
<stop offset="0.7457" stop-color="#2EA269"/>
<stop offset="0.8432" stop-color="#3AD27F"/>
<stop offset="0.849" stop-color="#3DDC84"/>
<stop offset="0.8622" stop-color="#3DDC84"/>
<stop offset="0.9676" stop-color="#3DDC84"/>
</linearGradient>
<linearGradient id="paint19_linear_292_1115" x1="21.4275" y1="26.1944" x2="23.8936" y2="33.8612" gradientUnits="userSpaceOnUse">
<stop offset="0.002" stop-color="#0D1B2A"/>
<stop offset="0.0544416" stop-color="#133235"/>
<stop offset="0.1701" stop-color="#1E5F4A"/>
<stop offset="0.2908" stop-color="#27855C"/>
<stop offset="0.4149" stop-color="#2FA56A"/>
<stop offset="0.5436" stop-color="#35BD76"/>
<stop offset="0.6786" stop-color="#3ACE7E"/>
<stop offset="0.8243" stop-color="#3CD982"/>
<stop offset="1" stop-color="#3DDC84"/>
</linearGradient>
<linearGradient id="paint20_linear_292_1115" x1="19.555" y1="24.6644" x2="30.9292" y2="15.5296" gradientUnits="userSpaceOnUse">
<stop stop-color="#133235"/>
<stop offset="0.1047" stop-color="#0D1B2A"/>
<stop offset="0.2246" stop-color="#0E1F2C"/>
<stop offset="0.3343" stop-color="#112A31"/>
<stop offset="0.4401" stop-color="#153C3A"/>
<stop offset="0.5436" stop-color="#1C5746"/>
<stop offset="0.6453" stop-color="#247856"/>
<stop offset="0.7457" stop-color="#2EA269"/>
<stop offset="0.8432" stop-color="#3AD27F"/>
<stop offset="0.849" stop-color="#3DDC84"/>
<stop offset="0.8622" stop-color="#3DDC84"/>
<stop offset="0.9676" stop-color="#3DDC84"/>
</linearGradient>
<linearGradient id="paint21_linear_292_1115" x1="19.3907" y1="21.4428" x2="25.3398" y2="10.475" gradientUnits="userSpaceOnUse">
<stop stop-color="#133235"/>
<stop offset="0.1047" stop-color="#0D1B2A"/>
<stop offset="0.2246" stop-color="#0E1F2C"/>
<stop offset="0.3343" stop-color="#112A31"/>
<stop offset="0.4401" stop-color="#153C3A"/>
<stop offset="0.5436" stop-color="#1C5746"/>
<stop offset="0.6453" stop-color="#247856"/>
<stop offset="0.7457" stop-color="#2EA269"/>
<stop offset="0.8432" stop-color="#3AD27F"/>
<stop offset="0.849" stop-color="#3DDC84"/>
<stop offset="0.8622" stop-color="#3DDC84"/>
<stop offset="0.9676" stop-color="#3DDC84"/>
</linearGradient>
</defs>
</svg>
