<svg width="153" height="46" viewBox="0 0 153 46" fill="none" xmlns="http://www.w3.org/2000/svg">
<path d="M121.811 31.1806C120.624 29.595 119.807 27.8169 119.409 25.8373C119.2 24.7833 119.057 23.7293 118.972 22.6569C118.962 22.5561 118.953 22.4553 118.953 22.3545C119.076 22.3637 119.2 22.3728 119.333 22.382V22.6111C119.333 25.6081 120.197 28.5318 121.811 31.1806Z" fill="url(#paint0_linear_354_13188)"/>
<path d="M133.779 35.2672C133.836 35.4138 133.874 35.5696 133.884 35.7346C133.979 35.5146 134.093 35.3038 134.235 35.093C134.833 34.259 135.783 33.8282 136.733 33.4341C136.752 33.4158 136.771 33.3975 136.79 33.3791C137.056 33.1683 137.36 33.0309 137.683 32.9117C137.645 32.4534 137.996 31.6836 138.205 31.5461C139.288 30.8679 140.494 30.4829 141.738 30.2171C141.776 29.7314 142.042 29.1265 142.346 29.1082C142.859 29.0898 143.381 29.0623 143.894 29.044C144.398 28.6499 144.939 28.4483 145.566 28.989C145.632 29.0532 145.68 29.154 145.699 29.2823C145.832 29.2915 145.965 29.2915 146.098 29.3006C146.145 29.2548 146.193 29.209 146.24 29.1723C146.772 28.6591 147.313 28.1183 147.779 27.5409C147.969 27.3026 148.111 27.0093 148.311 26.7894C148.33 26.7619 148.349 26.7252 148.358 26.6886C148.339 26.6519 148.33 26.6244 148.32 26.6152H136.875C136.809 27.6509 136.723 28.155 136.04 28.989C135.308 29.878 134.672 30.5379 133.599 30.3546V35.1022C133.675 35.1022 133.732 35.1388 133.779 35.2672Z" fill="url(#paint1_linear_354_13188)"/>
<path d="M118.763 11.1265L122.676 10.9982V7.69869L118.792 6.37891L118.763 11.1265Z" fill="url(#paint2_linear_354_13188)"/>
<path d="M126.276 7.94656H129.316V4.6471L126.334 3.33594L126.276 7.94656Z" fill="url(#paint3_linear_354_13188)"/>
<path d="M152.974 22.4362C152.898 23.2427 152.822 23.7926 152.727 24.5258H137.788L139.839 22.3262L152.974 22.4362Z" fill="url(#paint4_linear_354_13188)"/>
<path d="M148.434 11.0715L144.559 10.9982V7.69869L148.434 6.37891V11.0715Z" fill="url(#paint5_linear_354_13188)"/>
<path d="M140.912 7.91905H137.911L137.939 4.61959L140.912 3.2998V7.91905Z" fill="url(#paint6_linear_354_13188)"/>
<path d="M133.599 10.3933C134.776 10.8791 135.944 11.4015 137.094 11.9514C138.841 12.7304 140.551 13.5461 142.279 14.3618C143.372 14.8384 144.426 15.3608 145.518 15.8099C145.518 16.9464 145.518 19.5127 145.518 19.5127H148.462V14.481C148.462 14.481 145.613 13.1704 145.005 12.8954C144.815 12.8037 144.616 12.7213 144.426 12.6296C143.248 12.098 142.08 11.5573 140.902 11.0257C140.209 10.7049 139.516 10.3841 138.832 10.0725C138.537 9.93505 138.243 9.80673 137.939 9.66926C137.702 9.55927 137.474 9.45846 137.246 9.34848C136.039 8.80773 134.814 8.28532 133.608 7.74457V0L137.673 1.86053L137.948 1.97968V6.50727C138.908 6.88304 139.848 7.32297 140.779 7.75374C140.836 7.77207 140.874 7.79956 140.912 7.81789V3.29946L145.015 5.27914C145.015 5.27914 145.015 5.27914 144.967 9.53178C145.433 9.73341 148.424 11.0624 148.424 11.0624C148.424 9.50122 148.424 7.93997 148.424 6.37896L152.983 8.35864V13.1062C153.021 14.3802 152.983 15.6541 152.983 16.9189C152.983 18.7428 152.983 20.6033 152.983 22.4272C148.681 22.4272 144.378 22.3722 140.076 22.418C140 22.418 139.924 22.4088 139.867 22.4638C139.829 22.4822 139.791 22.5005 139.763 22.5188C139.763 21.8773 140.218 17.6521 139.99 17.5055C139.297 17.1755 138.29 16.6348 137.597 16.3048C136.334 15.6999 135.09 15.095 133.855 14.4351C133.845 14.426 133.826 14.426 133.807 14.426C133.769 14.4076 133.741 14.3893 133.713 14.3802C133.665 14.3435 133.618 14.316 133.561 14.2793" fill="url(#paint7_linear_354_13188)"/>
<path d="M146.107 30.2177C145.547 30.9876 144.977 31.7483 144.302 32.4357C143.941 32.8115 143.59 33.2147 143.21 33.5722C142.251 34.4887 141.235 35.3227 140.171 36.1017C140.408 35.9093 140.636 35.7168 140.855 35.5152C142.526 34.0396 144.074 32.4265 145.556 30.7768C145.765 30.5385 145.974 30.3002 146.173 30.0527C146.202 30.1169 146.145 30.1719 146.107 30.2177Z" fill="url(#paint8_linear_354_13188)"/>
<path d="M152.337 26.4415C152.252 26.8173 152.147 27.2022 152.043 27.5688C151.302 30.3367 150.077 32.8479 148.405 35.1209C145.09 39.6302 140.057 43.2046 133.56 45.9908L133.532 45.5784C133.522 45.5784 133.522 45.5875 133.522 45.5875C133.522 45.5784 133.522 45.5692 133.522 45.5509C133.522 45.5417 133.522 45.5417 133.522 45.5417C133.522 45.5234 133.522 45.5142 133.513 45.4959V45.3492C133.513 44.946 133.494 44.5427 133.522 44.1486V42.1781L133.57 40.1709C134.69 39.5935 135.707 38.9703 136.77 38.3195C136.951 38.2096 137.131 38.0996 137.321 37.9804C137.929 37.6322 138.527 37.2747 139.078 36.8989C139.468 36.6332 139.848 36.3674 140.228 36.0924C141.301 35.3134 142.317 34.4793 143.276 33.5628C143.656 33.1962 143.998 32.8021 144.369 32.4263C145.043 31.739 145.613 30.9782 146.173 30.2084C146.211 30.1625 146.268 30.1076 146.24 30.0526C146.24 30.0526 146.24 30.0526 146.24 30.0434C146.202 29.9884 146.135 30.0067 146.078 30.0067C146.069 30.0067 146.069 30.0067 146.069 30.0067C144.976 30.0067 143.884 30.0067 142.801 30.0067C142.678 30.0067 142.583 30.0434 142.516 30.1351C141.842 30.9966 141.035 31.7298 140.218 32.4538C139.202 33.352 138.091 34.1219 136.951 34.8734C135.868 35.5883 134.747 36.2574 133.646 36.9448C133.636 36.9356 133.591 36.987 133.582 36.9778C133.582 35.2915 133.296 33.5628 133.296 31.8764L133.287 31.7023C133.296 31.6656 133.306 31.6381 133.315 31.6106C133.325 31.5923 133.325 31.574 133.334 31.5557C133.372 31.4915 133.401 31.4457 133.429 31.3998C134.008 31.0699 134.928 30.7491 135.498 30.41C136.181 30.0067 136.875 29.5943 137.473 29.0719C137.948 28.6503 138.432 28.2287 138.86 27.7613C139.021 27.5871 138.962 27.8004 138.012 27.6079C138.107 27.4154 138.183 27.2138 138.24 27.0122C138.259 26.9297 138.288 26.8472 138.297 26.7555L139.736 26.3682H139.838L147.512 26.3865H147.598L152.337 26.4415Z" fill="url(#paint9_linear_354_13188)"/>
<path d="M136.771 38.3196C135.697 38.9703 134.624 39.621 133.513 40.1984V42.1873L133.437 40.0335C134.691 39.3644 136.039 38.7045 137.312 37.9805C137.141 38.0996 136.951 38.2096 136.771 38.3196Z" fill="url(#paint10_linear_354_13188)"/>
<path d="M133.579 40.2073C132.459 39.6299 131.385 38.9701 130.312 38.3194C128.973 37.5037 127.672 36.633 126.428 35.6707C125.573 35.0108 124.728 34.3417 123.977 33.5535C123.958 33.5352 123.939 33.5168 123.93 33.4985C123.911 33.4802 123.892 33.471 123.882 33.4527C123.863 33.4344 123.844 33.416 123.835 33.4069C123.816 33.3885 123.797 33.3702 123.787 33.361C123.768 33.3427 123.749 33.3244 123.74 33.3152C123.721 33.2969 123.702 33.2786 123.683 33.2694C123.55 33.1594 123.417 33.0403 123.303 32.9028C121.299 30.9048 119.95 28.5768 119.399 25.8273C119.19 24.7733 119.048 23.7193 118.962 22.6469C118.915 22.0237 118.886 21.4005 118.867 20.7681C118.829 19.4758 118.801 18.1835 118.829 16.8912C118.848 16.0755 118.867 15.2507 118.867 14.435V14.3066L122.135 16.0114C122.04 16.103 122.002 16.2222 122.002 16.3871C122.011 16.992 121.983 17.5969 121.983 18.1927C121.964 20.099 121.916 22.0054 122.144 23.9026C122.258 24.8191 122.458 25.7081 122.724 26.588C123.113 27.8894 123.806 29.0259 124.699 30.0616C124.804 30.2082 124.908 30.3549 125.012 30.5015C125.05 30.5382 125.088 30.5657 125.117 30.5932C126.133 31.7021 127.292 32.6736 128.527 33.5627C129.581 34.3234 133.579 36.9702 133.579 36.9702C133.579 36.9702 133.609 38.7471 133.618 39.7187" fill="url(#paint11_linear_354_13188)"/>
<path d="M133.598 7.75421V10.4029C133.598 10.4029 131.822 11.2645 131.062 11.6311C129.419 12.4376 127.786 13.2167 126.142 14.0415C125.307 14.4631 124.452 14.8481 123.607 15.2697C123.189 15.4805 122.761 15.6912 122.334 15.902C122.248 15.9387 122.182 15.9845 122.144 16.0304L118.886 14.3165C118.905 14.2706 118.962 14.2523 119.029 14.2248C119.589 13.9865 120.14 13.7391 120.7 13.4916C121.536 13.1158 122.362 12.7309 123.198 12.346C125.706 11.1912 128.213 10.0272 130.73 8.87236C131.651 8.45076 132.563 8.02916 133.532 7.69922C133.522 7.70838 133.589 7.75421 133.598 7.75421Z" fill="url(#paint12_linear_354_13188)"/>
<path d="M119.825 35.6807C119.816 35.6897 119.816 35.6988 119.807 35.7169L119.798 35.6988C119.807 35.6897 119.816 35.6807 119.825 35.6807Z" fill="#006B44"/>
<path d="M118.896 14.3252C118.868 16.4148 118.821 18.6878 118.887 20.7774C118.906 21.2999 118.925 21.8314 118.963 22.3539C118.972 22.4547 118.972 22.5555 118.982 22.6563C119.058 23.7286 119.2 24.7918 119.419 25.8366C119.818 27.8255 120.635 29.5943 121.822 31.1799C122.268 31.7757 122.772 32.3531 123.322 32.903C123.427 33.0404 123.56 33.1596 123.702 33.2696C123.721 33.2879 123.74 33.2971 123.759 33.3154C123.778 33.3337 123.797 33.3521 123.807 33.3612C123.826 33.3704 123.845 33.3887 123.854 33.4071C123.873 33.4254 123.883 33.4437 123.902 33.4529C123.921 33.4712 123.93 33.4895 123.949 33.4987C123.968 33.517 123.987 33.5354 123.997 33.5537C124.747 34.3327 125.592 35.0018 126.447 35.6708C127.682 36.624 128.983 37.4947 130.332 38.3104C131.405 38.9612 132.478 39.6119 133.589 40.1893C133.589 42.1323 133.57 44.057 133.57 46C123.769 41.8207 117.253 35.8083 115.059 27.578C114.879 26.9548 114.727 26.3315 114.604 25.6808C114.537 25.3142 114.471 24.9568 114.423 24.5902C114.319 23.747 114.252 22.8946 114.233 22.0422V20.5575C114.233 19.3019 114.224 18.0371 114.224 16.7723V15.7916C114.233 15.7916 114.233 15.7916 114.243 15.8008C114.233 14.9117 114.224 14.0319 114.252 13.1429V8.38613L118.811 6.40646C118.811 7.93704 118.821 9.54094 118.821 11.1265C118.821 11.1265 121.727 9.79757 122.192 9.59594C122.192 9.59594 122.23 6.69058 122.23 5.3158L126.333 3.33612V7.85455C126.371 7.83622 126.409 7.81789 126.466 7.7904C127.397 7.35963 128.337 6.91971 129.296 6.54393V1.97968L129.572 1.86053L133.627 0V7.74457C132.421 8.28532 131.215 8.8169 129.999 9.35764C129.762 9.45846 129.534 9.56844 129.306 9.67842C129.012 9.80674 128.717 9.94421 128.413 10.0817C127.72 10.3933 127.036 10.7141 126.343 11.0349C125.165 11.5756 123.997 12.1164 122.819 12.6388C122.629 12.7304 122.43 12.8129 122.24 12.9046C121.603 13.1795 118.896 14.3252 118.896 14.3252Z" fill="url(#paint13_linear_354_13188)"/>
<path d="M119.865 35.7623L119.828 35.7256C119.865 35.7073 119.884 35.7165 119.865 35.7623Z" fill="#006B44"/>
<path d="M123.796 33.3711C123.815 33.3894 123.834 33.4078 123.843 33.4169C123.824 33.3986 123.815 33.3803 123.796 33.3711Z" fill="#004233"/>
<path d="M123.845 33.416C123.863 33.4343 123.882 33.4527 123.891 33.4618C123.873 33.4435 123.863 33.4343 123.845 33.416Z" fill="#004233"/>
<path d="M123.892 33.4619C123.911 33.4802 123.929 33.4986 123.939 33.5077C123.92 33.4894 123.901 33.4802 123.892 33.4619Z" fill="#004233"/>
<path d="M133.608 14.2607C133.608 14.2607 129.401 16.3412 127.359 17.3402C127.217 17.4135 127.169 17.4868 127.169 17.6426C127.141 19.5765 127.122 21.5011 127.15 23.4258C127.16 24.2324 127.217 25.0297 127.425 25.8179C127.52 26.157 127.644 26.4778 127.843 26.7803C127.891 26.8444 127.929 26.9086 127.919 26.9911C128.166 27.1927 128.337 27.4677 128.575 27.6876C128.641 27.7518 128.708 27.8159 128.774 27.8893C128.85 27.9626 128.926 28.0451 129.002 28.1184C129.078 28.21 129.154 28.2925 129.249 28.3475C129.268 28.3659 129.287 28.3842 129.297 28.4025C129.306 28.4117 129.325 28.4208 129.334 28.4392C129.353 28.4575 129.372 28.4758 129.391 28.4942C129.942 29.0441 130.569 29.5023 131.215 29.9423C131.927 30.428 132.649 30.8954 133.371 31.3629C133.475 31.4362 133.646 31.537 133.618 31.6745C133.618 33.4434 133.581 35.2085 133.581 36.9774C131.852 35.9417 130.161 34.7631 128.537 33.59C126.029 31.7753 123.655 29.5848 122.743 26.6153C122.477 25.7354 122.278 24.8464 122.164 23.9299C121.936 22.0236 121.983 20.1172 122.002 18.22V15.9379C123.265 15.3238 124.871 14.6364 126.134 14.0132C127.777 13.1975 129.429 12.391 131.082 11.5753C131.851 11.1995 132.839 10.7596 133.618 10.3838C133.599 10.393 133.599 13.6649 133.608 14.2607Z" fill="url(#paint14_linear_354_13188)"/>
<path d="M133.58 40.1806C133.58 39.0991 133.589 38.0359 133.58 36.9544C134.672 36.2762 135.774 35.5888 136.856 34.8831C137.987 34.1315 139.107 33.3617 140.123 32.4635C140.646 32.0052 142.612 30.0164 142.612 30.0164C143.058 30.0164 146.354 29.998 146.354 29.998C144.236 33.2425 141.881 35.0389 139.022 36.9819C137.293 38.1551 135.432 39.1999 133.58 40.1806Z" fill="url(#paint15_linear_354_13188)"/>
<path d="M145.519 15.801C146.478 15.3886 147.523 14.9211 148.463 14.4629V19.5129C147.475 19.5129 146.497 19.5129 145.509 19.5129C145.519 18.3764 145.519 16.9375 145.519 15.801Z" fill="#0B1826"/>
<path d="M148.463 14.4724C147.522 14.9306 146.478 15.398 145.518 15.8105C144.749 15.4989 143.999 15.1414 143.248 14.7931C143.077 14.7198 142.906 14.6373 142.726 14.5548C139.687 13.1617 136.657 11.732 133.599 10.3939V7.74512C134.833 8.29503 136.011 8.80828 137.246 9.35819C137.778 9.59648 138.309 9.83478 138.832 10.0822C140.133 10.678 141.434 11.2737 142.726 11.8603C143.286 12.1169 143.856 12.3735 144.426 12.6393C145.442 13.0976 146.468 13.5375 147.475 14.0141C147.684 14.1241 148.463 14.4724 148.463 14.4724Z" fill="url(#paint16_linear_354_13188)"/>
<path d="M132.249 28.2658C130.521 27.3493 129.438 25.617 129.438 23.7382L129.495 18.7798L127.121 17.3867V24.2698C127.121 28.22 130.692 29.9797 133.617 31.9593L133.625 28.9954L132.249 28.2658Z" fill="url(#paint17_linear_354_13188)"/>
<path d="M133.598 14.252V16.7357L129.495 18.7704L127.121 17.3773L133.598 14.252Z" fill="url(#paint18_linear_354_13188)"/>
<path d="M139.741 26.3675C138.744 29.1079 135.926 30.3828 133.618 31.95V28.9897C134.91 28.3023 136.272 27.6324 137.032 26.3584L139.741 26.3675Z" fill="url(#paint19_linear_354_13188)"/>
<path d="M140.115 17.5059V22.4367L137.788 24.5355V18.7981L140.115 17.5059Z" fill="url(#paint20_linear_354_13188)"/>
<path d="M140.114 17.4689V17.5056L137.787 18.7979L137.493 18.6512L136.467 18.1472L133.599 16.7357V14.252L137.493 16.1675L138.984 16.9099L140.114 17.4689Z" fill="url(#paint21_linear_354_13188)"/>
<path d="M64.9741 14.9756H62.2197V31.5737H64.9741V14.9756Z" fill="white"/>
<path d="M59.8449 24.9102C59.8449 23.957 59.7499 23.1046 59.5599 22.3714C59.3795 21.6382 59.0945 21.015 58.7146 20.5109C58.3347 20.0068 57.8503 19.631 57.2615 19.3836C56.6726 19.127 55.9698 19.0078 55.172 19.0078C54.4691 19.0078 53.8043 19.127 53.1965 19.3561C52.5981 19.5944 52.0757 19.9518 51.6388 20.4376C51.2019 20.9233 50.8505 21.5466 50.6036 22.3073C50.3567 23.0588 50.2427 23.957 50.2427 24.9927V26.1841C50.2427 27.1007 50.3661 27.9072 50.5941 28.6129C50.8315 29.3095 51.1734 29.8869 51.6198 30.3635C52.0662 30.8401 52.6171 31.1975 53.2629 31.4358C53.9088 31.6741 54.6496 31.7841 55.4759 31.7841C56.2072 31.7841 56.8531 31.6924 57.3944 31.5091C57.9453 31.3258 58.4107 31.0967 58.8001 30.8126C59.1895 30.5193 59.4934 30.226 59.7214 29.9327L58.5057 28.3013C58.1732 28.6771 57.7649 28.9795 57.2995 29.2178C56.8436 29.4469 56.2927 29.5569 55.6564 29.5569C55.2195 29.5569 54.8396 29.4928 54.5071 29.3736C54.1842 29.2453 53.9088 29.0528 53.6808 28.7779C53.4529 28.5029 53.2724 28.1547 53.1585 27.7239C53.054 27.3115 52.997 26.8074 52.997 26.2208H59.8543V24.9102H59.8449ZM57.1285 24.2411H53.0065C53.0255 23.8654 53.073 23.5171 53.13 23.2238C53.2249 22.738 53.3579 22.3531 53.5289 22.0598C53.7093 21.7665 53.9373 21.5557 54.2127 21.4366C54.4881 21.3083 54.8016 21.2441 55.1625 21.2441C55.6564 21.2441 56.0363 21.3541 56.3117 21.5741C56.5966 21.7849 56.8056 22.0965 56.929 22.5089C57.0525 22.9122 57.1285 23.3979 57.138 23.957L57.1285 24.2411Z" fill="white"/>
<path d="M44.9911 14.9756V20.3464C44.7062 19.9614 44.3738 19.6498 43.9844 19.4299C43.519 19.1457 42.9681 19.0083 42.3318 19.0083C41.6764 19.0083 41.0876 19.1274 40.5747 19.3565C40.0523 19.5948 39.6154 19.9523 39.245 20.4472C38.8841 20.9421 38.6087 21.5653 38.4187 22.3077C38.2288 23.0409 38.1338 23.9208 38.1338 24.929V25.9005C38.1338 26.872 38.2288 27.7243 38.4187 28.4667C38.6087 29.1999 38.8841 29.8048 39.245 30.2998C39.6154 30.7947 40.0523 31.1704 40.5652 31.4179C41.0876 31.6745 41.6669 31.7937 42.3223 31.7937C42.9586 31.7937 43.5 31.6562 43.9654 31.3812C44.4213 31.1155 44.8012 30.7397 45.1241 30.2631L45.2571 31.5737L47.7455 31.5645V14.9756H44.9911ZM44.9911 28.3292C44.8297 28.6684 44.6017 28.9433 44.3168 29.1541C44.0034 29.3924 43.595 29.5207 43.0821 29.5207C42.6737 29.5207 42.3318 29.4566 42.0563 29.3191C41.7714 29.1724 41.5435 28.9525 41.3725 28.6684C41.2016 28.3751 41.0686 27.9993 40.9926 27.541C40.9166 27.0828 40.8691 26.542 40.8691 25.9096V24.9381C40.8691 24.3057 40.9071 23.765 40.9926 23.3067C41.0781 22.8485 41.211 22.4635 41.382 22.1702C41.553 21.8678 41.7904 21.6387 42.0658 21.5012C42.3508 21.3454 42.6927 21.2721 43.0916 21.2721C43.4525 21.2721 43.7659 21.3454 44.0413 21.5012C44.3168 21.6478 44.5447 21.8495 44.7347 22.1061C44.8297 22.2344 44.9152 22.3627 44.9816 22.5094V28.3292H44.9911Z" fill="white"/>
<path d="M35.8534 30.2355C35.787 29.7864 35.749 29.2823 35.749 28.7049V22.9492C35.749 22.0052 35.5685 21.2445 35.1981 20.6671C34.8372 20.0805 34.3338 19.6589 33.6975 19.4023C33.0611 19.1365 32.3298 18.999 31.513 18.999C30.8292 18.999 30.2118 19.0998 29.642 19.3106C29.0816 19.5123 28.6067 19.7964 28.2078 20.1538C27.8184 20.5113 27.5145 20.9145 27.296 21.3728C27.0871 21.8311 26.9921 22.2985 26.9921 22.7934H29.7464C29.7464 22.4726 29.8129 22.1977 29.9364 21.9502C30.0599 21.6936 30.2498 21.5011 30.4968 21.3545C30.7437 21.2078 31.0571 21.1437 31.418 21.1437C31.7694 21.1437 32.0544 21.2078 32.2823 21.327C32.5197 21.4461 32.7002 21.6294 32.8142 21.8861C32.9377 22.1427 33.0041 22.4818 33.0041 22.9126V24.049H31.8454C31.0001 24.049 30.2498 24.1498 29.6135 24.3423C28.9771 24.544 28.4547 24.8189 28.0368 25.1855C27.6189 25.543 27.3055 25.9737 27.0871 26.4686C26.8781 26.9727 26.7642 27.5318 26.7642 28.1459C26.7642 28.9066 26.9256 29.5573 27.239 30.1072C27.562 30.648 27.9989 31.0604 28.5592 31.3537C29.1196 31.647 29.7559 31.7844 30.4777 31.7844C30.9716 31.7844 31.4085 31.6928 31.7884 31.5186C32.1683 31.3353 32.4913 31.097 32.7572 30.8129C32.8807 30.6846 32.9851 30.5471 33.0896 30.4097C33.1561 30.8679 33.2511 31.2529 33.3745 31.5461H36.1764V31.372C36.0339 31.0604 35.9294 30.6846 35.8534 30.2355ZM32.1589 29.319C31.8359 29.5023 31.456 29.594 31.0096 29.594C30.6867 29.594 30.4113 29.539 30.1833 29.4198C29.9649 29.3007 29.7939 29.1174 29.6799 28.8699C29.5755 28.6316 29.5185 28.3108 29.5185 27.9259C29.5185 27.6051 29.5755 27.3118 29.6799 27.046C29.8034 26.7803 29.9649 26.5603 30.1738 26.377C30.3923 26.1845 30.6677 26.0379 30.9811 25.9462C31.2946 25.8454 31.6555 25.7904 32.0449 25.7904H32.9946V28.5308C32.9756 28.5675 32.9471 28.6041 32.9282 28.6408C32.7477 28.8974 32.4913 29.1265 32.1589 29.319Z" fill="white"/>
<path d="M24.9505 29.3836V31.5283C24.7416 31.6016 24.5136 31.6749 24.2477 31.7207C23.9817 31.7757 23.6588 31.8032 23.2789 31.8032C22.7186 31.8032 22.2152 31.6932 21.7783 31.4733C21.3414 31.2441 20.99 30.8775 20.743 30.3643C20.4961 29.851 20.3631 29.1637 20.3631 28.3113V21.2816H18.644V19.2286H20.3631V16.2041H23.108V19.2286H24.922V21.2816H23.108V28.1188C23.108 28.4946 23.1554 28.7879 23.2409 28.9895C23.3264 29.1912 23.4499 29.3195 23.6018 29.3928C23.7633 29.4661 23.9438 29.4936 24.1527 29.4936C24.3142 29.4936 24.4661 29.4844 24.6181 29.4569C24.77 29.4386 24.884 29.4111 24.9505 29.3836Z" fill="white"/>
<path d="M16.8207 19.2373H14.0664V31.5736H16.8207V19.2373Z" fill="white"/>
<path d="M13.9233 16.5521C13.9233 16.1305 14.0563 15.7731 14.3317 15.489C14.5977 15.2049 14.9776 15.0674 15.4525 15.0674C15.9273 15.0674 16.3073 15.214 16.5732 15.489C16.8391 15.7731 16.9721 16.1214 16.9721 16.5521C16.9721 16.9737 16.8391 17.322 16.5732 17.6061C16.3073 17.8903 15.9273 18.0277 15.4525 18.0277C14.9776 18.0277 14.5977 17.8811 14.3317 17.6061C14.0563 17.322 13.9233 16.9646 13.9233 16.5521Z" fill="white"/>
<path d="M8.73788 26.1567H11.5967C11.5397 27.3574 11.2928 28.3747 10.8369 29.2271C10.3905 30.0611 9.74463 30.7027 8.89934 31.1426C8.06354 31.5825 7.03779 31.8025 5.84108 31.8025C4.9293 31.8025 4.1125 31.6467 3.38118 31.3259C2.65935 31.0051 2.05151 30.5469 1.54813 29.942C1.04475 29.3279 0.655339 28.5947 0.389403 27.724C0.123468 26.8533 0 25.8634 0 24.7453V21.8033C0 20.6943 0.132963 19.7045 0.398899 18.8246C0.674332 17.9539 1.06374 17.2115 1.57662 16.6066C2.08949 15.9926 2.70685 15.5435 3.44767 15.2227C4.18849 14.9019 5.02428 14.7461 5.95505 14.7461C7.14226 14.7461 8.13953 14.9661 8.95633 15.406C9.76364 15.8459 10.3905 16.4966 10.8369 17.3398C11.2738 18.1922 11.5302 19.2279 11.6062 20.456H8.74738C8.70938 19.622 8.58592 18.9621 8.39596 18.4672C8.20601 17.9631 7.92107 17.6056 7.52217 17.3857C7.13276 17.1657 6.6199 17.0557 5.96456 17.0557C5.42319 17.0557 4.9483 17.1565 4.55889 17.349C4.16949 17.5506 3.85607 17.8439 3.59963 18.238C3.35269 18.623 3.17223 19.1179 3.04876 19.7045C2.92529 20.291 2.8683 20.9784 2.8683 21.7666V24.727C2.8683 25.4877 2.9158 26.1659 3.02027 26.7433C3.12475 27.3299 3.2862 27.8248 3.51415 28.2372C3.74209 28.6405 4.04602 28.9429 4.42592 29.1629C4.80583 29.3645 5.27122 29.4745 5.84108 29.4745C6.51542 29.4745 7.05679 29.3737 7.45569 29.1629C7.86409 28.9613 8.16802 28.613 8.36747 28.1272C8.56692 27.6598 8.69039 26.9908 8.73788 26.1567Z" fill="white"/>
<path d="M107.219 14.9199V31.518H104.408L98.3295 20.0341V31.5272H95.5562V14.9199H98.3295L104.446 26.4955V14.9199H107.219Z" fill="url(#paint22_linear_354_13188)"/>
<path d="M92.3748 17.4862C91.9474 16.6888 91.3395 16.0564 90.5322 15.6073C89.7344 15.1491 88.7656 14.9199 87.6259 14.9199H81.9463V31.518H84.8146V25.3591H87.6259C88.7656 25.3591 89.7344 25.1574 90.5322 24.745C91.3395 24.3234 91.9474 23.7368 92.3748 22.9669C92.8022 22.1971 93.0111 21.2806 93.0111 20.2082C93.0111 19.1909 92.8022 18.2744 92.3748 17.4862ZM89.8579 21.6838C89.6964 22.1054 89.4305 22.4445 89.0696 22.692C88.7086 22.9394 88.2243 23.0586 87.6259 23.0586H84.8146V17.257H87.6259C88.2243 17.257 88.7086 17.3945 89.0696 17.6786C89.4305 17.9628 89.6964 18.3294 89.8579 18.7876C90.0288 19.2459 90.1143 19.7316 90.1143 20.2449C90.1238 20.7765 90.0288 21.2622 89.8579 21.6838Z" fill="url(#paint23_linear_354_13188)"/>
<path d="M79.9712 14.9199L74.8329 31.518H72.0406L66.9023 14.9199H69.9986L73.4178 27.632L76.8654 14.9199H79.9712Z" fill="url(#paint24_linear_354_13188)"/>
<defs>
<linearGradient id="paint0_linear_354_13188" x1="131.175" y1="13.5705" x2="116.602" y2="32.6992" gradientUnits="userSpaceOnUse">
<stop/>
<stop offset="0.1041" stop-color="#0E321E"/>
<stop offset="0.2136" stop-color="#1A5F39"/>
<stop offset="0.328" stop-color="#258550"/>
<stop offset="0.4456" stop-color="#2EA563"/>
<stop offset="0.5675" stop-color="#34BD71"/>
<stop offset="0.6955" stop-color="#39CE7C"/>
<stop offset="0.8335" stop-color="#3CD982"/>
<stop offset="1" stop-color="#3DDC84"/>
</linearGradient>
<linearGradient id="paint1_linear_354_13188" x1="133.616" y1="31.1723" x2="152.838" y2="31.1723" gradientUnits="userSpaceOnUse">
<stop offset="0.052" stop-color="#3BD680"/>
<stop offset="0.099" stop-color="#3BD580"/>
<stop offset="0.433" stop-color="#31B46B"/>
<stop offset="0.4885" stop-color="#31B46B"/>
<stop offset="0.637" stop-color="#31B56C"/>
<stop offset="1" stop-color="#3DDC84"/>
</linearGradient>
<linearGradient id="paint2_linear_354_13188" x1="116.602" y1="1.24201" x2="126.854" y2="23.1145" gradientUnits="userSpaceOnUse">
<stop offset="0.002" stop-color="#0D1B2A"/>
<stop offset="0.0544416" stop-color="#133235"/>
<stop offset="0.1701" stop-color="#1E5F4A"/>
<stop offset="0.2908" stop-color="#27855C"/>
<stop offset="0.4149" stop-color="#2FA56A"/>
<stop offset="0.5436" stop-color="#35BD76"/>
<stop offset="0.6786" stop-color="#3ACE7E"/>
<stop offset="0.8243" stop-color="#3CD982"/>
<stop offset="1" stop-color="#3DDC84"/>
</linearGradient>
<linearGradient id="paint3_linear_354_13188" x1="123.595" y1="-2.03525" x2="133.847" y2="19.8372" gradientUnits="userSpaceOnUse">
<stop offset="0.002" stop-color="#0D1B2A"/>
<stop offset="0.0544416" stop-color="#133235"/>
<stop offset="0.1701" stop-color="#1E5F4A"/>
<stop offset="0.2908" stop-color="#27855C"/>
<stop offset="0.4149" stop-color="#2FA56A"/>
<stop offset="0.5436" stop-color="#35BD76"/>
<stop offset="0.6786" stop-color="#3ACE7E"/>
<stop offset="0.8243" stop-color="#3CD982"/>
<stop offset="1" stop-color="#3DDC84"/>
</linearGradient>
<linearGradient id="paint4_linear_354_13188" x1="142.169" y1="27.4054" x2="155.099" y2="14.0053" gradientUnits="userSpaceOnUse">
<stop offset="0.2398" stop-color="#0D1B2A"/>
<stop offset="0.8085" stop-color="#35BD76"/>
<stop offset="0.8432" stop-color="#1E5F4A"/>
<stop offset="1" stop-color="#3DDC84"/>
</linearGradient>
<linearGradient id="paint5_linear_354_13188" x1="149.098" y1="7.49712" x2="140.718" y2="14.0381" gradientUnits="userSpaceOnUse">
<stop offset="0.002" stop-color="#0D1B2A"/>
<stop offset="0.1701" stop-color="#1E5F4A"/>
<stop offset="0.2908" stop-color="#27855C"/>
<stop offset="0.4149" stop-color="#2FA56A"/>
<stop offset="0.5436" stop-color="#35BD76"/>
<stop offset="0.6786" stop-color="#3ACE7E"/>
<stop offset="0.8243" stop-color="#3CD982"/>
<stop offset="1" stop-color="#3DDC84"/>
</linearGradient>
<linearGradient id="paint6_linear_354_13188" x1="141.222" y1="3.73877" x2="134.732" y2="13.551" gradientUnits="userSpaceOnUse">
<stop offset="0.002" stop-color="#0D1B2A"/>
<stop offset="0.1701" stop-color="#1E5F4A"/>
<stop offset="0.2908" stop-color="#27855C"/>
<stop offset="0.4149" stop-color="#2FA56A"/>
<stop offset="0.5436" stop-color="#35BD76"/>
<stop offset="0.6786" stop-color="#3ACE7E"/>
<stop offset="0.8243" stop-color="#3CD982"/>
<stop offset="1" stop-color="#3DDC84"/>
</linearGradient>
<linearGradient id="paint7_linear_354_13188" x1="150.841" y1="-0.0899371" x2="126.417" y2="39.1966" gradientUnits="userSpaceOnUse">
<stop offset="0.002" stop-color="#0D1B2A"/>
<stop offset="0.1514" stop-color="#1E5F4A"/>
<stop offset="0.507" stop-color="#27855C"/>
<stop offset="0.8085" stop-color="#35BD76"/>
<stop offset="1" stop-color="#3DDC84"/>
</linearGradient>
<linearGradient id="paint8_linear_354_13188" x1="135.442" y1="31.4885" x2="147.938" y2="34.2551" gradientUnits="userSpaceOnUse">
<stop offset="0.002" stop-color="#0D1B2A"/>
<stop offset="0.0544416" stop-color="#133235"/>
<stop offset="0.1701" stop-color="#1E5F4A"/>
<stop offset="0.2908" stop-color="#27855C"/>
<stop offset="0.4149" stop-color="#2FA56A"/>
<stop offset="0.5436" stop-color="#35BD76"/>
<stop offset="0.6786" stop-color="#3ACE7E"/>
<stop offset="0.8243" stop-color="#3CD982"/>
<stop offset="1" stop-color="#3DDC84"/>
</linearGradient>
<linearGradient id="paint9_linear_354_13188" x1="138.237" y1="46.0884" x2="145.33" y2="18.774" gradientUnits="userSpaceOnUse">
<stop offset="0.002" stop-color="#0D1B2A"/>
<stop offset="0.3405" stop-color="#1E5F4A"/>
<stop offset="0.507" stop-color="#27855C"/>
<stop offset="0.8085" stop-color="#35BD76"/>
<stop offset="1" stop-color="#3DDC84"/>
</linearGradient>
<linearGradient id="paint10_linear_354_13188" x1="133.445" y1="40.0813" x2="137.32" y2="40.0813" gradientUnits="userSpaceOnUse">
<stop offset="0.052" stop-color="#3BD680"/>
<stop offset="0.099" stop-color="#3BD580"/>
<stop offset="0.433" stop-color="#31B46B"/>
<stop offset="0.4885" stop-color="#31B46B"/>
<stop offset="0.637" stop-color="#31B56C"/>
<stop offset="1" stop-color="#3DDC84"/>
</linearGradient>
<linearGradient id="paint11_linear_354_13188" x1="122.389" y1="24.1986" x2="135.295" y2="50.4448" gradientUnits="userSpaceOnUse">
<stop offset="0.1047" stop-color="#0D1B2A"/>
<stop offset="0.2246" stop-color="#0E1F2C"/>
<stop offset="0.3343" stop-color="#112A31"/>
<stop offset="0.4401" stop-color="#153C3A"/>
<stop offset="0.5436" stop-color="#1C5746"/>
<stop offset="0.6453" stop-color="#247856"/>
<stop offset="0.8432" stop-color="#3AD27F"/>
<stop offset="0.8622" stop-color="#3DDC84"/>
<stop offset="0.8706" stop-color="#3DDC84"/>
<stop offset="0.9676" stop-color="#3DDC84"/>
</linearGradient>
<linearGradient id="paint12_linear_354_13188" x1="126.248" y1="12.3279" x2="124.954" y2="21.7879" gradientUnits="userSpaceOnUse">
<stop offset="0.1047" stop-color="#0D1B2A"/>
<stop offset="0.2246" stop-color="#0E1F2C"/>
<stop offset="0.3343" stop-color="#112A31"/>
<stop offset="0.4401" stop-color="#153C3A"/>
<stop offset="0.5436" stop-color="#1C5746"/>
<stop offset="0.6453" stop-color="#247856"/>
<stop offset="0.7457" stop-color="#2EA269"/>
<stop offset="0.8432" stop-color="#3AD27F"/>
<stop offset="0.8622" stop-color="#3DDC84"/>
<stop offset="0.8706" stop-color="#3DDC84"/>
<stop offset="0.9676" stop-color="#3DDC84"/>
</linearGradient>
<linearGradient id="paint13_linear_354_13188" x1="120.864" y1="46.9406" x2="127.761" y2="-1.33549" gradientUnits="userSpaceOnUse">
<stop offset="0.002" stop-color="#0D1B2A"/>
<stop offset="0.0544416" stop-color="#133235"/>
<stop offset="0.1701" stop-color="#1E5F4A"/>
<stop offset="0.2908" stop-color="#27855C"/>
<stop offset="0.4149" stop-color="#2FA56A"/>
<stop offset="0.5436" stop-color="#35BD76"/>
<stop offset="0.6786" stop-color="#3ACE7E"/>
<stop offset="0.8243" stop-color="#3CD982"/>
<stop offset="1" stop-color="#3DDC84"/>
</linearGradient>
<linearGradient id="paint14_linear_354_13188" x1="123.697" y1="35.3693" x2="133.148" y2="13.2302" gradientUnits="userSpaceOnUse">
<stop offset="0.002" stop-color="#0D1B2A"/>
<stop offset="0.0544416" stop-color="#133235"/>
<stop offset="0.1701" stop-color="#1E5F4A"/>
<stop offset="0.2908" stop-color="#27855C"/>
<stop offset="0.4149" stop-color="#2FA56A"/>
<stop offset="0.5436" stop-color="#35BD76"/>
<stop offset="0.6786" stop-color="#3ACE7E"/>
<stop offset="0.8243" stop-color="#3CD982"/>
<stop offset="1" stop-color="#3DDC84"/>
</linearGradient>
<linearGradient id="paint15_linear_354_13188" x1="141.279" y1="30.8978" x2="130.73" y2="53.1916" gradientUnits="userSpaceOnUse">
<stop offset="0.0074054" stop-color="#0D1B2A"/>
<stop offset="0.1514" stop-color="#1E5F4A"/>
<stop offset="0.507" stop-color="#27855C"/>
<stop offset="0.8085" stop-color="#35BD76"/>
<stop offset="1" stop-color="#3DDC84"/>
</linearGradient>
<linearGradient id="paint16_linear_354_13188" x1="141.036" y1="12.2261" x2="139.834" y2="21.3981" gradientUnits="userSpaceOnUse">
<stop offset="0.1047" stop-color="#0D1B2A"/>
<stop offset="0.2246" stop-color="#0E1F2C"/>
<stop offset="0.3343" stop-color="#112A31"/>
<stop offset="0.4401" stop-color="#153C3A"/>
<stop offset="0.5436" stop-color="#1C5746"/>
<stop offset="0.6453" stop-color="#247856"/>
<stop offset="0.7457" stop-color="#2EA269"/>
<stop offset="0.8432" stop-color="#3AD27F"/>
<stop offset="0.8622" stop-color="#3DDC84"/>
<stop offset="0.8706" stop-color="#3DDC84"/>
<stop offset="0.9676" stop-color="#3DDC84"/>
</linearGradient>
<linearGradient id="paint17_linear_354_13188" x1="128.486" y1="22.9163" x2="146.893" y2="42.6682" gradientUnits="userSpaceOnUse">
<stop offset="0.0648649" stop-color="#0D1B2A"/>
<stop offset="0.2079" stop-color="#1E5F4A"/>
<stop offset="0.2908" stop-color="#27855C"/>
<stop offset="0.4149" stop-color="#2FA56A"/>
<stop offset="0.5436" stop-color="#35BD76"/>
<stop offset="0.6786" stop-color="#3ACE7E"/>
<stop offset="0.8108" stop-color="#133235"/>
<stop offset="0.8243" stop-color="#3CD982"/>
<stop offset="1" stop-color="#3DDC84"/>
</linearGradient>
<linearGradient id="paint18_linear_354_13188" x1="132.837" y1="18.2626" x2="126.782" y2="11.8427" gradientUnits="userSpaceOnUse">
<stop stop-color="#133235"/>
<stop offset="0.1047" stop-color="#0D1B2A"/>
<stop offset="0.2246" stop-color="#0E1F2C"/>
<stop offset="0.3343" stop-color="#112A31"/>
<stop offset="0.4401" stop-color="#153C3A"/>
<stop offset="0.5436" stop-color="#1C5746"/>
<stop offset="0.6453" stop-color="#247856"/>
<stop offset="0.7457" stop-color="#2EA269"/>
<stop offset="0.8432" stop-color="#3AD27F"/>
<stop offset="0.849" stop-color="#3DDC84"/>
<stop offset="0.8622" stop-color="#3DDC84"/>
<stop offset="0.9676" stop-color="#3DDC84"/>
</linearGradient>
<linearGradient id="paint19_linear_354_13188" x1="135.651" y1="26.1944" x2="138.117" y2="33.8612" gradientUnits="userSpaceOnUse">
<stop offset="0.002" stop-color="#0D1B2A"/>
<stop offset="0.0544416" stop-color="#133235"/>
<stop offset="0.1701" stop-color="#1E5F4A"/>
<stop offset="0.2908" stop-color="#27855C"/>
<stop offset="0.4149" stop-color="#2FA56A"/>
<stop offset="0.5436" stop-color="#35BD76"/>
<stop offset="0.6786" stop-color="#3ACE7E"/>
<stop offset="0.8243" stop-color="#3CD982"/>
<stop offset="1" stop-color="#3DDC84"/>
</linearGradient>
<linearGradient id="paint20_linear_354_13188" x1="133.778" y1="24.6644" x2="145.152" y2="15.5296" gradientUnits="userSpaceOnUse">
<stop stop-color="#133235"/>
<stop offset="0.1047" stop-color="#0D1B2A"/>
<stop offset="0.2246" stop-color="#0E1F2C"/>
<stop offset="0.3343" stop-color="#112A31"/>
<stop offset="0.4401" stop-color="#153C3A"/>
<stop offset="0.5436" stop-color="#1C5746"/>
<stop offset="0.6453" stop-color="#247856"/>
<stop offset="0.7457" stop-color="#2EA269"/>
<stop offset="0.8432" stop-color="#3AD27F"/>
<stop offset="0.849" stop-color="#3DDC84"/>
<stop offset="0.8622" stop-color="#3DDC84"/>
<stop offset="0.9676" stop-color="#3DDC84"/>
</linearGradient>
<linearGradient id="paint21_linear_354_13188" x1="133.614" y1="21.4428" x2="139.563" y2="10.475" gradientUnits="userSpaceOnUse">
<stop stop-color="#133235"/>
<stop offset="0.1047" stop-color="#0D1B2A"/>
<stop offset="0.2246" stop-color="#0E1F2C"/>
<stop offset="0.3343" stop-color="#112A31"/>
<stop offset="0.4401" stop-color="#153C3A"/>
<stop offset="0.5436" stop-color="#1C5746"/>
<stop offset="0.6453" stop-color="#247856"/>
<stop offset="0.7457" stop-color="#2EA269"/>
<stop offset="0.8432" stop-color="#3AD27F"/>
<stop offset="0.849" stop-color="#3DDC84"/>
<stop offset="0.8622" stop-color="#3DDC84"/>
<stop offset="0.9676" stop-color="#3DDC84"/>
</linearGradient>
<linearGradient id="paint22_linear_354_13188" x1="103.705" y1="6.9709" x2="98.3919" y2="46.9259" gradientUnits="userSpaceOnUse">
<stop offset="0.002" stop-color="#0D1B2A"/>
<stop offset="0.0544416" stop-color="#133235"/>
<stop offset="0.1701" stop-color="#1E5F4A"/>
<stop offset="0.2908" stop-color="#27855C"/>
<stop offset="0.4149" stop-color="#2FA56A"/>
<stop offset="0.5436" stop-color="#35BD76"/>
<stop offset="0.6786" stop-color="#3ACE7E"/>
<stop offset="0.8243" stop-color="#3CD982"/>
<stop offset="1" stop-color="#3DDC84"/>
</linearGradient>
<linearGradient id="paint23_linear_354_13188" x1="89.3031" y1="5.05559" x2="83.9897" y2="45.0106" gradientUnits="userSpaceOnUse">
<stop offset="0.002" stop-color="#0D1B2A"/>
<stop offset="0.0544416" stop-color="#133235"/>
<stop offset="0.1701" stop-color="#1E5F4A"/>
<stop offset="0.2908" stop-color="#27855C"/>
<stop offset="0.4149" stop-color="#2FA56A"/>
<stop offset="0.5436" stop-color="#35BD76"/>
<stop offset="0.6786" stop-color="#3ACE7E"/>
<stop offset="0.8243" stop-color="#3CD982"/>
<stop offset="1" stop-color="#3DDC84"/>
</linearGradient>
<linearGradient id="paint24_linear_354_13188" x1="75.1163" y1="3.16891" x2="69.8029" y2="43.1239" gradientUnits="userSpaceOnUse">
<stop offset="0.002" stop-color="#0D1B2A"/>
<stop offset="0.0544416" stop-color="#133235"/>
<stop offset="0.1701" stop-color="#1E5F4A"/>
<stop offset="0.2908" stop-color="#27855C"/>
<stop offset="0.4149" stop-color="#2FA56A"/>
<stop offset="0.5436" stop-color="#35BD76"/>
<stop offset="0.6786" stop-color="#3ACE7E"/>
<stop offset="0.8243" stop-color="#3CD982"/>
<stop offset="1" stop-color="#3DDC84"/>
</linearGradient>
</defs>
</svg>
