<svg width="153" height="46" viewBox="0 0 153 46" fill="none" xmlns="http://www.w3.org/2000/svg">
<path d="M7.58829 31.1806C6.40108 29.595 5.58428 27.8169 5.18537 25.8373C4.97643 24.7833 4.83396 23.7293 4.74848 22.6569C4.73899 22.5561 4.72949 22.4553 4.72949 22.3545C4.85296 22.3637 4.97643 22.3728 5.1094 22.382V22.6111C5.1094 25.6081 5.97369 28.5318 7.58829 31.1806Z" fill="url(#paint0_linear_292_1114)"/>
<path d="M19.5555 35.2672C19.6124 35.4138 19.6504 35.5696 19.6599 35.7346C19.7549 35.5146 19.8689 35.3038 20.0113 35.093C20.6097 34.259 21.5595 33.8282 22.5092 33.4341C22.5282 33.4158 22.5472 33.3975 22.5662 33.3791C22.8322 33.1683 23.1361 33.0309 23.459 32.9117C23.421 32.4534 23.7724 31.6836 23.9814 31.5461C25.0641 30.8679 26.2703 30.4829 27.5145 30.2171C27.5525 29.7314 27.8184 29.1265 28.1224 29.1082C28.6352 29.0898 29.1576 29.0623 29.6705 29.044C30.1739 28.6499 30.7152 28.4483 31.3421 28.989C31.4086 29.0532 31.4561 29.154 31.4751 29.2823C31.608 29.2915 31.741 29.2915 31.874 29.3006C31.9214 29.2548 31.9689 29.209 32.0164 29.1723C32.5483 28.6591 33.0897 28.1183 33.5551 27.5409C33.745 27.3026 33.8875 27.0093 34.0869 26.7894C34.1059 26.7619 34.1249 26.7252 34.1344 26.6886C34.1154 26.6519 34.1059 26.6244 34.0964 26.6152H22.6517C22.5852 27.6509 22.4997 28.155 21.8159 28.989C21.0846 29.878 20.4482 30.5379 19.375 30.3546V35.1022C19.451 35.1022 19.508 35.1388 19.5555 35.2672Z" fill="url(#paint1_linear_292_1114)"/>
<path d="M4.54004 11.1265L8.45308 10.9982V7.69869L4.56853 6.37891L4.54004 11.1265Z" fill="url(#paint2_linear_292_1114)"/>
<path d="M12.0522 7.94656H15.0922V4.6471L12.1105 3.33594L12.0522 7.94656Z" fill="url(#paint3_linear_292_1114)"/>
<path d="M38.7513 22.4362C38.6753 23.2427 38.5993 23.7926 38.5043 24.5258H23.5645L25.616 22.3262L38.7513 22.4362Z" fill="url(#paint4_linear_292_1114)"/>
<path d="M34.211 11.0715L30.3359 10.9982V7.69869L34.211 6.37891V11.0715Z" fill="url(#paint5_linear_292_1114)"/>
<path d="M26.6888 7.91905H23.6875L23.716 4.61959L26.6888 3.2998V7.91905Z" fill="url(#paint6_linear_292_1114)"/>
<path d="M19.3749 10.3933C20.5526 10.8791 21.7208 11.4015 22.8701 11.9514C24.6176 12.7304 26.3272 13.5461 28.0558 14.3618C29.148 14.8384 30.2023 15.3608 31.2945 15.8099C31.2945 16.9464 31.2945 19.5127 31.2945 19.5127H34.2388V14.481C34.2388 14.481 31.3895 13.1704 30.7816 12.8954C30.5917 12.8037 30.3922 12.7213 30.2023 12.6296C29.0246 12.098 27.8563 11.5573 26.6786 11.0257C25.9853 10.7049 25.292 10.3841 24.6081 10.0725C24.3137 9.93505 24.0193 9.80673 23.7153 9.66926C23.4779 9.55927 23.25 9.45846 23.022 9.34848C21.8158 8.80773 20.5906 8.28532 19.3844 7.74457V0L23.4494 1.86053L23.7249 1.97968V6.50727C24.6841 6.88304 25.6244 7.32297 26.5552 7.75374C26.6121 7.77207 26.6501 7.79956 26.6881 7.81789V3.29946L30.7911 5.27914C30.7911 5.27914 30.7911 5.27914 30.7436 9.53178C31.209 9.73341 34.2008 11.0624 34.2008 11.0624C34.2008 9.50122 34.2008 7.93997 34.2008 6.37896L38.7597 8.35864V13.1062C38.7977 14.3802 38.7597 15.6541 38.7597 16.9189C38.7597 18.7428 38.7597 20.6033 38.7597 22.4272C34.4572 22.4272 30.1548 22.3722 25.8523 22.418C25.7763 22.418 25.7004 22.4088 25.6434 22.4638C25.6054 22.4822 25.5674 22.5005 25.5389 22.5188C25.5389 21.8773 25.9948 17.6521 25.7669 17.5055C25.0735 17.1755 24.0668 16.6348 23.3734 16.3048C22.1102 15.6999 20.866 15.095 19.6313 14.4351C19.6218 14.426 19.6028 14.426 19.5839 14.426C19.5459 14.4076 19.5174 14.3893 19.4889 14.3802C19.4414 14.3435 19.3939 14.316 19.3369 14.2793" fill="url(#paint7_linear_292_1114)"/>
<path d="M31.8833 30.2177C31.323 30.9876 30.7531 31.7483 30.0788 32.4357C29.7178 32.8115 29.3664 33.2147 28.9865 33.5722C28.0273 34.4887 27.011 35.3227 25.9473 36.1017C26.1847 35.9093 26.4127 35.7168 26.6311 35.5152C28.3027 34.0396 29.8508 32.4265 31.3325 30.7768C31.5414 30.5385 31.7504 30.3002 31.9498 30.0527C31.9783 30.1169 31.9213 30.1719 31.8833 30.2177Z" fill="url(#paint8_linear_292_1114)"/>
<path d="M38.1139 26.4415C38.0284 26.8173 37.924 27.2022 37.8195 27.5688C37.0787 30.3367 35.8535 32.8479 34.1819 35.1209C30.8672 39.6302 25.8334 43.2046 19.337 45.9908L19.3085 45.5784C19.299 45.5784 19.299 45.5875 19.299 45.5875C19.299 45.5784 19.299 45.5692 19.299 45.5509C19.299 45.5417 19.299 45.5417 19.299 45.5417C19.299 45.5234 19.299 45.5142 19.2895 45.4959V45.3492C19.2895 44.946 19.2705 44.5427 19.299 44.1486V42.1781L19.3465 40.1709C20.4672 39.5935 21.4835 38.9703 22.5472 38.3195C22.7277 38.2096 22.9081 38.0996 23.0981 37.9804C23.7059 37.6322 24.3043 37.2747 24.8551 36.8989C25.2445 36.6332 25.6245 36.3674 26.0044 36.0924C27.0776 35.3134 28.0939 34.4793 29.0531 33.5628C29.433 33.1962 29.775 32.8021 30.1454 32.4263C30.8197 31.739 31.3896 30.9782 31.9499 30.2084C31.9879 30.1625 32.0449 30.1076 32.0164 30.0526C32.0164 30.0526 32.0164 30.0526 32.0164 30.0434C31.9784 29.9884 31.9119 30.0067 31.8549 30.0067C31.8454 30.0067 31.8455 30.0067 31.8455 30.0067C30.7532 30.0067 29.661 30.0067 28.5782 30.0067C28.4548 30.0067 28.3598 30.0434 28.2933 30.1351C27.619 30.9966 26.8117 31.7298 25.9949 32.4538C24.9786 33.352 23.8674 34.1219 22.7277 34.8734C21.6449 35.5883 20.5242 36.2574 19.4225 36.9448C19.413 36.9356 19.3683 36.987 19.3588 36.9778C19.3588 35.2915 19.073 33.5628 19.073 31.8764L19.0635 31.7023C19.073 31.6656 19.0825 31.6381 19.092 31.6106C19.1015 31.5923 19.1015 31.574 19.111 31.5557C19.149 31.4915 19.1774 31.4457 19.2059 31.3998C19.7853 31.0699 20.7047 30.7491 21.2745 30.41C21.9584 30.0067 22.6517 29.5943 23.25 29.0719C23.7249 28.6503 24.2093 28.2287 24.6367 27.7613C24.7982 27.5871 24.739 27.8004 23.7893 27.6079C23.8842 27.4154 23.9602 27.2138 24.0172 27.0122C24.0362 26.9297 24.0647 26.8472 24.0742 26.7555L25.5127 26.3682H25.615L33.2891 26.3865H33.3746L38.1139 26.4415Z" fill="url(#paint9_linear_292_1114)"/>
<path d="M22.5476 38.3196C21.4743 38.9703 20.4011 39.621 19.2898 40.1984V42.1873L19.2139 40.0335C20.4676 39.3644 21.8162 38.7045 23.0889 37.9805C22.918 38.0996 22.728 38.2096 22.5476 38.3196Z" fill="url(#paint10_linear_292_1114)"/>
<path d="M19.3562 40.2073C18.2355 39.6299 17.1622 38.9701 16.089 38.3194C14.7498 37.5037 13.4486 36.633 12.2045 35.6707C11.3497 35.0108 10.5044 34.3417 9.75404 33.5535C9.73505 33.5352 9.71605 33.5168 9.70656 33.4985C9.68756 33.4802 9.66856 33.471 9.65907 33.4527C9.64007 33.4344 9.62108 33.416 9.61158 33.4069C9.59258 33.3885 9.57359 33.3702 9.56409 33.361C9.54509 33.3427 9.5261 33.3244 9.5166 33.3152C9.49761 33.2969 9.47861 33.2786 9.45962 33.2694C9.32665 33.1594 9.19368 33.0403 9.07971 32.9028C7.0757 30.9048 5.72703 28.5768 5.17616 25.8273C4.96721 24.7733 4.82475 23.7193 4.73927 22.6469C4.69178 22.0237 4.66329 21.4005 4.64429 20.7681C4.6063 19.4758 4.57781 18.1835 4.6063 16.8912C4.6253 16.0755 4.64429 15.2507 4.64429 14.435V14.3066L7.9115 16.0114C7.81652 16.103 7.77853 16.2222 7.77853 16.3871C7.78803 16.992 7.75953 17.5969 7.75953 18.1927C7.74053 20.099 7.69305 22.0054 7.921 23.9026C8.03497 24.8191 8.23442 25.7081 8.50035 26.588C8.88976 27.8894 9.5831 29.0259 10.4759 30.0616C10.5804 30.2082 10.6848 30.3549 10.7893 30.5015C10.8273 30.5382 10.8653 30.5657 10.8938 30.5932C11.91 31.7021 13.0687 32.6736 14.3034 33.5627C15.3577 34.3234 19.3562 36.9702 19.3562 36.9702C19.3562 36.9702 19.3857 38.7471 19.3952 39.7187" fill="url(#paint11_linear_292_1114)"/>
<path d="M19.375 7.75421V10.4029C19.375 10.4029 17.5989 11.2645 16.8391 11.6311C15.196 12.4376 13.5624 13.2167 11.9193 14.0415C11.0835 14.4631 10.2287 14.8481 9.38344 15.2697C8.96555 15.4805 8.53815 15.6912 8.11075 15.902C8.02527 15.9387 7.95879 15.9845 7.9208 16.0304L4.66309 14.3165C4.68208 14.2706 4.73907 14.2523 4.80555 14.2248C5.36592 13.9865 5.91678 13.7391 6.47714 13.4916C7.31294 13.1158 8.13924 12.7309 8.97504 12.346C11.4824 11.1912 13.9898 10.0272 16.5067 8.87236C17.428 8.45076 18.3398 8.02916 19.3085 7.69922C19.299 7.70838 19.3655 7.75421 19.375 7.75421Z" fill="url(#paint12_linear_292_1114)"/>
<path d="M5.60159 35.6807C5.59263 35.6897 5.59263 35.6988 5.58367 35.7169L5.57471 35.6988C5.58367 35.6897 5.59263 35.6807 5.60159 35.6807Z" fill="#006B44"/>
<path d="M4.6731 14.3252C4.64461 16.4148 4.59712 18.6878 4.66361 20.7774C4.6826 21.2999 4.7016 21.8314 4.73959 22.3539C4.74909 22.4547 4.74909 22.5555 4.75858 22.6563C4.83457 23.7286 4.97703 24.7918 5.19548 25.8366C5.59438 27.8255 6.41119 29.5943 7.5984 31.1799C8.04479 31.7757 8.54817 32.3531 9.09904 32.903C9.20351 33.0404 9.33648 33.1596 9.47894 33.2696C9.49794 33.2879 9.51693 33.2971 9.53593 33.3154C9.55492 33.3337 9.57392 33.3521 9.58342 33.3612C9.60241 33.3704 9.62141 33.3887 9.63091 33.4071C9.6499 33.4254 9.6594 33.4437 9.67839 33.4529C9.69739 33.4712 9.70689 33.4895 9.72588 33.4987C9.74488 33.517 9.76387 33.5354 9.77337 33.5537C10.5237 34.3327 11.369 35.0018 12.2238 35.6708C13.4585 36.624 14.7597 37.4947 16.1083 38.3104C17.1816 38.9612 18.2548 39.6119 19.366 40.1893C19.366 42.1323 19.347 44.057 19.347 46C9.54542 41.8207 3.03001 35.8083 0.836046 27.578C0.655589 26.9548 0.503622 26.3315 0.380152 25.6808C0.313668 25.3142 0.247182 24.9568 0.199693 24.5902C0.0952187 23.747 0.0287349 22.8946 0.00973951 22.0422V20.5575C0.00973951 19.3019 0.000244141 18.0371 0.000244141 16.7723V15.7916C0.00974183 15.7916 0.00973719 15.7916 0.0192349 15.8008C0.00973719 14.9117 0.000248777 14.0319 0.0287419 13.1429V8.38613L4.58763 6.40646C4.58763 7.93704 4.59713 9.54094 4.59713 11.1265C4.59713 11.1265 7.50342 9.79757 7.96881 9.59594C7.96881 9.59594 8.0068 6.69058 8.0068 5.3158L12.1098 3.33612V7.85455C12.1478 7.83622 12.1858 7.81789 12.2428 7.7904C13.1735 7.35963 14.1138 6.91971 15.0731 6.54393V1.97968L15.3485 1.86053L19.404 0V7.74457C18.1978 8.28532 16.9916 8.8169 15.7759 9.35764C15.5385 9.45846 15.3105 9.56844 15.0826 9.67842C14.7882 9.80674 14.4937 9.94421 14.1898 10.0817C13.4965 10.3933 12.8126 10.7141 12.1193 11.0349C10.9416 11.5756 9.77337 12.1164 8.59565 12.6388C8.4057 12.7304 8.20625 12.8129 8.0163 12.9046C7.37995 13.1795 4.6731 14.3252 4.6731 14.3252Z" fill="url(#paint13_linear_292_1114)"/>
<path d="M5.64127 35.7623L5.604 35.7256C5.64127 35.7073 5.6599 35.7165 5.64127 35.7623Z" fill="#006B44"/>
<path d="M9.57324 33.3711C9.59187 33.3894 9.61051 33.4078 9.61982 33.4169C9.60119 33.3986 9.59187 33.3803 9.57324 33.3711Z" fill="#004233"/>
<path d="M9.62109 33.416C9.63973 33.4343 9.65836 33.4527 9.66767 33.4618C9.64904 33.4435 9.63973 33.4343 9.62109 33.416Z" fill="#004233"/>
<path d="M9.66895 33.4619C9.68758 33.4802 9.70621 33.4986 9.71553 33.5077C9.69689 33.4894 9.67826 33.4802 9.66895 33.4619Z" fill="#004233"/>
<path d="M19.3853 14.2607C19.3853 14.2607 15.1778 16.3412 13.1358 17.3402C12.9934 17.4135 12.9459 17.4868 12.9459 17.6426C12.9174 19.5765 12.8984 21.5011 12.9269 23.4258C12.9364 24.2324 12.9934 25.0297 13.2023 25.8179C13.2973 26.157 13.4208 26.4778 13.6202 26.7803C13.6677 26.8444 13.7057 26.9086 13.6962 26.9911C13.9431 27.1927 14.1141 27.4677 14.3515 27.6876C14.418 27.7518 14.4845 27.8159 14.551 27.8893C14.627 27.9626 14.7029 28.0451 14.7789 28.1184C14.8549 28.21 14.9309 28.2925 15.0259 28.3475C15.0449 28.3659 15.0639 28.3842 15.0734 28.4025C15.0828 28.4117 15.1018 28.4208 15.1113 28.4392C15.1303 28.4575 15.1493 28.4758 15.1683 28.4942C15.7192 29.0441 16.346 29.5023 16.9919 29.9423C17.7042 30.428 18.426 30.8954 19.1479 31.3629C19.2523 31.4362 19.4233 31.537 19.3948 31.6745C19.3948 33.4434 19.3574 35.2085 19.3574 36.9774C17.6288 35.9417 15.9376 34.7631 14.3135 33.59C11.8061 31.7753 9.43172 29.5848 8.51995 26.6153C8.25401 25.7354 8.05456 24.8464 7.94059 23.9299C7.71264 22.0236 7.76014 20.1172 7.77913 18.22V15.9379C9.04233 15.3238 10.6474 14.6364 11.9106 14.0132C13.5537 13.1975 15.2063 12.391 16.8589 11.5753C17.6282 11.1995 18.616 10.7596 19.3948 10.3838C19.3758 10.393 19.3758 13.6649 19.3853 14.2607Z" fill="url(#paint14_linear_292_1114)"/>
<path d="M19.3564 40.1806C19.3564 39.0991 19.3659 38.0359 19.3564 36.9544C20.4487 36.2762 21.5504 35.5888 22.6331 34.8831C23.7634 34.1315 24.8841 33.3617 25.9003 32.4635C26.4227 32.0052 28.3887 30.0164 28.3887 30.0164C28.8351 30.0164 32.1308 29.998 32.1308 29.998C30.0129 33.2425 27.6574 35.0389 24.7986 36.9819C23.07 38.1551 21.2085 39.1999 19.3564 40.1806Z" fill="url(#paint15_linear_292_1114)"/>
<path d="M31.2951 15.801C32.2544 15.3886 33.2992 14.9211 34.2394 14.4629V19.5129C33.2517 19.5129 32.2734 19.5129 31.2856 19.5129C31.2951 18.3764 31.2951 16.9375 31.2951 15.801Z" fill="#0B1826"/>
<path d="M34.2389 14.4724C33.2986 14.9306 32.2539 15.398 31.2946 15.8105C30.5253 15.4989 29.775 15.1414 29.0247 14.7931C28.8537 14.7198 28.6827 14.6373 28.5023 14.5548C25.463 13.1617 22.4333 11.732 19.375 10.3939V7.74512C20.6097 8.29503 21.7874 8.80828 23.0221 9.35819C23.554 9.59648 24.0859 9.83478 24.6082 10.0822C25.9094 10.678 27.2106 11.2737 28.5023 11.8603C29.0626 12.1169 29.6325 12.3735 30.2024 12.6393C31.2186 13.0976 32.2444 13.5375 33.2511 14.0141C33.4601 14.1241 34.2389 14.4724 34.2389 14.4724Z" fill="url(#paint16_linear_292_1114)"/>
<path d="M18.0262 28.2658C16.2976 27.3493 15.2149 25.617 15.2149 23.7382L15.2719 18.7798L12.8975 17.3867V24.2698C12.8975 28.22 16.4686 29.9797 19.3939 31.9593L19.4019 28.9954L18.0262 28.2658Z" fill="url(#paint17_linear_292_1114)"/>
<path d="M19.3749 14.252V16.7357L15.2719 18.7704L12.8975 17.3773L19.3749 14.252Z" fill="url(#paint18_linear_292_1114)"/>
<path d="M25.5178 26.3675C24.5206 29.1079 21.7025 30.3828 19.3945 31.95V28.9897C20.6862 28.3023 22.0485 27.6324 22.8084 26.3584L25.5178 26.3675Z" fill="url(#paint19_linear_292_1114)"/>
<path d="M25.8914 17.5059V22.4367L23.5645 24.5355V18.7981L25.8914 17.5059Z" fill="url(#paint20_linear_292_1114)"/>
<path d="M25.8904 17.4689V17.5056L23.5635 18.7979L23.2691 18.6512L22.2433 18.1472L19.375 16.7357V14.252L23.2691 16.1675L24.7602 16.9099L25.8904 17.4689Z" fill="url(#paint21_linear_292_1114)"/>
<path d="M110.78 14.9766H108.027V31.5747H110.78V14.9766Z" fill="white"/>
<path d="M105.654 24.9112C105.654 23.958 105.56 23.1056 105.37 22.3724C105.189 21.6392 104.905 21.016 104.525 20.5119C104.145 20.0078 103.661 19.632 103.073 19.3846C102.484 19.1279 101.782 19.0088 100.984 19.0088C100.282 19.0088 99.6176 19.1279 99.0101 19.3571C98.4121 19.5954 97.89 19.9528 97.4534 20.4386C97.0168 20.9243 96.6656 21.5475 96.4188 22.3083C96.172 23.0598 96.0581 23.958 96.0581 24.9936V26.1851C96.0581 27.1016 96.1815 27.9082 96.4093 28.6139C96.6466 29.3104 96.9883 29.8879 97.4344 30.3644C97.8805 30.841 98.4311 31.1985 99.0765 31.4368C99.722 31.6751 100.462 31.785 101.288 31.785C102.019 31.785 102.664 31.6934 103.206 31.5101C103.756 31.3268 104.221 31.0977 104.61 30.8135C104.999 30.5202 105.303 30.227 105.531 29.9337L104.316 28.3023C103.984 28.6781 103.576 28.9805 103.111 29.2188C102.655 29.4479 102.104 29.5579 101.468 29.5579C101.032 29.5579 100.652 29.4937 100.32 29.3746C99.9972 29.2463 99.722 29.0538 99.4942 28.7789C99.2664 28.5039 99.086 28.1556 98.9721 27.7249C98.8677 27.3124 98.8108 26.8084 98.8108 26.2218H105.664V24.9112H105.654ZM102.94 24.2421H98.8203C98.8392 23.8663 98.8867 23.5181 98.9436 23.2248C99.0386 22.739 99.1715 22.3541 99.3423 22.0608C99.5227 21.7675 99.7505 21.5567 100.026 21.4376C100.301 21.3092 100.614 21.2451 100.975 21.2451C101.468 21.2451 101.848 21.3551 102.123 21.575C102.408 21.7858 102.617 22.0975 102.74 22.5099C102.864 22.9132 102.94 23.3989 102.949 23.958L102.94 24.2421Z" fill="white"/>
<path d="M90.8092 14.9766V20.3474C90.5244 19.9624 90.1922 19.6508 89.8031 19.4308C89.338 19.1467 88.7874 19.0092 88.1515 19.0092C87.4965 19.0092 86.908 19.1284 86.3955 19.3575C85.8734 19.5958 85.4368 19.9533 85.0666 20.4482C84.7059 20.9431 84.4306 21.5663 84.2408 22.3087C84.051 23.0419 83.9561 23.9218 83.9561 24.9299V25.9015C83.9561 26.873 84.051 27.7253 84.2408 28.4677C84.4306 29.2009 84.7059 29.8058 85.0666 30.3007C85.4368 30.7957 85.8734 31.1714 86.386 31.4189C86.908 31.6755 87.487 31.7947 88.142 31.7947C88.7779 31.7947 89.319 31.6572 89.7841 31.3822C90.2397 31.1164 90.6194 30.7407 90.9421 30.2641L91.075 31.5747L93.5618 31.5655V14.9766H90.8092ZM90.8092 28.3302C90.6478 28.6693 90.42 28.9443 90.1353 29.1551C89.8221 29.3934 89.4139 29.5217 88.9013 29.5217C88.4932 29.5217 88.1515 29.4575 87.8762 29.3201C87.5915 29.1734 87.3637 28.9535 87.1928 28.6693C87.0219 28.376 86.8891 28.0003 86.8131 27.542C86.7372 27.0838 86.6897 26.543 86.6897 25.9106V24.9391C86.6897 24.3067 86.7277 23.766 86.8131 23.3077C86.8986 22.8494 87.0314 22.4645 87.2023 22.1712C87.3731 21.8688 87.6104 21.6396 87.8857 21.5022C88.1704 21.3464 88.5122 21.273 88.9108 21.273C89.2715 21.273 89.5847 21.3464 89.86 21.5022C90.1353 21.6488 90.3631 21.8504 90.5529 22.1071C90.6478 22.2354 90.7333 22.3637 90.7997 22.5103V28.3302H90.8092Z" fill="white"/>
<path d="M81.6775 30.2365C81.611 29.7874 81.5731 29.2833 81.5731 28.7059V22.9502C81.5731 22.0062 81.3927 21.2455 81.0226 20.6681C80.6619 20.0815 80.1588 19.6599 79.5228 19.4033C78.8869 19.1375 78.156 19 77.3397 19C76.6563 19 76.0393 19.1008 75.4698 19.3116C74.9098 19.5132 74.4352 19.7974 74.0365 20.1548C73.6473 20.5123 73.3436 20.9155 73.1253 21.3738C72.9165 21.832 72.8215 22.2995 72.8215 22.7944H75.5742C75.5742 22.4736 75.6406 22.1986 75.764 21.9512C75.8874 21.6946 76.0773 21.5021 76.3241 21.3554C76.5709 21.2088 76.8841 21.1446 77.2448 21.1446C77.596 21.1446 77.8807 21.2088 78.1085 21.328C78.3458 21.4471 78.5262 21.6304 78.6401 21.887C78.7635 22.1437 78.8299 22.4828 78.8299 22.9135V24.05H77.6719C76.8271 24.05 76.0773 24.1508 75.4413 24.3433C74.8054 24.5449 74.2833 24.8199 73.8657 25.1865C73.448 25.5439 73.1348 25.9747 72.9165 26.4696C72.7076 26.9737 72.5938 27.5328 72.5938 28.1468C72.5938 28.9075 72.7551 29.5583 73.0683 30.1082C73.3911 30.6489 73.8277 31.0614 74.3877 31.3547C74.9477 31.6479 75.5837 31.7854 76.3051 31.7854C76.7986 31.7854 77.2353 31.6938 77.615 31.5196C77.9946 31.3363 78.3173 31.098 78.5831 30.8139C78.7065 30.6856 78.8109 30.5481 78.9153 30.4106C78.9818 30.8689 79.0767 31.2538 79.2001 31.5471H82.0002V31.373C81.8578 31.0614 81.7534 30.6856 81.6775 30.2365ZM77.9852 29.32C77.6624 29.5033 77.2827 29.5949 76.8366 29.5949C76.5139 29.5949 76.2386 29.5399 76.0108 29.4208C75.7925 29.3017 75.6217 29.1183 75.5078 28.8709C75.4033 28.6326 75.3464 28.3118 75.3464 27.9269C75.3464 27.6061 75.4033 27.3128 75.5078 27.047C75.6312 26.7812 75.7925 26.5613 76.0013 26.378C76.2196 26.1855 76.4949 26.0389 76.8081 25.9472C77.1214 25.8464 77.4821 25.7914 77.8712 25.7914H78.8204V28.5318C78.8014 28.5684 78.773 28.6051 78.754 28.6418C78.5736 28.8984 78.3174 29.1275 77.9852 29.32Z" fill="white"/>
<path d="M70.7811 29.3836V31.5283C70.5723 31.6016 70.3445 31.6749 70.0787 31.7207C69.813 31.7757 69.4902 31.8032 69.1106 31.8032C68.5505 31.8032 68.0475 31.6932 67.6108 31.4733C67.1742 31.2441 66.823 30.8775 66.5762 30.3643C66.3294 29.851 66.1965 29.1637 66.1965 28.3113V21.2816H64.4785V19.2286H66.1965V16.2041H68.9397V19.2286H70.7526V21.2816H68.9397V28.1188C68.9397 28.4946 68.9872 28.7879 69.0726 28.9895C69.158 29.1912 69.2814 29.3195 69.4333 29.3928C69.5946 29.4661 69.775 29.4936 69.9838 29.4936C70.1452 29.4936 70.297 29.4844 70.4489 29.4569C70.6008 29.4386 70.7147 29.4111 70.7811 29.3836Z" fill="white"/>
<path d="M62.656 19.2383H59.9033V31.5746H62.656V19.2383Z" fill="white"/>
<path d="M59.7607 16.5531C59.7607 16.1315 59.8936 15.7741 60.1689 15.49C60.4346 15.2058 60.8143 15.0684 61.2889 15.0684C61.7635 15.0684 62.1432 15.215 62.409 15.49C62.6747 15.7741 62.8076 16.1224 62.8076 16.5531C62.8076 16.9747 62.6747 17.323 62.409 17.6071C62.1432 17.8912 61.7635 18.0287 61.2889 18.0287C60.8143 18.0287 60.4346 17.8821 60.1689 17.6071C59.8936 17.323 59.7607 16.9656 59.7607 16.5531Z" fill="white"/>
<path d="M54.5787 26.1577H57.4358C57.3788 27.3583 57.1321 28.3757 56.6764 29.228C56.2303 30.0621 55.5849 30.7036 54.7401 31.1436C53.9048 31.5835 52.8797 31.8035 51.6837 31.8035C50.7725 31.8035 49.9562 31.6477 49.2253 31.3269C48.5039 31.0061 47.8964 30.5478 47.3934 29.9429C46.8903 29.3289 46.5011 28.5956 46.2354 27.725C45.9696 26.8543 45.8462 25.8644 45.8462 24.7463V21.8043C45.8462 20.6953 45.9791 19.7054 46.2448 18.8256C46.5201 17.9549 46.9093 17.2125 47.4218 16.6076C47.9344 15.9935 48.5514 15.5444 49.2918 15.2237C50.0321 14.9029 50.8674 14.7471 51.7976 14.7471C52.9841 14.7471 53.9808 14.967 54.7971 15.407C55.6039 15.8469 56.2303 16.4976 56.6764 17.3408C57.1131 18.1932 57.3694 19.2288 57.4453 20.457H54.5882C54.5503 19.6229 54.4269 18.9631 54.237 18.4681C54.0472 17.964 53.7624 17.6066 53.3638 17.3866C52.9746 17.1667 52.462 17.0567 51.8071 17.0567C51.2661 17.0567 50.7915 17.1575 50.4023 17.35C50.0131 17.5516 49.6999 17.8449 49.4436 18.239C49.1968 18.6239 49.0165 19.1189 48.8931 19.7054C48.7697 20.292 48.7127 20.9794 48.7127 21.7676V24.7279C48.7127 25.4887 48.7602 26.1669 48.8646 26.7443C48.969 27.3309 49.1304 27.8258 49.3582 28.2382C49.586 28.6415 49.8897 28.9439 50.2694 29.1639C50.6491 29.3655 51.1142 29.4755 51.6837 29.4755C52.3576 29.4755 52.8987 29.3747 53.2973 29.1639C53.7055 28.9623 54.0092 28.614 54.2086 28.1282C54.4079 27.6608 54.5313 26.9917 54.5787 26.1577Z" fill="white"/>
<path d="M153 14.9209V31.519H150.19L144.115 20.0351V31.5282H141.344V14.9209H144.115L150.228 26.4965V14.9209H153Z" fill="url(#paint22_linear_292_1114)"/>
<path d="M138.164 17.4871C137.737 16.6898 137.129 16.0574 136.322 15.6083C135.525 15.15 134.557 14.9209 133.418 14.9209H127.742V31.519H130.608V25.36H133.418C134.557 25.36 135.525 25.1584 136.322 24.746C137.129 24.3244 137.737 23.7378 138.164 22.9679C138.591 22.198 138.8 21.2815 138.8 20.2092C138.8 19.1919 138.591 18.2754 138.164 17.4871ZM135.648 21.6848C135.487 22.1064 135.221 22.4455 134.861 22.693C134.5 22.9404 134.016 23.0596 133.418 23.0596H130.608V17.258H133.418C134.016 17.258 134.5 17.3955 134.861 17.6796C135.221 17.9637 135.487 18.3303 135.648 18.7886C135.819 19.2469 135.905 19.7326 135.905 20.2459C135.914 20.7774 135.819 21.2632 135.648 21.6848Z" fill="url(#paint23_linear_292_1114)"/>
<path d="M125.767 14.9209L120.632 31.519H117.842L112.707 14.9209H115.801L119.218 27.633L122.664 14.9209H125.767Z" fill="url(#paint24_linear_292_1114)"/>
<defs>
<linearGradient id="paint0_linear_292_1114" x1="16.9518" y1="13.5705" x2="2.37895" y2="32.6992" gradientUnits="userSpaceOnUse">
<stop/>
<stop offset="0.1041" stop-color="#0E321E"/>
<stop offset="0.2136" stop-color="#1A5F39"/>
<stop offset="0.328" stop-color="#258550"/>
<stop offset="0.4456" stop-color="#2EA563"/>
<stop offset="0.5675" stop-color="#34BD71"/>
<stop offset="0.6955" stop-color="#39CE7C"/>
<stop offset="0.8335" stop-color="#3CD982"/>
<stop offset="1" stop-color="#3DDC84"/>
</linearGradient>
<linearGradient id="paint1_linear_292_1114" x1="19.3922" y1="31.1723" x2="38.6148" y2="31.1723" gradientUnits="userSpaceOnUse">
<stop offset="0.052" stop-color="#3BD680"/>
<stop offset="0.099" stop-color="#3BD580"/>
<stop offset="0.433" stop-color="#31B46B"/>
<stop offset="0.4885" stop-color="#31B46B"/>
<stop offset="0.637" stop-color="#31B56C"/>
<stop offset="1" stop-color="#3DDC84"/>
</linearGradient>
<linearGradient id="paint2_linear_292_1114" x1="2.37936" y1="1.24201" x2="12.6312" y2="23.1145" gradientUnits="userSpaceOnUse">
<stop offset="0.002" stop-color="#0D1B2A"/>
<stop offset="0.0544416" stop-color="#133235"/>
<stop offset="0.1701" stop-color="#1E5F4A"/>
<stop offset="0.2908" stop-color="#27855C"/>
<stop offset="0.4149" stop-color="#2FA56A"/>
<stop offset="0.5436" stop-color="#35BD76"/>
<stop offset="0.6786" stop-color="#3ACE7E"/>
<stop offset="0.8243" stop-color="#3CD982"/>
<stop offset="1" stop-color="#3DDC84"/>
</linearGradient>
<linearGradient id="paint3_linear_292_1114" x1="9.37183" y1="-2.03525" x2="19.6237" y2="19.8372" gradientUnits="userSpaceOnUse">
<stop offset="0.002" stop-color="#0D1B2A"/>
<stop offset="0.0544416" stop-color="#133235"/>
<stop offset="0.1701" stop-color="#1E5F4A"/>
<stop offset="0.2908" stop-color="#27855C"/>
<stop offset="0.4149" stop-color="#2FA56A"/>
<stop offset="0.5436" stop-color="#35BD76"/>
<stop offset="0.6786" stop-color="#3ACE7E"/>
<stop offset="0.8243" stop-color="#3CD982"/>
<stop offset="1" stop-color="#3DDC84"/>
</linearGradient>
<linearGradient id="paint4_linear_292_1114" x1="27.9455" y1="27.4054" x2="40.8763" y2="14.0054" gradientUnits="userSpaceOnUse">
<stop offset="0.2398" stop-color="#0D1B2A"/>
<stop offset="0.8085" stop-color="#35BD76"/>
<stop offset="0.8432" stop-color="#1E5F4A"/>
<stop offset="1" stop-color="#3DDC84"/>
</linearGradient>
<linearGradient id="paint5_linear_292_1114" x1="34.8748" y1="7.49712" x2="26.4951" y2="14.0381" gradientUnits="userSpaceOnUse">
<stop offset="0.002" stop-color="#0D1B2A"/>
<stop offset="0.1701" stop-color="#1E5F4A"/>
<stop offset="0.2908" stop-color="#27855C"/>
<stop offset="0.4149" stop-color="#2FA56A"/>
<stop offset="0.5436" stop-color="#35BD76"/>
<stop offset="0.6786" stop-color="#3ACE7E"/>
<stop offset="0.8243" stop-color="#3CD982"/>
<stop offset="1" stop-color="#3DDC84"/>
</linearGradient>
<linearGradient id="paint6_linear_292_1114" x1="26.999" y1="3.73877" x2="20.5092" y2="13.551" gradientUnits="userSpaceOnUse">
<stop offset="0.002" stop-color="#0D1B2A"/>
<stop offset="0.1701" stop-color="#1E5F4A"/>
<stop offset="0.2908" stop-color="#27855C"/>
<stop offset="0.4149" stop-color="#2FA56A"/>
<stop offset="0.5436" stop-color="#35BD76"/>
<stop offset="0.6786" stop-color="#3ACE7E"/>
<stop offset="0.8243" stop-color="#3CD982"/>
<stop offset="1" stop-color="#3DDC84"/>
</linearGradient>
<linearGradient id="paint7_linear_292_1114" x1="36.6174" y1="-0.0899371" x2="12.1929" y2="39.1965" gradientUnits="userSpaceOnUse">
<stop offset="0.002" stop-color="#0D1B2A"/>
<stop offset="0.1514" stop-color="#1E5F4A"/>
<stop offset="0.507" stop-color="#27855C"/>
<stop offset="0.8085" stop-color="#35BD76"/>
<stop offset="1" stop-color="#3DDC84"/>
</linearGradient>
<linearGradient id="paint8_linear_292_1114" x1="21.2179" y1="31.4885" x2="33.7146" y2="34.2551" gradientUnits="userSpaceOnUse">
<stop offset="0.002" stop-color="#0D1B2A"/>
<stop offset="0.0544416" stop-color="#133235"/>
<stop offset="0.1701" stop-color="#1E5F4A"/>
<stop offset="0.2908" stop-color="#27855C"/>
<stop offset="0.4149" stop-color="#2FA56A"/>
<stop offset="0.5436" stop-color="#35BD76"/>
<stop offset="0.6786" stop-color="#3ACE7E"/>
<stop offset="0.8243" stop-color="#3CD982"/>
<stop offset="1" stop-color="#3DDC84"/>
</linearGradient>
<linearGradient id="paint9_linear_292_1114" x1="24.0134" y1="46.0884" x2="31.1069" y2="18.774" gradientUnits="userSpaceOnUse">
<stop offset="0.002" stop-color="#0D1B2A"/>
<stop offset="0.3405" stop-color="#1E5F4A"/>
<stop offset="0.507" stop-color="#27855C"/>
<stop offset="0.8085" stop-color="#35BD76"/>
<stop offset="1" stop-color="#3DDC84"/>
</linearGradient>
<linearGradient id="paint10_linear_292_1114" x1="19.2216" y1="40.0813" x2="23.0967" y2="40.0813" gradientUnits="userSpaceOnUse">
<stop offset="0.052" stop-color="#3BD680"/>
<stop offset="0.099" stop-color="#3BD580"/>
<stop offset="0.433" stop-color="#31B46B"/>
<stop offset="0.4885" stop-color="#31B46B"/>
<stop offset="0.637" stop-color="#31B56C"/>
<stop offset="1" stop-color="#3DDC84"/>
</linearGradient>
<linearGradient id="paint11_linear_292_1114" x1="8.16619" y1="24.1986" x2="21.0714" y2="50.4448" gradientUnits="userSpaceOnUse">
<stop offset="0.1047" stop-color="#0D1B2A"/>
<stop offset="0.2246" stop-color="#0E1F2C"/>
<stop offset="0.3343" stop-color="#112A31"/>
<stop offset="0.4401" stop-color="#153C3A"/>
<stop offset="0.5436" stop-color="#1C5746"/>
<stop offset="0.6453" stop-color="#247856"/>
<stop offset="0.8432" stop-color="#3AD27F"/>
<stop offset="0.8622" stop-color="#3DDC84"/>
<stop offset="0.8706" stop-color="#3DDC84"/>
<stop offset="0.9676" stop-color="#3DDC84"/>
</linearGradient>
<linearGradient id="paint12_linear_292_1114" x1="12.0248" y1="12.3279" x2="10.7304" y2="21.7879" gradientUnits="userSpaceOnUse">
<stop offset="0.1047" stop-color="#0D1B2A"/>
<stop offset="0.2246" stop-color="#0E1F2C"/>
<stop offset="0.3343" stop-color="#112A31"/>
<stop offset="0.4401" stop-color="#153C3A"/>
<stop offset="0.5436" stop-color="#1C5746"/>
<stop offset="0.6453" stop-color="#247856"/>
<stop offset="0.7457" stop-color="#2EA269"/>
<stop offset="0.8432" stop-color="#3AD27F"/>
<stop offset="0.8622" stop-color="#3DDC84"/>
<stop offset="0.8706" stop-color="#3DDC84"/>
<stop offset="0.9676" stop-color="#3DDC84"/>
</linearGradient>
<linearGradient id="paint13_linear_292_1114" x1="6.64061" y1="46.9406" x2="13.5381" y2="-1.33549" gradientUnits="userSpaceOnUse">
<stop offset="0.002" stop-color="#0D1B2A"/>
<stop offset="0.0544416" stop-color="#133235"/>
<stop offset="0.1701" stop-color="#1E5F4A"/>
<stop offset="0.2908" stop-color="#27855C"/>
<stop offset="0.4149" stop-color="#2FA56A"/>
<stop offset="0.5436" stop-color="#35BD76"/>
<stop offset="0.6786" stop-color="#3ACE7E"/>
<stop offset="0.8243" stop-color="#3CD982"/>
<stop offset="1" stop-color="#3DDC84"/>
</linearGradient>
<linearGradient id="paint14_linear_292_1114" x1="9.47402" y1="35.3693" x2="18.9253" y2="13.2303" gradientUnits="userSpaceOnUse">
<stop offset="0.002" stop-color="#0D1B2A"/>
<stop offset="0.0544416" stop-color="#133235"/>
<stop offset="0.1701" stop-color="#1E5F4A"/>
<stop offset="0.2908" stop-color="#27855C"/>
<stop offset="0.4149" stop-color="#2FA56A"/>
<stop offset="0.5436" stop-color="#35BD76"/>
<stop offset="0.6786" stop-color="#3ACE7E"/>
<stop offset="0.8243" stop-color="#3CD982"/>
<stop offset="1" stop-color="#3DDC84"/>
</linearGradient>
<linearGradient id="paint15_linear_292_1114" x1="27.0562" y1="30.8978" x2="16.5065" y2="53.1916" gradientUnits="userSpaceOnUse">
<stop offset="0.0074054" stop-color="#0D1B2A"/>
<stop offset="0.1514" stop-color="#1E5F4A"/>
<stop offset="0.507" stop-color="#27855C"/>
<stop offset="0.8085" stop-color="#35BD76"/>
<stop offset="1" stop-color="#3DDC84"/>
</linearGradient>
<linearGradient id="paint16_linear_292_1114" x1="26.8128" y1="12.2261" x2="25.6103" y2="21.3981" gradientUnits="userSpaceOnUse">
<stop offset="0.1047" stop-color="#0D1B2A"/>
<stop offset="0.2246" stop-color="#0E1F2C"/>
<stop offset="0.3343" stop-color="#112A31"/>
<stop offset="0.4401" stop-color="#153C3A"/>
<stop offset="0.5436" stop-color="#1C5746"/>
<stop offset="0.6453" stop-color="#247856"/>
<stop offset="0.7457" stop-color="#2EA269"/>
<stop offset="0.8432" stop-color="#3AD27F"/>
<stop offset="0.8622" stop-color="#3DDC84"/>
<stop offset="0.8706" stop-color="#3DDC84"/>
<stop offset="0.9676" stop-color="#3DDC84"/>
</linearGradient>
<linearGradient id="paint17_linear_292_1114" x1="14.2631" y1="22.9163" x2="32.6695" y2="42.6682" gradientUnits="userSpaceOnUse">
<stop offset="0.0648649" stop-color="#0D1B2A"/>
<stop offset="0.2079" stop-color="#1E5F4A"/>
<stop offset="0.2908" stop-color="#27855C"/>
<stop offset="0.4149" stop-color="#2FA56A"/>
<stop offset="0.5436" stop-color="#35BD76"/>
<stop offset="0.6786" stop-color="#3ACE7E"/>
<stop offset="0.8108" stop-color="#133235"/>
<stop offset="0.8243" stop-color="#3CD982"/>
<stop offset="1" stop-color="#3DDC84"/>
</linearGradient>
<linearGradient id="paint18_linear_292_1114" x1="18.6136" y1="18.2626" x2="12.5593" y2="11.8427" gradientUnits="userSpaceOnUse">
<stop stop-color="#133235"/>
<stop offset="0.1047" stop-color="#0D1B2A"/>
<stop offset="0.2246" stop-color="#0E1F2C"/>
<stop offset="0.3343" stop-color="#112A31"/>
<stop offset="0.4401" stop-color="#153C3A"/>
<stop offset="0.5436" stop-color="#1C5746"/>
<stop offset="0.6453" stop-color="#247856"/>
<stop offset="0.7457" stop-color="#2EA269"/>
<stop offset="0.8432" stop-color="#3AD27F"/>
<stop offset="0.849" stop-color="#3DDC84"/>
<stop offset="0.8622" stop-color="#3DDC84"/>
<stop offset="0.9676" stop-color="#3DDC84"/>
</linearGradient>
<linearGradient id="paint19_linear_292_1114" x1="21.4275" y1="26.1944" x2="23.8936" y2="33.8612" gradientUnits="userSpaceOnUse">
<stop offset="0.002" stop-color="#0D1B2A"/>
<stop offset="0.0544416" stop-color="#133235"/>
<stop offset="0.1701" stop-color="#1E5F4A"/>
<stop offset="0.2908" stop-color="#27855C"/>
<stop offset="0.4149" stop-color="#2FA56A"/>
<stop offset="0.5436" stop-color="#35BD76"/>
<stop offset="0.6786" stop-color="#3ACE7E"/>
<stop offset="0.8243" stop-color="#3CD982"/>
<stop offset="1" stop-color="#3DDC84"/>
</linearGradient>
<linearGradient id="paint20_linear_292_1114" x1="19.555" y1="24.6644" x2="30.9292" y2="15.5296" gradientUnits="userSpaceOnUse">
<stop stop-color="#133235"/>
<stop offset="0.1047" stop-color="#0D1B2A"/>
<stop offset="0.2246" stop-color="#0E1F2C"/>
<stop offset="0.3343" stop-color="#112A31"/>
<stop offset="0.4401" stop-color="#153C3A"/>
<stop offset="0.5436" stop-color="#1C5746"/>
<stop offset="0.6453" stop-color="#247856"/>
<stop offset="0.7457" stop-color="#2EA269"/>
<stop offset="0.8432" stop-color="#3AD27F"/>
<stop offset="0.849" stop-color="#3DDC84"/>
<stop offset="0.8622" stop-color="#3DDC84"/>
<stop offset="0.9676" stop-color="#3DDC84"/>
</linearGradient>
<linearGradient id="paint21_linear_292_1114" x1="19.3907" y1="21.4428" x2="25.3398" y2="10.475" gradientUnits="userSpaceOnUse">
<stop stop-color="#133235"/>
<stop offset="0.1047" stop-color="#0D1B2A"/>
<stop offset="0.2246" stop-color="#0E1F2C"/>
<stop offset="0.3343" stop-color="#112A31"/>
<stop offset="0.4401" stop-color="#153C3A"/>
<stop offset="0.5436" stop-color="#1C5746"/>
<stop offset="0.6453" stop-color="#247856"/>
<stop offset="0.7457" stop-color="#2EA269"/>
<stop offset="0.8432" stop-color="#3AD27F"/>
<stop offset="0.849" stop-color="#3DDC84"/>
<stop offset="0.8622" stop-color="#3DDC84"/>
<stop offset="0.9676" stop-color="#3DDC84"/>
</linearGradient>
<linearGradient id="paint22_linear_292_1114" x1="149.488" y1="6.97188" x2="144.171" y2="46.926" gradientUnits="userSpaceOnUse">
<stop offset="0.002" stop-color="#0D1B2A"/>
<stop offset="0.0544416" stop-color="#133235"/>
<stop offset="0.1701" stop-color="#1E5F4A"/>
<stop offset="0.2908" stop-color="#27855C"/>
<stop offset="0.4149" stop-color="#2FA56A"/>
<stop offset="0.5436" stop-color="#35BD76"/>
<stop offset="0.6786" stop-color="#3ACE7E"/>
<stop offset="0.8243" stop-color="#3CD982"/>
<stop offset="1" stop-color="#3DDC84"/>
</linearGradient>
<linearGradient id="paint23_linear_292_1114" x1="135.094" y1="5.05656" x2="129.777" y2="45.0107" gradientUnits="userSpaceOnUse">
<stop offset="0.002" stop-color="#0D1B2A"/>
<stop offset="0.0544416" stop-color="#133235"/>
<stop offset="0.1701" stop-color="#1E5F4A"/>
<stop offset="0.2908" stop-color="#27855C"/>
<stop offset="0.4149" stop-color="#2FA56A"/>
<stop offset="0.5436" stop-color="#35BD76"/>
<stop offset="0.6786" stop-color="#3ACE7E"/>
<stop offset="0.8243" stop-color="#3CD982"/>
<stop offset="1" stop-color="#3DDC84"/>
</linearGradient>
<linearGradient id="paint24_linear_292_1114" x1="120.916" y1="3.16988" x2="115.599" y2="43.124" gradientUnits="userSpaceOnUse">
<stop offset="0.002" stop-color="#0D1B2A"/>
<stop offset="0.0544416" stop-color="#133235"/>
<stop offset="0.1701" stop-color="#1E5F4A"/>
<stop offset="0.2908" stop-color="#27855C"/>
<stop offset="0.4149" stop-color="#2FA56A"/>
<stop offset="0.5436" stop-color="#35BD76"/>
<stop offset="0.6786" stop-color="#3ACE7E"/>
<stop offset="0.8243" stop-color="#3CD982"/>
<stop offset="1" stop-color="#3DDC84"/>
</linearGradient>
</defs>
</svg>
