<svg width="40" height="40" viewBox="0 0 40 40" fill="none" xmlns="http://www.w3.org/2000/svg">
<path fill-rule="evenodd" clip-rule="evenodd" d="M10.277 23.9033C8.10705 24.0167 4.39818 25.2478 4.75633 27.8193C5.66222 34.3441 -1.47089 36.4389 8.02187 36.4389C12.7973 36.4389 15.8073 34.3441 16.2623 29.9474L14.9731 24.9625L10.277 23.9033Z" fill="url(#paint0_linear_354_12076)"/>
<path fill-rule="evenodd" clip-rule="evenodd" d="M11.984 25.6289C10.9774 25.6817 9.25462 26.2523 9.41915 27.4482C9.84114 30.479 6.52721 31.4502 10.9367 31.4502C13.1551 31.4502 14.5546 30.479 14.7656 28.435L14.2778 25.9728L11.984 25.6289Z" fill="#0D1B2A"/>
<path fill-rule="evenodd" clip-rule="evenodd" d="M14.1626 30.1395C12.8734 32.4864 10.3163 33.6178 6.80688 33.6178C5.43254 33.6178 4.4066 33.5729 3.65556 33.4791C2.64115 35.6364 2.14758 36.4395 8.02247 36.4395C12.7979 36.4395 15.8079 34.3447 16.2629 29.948L15.1788 28.8537L14.8091 28.4805C14.7762 28.6075 14.7413 28.7306 14.7026 28.8537C14.6039 29.3559 14.42 29.7839 14.1626 30.1395Z" fill="white" fill-opacity="0.13"/>
<path fill-rule="evenodd" clip-rule="evenodd" d="M13.7556 27.417C13.2814 28.8826 11.9883 29.5841 10.1029 29.5841C9.72543 29.5841 9.40599 29.5782 9.13501 29.5626C8.57945 30.9539 7.78386 31.4503 10.9372 31.4503C12.4083 31.4503 13.5194 31.0243 14.1621 30.1391C14.4195 29.7835 14.6034 29.3555 14.7021 28.8533C14.7292 28.7185 14.7505 28.5797 14.766 28.4351L13.7556 27.417Z" fill="#1B314A"/>
<path fill-rule="evenodd" clip-rule="evenodd" d="M12.9012 20.3281L10.0712 21.9891C9.50207 22.3233 9.59693 23.2182 10.0499 23.6775L10.2764 23.9042L11.9837 25.6296L14.7653 28.4357L16.2616 29.9482L17.0417 30.7357C17.4966 31.193 18.3832 31.2868 18.7142 30.7142L20.3576 27.8554L18.4973 20.6174L12.9012 20.3281Z" fill="#0D1B2A"/>
<path fill-rule="evenodd" clip-rule="evenodd" d="M35.8338 3.64955C34.473 3.39746 31.9934 3.66128 28.9736 4.69305L30.3325 9.73465L35.8513 11.6184C36.8772 8.55048 37.1347 6.03751 36.8753 4.67357C36.7242 3.87818 36.6274 3.79611 35.8338 3.64955Z" fill="#0D1B2A"/>
<path fill-rule="evenodd" clip-rule="evenodd" d="M20.2867 9.26145C16.5081 7.88379 13.5813 8.51107 10.6139 11.2234C9.23761 12.56 6.94763 14.3167 8.83883 16.2259L11.1907 18.6001L17.9502 15.153L20.2867 9.26145Z" fill="#24AE61"/>
<path fill-rule="evenodd" clip-rule="evenodd" d="M31.3221 20.4004L24.9691 23.0521L22.0713 29.5846L24.4232 31.9589C26.3144 33.868 28.0546 31.5563 29.3786 30.167C30.751 28.635 33.1959 25.7175 31.3221 20.4004Z" fill="#24AE61"/>
<path fill-rule="evenodd" clip-rule="evenodd" d="M35.8515 11.6184C35.6924 12.0976 35.5128 12.5897 35.3154 13.0921C34.4168 15.3684 33.1145 17.8756 31.3219 20.3999C29.0705 23.5696 26.0466 26.7685 22.0709 29.5848L21.6045 29.1138L20.3582 27.8554L16.9929 24.4581L16.6296 24.0918L16.2663 23.7247L12.9017 20.3281L11.1904 18.6002C13.9794 14.587 17.1486 11.5343 20.2865 9.26219C23.3369 7.05566 26.3587 5.58606 28.9735 4.69336L35.8515 11.6184Z" fill="url(#paint1_linear_354_12076)"/>
<path fill-rule="evenodd" clip-rule="evenodd" d="M28.5749 12.0743C26.7515 10.2336 23.7588 10.2726 21.8889 12.1603C20.019 14.048 19.9803 17.069 21.8037 18.9097C23.6272 20.7505 26.6198 20.7114 28.4897 18.8237C30.3597 16.9361 30.3984 13.9151 28.5749 12.0743Z" fill="#0D1B2A"/>
<path fill-rule="evenodd" clip-rule="evenodd" d="M35.4062 3.59082C35.5398 5.02125 35.2398 7.32508 34.3203 10.0745L35.8515 11.6182C36.8774 8.55028 37.1349 6.03731 36.8755 4.67337C36.7245 3.87805 36.6277 3.79598 35.8341 3.64942C35.7005 3.62403 35.5592 3.60454 35.4062 3.59082Z" fill="#1B314A"/>
<path fill-rule="evenodd" clip-rule="evenodd" d="M33.7823 11.5495C32.8841 13.826 31.5834 16.3312 29.789 18.8578C29.0127 19.9502 28.1455 21.0464 27.1777 22.129C26.206 23.2174 25.1355 24.2902 23.9566 25.3338C22.9055 26.2639 21.7692 27.1706 20.542 28.0402L21.6047 29.113L22.0713 29.5839C26.0472 26.768 29.0708 23.5692 31.3221 20.3996C33.1145 17.8749 34.4173 15.3678 35.3154 13.0913C35.5129 12.5891 35.6929 12.0967 35.8516 11.6179L34.3205 10.0742C34.2198 10.3732 34.1133 10.6761 33.9972 10.9848C33.9294 11.1704 33.8578 11.36 33.7823 11.5495Z" fill="white" fill-opacity="0.13"/>
<path fill-rule="evenodd" clip-rule="evenodd" d="M18.4936 25.9727L16.8502 28.8315C16.5192 29.404 15.6326 29.3103 15.1777 28.853L16.2617 29.9473L17.0418 30.7348C17.4967 31.192 18.3833 31.2858 18.7143 30.7133L20.3577 27.8544L18.4936 25.9727Z" fill="#1B314A"/>
<path fill-rule="evenodd" clip-rule="evenodd" d="M26.8472 10.9795C28.3261 12.834 28.1809 15.5911 26.431 17.3576C25.078 18.7236 23.1345 19.1202 21.4736 18.5379C21.5762 18.6669 21.6865 18.79 21.8047 18.9092C23.6281 20.7499 26.6208 20.7109 28.4907 18.8232C30.3606 16.9355 30.3993 13.9145 28.5759 12.0738C28.0725 11.5657 27.4802 11.2003 26.8472 10.9795Z" fill="#1B314A"/>
<path fill-rule="evenodd" clip-rule="evenodd" d="M31.3223 20.4004C31.0107 20.8401 30.6835 21.2798 30.3428 21.7175C30.7842 25.4439 28.9201 27.656 27.7858 28.9222C26.6979 30.0615 25.3332 31.8221 23.833 31.3629L24.4234 31.9589C26.3146 33.868 28.0548 31.5563 29.3788 30.167C30.7512 28.635 33.196 25.7175 31.3223 20.4004Z" fill="#0C8743"/>
<path fill-rule="evenodd" clip-rule="evenodd" d="M17.8923 8.64258C15.0681 10.7804 12.2438 13.5591 9.71387 17.1097L11.1908 18.6006C13.9802 14.5869 17.149 11.5346 20.2868 9.26197C19.4506 8.95725 18.655 8.7501 17.8923 8.64258Z" fill="#0C8743"/>
<path d="M19.6347 21.7936L16.9967 24.4553C16.9953 24.4567 16.9946 24.4574 16.9932 24.4581L16.6299 24.0917L16.2666 23.7246L18.9019 21.0663C19.1027 20.8633 19.4297 20.8619 19.6319 21.0629C19.8341 21.2646 19.8355 21.5913 19.6347 21.7936Z" fill="#12A654"/>
<defs>
<linearGradient id="paint0_linear_354_12076" x1="9.64626" y1="23.9033" x2="9.64626" y2="36.4389" gradientUnits="userSpaceOnUse">
<stop stop-color="#3DDC84"/>
<stop offset="1" stop-color="#1FC067"/>
</linearGradient>
<linearGradient id="paint1_linear_354_12076" x1="23.521" y1="4.69336" x2="23.521" y2="29.5848" gradientUnits="userSpaceOnUse">
<stop stop-color="#3DDC84"/>
<stop offset="1" stop-color="#1FC067"/>
</linearGradient>
</defs>
</svg>
