<svg display="none" xmlns="http://www.w3.org/2000/svg" aria-hidden="true"
    style="position: absolute; width: 0; height: 0; overflow: hidden;" version="1.1">
    <symbol id="en" viewBox="24 24">
        <path
            d="M12 24C18.6274 24 24 18.6274 24 12C24 5.37258 18.6274 0 12 0C5.37258 0 0 5.37258 0 12C0 18.6274 5.37258 24 12 24Z"
            fill="#F0F0F0" />
        <path d="M2.48032 4.69434C1.53771 5.92073 0.826945 7.33424 0.413086 8.86982H6.6558L2.48032 4.69434Z"
            fill="#0052B4" />
        <path d="M23.5864 8.86977C23.1725 7.33424 22.4617 5.92073 21.5191 4.69434L17.3438 8.86977H23.5864Z"
            fill="#0052B4" />
        <path d="M0.413086 15.1309C0.826992 16.6664 1.53776 18.0799 2.48032 19.3063L6.65566 15.1309H0.413086Z"
            fill="#0052B4" />
        <path d="M19.3053 2.48134C18.0789 1.53873 16.6655 0.827969 15.1299 0.414062V6.65673L19.3053 2.48134Z"
            fill="#0052B4" />
        <path d="M4.69434 21.5191C5.92073 22.4617 7.33424 23.1725 8.86977 23.5864V17.3438L4.69434 21.5191Z"
            fill="#0052B4" />
        <path d="M8.86973 0.414062C7.33419 0.827969 5.92068 1.53873 4.69434 2.4813L8.86973 6.65669V0.414062Z"
            fill="#0052B4" />
        <path d="M15.1299 23.5864C16.6654 23.1725 18.0789 22.4617 19.3053 21.5191L15.1299 17.3438V23.5864Z"
            fill="#0052B4" />
        <path d="M17.3438 15.1309L21.5191 19.3063C22.4617 18.08 23.1725 16.6664 23.5864 15.1309H17.3438Z"
            fill="#0052B4" />
        <path
            d="M23.8984 10.4348H13.5653H13.5653V0.101578C13.0529 0.034875 12.5305 0 12 0C11.4694 0 10.9471 0.034875 10.4348 0.101578V10.4347V10.4347H0.101578C0.034875 10.9471 0 11.4695 0 12C0 12.5306 0.034875 13.0529 0.101578 13.5652H10.4347H10.4347V23.8984C10.9471 23.9651 11.4694 24 12 24C12.5305 24 13.0529 23.9652 13.5652 23.8984V13.5653V13.5653H23.8984C23.9651 13.0529 24 12.5306 24 12C24 11.4695 23.9651 10.9471 23.8984 10.4348Z"
            fill="#D80027" />
        <path
            d="M15.1299 15.1309L20.4847 20.4857C20.731 20.2395 20.9659 19.9821 21.1901 19.7153L16.6056 15.1309H15.1299V15.1309Z"
            fill="#D80027" />
        <path
            d="M8.86951 15.1309H8.86941L3.51465 20.4856C3.76084 20.7319 4.01823 20.9668 4.28504 21.191L8.86951 16.6064V15.1309Z"
            fill="#D80027" />
        <path
            d="M8.86976 8.86862V8.86853L3.51495 3.51367C3.26866 3.75986 3.03373 4.01725 2.80957 4.28406L7.39409 8.86858L8.86976 8.86862Z"
            fill="#D80027" />
        <path
            d="M15.1299 8.87078L20.4847 3.51588C20.2386 3.26959 19.9812 3.03466 19.7144 2.81055L15.1299 7.39506V8.87078Z"
            fill="#D80027" />
    </symbol>
    <symbol id="ar" viewBox="24 24">
        <path
            d="M12 24C18.6274 24 24 18.6274 24 12C24 5.37258 18.6274 0 12 0C5.37258 0 0 5.37258 0 12C0 18.6274 5.37258 24 12 24Z"
            fill="#F0F0F0" />
        <path
            d="M6.78223 16.1738L7.82571 23.2536C9.12565 23.736 10.5318 23.9999 11.9996 23.9999C17.1591 23.9999 21.5577 20.7434 23.2532 16.1738H6.78223Z"
            fill="black" />
        <path
            d="M6.78223 7.82611L7.82571 0.746297C9.12565 0.263906 10.5318 0 11.9996 0C17.1591 0 21.5577 3.2565 23.2532 7.82611H6.78223Z"
            fill="#6DA544" />
        <path d="M0 12.0007C0 17.1603 3.25655 21.5588 7.82611 23.2543V0.74707C3.25655 2.44259 0 6.8411 0 12.0007Z"
            fill="#A2001D" />
    </symbol>
    <symbol id="ru" viewBox="24 24">
        <path
            d="M12 24C18.6274 24 24 18.6274 24 12C24 5.37258 18.6274 0 12 0C5.37258 0 0 5.37258 0 12C0 18.6274 5.37258 24 12 24Z"
            fill="#F0F0F0" />
        <path
            d="M23.2536 16.174C23.736 14.874 24 13.4679 24 12.0001C24 10.5322 23.736 9.12616 23.2536 7.82617H0.746391C0.264047 9.12616 0 10.5322 0 12.0001C0 13.4679 0.264047 14.874 0.746391 16.174L12 17.2174L23.2536 16.174Z"
            fill="#0052B4" />
        <path
            d="M11.9997 23.9999C17.1593 23.9999 21.5578 20.7434 23.2533 16.1738H0.746094C2.44161 20.7434 6.84012 23.9999 11.9997 23.9999Z"
            fill="#D80027" />
    </symbol>
    <symbol id="arrowBottom" viewBox="0 0 11 6">
        <path
            d="M5.20543 6.00307C5.30413 6.00364 5.40198 5.98472 5.49336 5.9474C5.58474 5.91007 5.66785 5.85508 5.73793 5.78557L10.2379 1.28557C10.3792 1.14434 10.4585 0.952795 10.4585 0.753069C10.4585 0.553342 10.3792 0.361796 10.2379 0.220569C10.0967 0.0793409 9.90515 -4.83747e-08 9.70543 -6.58354e-08C9.5057 -8.3296e-08 9.31416 0.0793409 9.17293 0.220569L5.20543 4.19557L1.23793 0.228068C1.09445 0.105198 0.909897 0.0409934 0.72114 0.0482843C0.532383 0.0555751 0.353328 0.133825 0.219757 0.267396C0.0861864 0.400967 0.00793833 0.580021 0.000647478 0.768778C-0.00664338 0.957535 0.0575599 1.14209 0.180429 1.28557L4.68043 5.78557C4.82012 5.92413 5.00867 6.00224 5.20543 6.00307Z" />
    </symbol>
    <symbol id="badgeVPN" viewBox="0 0 40 19">
        <path
            d="M20.9033 7.5459H18.7939V9.53427H20.8627C21.4736 9.53427 21.9971 9.18152 21.9971 8.5121C21.9971 7.84268 21.5393 7.5459 20.9033 7.5459Z"
            fill="#3DDC84" />
        <g filter="url(#filter0_i_0_1)">
            <path
                d="M39.5051 4.74039C39.0699 2.87795 37.1613 1.09578 35.1918 0.660544C33.9918 0.347559 22.2183 -0.0906191 20.0004 -0.0147664C17.7824 -0.0884098 6.00897 0.347559 4.80897 0.660544C2.83709 1.09578 0.930842 2.87795 0.495686 4.74039C0.157019 6.30658 -0.00896769 7.90159 0.000373298 9.49996C-0.00857218 11.0983 0.15741 12.6933 0.495686 14.2595C0.930842 16.122 2.83944 17.9034 4.80897 18.3394C6.00975 18.6524 17.7824 19.0905 20.0004 19.0147C22.2191 19.0883 33.9918 18.6531 35.1918 18.3394C37.1637 17.9041 39.0699 16.122 39.5051 14.2595C39.8437 12.6933 40.0097 11.0983 40.0004 9.49996C40.0093 7.9016 39.8433 6.30664 39.5051 4.74039ZM14.9879 7.18977L12.3215 12.7756C12.1712 13.09 11.9279 13.3568 11.6207 13.5439C11.3136 13.7311 10.9556 13.8306 10.5898 13.8306C10.2241 13.8306 9.86609 13.7311 9.55891 13.5439C9.25173 13.3568 9.00841 13.09 8.85819 12.7756L6.19178 7.18977C6.11006 7.01892 6.07506 6.83148 6.08998 6.6446C6.1049 6.45771 6.16926 6.27733 6.27719 6.11993C6.38511 5.96253 6.53316 5.83313 6.7078 5.74356C6.88245 5.65399 7.07812 5.6071 7.27694 5.60717C7.51014 5.60749 7.7381 5.67235 7.93254 5.79371C8.12698 5.91508 8.27933 6.08759 8.37069 6.28985L10.5808 11.1871H10.6051L12.8027 6.29206C12.8938 6.08944 13.046 5.91652 13.2405 5.79476C13.4349 5.673 13.663 5.60777 13.8965 5.60717C14.0958 5.60611 14.2923 5.65228 14.4677 5.74144C14.6432 5.8306 14.7921 5.95989 14.9008 6.11744C15.0094 6.275 15.0744 6.45576 15.0896 6.64312C15.1048 6.83049 15.0698 7.01846 14.9879 7.18977ZM21.1152 11.4574H18.7973V12.6733C18.7973 12.9802 18.668 13.2745 18.4378 13.4916C18.2077 13.7087 17.8955 13.8307 17.5699 13.8309C17.2442 13.8309 16.9318 13.709 16.7015 13.4919C16.4712 13.2748 16.3418 12.9803 16.3418 12.6733V6.50709C16.342 6.26835 16.4427 6.03946 16.6219 5.87071C16.8011 5.70196 17.044 5.60717 17.2972 5.60717H21.1152C23.0848 5.60717 24.4558 6.67574 24.4558 8.54407C24.4558 10.4124 23.0848 11.4574 21.1152 11.4574ZM33.9152 12.2763C33.9152 12.6066 33.8035 12.9282 33.5965 13.1946C33.3895 13.461 33.0979 13.6584 32.7639 13.7581C32.4299 13.8578 32.0709 13.8546 31.7389 13.7491C31.407 13.6435 31.1193 13.4411 30.9176 13.1711L27.7707 8.955H27.7457V12.6733C27.7457 12.9801 27.6164 13.2744 27.3862 13.4913C27.156 13.7083 26.8439 13.8302 26.5183 13.8302C26.1928 13.8302 25.8807 13.7083 25.6505 13.4913C25.4203 13.2744 25.291 12.9801 25.291 12.6733V7.16105C25.2912 6.83087 25.403 6.50934 25.6101 6.24304C25.8171 5.97674 26.1088 5.7795 26.4427 5.6799C26.7767 5.5803 27.1356 5.58351 27.4675 5.68907C27.7994 5.79463 28.087 5.99706 28.2887 6.26702L31.4348 10.4824H31.4598V6.76411C31.4678 6.46223 31.6007 6.17527 31.8301 5.96445C32.0595 5.75363 32.3671 5.63563 32.6875 5.63563C33.0078 5.63563 33.3155 5.75363 33.5449 5.96445C33.7742 6.17527 33.9071 6.46223 33.9152 6.76411V12.2763Z"
                fill="#3DDC84" />
        </g>
        <defs>
            <filter id="filter0_i_0_1" x="0" y="-4.02344" width="40.0007" height="23.0469" filterUnits="userSpaceOnUse"
                color-interpolation-filters="sRGB">
                <feFlood flood-opacity="0" result="BackgroundImageFix" />
                <feBlend mode="normal" in="SourceGraphic" in2="BackgroundImageFix" result="shape" />
                <feColorMatrix in="SourceAlpha" type="matrix" values="0 0 0 0 0 0 0 0 0 0 0 0 0 0 0 0 0 0 127 0"
                    result="hardAlpha" />
                <feOffset dy="-7" />
                <feGaussianBlur stdDeviation="2" />
                <feComposite in2="hardAlpha" operator="arithmetic" k2="-1" k3="1" />
                <feColorMatrix type="matrix" values="0 0 0 0 1 0 0 0 0 1 0 0 0 0 1 0 0 0 0.25 0" />
                <feBlend mode="normal" in2="shape" result="effect1_innerShadow_0_1" />
            </filter>
        </defs>
    </symbol>
    <symbol id="rocket" viewBox="0 0 22 22">
        <path
            d="M5.69972 20.6688C6.26648 20.0871 6.58132 19.3055 6.57605 18.4934C6.57079 17.6812 6.24585 16.9039 5.6716 16.3295C5.09734 15.7552 4.31999 15.4302 3.50784 15.4249C2.6957 15.4195 1.91414 15.7343 1.33238 16.301C0.473002 17.1604 0.134838 18.4924 0.0274156 19.6955C-0.0336168 20.3777 -0.0297322 21.0641 0.0390172 21.7456C0.0574938 21.9174 0.221634 21.9548 0.249994 21.9604H0.258158C0.327338 21.963 1.31433 21.9823 1.61855 21.0211C1.67282 20.8416 1.75301 20.6709 1.8566 20.5145C2.05554 20.221 2.51402 20.3976 2.46331 20.7487C2.41397 21.1146 2.48967 21.4865 2.67816 21.804C2.69903 21.8392 2.72994 21.8673 2.76693 21.8848C2.80391 21.9022 2.84528 21.9082 2.8857 21.902C3.91738 21.7464 4.9757 21.3928 5.69972 20.6688Z" />
        <path
            d="M15.7061 17.1638V14.5018C16.0252 14.2277 16.3373 13.9387 16.6423 13.6347L17.488 12.7904C20.6522 9.62446 22.1969 5.56734 21.9799 1.92273C21.9159 0.850664 21.1498 0.0841018 20.0773 0.0200784C16.4348 -0.196914 12.3747 1.34781 9.20961 4.51332L8.36527 5.35766C8.06106 5.66188 7.77202 5.97412 7.49816 6.29438H4.83625C4.27121 6.31586 3.77148 6.64199 3.48875 7.12023L1.92383 10.2509C1.88262 10.3633 1.85381 10.4799 1.83789 10.5986C1.84034 10.7996 1.9213 10.9918 2.06349 11.1339C2.20567 11.2761 2.39781 11.3571 2.59887 11.3595H4.57543C4.31762 12.2232 4.48949 13.0723 5.03863 13.6205L8.37859 16.9609C8.92688 17.5097 9.77594 17.6807 10.6396 17.4241V19.4007C10.6421 19.6018 10.723 19.7939 10.8652 19.9361C11.0074 20.0783 11.1995 20.1592 11.4006 20.1617C11.5192 20.1458 11.6358 20.1169 11.7482 20.0757L14.878 18.5108C15.358 18.2289 15.6833 17.7275 15.7061 17.1638ZM13.87 8.13C13.4286 7.68855 13.128 7.12612 13.0062 6.51383C12.8844 5.90153 12.9469 5.26687 13.1858 4.69011C13.4247 4.11334 13.8293 3.62037 14.3484 3.27354C14.8675 2.92671 15.4777 2.74158 16.102 2.74158C16.7263 2.74158 17.3366 2.92671 17.8556 3.27354C18.3747 3.62037 18.7793 4.11334 19.0182 4.69011C19.2571 5.26687 19.3196 5.90153 19.1979 6.51383C19.0761 7.12612 18.7755 7.68855 18.334 8.13C18.0409 8.42312 17.6929 8.65563 17.31 8.81427C16.927 8.97291 16.5165 9.05455 16.102 9.05455C15.6875 9.05455 15.277 8.97291 14.8941 8.81427C14.5111 8.65563 14.1631 8.42312 13.87 8.13Z" />
    </symbol>
    <symbol id="rocket3D" viewBox="0 0 40 40">
        <path
            d="M20 40C31.0457 40 40 31.0457 40 20C40 8.9543 31.0457 0 20 0C8.9543 0 0 8.9543 0 20C0 31.0457 8.9543 40 20 40Z"
            fill="#3DDC84" />
        <path
            d="M39.9941 19.5373L31.1159 10.6738L16.6543 28.3012L27.0671 38.714C34.6248 35.8584 40 28.5574 40 20C40 19.8452 39.9976 19.691 39.9941 19.5373Z"
            fill="#18B55E" />
        <path
            d="M29.9777 10.431C30.7751 10.1199 31.5993 10.8175 31.4242 11.6552L27.8484 28.7475C27.6814 29.5488 26.74 29.9097 26.0801 29.4249L20.6821 25.4626L17.9306 28.2721C17.4471 28.765 16.6134 28.5643 16.406 27.9071L14.4209 21.6054L9.0996 20.0336C8.40062 19.8275 8.36022 18.8552 9.03765 18.5899L29.9777 10.431ZM27.3528 14.2236C27.5858 14.0175 27.3151 13.6539 27.0511 13.8182L15.5655 20.9414C15.3635 21.0666 15.2706 21.3131 15.3419 21.5407L16.9083 28.4188C16.9393 28.5239 17.0901 28.509 17.1036 28.4L17.4537 23.1582C17.4672 23.0289 17.5291 22.9104 17.6262 22.8243L27.3528 14.2236Z"
            fill="white" />
        <path
            d="M27.0511 13.8182C27.3151 13.6539 27.5858 14.0175 27.3528 14.2236L17.6262 22.8243C17.5291 22.9104 17.4672 23.0289 17.4537 23.1582L17.1036 28.4C17.0901 28.509 16.9393 28.5239 16.9083 28.4188L15.3419 21.5407C15.2706 21.3131 15.3635 21.0666 15.5655 20.9414L27.0511 13.8182Z"
            fill="#9EC2E5" />
        <path
            d="M16.9649 28.4901C16.7117 28.3999 16.4976 28.198 16.406 27.9071L14.4209 21.6054L9.0996 20.0336C8.40062 19.8275 8.36022 18.8552 9.03765 18.5899L29.9777 10.431C30.4922 10.2303 31.0187 10.4497 31.2787 10.8565C31.2301 10.7825 31.1723 10.7138 31.1076 10.6532L16.9016 22.2504V22.7582L16.8234 22.7016L16.9016 25.8989V28.4632C16.9218 28.4727 16.9433 28.4807 16.9648 28.4875L16.9649 28.4901Z"
            fill="#0D1B2A" />
        <path
            d="M31.4468 11.3685C31.4509 11.46 31.4444 11.5568 31.4242 11.6552L27.8484 28.7475C27.6814 29.5488 26.74 29.9097 26.0801 29.4249L20.6821 25.4626L16.9016 22.7582V22.2504L31.1076 10.6532C31.1723 10.7138 31.2301 10.7825 31.2787 10.8565C31.2881 10.8727 31.2973 10.8876 31.3068 10.9025C31.3148 10.9186 31.3243 10.9348 31.3324 10.9496C31.3404 10.9657 31.3486 10.9819 31.3553 10.9981C31.3633 11.0156 31.3701 11.0318 31.3768 11.0493C31.3822 11.0641 31.3889 11.0802 31.3943 11.0978C31.4118 11.1503 31.4253 11.2042 31.4347 11.2607C31.4401 11.2957 31.4442 11.3308 31.4468 11.3685Z"
            fill="#0D1B2A" />
        <path
            d="M20.6821 25.4626L17.9306 28.2721C17.9077 28.295 17.8832 28.3183 17.8589 28.3386C17.8346 28.3588 17.8104 28.3763 17.7848 28.3938L17.7835 28.3951C17.7323 28.4288 17.6798 28.4571 17.6246 28.48C17.5963 28.4907 17.5693 28.5015 17.5411 28.5082C17.4239 28.5432 17.304 28.5527 17.1855 28.5406C17.1546 28.5379 17.1236 28.5325 17.0939 28.5271C17.0899 28.5271 17.0859 28.5258 17.0818 28.5245C17.0522 28.5164 17.0225 28.5083 16.9929 28.4989C16.9835 28.4962 16.9743 28.4929 16.9648 28.4875L16.9016 25.8989V22.7582L20.6821 25.4626Z"
            fill="#3C5D81" />
        <path d="M17.7845 28.3926L17.7848 28.3938L17.7832 28.3939L17.7845 28.3926Z" fill="#DADDE0" />
        <path
            d="M17.7835 28.3951C17.7323 28.4288 17.6798 28.4571 17.6246 28.48C17.6784 28.457 17.7323 28.4287 17.7835 28.3951Z"
            fill="#DADDE0" />
        <path
            d="M17.1855 28.5406C17.304 28.5527 17.4239 28.5432 17.5411 28.5082C17.4562 28.5352 17.3687 28.5466 17.2812 28.5466C17.2542 28.5466 17.2273 28.5453 17.2017 28.5426C17.1963 28.5427 17.1909 28.5433 17.1855 28.5406Z"
            fill="#DADDE0" />
        <path
            d="M17.1855 28.5406C17.1909 28.5433 17.1963 28.5427 17.2017 28.5426C17.1734 28.5412 17.148 28.5376 17.1211 28.5322C17.1426 28.5364 17.1639 28.5393 17.1855 28.5406Z"
            fill="white" />
        <path
            d="M17.1855 28.5406C17.1639 28.5393 17.1426 28.5364 17.1211 28.5322C17.1116 28.5309 17.1021 28.5299 17.0939 28.5271C17.1236 28.5325 17.1546 28.5379 17.1855 28.5406Z"
            fill="#DADDE0" />
        <path
            d="M16.9929 28.4989C17.0225 28.5083 17.0522 28.5164 17.0818 28.5245C17.0697 28.5218 17.0579 28.5183 17.0457 28.5156C17.0404 28.5143 17.035 28.513 17.0309 28.5102C17.0187 28.5075 17.005 28.5043 16.9929 28.4989Z"
            fill="#DADDE0" />
        <path
            d="M17.0818 28.5245C17.0697 28.5218 17.0579 28.5183 17.0457 28.5156C17.0579 28.5197 17.0697 28.5232 17.0818 28.5245Z"
            fill="white" />
        <path
            d="M16.9929 28.4989C17.005 28.5043 17.0187 28.5075 17.0309 28.5102C17.0107 28.5062 16.9909 28.5002 16.9707 28.4922C16.9787 28.4948 16.9848 28.4975 16.9929 28.4989Z"
            fill="white" />
        <path
            d="M16.9929 28.4989C16.9848 28.4975 16.9787 28.4948 16.9707 28.4922L16.9649 28.4901L16.9648 28.4875C16.9743 28.4929 16.9835 28.4962 16.9929 28.4989Z"
            fill="#DADDE0" />
        <path d="M16.9016 25.8989L16.9648 28.4875C16.9433 28.4807 16.9218 28.4727 16.9016 28.4632V25.8989Z"
            fill="#D1D1D1" />
        <path d="M16.9016 22.7582V25.8989L16.8234 22.7016L16.9016 22.7582Z" fill="#DADDE0" />
        <path
            d="M27.3528 14.2236L17.6262 22.8243C17.5291 22.9104 17.4672 23.0289 17.4537 23.1582L17.1045 28.401C17.0911 28.5101 16.9402 28.5249 16.9078 28.4198L15.3419 21.5407C15.2706 21.3131 15.3635 21.0666 15.5655 20.9414L27.0511 13.8182C27.3151 13.6539 27.5858 14.0175 27.3528 14.2236Z"
            fill="#213B57" />
    </symbol>
    <symbol id="noAds" viewBox="0 0 35 35">
        <path
            d="M28.75 11.2422C28.5858 11.2421 28.4232 11.2744 28.2715 11.3371C28.1198 11.3999 27.982 11.492 27.8659 11.6081C27.7498 11.7242 27.6577 11.862 27.595 12.0137C27.5322 12.1654 27.4999 12.328 27.5 12.4922V22.4922C27.4999 22.6564 27.5322 22.819 27.595 22.9707C27.6577 23.1224 27.7498 23.2602 27.8659 23.3763C27.982 23.4924 28.1198 23.5844 28.2715 23.6472C28.4232 23.71 28.5858 23.7423 28.75 23.7422C30.4076 23.7422 31.9973 23.0837 33.1694 21.9116C34.3415 20.7395 35 19.1498 35 17.4922C35 15.8346 34.3415 14.2449 33.1694 13.0728C31.9973 11.9007 30.4076 11.2422 28.75 11.2422Z"
            fill="#0D1B2A" />
        <path
            d="M10 31.2422C9.83582 31.2423 9.67323 31.21 9.52153 31.1472C9.36983 31.0844 9.232 30.9924 9.1159 30.8763C8.99981 30.7602 8.90774 30.6224 8.84496 30.4707C8.78217 30.319 8.7499 30.1564 8.75 29.9922V22.4922C8.75 22.1607 8.8817 21.8427 9.11612 21.6083C9.35054 21.3739 9.66848 21.2422 10 21.2422C10.3315 21.2422 10.6495 21.3739 10.8839 21.6083C11.1183 21.8427 11.25 22.1607 11.25 22.4922V29.9922C11.2501 30.1564 11.2178 30.319 11.155 30.4707C11.0923 30.6224 11.0002 30.7602 10.8841 30.8763C10.768 30.9924 10.6302 31.0844 10.4785 31.1472C10.3268 31.21 10.1642 31.2423 10 31.2422Z"
            fill="#3DDC84" />
        <path
            d="M6.25 13.7422H3.75C2.75544 13.7422 1.80161 14.1373 1.09835 14.8405C0.395088 15.5438 0 16.4976 0 17.4922C0 18.4867 0.395088 19.4406 1.09835 20.1438C1.80161 20.8471 2.75544 21.2422 3.75 21.2422H6.25C6.41418 21.2423 6.57677 21.21 6.72847 21.1472C6.88017 21.0844 7.018 20.9924 7.1341 20.8763C7.25019 20.7602 7.34226 20.6224 7.40504 20.4707C7.46783 20.319 7.5001 20.1564 7.5 19.9922V14.9922C7.5001 14.828 7.46783 14.6654 7.40504 14.5137C7.34226 14.362 7.25019 14.2242 7.1341 14.1081C7.018 13.992 6.88017 13.8999 6.72847 13.8371C6.57677 13.7744 6.41418 13.7421 6.25 13.7422Z"
            fill="#3DDC84" />
        <path
            d="M13.75 11.2422H6.25C5.55964 11.2422 5 11.8018 5 12.4922V22.4922C5 23.1825 5.55964 23.7422 6.25 23.7422H13.75C14.4404 23.7422 15 23.1825 15 22.4922V12.4922C15 11.8018 14.4404 11.2422 13.75 11.2422Z"
            fill="#0D1B2A" />
        <path
            d="M29.4067 3.92833C29.2256 3.81608 29.0188 3.7521 28.806 3.74248C28.5931 3.73287 28.3814 3.77793 28.1909 3.87339L13.1909 11.3734C12.9833 11.4773 12.8087 11.6369 12.6867 11.8344C12.5647 12.0319 12.5 12.2594 12.5 12.4916V22.4916C12.5 22.7237 12.5647 22.9513 12.6867 23.1487C12.8087 23.3462 12.9833 23.5058 13.1909 23.6097L28.1909 31.1097C28.3815 31.2049 28.5933 31.2498 28.8061 31.2402C29.0189 31.2305 29.2258 31.1667 29.407 31.0547C29.5882 30.9426 29.7378 30.7862 29.8416 30.6001C29.9454 30.4141 29.9999 30.2046 30 29.9916V4.99156C29.9999 4.77847 29.9453 4.56894 29.8415 4.38286C29.7377 4.19678 29.588 4.04032 29.4067 3.92833Z"
            fill="#3DDC84" />
        <path
            d="M33.7505 34.9919C33.5864 34.992 33.4238 34.9598 33.2721 34.8969C33.1205 34.8341 32.9827 34.7419 32.8668 34.6256L0.366793 2.12561C0.135905 1.8905 0.00720536 1.57372 0.00869763 1.2442C0.0101899 0.914683 0.141753 0.599084 0.374761 0.366076C0.607769 0.133068 0.923367 0.0015051 1.25289 1.28337e-05C1.58241 -0.00147944 1.89918 0.12722 2.13429 0.358108L34.6343 32.8581C34.8091 33.0329 34.9281 33.2556 34.9763 33.4981C35.0245 33.7405 34.9997 33.9918 34.9051 34.2202C34.8106 34.4486 34.6504 34.6438 34.4449 34.7811C34.2393 34.9185 33.9977 34.9918 33.7505 34.9919Z"
            fill="#0D1B2A" />
    </symbol>
    <symbol id="globalAccess" viewBox="0 0 40 40">
        <path
            d="M20 0C19.572 0 19.147 0.0134375 18.7256 0.0399219L2.07445 11.1201C0.746562 13.7955 0 16.8106 0 20C0 25.8497 2.51133 31.1128 6.51477 34.77C6.51477 34.77 13.0327 39.2533 20 39.2533C29.3223 39.2533 39.0197 31.0457 39.0197 20C39.0197 6.9032 26.5588 1.10023 26.5588 1.10023C24.5041 0.387344 22.2973 0 20 0Z"
            fill="#0D1B2A" />
        <path
            d="M39.804 17.1902L34.9554 16.6367C34.9554 27.6824 26.0011 36.6367 14.9554 36.6367C11.9388 36.6367 9.07969 35.966 6.51477 34.77C8.06758 36.1886 9.84481 37.3652 11.7871 38.2411L12.9648 38.1755L14.4582 39.2217C16.2179 39.7281 18.0772 39.9997 20 39.9997C31.0457 39.9997 40 31.0454 40 19.9997C40 19.046 39.9332 18.108 39.804 17.1902Z"
            fill="#040B12" />
        <path
            d="M28.4622 1.87195C27.8445 1.5832 27.2091 1.3257 26.5588 1.10023L24.7903 2.65523C24.3058 3.06945 24.19 3.78398 24.5463 4.33742C24.8889 4.86945 25.5815 5.05508 26.1643 4.80891L26.5223 4.65766C26.9619 4.47203 27.4769 4.53922 27.8333 4.85664C28.4632 5.41773 28.3534 6.40938 27.6467 6.82758L23.4929 9.28547C22.6815 9.76555 22.1662 10.6383 22.1831 11.5809C22.2006 12.5599 22.7492 13.3573 23.8517 13.4589C26.1331 13.6691 25.8047 11.2519 27.1447 11.2519H31.7404C32.44 11.2519 33.0466 11.7749 33.1072 12.4719C33.1763 13.2659 32.5522 13.9318 31.7725 13.9318H26.2615C24.118 13.9318 22.2488 15.5836 22.1844 17.7262C22.1179 19.9432 23.8953 21.7613 26.0974 21.7613H26.6579C27.7268 21.7613 28.5933 22.6279 28.5933 23.6968V30.5748C28.5933 30.779 28.6292 30.9803 28.6966 31.1682L30.3152 31.1334L35.3548 22.9377L36.0025 18.2406L37.6455 15.8618C37.6456 15.8619 34.4696 4.68 28.4622 1.87195Z"
            fill="#3DDC84" />
        <path
            d="M39.804 17.1902C38.8491 10.3905 34.4605 4.68359 28.4619 1.87305C32.4483 5.52914 34.9554 10.8012 34.9554 16.6367C34.9554 22.3639 32.5543 27.5232 28.6964 31.1692C28.9328 31.8449 29.6035 32.3141 30.3829 32.2027C30.88 32.1317 31.302 31.7973 31.5496 31.3605L36.323 22.9437C36.7456 22.1986 36.8544 21.316 36.6256 20.4905L36.2555 19.1556C36.1339 18.717 36.4926 18.2937 36.9453 18.3417L37.2086 18.3696C37.9171 18.4448 38.6249 18.2211 39.1616 17.7525L39.804 17.1902Z"
            fill="#18B55E" />
        <path
            d="M19.8133 1.7682L18.7256 0.0399219C11.4103 0.498828 5.16688 4.88578 2.07445 11.1201L3.33477 19.8266C3.47617 20.8039 4.05742 21.6626 4.91219 22.157C5.40391 22.4414 5.61906 23.0388 5.42164 23.5714L4.99133 24.7323C4.60414 25.7768 4.93094 26.9518 5.80172 27.6465L6.95086 28.5633C7.34391 28.8769 7.65828 29.278 7.86875 29.7348L10.8548 36.2145L12.6001 37.4461L13.8325 36.6058L13.3855 34.738C13.1334 33.6843 13.2685 32.5752 13.7661 31.6128L15.7042 27.8646C16.238 26.8322 15.748 25.5655 14.6584 25.1611L13.0661 24.5702C12.5603 24.3825 12.2248 23.8999 12.2248 23.3605V23.2363C12.2248 22.5236 11.647 21.9459 10.9345 21.9459H8.16641C7.48805 21.9459 6.82172 21.7677 6.23391 21.4291L5.55867 21.0401C5.04578 20.7445 4.69687 20.23 4.61219 19.6441L4.56906 19.3457C4.46047 18.5949 4.80063 17.8499 5.43898 17.44L5.83578 17.1852C6.31648 16.8766 6.94289 16.9208 7.37555 17.2938L7.72922 17.5987C8.15984 17.9699 8.83086 17.7499 8.95805 17.1957L9.33523 15.5522C9.53625 14.6766 10.1781 13.9684 11.03 13.6827L13.8138 12.7491C14.6088 12.4825 14.9423 11.5404 14.4921 10.833L13.2266 8.84453C12.8789 8.29812 12.18 8.09414 11.5929 8.36773L10.5478 8.85484C10.0073 9.10688 9.33375 8.99883 8.96891 8.52703C8.4982 7.91844 8.68734 7.04406 9.35141 6.67953L11.9779 5.2375C12.8491 4.75914 13.9411 5.01844 14.5042 5.83742L14.7483 6.19234C15.1091 6.71758 15.7056 7.03125 16.3429 7.03125H17.5248C18.3083 7.03125 19.0145 6.55891 19.3136 5.83484L20.017 4.13242C20.3369 3.35797 20.2609 2.47648 19.8133 1.7682Z"
            fill="#3DDC84" />
        <path
            d="M11.7871 38.2411C12.6471 38.6291 13.5386 38.957 14.4582 39.2217L13.8325 36.6058C12.8159 36.5492 11.825 36.4177 10.8548 36.2145L11.7871 38.2411Z"
            fill="#18B55E" />
    </symbol>
    <symbol id="unlimited" viewBox="0 0 40 40">
        <path
            d="M20 40C31.0457 40 40 31.0457 40 20C40 8.9543 31.0457 0 20 0C8.9543 0 0 8.9543 0 20C0 31.0457 8.9543 40 20 40Z"
            fill="#3DDC84" />
        <path
            d="M39.9634 21.2234L33.7126 14.9727L18.8618 18.9245L10.7033 15.2339L6.22559 24.958L21.2299 39.9623C31.2981 39.3516 39.3556 31.2923 39.9634 21.2234Z"
            fill="#18B55E" />
        <path
            d="M19.9687 16.8168C19.5129 16.4576 18.9838 16.0609 18.4062 15.6641C15.728 13.8238 13.342 12.8906 11.3143 12.8906C7.39422 12.8906 4.20508 16.0798 4.20508 19.9999C4.20508 23.92 7.3943 27.1092 11.3143 27.1092C13.7766 27.1092 16.3167 25.8152 18.2734 24.4891C18.6423 24.239 18.7662 23.7737 19.0892 23.5298C19.3447 23.3369 19.8088 23.3626 20.0306 23.183C20.064 23.2094 20.0986 23.1191 20.1328 23.1459V16.8316C20.0772 16.8759 20.0222 16.7734 19.9687 16.8168ZM15.9459 20.9347C15.4188 21.3001 14.6505 21.095 14.1663 21.3578C13.0476 21.9651 12.0645 22.2896 11.3143 22.2896C10.0518 22.2896 9.02461 21.2625 9.02461 19.9999C9.02461 18.7374 10.0517 17.7102 11.3142 17.7102C12.5859 17.7102 14.5441 18.7984 16.2318 20.0229C16.0575 20.1522 16.1342 20.8041 15.9459 20.9347Z"
            fill="#0D1B2A" />
        <path
            d="M20.0306 23.183C20.4865 23.5423 21.0155 23.9389 21.5932 24.3358C24.2714 26.1761 26.6575 27.1092 28.6852 27.1092C32.6052 27.1092 35.7944 23.92 35.7944 20C35.7944 18.101 35.0554 16.3155 33.7126 14.9727C32.3698 13.6298 30.584 12.8906 28.6851 12.8906C26.1265 12.8906 23.4838 14.2879 21.4991 15.6666C21.2146 15.8641 21.4402 16.4734 21.185 16.6661C20.9298 16.8588 20.1936 16.6348 19.972 16.8142L19.9687 16.8168L20.0306 23.183ZM25.9497 18.5795C27.0201 18.0125 27.961 17.7103 28.685 17.7103C29.2966 17.7103 29.8716 17.9484 30.3041 18.3809C30.7365 18.8134 30.9747 19.3884 30.9747 20C30.9747 21.2626 29.9476 22.2897 28.6851 22.2897C27.4134 22.2897 25.4552 21.2015 23.7675 19.977L23.9592 18.6345L25.9497 18.5795Z"
            fill="#0D1B2A" />
        <path
            d="M24.3123 19.5865C24.882 19.1917 25.431 18.8543 25.9497 18.5795L21.4991 15.6666C20.9287 16.0627 20.4127 16.4573 19.9687 16.8168L23.7675 19.977C23.942 19.8477 24.124 19.7171 24.3123 19.5865Z"
            fill="#020B15" />
        <path
            d="M15.6879 20.4144C15.1608 20.7798 14.6505 21.0949 14.1663 21.3578L18.2734 24.4891C18.9341 24.0413 19.5292 23.5902 20.0314 23.1837L16.2327 20.0234C16.0583 20.1527 15.8763 20.2838 15.6879 20.4144Z"
            fill="#020B15" />
    </symbol>
    <symbol id="email" viewBox="0 0 22 17">
        <path fill-rule="evenodd" clip-rule="evenodd"
            d="M1.73269 0.960281L8.21644 7.44684C9.63056 8.85825 11.9422 8.85947 13.3575 7.44684L19.8412 0.960281C19.9065 0.894984 19.897 0.787453 19.8212 0.734625C19.1599 0.273422 18.3553 0 17.4886 0H4.08534C3.21858 0 2.41397 0.273469 1.75266 0.734625C1.67691 0.787453 1.66739 0.894984 1.73269 0.960281ZM0 4.0853C0 3.40373 0.168984 2.75977 0.466641 2.19375C0.513187 2.1052 0.631172 2.0873 0.701906 2.15803L7.10358 8.5597C9.13078 10.5899 12.4419 10.591 14.4704 8.5597L20.872 2.15803C20.9428 2.0873 21.0608 2.1052 21.1073 2.19375C21.4049 2.75977 21.5739 3.40378 21.5739 4.0853V12.6136C21.5739 14.868 19.7401 16.6989 17.4886 16.6989H4.08534C1.83384 16.6989 0 14.868 0 12.6136V4.0853Z"
            fill="#3DDC84" />
    </symbol>
    <symbol id="telegramDark" viewBox="0 0 24 24">
        <g clip-path="url(#clip0_311_5312)">
            <path
                d="M11.9229 0C18.5074 0.000130911 23.8457 5.33826 23.8457 11.9229C23.8456 18.5073 18.5073 23.8456 11.9229 23.8457C5.33826 23.8457 0.000130914 18.5074 0 11.9229C0 5.33818 5.33818 0 11.9229 0ZM16.7969 7.17773C16.3485 7.18565 15.6597 7.4246 12.3486 8.80176C11.189 9.28409 8.87104 10.2826 5.39551 11.7969C4.83131 12.0213 4.5357 12.2414 4.50879 12.4561C4.45739 12.868 5.05136 12.9966 5.79785 13.2393C6.40641 13.4371 7.2247 13.6685 7.65039 13.6777C8.03645 13.6861 8.46764 13.5268 8.94336 13.2002C12.1908 11.0081 13.8674 9.89987 13.9727 9.87598C14.0469 9.85912 14.15 9.83845 14.2197 9.90039C14.2887 9.96212 14.2827 10.0783 14.2754 10.1104C14.2164 10.3619 11.1692 13.1339 10.9902 13.3193C10.3194 14.0161 9.55627 14.443 10.7334 15.2188C11.7517 15.8898 12.3444 16.3181 13.3936 17.0059C14.0641 17.4454 14.59 17.966 15.2822 17.9023C15.6008 17.8731 15.9305 17.574 16.0977 16.6807C16.4926 14.5692 17.2688 9.99366 17.4482 8.1084C17.4717 7.86145 17.4704 7.48836 17.2588 7.31641C17.1162 7.20067 16.8957 7.1761 16.7969 7.17773Z"
                fill="#3DDC84" />
        </g>
        <defs>
            <clipPath id="clip0_311_5312">
                <rect width="24" height="24" fill="white" />
            </clipPath>
        </defs>
    </symbol>
    <symbol id="instagram" viewBox="0 0 24 24">
        <path
            d="M12 0C18.6274 0 24 5.37258 24 12C24 18.6274 18.6274 24 12 24C5.37258 24 0 18.6274 0 12C0 5.37258 5.37258 0 12 0ZM8.51465 5.03613C6.59155 5.03613 5.03027 6.59741 5.03027 8.52051V15.4883C5.0305 17.4112 6.59169 18.9717 8.51465 18.9717H15.4824C17.4053 18.9716 18.9656 17.4111 18.9658 15.4883V8.52051C18.9658 6.59747 17.4054 5.03623 15.4824 5.03613H8.51465ZM11.998 8.52051C13.9211 8.52051 15.4824 10.0808 15.4824 12.0039C15.4824 13.927 13.9211 15.4883 11.998 15.4883C10.0751 15.4881 8.51465 13.9269 8.51465 12.0039C8.51469 10.081 10.0751 8.52068 11.998 8.52051ZM11.999 9.91309C10.8447 9.91309 9.90844 10.8487 9.9082 12.0029C9.9082 13.1574 10.8446 14.0938 11.999 14.0938C13.1533 14.0935 14.0889 13.1573 14.0889 12.0029C14.0886 10.8488 13.1532 9.91329 11.999 9.91309ZM15.7266 7.55859C16.1094 7.55884 16.4226 7.87202 16.4229 8.25488C16.4229 8.63796 16.1096 8.9519 15.7266 8.95215C15.3433 8.95215 15.0293 8.63811 15.0293 8.25488C15.0295 7.87187 15.3435 7.55859 15.7266 7.55859Z"
            fill="#3DDC84" />
    </symbol>
    <symbol id="x" viewBox="0 0 24 24">
        <path
            d="M12 0C18.6274 0 24 5.37258 24 12C24 18.6274 18.6274 24 12 24C5.37258 24 0 18.6274 0 12C0 5.37258 5.37258 0 12 0ZM10.6709 12.6914L5.93848 18.1924H7.00781L11.1455 13.3828L14.4502 18.1924H18.0596L13.1523 11.0498L17.6641 5.80469H16.5957L12.6777 10.3594L9.54785 5.80469H5.93848L10.6709 12.6914Z"
            fill="#3DDC84" />
    </symbol>
    <symbol id="telegram3D" viewBox="0 0 40 40">
        <path
            d="M20 40C31.0457 40 40 31.0457 40 20C40 8.9543 31.0457 0 20 0C8.9543 0 0 8.9543 0 20C0 31.0457 8.9543 40 20 40Z"
            fill="#3DDC84" />
        <path
            d="M39.9941 19.5373L31.1159 10.6738L16.6543 28.3012L27.0671 38.714C34.6248 35.8584 40 28.5574 40 20C40 19.8452 39.9976 19.691 39.9941 19.5373Z"
            fill="#18B55E" />
        <path
            d="M29.9777 10.431C30.7751 10.1199 31.5993 10.8175 31.4242 11.6552L27.8484 28.7475C27.6814 29.5488 26.74 29.9097 26.0801 29.4249L20.6821 25.4626L17.9306 28.2721C17.4471 28.765 16.6134 28.5643 16.406 27.9071L14.4209 21.6054L9.0996 20.0336C8.40062 19.8275 8.36022 18.8552 9.03765 18.5899L29.9777 10.431ZM27.3528 14.2236C27.5858 14.0175 27.3151 13.6539 27.0511 13.8182L15.5655 20.9414C15.3635 21.0666 15.2706 21.3131 15.3419 21.5407L16.9083 28.4188C16.9393 28.5239 17.0901 28.509 17.1036 28.4L17.4537 23.1582C17.4672 23.0289 17.5291 22.9104 17.6262 22.8243L27.3528 14.2236Z"
            fill="white" />
        <path
            d="M27.0511 13.8182C27.3151 13.6539 27.5858 14.0175 27.3528 14.2236L17.6262 22.8243C17.5291 22.9104 17.4672 23.0289 17.4537 23.1582L17.1036 28.4C17.0901 28.509 16.9393 28.5239 16.9083 28.4188L15.3419 21.5407C15.2706 21.3131 15.3635 21.0666 15.5655 20.9414L27.0511 13.8182Z"
            fill="#9EC2E5" />
        <path
            d="M16.9649 28.4901C16.7117 28.3999 16.4976 28.198 16.406 27.9071L14.4209 21.6054L9.0996 20.0336C8.40062 19.8275 8.36022 18.8552 9.03765 18.5899L29.9777 10.431C30.4922 10.2303 31.0187 10.4497 31.2787 10.8565C31.2301 10.7825 31.1723 10.7138 31.1076 10.6532L16.9016 22.2504V22.7582L16.8234 22.7016L16.9016 25.8989V28.4632C16.9218 28.4727 16.9433 28.4807 16.9648 28.4875L16.9649 28.4901Z"
            fill="#0D1B2A" />
        <path
            d="M31.4468 11.3685C31.4509 11.46 31.4444 11.5568 31.4242 11.6552L27.8484 28.7475C27.6814 29.5488 26.74 29.9097 26.0801 29.4249L20.6821 25.4626L16.9016 22.7582V22.2504L31.1076 10.6532C31.1723 10.7138 31.2301 10.7825 31.2787 10.8565C31.2881 10.8727 31.2973 10.8876 31.3068 10.9025C31.3148 10.9186 31.3243 10.9348 31.3324 10.9496C31.3404 10.9657 31.3486 10.9819 31.3553 10.9981C31.3633 11.0156 31.3701 11.0318 31.3768 11.0493C31.3822 11.0641 31.3889 11.0802 31.3943 11.0978C31.4118 11.1503 31.4253 11.2042 31.4347 11.2607C31.4401 11.2957 31.4442 11.3308 31.4468 11.3685Z"
            fill="#0D1B2A" />
        <path
            d="M20.6821 25.4626L17.9306 28.2721C17.9077 28.295 17.8832 28.3183 17.8589 28.3386C17.8346 28.3588 17.8104 28.3763 17.7848 28.3938L17.7835 28.3951C17.7323 28.4288 17.6798 28.4571 17.6246 28.48C17.5963 28.4907 17.5693 28.5015 17.5411 28.5082C17.4239 28.5432 17.304 28.5527 17.1855 28.5406C17.1546 28.5379 17.1236 28.5325 17.0939 28.5271C17.0899 28.5271 17.0859 28.5258 17.0818 28.5245C17.0522 28.5164 17.0225 28.5083 16.9929 28.4989C16.9835 28.4962 16.9743 28.4929 16.9648 28.4875L16.9016 25.8989V22.7582L20.6821 25.4626Z"
            fill="#3C5D81" />
        <path d="M17.7845 28.3926L17.7848 28.3938L17.7832 28.3939L17.7845 28.3926Z" fill="#DADDE0" />
        <path
            d="M17.7835 28.3951C17.7323 28.4288 17.6798 28.4571 17.6246 28.48C17.6784 28.457 17.7323 28.4287 17.7835 28.3951Z"
            fill="#DADDE0" />
        <path
            d="M17.1855 28.5406C17.304 28.5527 17.4239 28.5432 17.5411 28.5082C17.4562 28.5352 17.3687 28.5466 17.2812 28.5466C17.2542 28.5466 17.2273 28.5453 17.2017 28.5426C17.1963 28.5427 17.1909 28.5433 17.1855 28.5406Z"
            fill="#DADDE0" />
        <path
            d="M17.1855 28.5406C17.1909 28.5433 17.1963 28.5427 17.2017 28.5426C17.1734 28.5412 17.148 28.5376 17.1211 28.5322C17.1426 28.5364 17.1639 28.5393 17.1855 28.5406Z"
            fill="white" />
        <path
            d="M17.1855 28.5406C17.1639 28.5393 17.1426 28.5364 17.1211 28.5322C17.1116 28.5309 17.1021 28.5299 17.0939 28.5271C17.1236 28.5325 17.1546 28.5379 17.1855 28.5406Z"
            fill="#DADDE0" />
        <path
            d="M16.9929 28.4989C17.0225 28.5083 17.0522 28.5164 17.0818 28.5245C17.0697 28.5218 17.0579 28.5183 17.0457 28.5156C17.0404 28.5143 17.035 28.513 17.0309 28.5102C17.0187 28.5075 17.005 28.5043 16.9929 28.4989Z"
            fill="#DADDE0" />
        <path
            d="M17.0818 28.5245C17.0697 28.5218 17.0579 28.5183 17.0457 28.5156C17.0579 28.5197 17.0697 28.5232 17.0818 28.5245Z"
            fill="white" />
        <path
            d="M16.9929 28.4989C17.005 28.5043 17.0187 28.5075 17.0309 28.5102C17.0107 28.5062 16.9909 28.5002 16.9707 28.4922C16.9787 28.4948 16.9848 28.4975 16.9929 28.4989Z"
            fill="white" />
        <path
            d="M16.9929 28.4989C16.9848 28.4975 16.9787 28.4948 16.9707 28.4922L16.9649 28.4901L16.9648 28.4875C16.9743 28.4929 16.9835 28.4962 16.9929 28.4989Z"
            fill="#DADDE0" />
        <path d="M16.9016 25.8989L16.9648 28.4875C16.9433 28.4807 16.9218 28.4727 16.9016 28.4632V25.8989Z"
            fill="#D1D1D1" />
        <path d="M16.9016 22.7582V25.8989L16.8234 22.7016L16.9016 22.7582Z" fill="#DADDE0" />
        <path
            d="M27.3528 14.2236L17.6262 22.8243C17.5291 22.9104 17.4672 23.0289 17.4537 23.1582L17.1045 28.401C17.0911 28.5101 16.9402 28.5249 16.9078 28.4198L15.3419 21.5407C15.2706 21.3131 15.3635 21.0666 15.5655 20.9414L27.0511 13.8182C27.3151 13.6539 27.5858 14.0175 27.3528 14.2236Z"
            fill="#213B57" />
    </symbol>
    <symbol id="plan" viewBox="0 0 30 37">
        <path
            d="M26.6666 2.5H3.33336C1.4924 2.5 0 3.9924 0 5.83336V33.3333C0 35.1742 1.4924 36.6666 3.33336 36.6666H26.6666C28.5076 36.6666 30 35.1742 30 33.3333V5.83336C30 3.9924 28.5076 2.5 26.6666 2.5Z"
            fill="#3DDC84" />
        <path
            d="M0.916719 3.54395C0.32848 4.1609 0.000222599 4.98092 0 5.83336V33.3333C0.00101318 34.217 0.352531 35.064 0.977437 35.6889C1.60234 36.3138 2.44961 36.6656 3.33336 36.6666H26.6666C27.1194 36.6665 27.5673 36.5735 27.9828 36.3939C28.3984 36.2143 28.7729 35.9517 29.0833 35.6221L0.916719 3.54395Z"
            fill="#18B55E" />
        <path
            d="M8.33336 15.833H6.66664C6.22477 15.8325 5.80113 15.6568 5.48867 15.3443C5.17622 15.0319 5.00048 14.6082 5 14.1664V12.4996C5.00048 12.0578 5.17622 11.6341 5.48867 11.3217C5.80113 11.0092 6.22477 10.8335 6.66664 10.833H8.33328C8.77517 10.8335 9.19883 11.0092 9.5113 11.3217C9.82377 11.6341 9.99952 12.0578 10 12.4996V14.1663C9.99955 14.6082 9.82381 15.0318 9.51135 15.3443C9.1989 15.6568 8.77525 15.8325 8.33336 15.833ZM6.66672 12.4996V14.1663H8.33461L8.33336 12.4996H6.66672Z"
            fill="#0D1B2A" />
        <path
            d="M7.31711 10.833H6.66664C6.22477 10.8335 5.80113 11.0092 5.48867 11.3217C5.17622 11.6341 5.00048 12.0578 5 12.4996V14.1664C5.00048 14.6082 5.17622 15.0319 5.48867 15.3443C5.80113 15.6568 6.22477 15.8325 6.66664 15.833H8.33336C8.77525 15.8325 9.1989 15.6568 9.51135 15.3443C9.82381 15.0318 9.99955 14.6082 10 14.1663V13.8886L7.31711 10.833ZM6.66672 14.1663V12.4996H8.33336L8.33461 14.1663H6.66672Z"
            fill="#040B12" />
        <path
            d="M8.33336 23.333H6.66664C6.22477 23.3325 5.80113 23.1568 5.48867 22.8443C5.17622 22.5319 5.00048 22.1082 5 21.6664V19.9996C5.00048 19.5578 5.17622 19.1341 5.48867 18.8217C5.80113 18.5092 6.22477 18.3335 6.66664 18.333H8.33328C8.77517 18.3335 9.19883 18.5092 9.5113 18.8217C9.82377 19.1341 9.99952 19.5578 10 19.9996V21.6663C9.99955 22.1082 9.82381 22.5318 9.51135 22.8443C9.1989 23.1568 8.77525 23.3325 8.33336 23.333ZM6.66672 19.9996V21.6663H8.33461L8.33336 19.9996H6.66672Z"
            fill="#040B12" />
        <path
            d="M8.33336 30.833H6.66664C6.22477 30.8325 5.80113 30.6568 5.48867 30.3443C5.17622 30.0319 5.00048 29.6082 5 29.1664V27.4996C5.00048 27.0578 5.17622 26.6341 5.48867 26.3217C5.80113 26.0092 6.22477 25.8335 6.66664 25.833H8.33328C8.77517 25.8335 9.19883 26.0092 9.5113 26.3217C9.82377 26.6341 9.99952 27.0578 10 27.4996V29.1663C9.99955 29.6082 9.82381 30.0318 9.51135 30.3443C9.1989 30.6568 8.77525 30.8325 8.33336 30.833ZM6.66672 27.4996V29.1663H8.33461L8.33336 27.4996H6.66672Z"
            fill="#040B12" />
        <path
            d="M24.1667 14.1667H12.5001C12.2805 14.1646 12.0706 14.0758 11.916 13.9198C11.7615 13.7637 11.6748 13.553 11.6748 13.3334C11.6748 13.1137 11.7615 12.903 11.916 12.7469C12.0706 12.5909 12.2805 12.5022 12.5001 12.5H24.1667C24.2768 12.499 24.3861 12.5197 24.4881 12.5611C24.5902 12.6025 24.683 12.6638 24.7612 12.7412C24.8395 12.8187 24.9016 12.911 24.944 13.0126C24.9863 13.1142 25.0082 13.2232 25.0082 13.3334C25.0082 13.4435 24.9863 13.5525 24.944 13.6541C24.9016 13.7558 24.8395 13.848 24.7612 13.9255C24.683 14.003 24.5902 14.0642 24.4881 14.1056C24.3861 14.147 24.2768 14.1677 24.1667 14.1667Z"
            fill="#0D1B2A" />
        <path
            d="M24.1667 21.6667H12.5001C12.2805 21.6646 12.0706 21.5758 11.916 21.4198C11.7615 21.2637 11.6748 21.053 11.6748 20.8334C11.6748 20.6137 11.7615 20.403 11.916 20.2469C12.0706 20.0909 12.2805 20.0022 12.5001 20H24.1667C24.2768 19.999 24.3861 20.0197 24.4881 20.0611C24.5902 20.1025 24.683 20.1638 24.7612 20.2412C24.8395 20.3187 24.9016 20.4109 24.944 20.5126C24.9863 20.6142 25.0082 20.7232 25.0082 20.8334C25.0082 20.9435 24.9863 21.0525 24.944 21.1541C24.9016 21.2558 24.8395 21.348 24.7612 21.4255C24.683 21.503 24.5902 21.5642 24.4881 21.6056C24.3861 21.647 24.2768 21.6677 24.1667 21.6667Z"
            fill="#0D1B2A" />
        <path
            d="M15.3659 20L12.5001 20C12.2805 20.0022 12.0706 20.0909 11.916 20.2469C11.7615 20.403 11.6748 20.6137 11.6748 20.8334C11.6748 21.053 11.7615 21.2637 11.916 21.4198C12.0706 21.5758 12.2805 21.6646 12.5001 21.6667L16.8293 21.6666L15.3659 20Z"
            fill="#040B12" />
        <path
            d="M24.1667 29.1667H12.5001C12.2805 29.1646 12.0706 29.0758 11.916 28.9198C11.7615 28.7637 11.6748 28.553 11.6748 28.3334C11.6748 28.1137 11.7615 27.903 11.916 27.7469C12.0706 27.5909 12.2805 27.5022 12.5001 27.5H24.1667C24.2768 27.499 24.3861 27.5197 24.4881 27.5611C24.5902 27.6025 24.683 27.6638 24.7612 27.7412C24.8395 27.8187 24.9016 27.9109 24.944 28.0126C24.9863 28.1142 25.0082 28.2232 25.0082 28.3334C25.0082 28.4435 24.9863 28.5525 24.944 28.6541C24.9016 28.7558 24.8395 28.848 24.7612 28.9255C24.683 29.003 24.5902 29.0642 24.4881 29.1056C24.3861 29.147 24.2768 29.1677 24.1667 29.1667Z"
            fill="#0D1B2A" />
        <path
            d="M21.9514 27.5L12.5001 27.5C12.2805 27.5022 12.0706 27.5909 11.916 27.7469C11.7615 27.903 11.6748 28.1137 11.6748 28.3334C11.6748 28.553 11.7615 28.7637 11.916 28.9198C12.0706 29.0758 12.2805 29.1646 12.5001 29.1667L23.4148 29.1666L21.9514 27.5Z"
            fill="#040B12" />
        <path
            d="M20.8334 0H9.16664C8.24618 0 7.5 0.74618 7.5 1.66664V3.33336C7.5 4.25382 8.24618 5 9.16664 5H20.8334C21.7538 5 22.5 4.25382 22.5 3.33336V1.66664C22.5 0.74618 21.7538 0 20.8334 0Z"
            fill="#0D1B2A" />
    </symbol>
    <symbol id="connect" viewBox="0 0 40 40">
        <path
            d="M5.85895 28.9322L0.343242 34.4479C-0.114414 34.9056 -0.114414 35.6475 0.343242 36.1052L3.89449 39.6564C4.35215 40.1141 5.0941 40.1141 5.55176 39.6564L11.0675 34.1407C11.5251 33.6831 11.5251 32.9411 11.0675 32.4835L7.51621 28.9322C7.05856 28.4746 6.3166 28.4746 5.85895 28.9322Z"
            fill="#0D1B2A" />
        <path
            d="M5.55176 39.6564L11.0675 34.1407C11.5251 33.6831 11.5251 32.9411 11.0675 32.4835L9.29204 30.7082L2.11908 37.8812L3.89449 39.6564C4.35215 40.1141 5.0941 40.1141 5.55176 39.6564Z"
            fill="#040B12" />
        <path
            d="M34.4485 0.343184L28.9329 5.85889C28.4752 6.31654 28.4752 7.0585 28.9329 7.51615L32.4842 11.0674C32.9418 11.5251 33.6838 11.5251 34.1414 11.0674L39.657 5.5517C40.1147 5.09404 40.1147 4.35209 39.657 3.89443L36.1058 0.343184C35.6481 -0.114395 34.9062 -0.114395 34.4485 0.343184Z"
            fill="#0D1B2A" />
        <path
            d="M34.1414 11.0674L39.657 5.5517C40.1147 5.09404 40.1147 4.35209 39.657 3.89443L37.881 2.11924L30.708 9.29221L32.4842 11.0674C32.9418 11.5251 33.6838 11.5251 34.1414 11.0674Z"
            fill="#040B12" />
        <path
            d="M4.93775 14.8958H3.68251C3.03533 14.8958 2.51064 14.3712 2.51064 13.724C2.51064 13.0768 3.03533 12.5521 3.68251 12.5521H4.93775C5.58493 12.5521 6.10962 13.0768 6.10962 13.724C6.10962 14.3712 5.58493 14.8958 4.93775 14.8958Z"
            fill="#3DDC84" />
        <path
            d="M36.3177 27.4474H35.0625C34.4153 27.4474 33.8906 26.9227 33.8906 26.2755C33.8906 25.6283 34.4153 25.1036 35.0625 25.1036H36.3177C36.9649 25.1036 37.4896 25.6283 37.4896 26.2755C37.4896 26.9227 36.9649 27.4474 36.3177 27.4474Z"
            fill="#0D1B2A" />
        <path
            d="M13.7246 6.10885C13.0774 6.10885 12.5527 5.58417 12.5527 4.93698V3.68174C12.5527 3.03456 13.0774 2.50987 13.7246 2.50987C14.3718 2.50987 14.8965 3.03456 14.8965 3.68174V4.93698C14.8965 5.58417 14.3718 6.10885 13.7246 6.10885Z"
            fill="#3DDC84" />
        <path
            d="M26.2763 37.4896C25.6291 37.4896 25.1044 36.9649 25.1044 36.3177V35.0625C25.1044 34.4153 25.6291 33.8906 26.2763 33.8906C26.9234 33.8906 27.4481 34.4153 27.4481 35.0625V36.3177C27.4481 36.9649 26.9235 37.4896 26.2763 37.4896Z"
            fill="#0D1B2A" />
        <path
            d="M6.68102 8.33801L5.79609 7.45051C5.33914 6.99215 5.34024 6.25019 5.7986 5.79324C6.25695 5.33637 6.99883 5.33738 7.45586 5.79574L8.34078 6.68332C8.79774 7.14168 8.79664 7.88363 8.33828 8.34058C7.88008 8.79722 7.1382 8.7966 6.68102 8.33801Z"
            fill="#3DDC84" />
        <path
            d="M32.5443 34.2033L31.6594 33.3157C31.2024 32.8574 31.2035 32.1154 31.6619 31.6585C32.1202 31.2016 32.8621 31.2026 33.3191 31.661L34.2041 32.5486C34.661 33.0069 34.6599 33.7489 34.2016 34.2058C33.7434 34.6625 33.0016 34.6618 32.5443 34.2033Z"
            fill="#0D1B2A" />
        <path
            d="M18.1691 14.7314C17.1909 13.7532 15.597 13.7514 14.6163 14.7323L10.2368 19.1147C9.77914 19.5724 9.77914 20.3144 10.2368 20.772L12.1286 22.6638C12.5862 23.1215 13.3282 23.1215 13.7859 22.6638L18.1691 18.2819C19.144 17.3069 19.1548 15.7176 18.1691 14.7314Z"
            fill="#0D1B2A" />
        <path
            d="M25.2688 21.8312C24.2907 20.853 22.6968 20.8512 21.716 21.8322L17.3366 26.2146C16.8789 26.6722 16.8789 27.4142 17.3366 27.8719L19.2284 29.7637C19.686 30.2213 20.428 30.2213 20.8856 29.7637L25.2688 25.3818C26.2438 24.4066 26.2546 22.8173 25.2688 21.8312Z"
            fill="#040B12" />
        <path
            d="M9.40658 34.1426L5.86048 30.5922C2.9479 27.6832 2.94423 22.9712 5.86064 20.0583L8.52189 17.3955C8.97954 16.9384 9.72103 16.9388 10.1785 17.3962L22.6049 29.8221C23.0628 30.28 23.0622 31.023 22.6042 31.4801C22.6039 31.4805 19.945 34.1411 19.945 34.1411C17.04 37.0426 12.3131 37.0456 9.40658 34.1426Z"
            fill="#3DDC84" />
        <path
            d="M19.945 34.1411C19.945 34.1411 22.6039 31.4805 22.6042 31.4801C23.0622 31.023 23.0628 30.28 22.6049 29.8221L16.391 23.6085L7.63281 32.3668L9.40658 34.1426C12.3131 37.0456 17.04 37.0426 19.945 34.1411Z"
            fill="#18B55E" />
        <path
            d="M29.8223 22.6042L17.3958 10.1782C16.9379 9.72025 16.9386 8.97736 17.3965 8.52017C17.3968 8.51986 20.0558 5.85931 20.0558 5.85931C22.9624 2.95611 27.6893 2.95619 30.5943 5.85775L34.1403 9.40806C37.0526 12.3169 37.0569 17.0287 34.1402 19.9419L31.479 22.6048C31.0211 23.0619 30.2797 23.0616 29.8223 22.6042Z"
            fill="#3DDC84" />
        <path
            d="M31.479 22.6048L34.1402 19.9419C37.0569 17.0287 37.0526 12.3169 34.1403 9.40806L32.3676 7.63292L23.6094 16.3911L29.8223 22.6042C30.2797 23.0616 31.0211 23.0619 31.479 22.6048Z"
            fill="#18B55E" />
    </symbol>
    <symbol id="arrowAngle" viewBox="0 0 15 15">
        <path
            d="M1.01521 13.8075C1.4287 14.221 2.0991 14.221 2.51261 13.8075L14.5126 1.80745C14.9261 1.39394 14.9261 0.723635 14.5126 0.310129C14.0991 -0.103376 13.4287 -0.103376 13.0152 0.310129L1.01521 12.3101C0.601702 12.7236 0.601702 13.394 1.01521 13.8075Z"
            fill="#3DDC84" />
        <path
            d="M13.7648 14.8246C14.3495 14.8246 14.8236 14.3506 14.8236 13.7658V1.05987C14.8236 0.475121 14.3495 0.00105095 13.7648 0.00105095H1.05882C0.474042 0.00105095 0 0.475121 0 1.05987C0 1.64477 0.474042 2.1187 1.05882 2.1187H12.7059V13.7658C12.7059 14.3506 13.1799 14.8246 13.7648 14.8246Z"
            fill="#3DDC84" />
    </symbol>
</svg>