<svg display="none" xmlns="http://www.w3.org/2000/svg" aria-hidden="true"
    style="position: absolute; width: 0; height: 0; overflow: hidden;" version="1.1">
    <symbol id="en" viewBox="24 24">
        <path
            d="M12 24C18.6274 24 24 18.6274 24 12C24 5.37258 18.6274 0 12 0C5.37258 0 0 5.37258 0 12C0 18.6274 5.37258 24 12 24Z"
            fill="#F0F0F0" />
        <path d="M2.48032 4.69434C1.53771 5.92073 0.826945 7.33424 0.413086 8.86982H6.6558L2.48032 4.69434Z"
            fill="#0052B4" />
        <path d="M23.5864 8.86977C23.1725 7.33424 22.4617 5.92073 21.5191 4.69434L17.3438 8.86977H23.5864Z"
            fill="#0052B4" />
        <path d="M0.413086 15.1309C0.826992 16.6664 1.53776 18.0799 2.48032 19.3063L6.65566 15.1309H0.413086Z"
            fill="#0052B4" />
        <path d="M19.3053 2.48134C18.0789 1.53873 16.6655 0.827969 15.1299 0.414062V6.65673L19.3053 2.48134Z"
            fill="#0052B4" />
        <path d="M4.69434 21.5191C5.92073 22.4617 7.33424 23.1725 8.86977 23.5864V17.3438L4.69434 21.5191Z"
            fill="#0052B4" />
        <path d="M8.86973 0.414062C7.33419 0.827969 5.92068 1.53873 4.69434 2.4813L8.86973 6.65669V0.414062Z"
            fill="#0052B4" />
        <path d="M15.1299 23.5864C16.6654 23.1725 18.0789 22.4617 19.3053 21.5191L15.1299 17.3438V23.5864Z"
            fill="#0052B4" />
        <path d="M17.3438 15.1309L21.5191 19.3063C22.4617 18.08 23.1725 16.6664 23.5864 15.1309H17.3438Z"
            fill="#0052B4" />
        <path
            d="M23.8984 10.4348H13.5653H13.5653V0.101578C13.0529 0.034875 12.5305 0 12 0C11.4694 0 10.9471 0.034875 10.4348 0.101578V10.4347V10.4347H0.101578C0.034875 10.9471 0 11.4695 0 12C0 12.5306 0.034875 13.0529 0.101578 13.5652H10.4347H10.4347V23.8984C10.9471 23.9651 11.4694 24 12 24C12.5305 24 13.0529 23.9652 13.5652 23.8984V13.5653V13.5653H23.8984C23.9651 13.0529 24 12.5306 24 12C24 11.4695 23.9651 10.9471 23.8984 10.4348Z"
            fill="#D80027" />
        <path
            d="M15.1299 15.1309L20.4847 20.4857C20.731 20.2395 20.9659 19.9821 21.1901 19.7153L16.6056 15.1309H15.1299V15.1309Z"
            fill="#D80027" />
        <path
            d="M8.86951 15.1309H8.86941L3.51465 20.4856C3.76084 20.7319 4.01823 20.9668 4.28504 21.191L8.86951 16.6064V15.1309Z"
            fill="#D80027" />
        <path
            d="M8.86976 8.86862V8.86853L3.51495 3.51367C3.26866 3.75986 3.03373 4.01725 2.80957 4.28406L7.39409 8.86858L8.86976 8.86862Z"
            fill="#D80027" />
        <path
            d="M15.1299 8.87078L20.4847 3.51588C20.2386 3.26959 19.9812 3.03466 19.7144 2.81055L15.1299 7.39506V8.87078Z"
            fill="#D80027" />
    </symbol>
    <symbol id="ar" viewBox="24 24">
        <path
            d="M12 24C18.6274 24 24 18.6274 24 12C24 5.37258 18.6274 0 12 0C5.37258 0 0 5.37258 0 12C0 18.6274 5.37258 24 12 24Z"
            fill="#F0F0F0" />
        <path
            d="M6.78223 16.1738L7.82571 23.2536C9.12565 23.736 10.5318 23.9999 11.9996 23.9999C17.1591 23.9999 21.5577 20.7434 23.2532 16.1738H6.78223Z"
            fill="black" />
        <path
            d="M6.78223 7.82611L7.82571 0.746297C9.12565 0.263906 10.5318 0 11.9996 0C17.1591 0 21.5577 3.2565 23.2532 7.82611H6.78223Z"
            fill="#6DA544" />
        <path d="M0 12.0007C0 17.1603 3.25655 21.5588 7.82611 23.2543V0.74707C3.25655 2.44259 0 6.8411 0 12.0007Z"
            fill="#A2001D" />
    </symbol>
    <symbol id="ru" viewBox="24 24">
        <path
            d="M12 24C18.6274 24 24 18.6274 24 12C24 5.37258 18.6274 0 12 0C5.37258 0 0 5.37258 0 12C0 18.6274 5.37258 24 12 24Z"
            fill="#F0F0F0" />
        <path
            d="M23.2536 16.174C23.736 14.874 24 13.4679 24 12.0001C24 10.5322 23.736 9.12616 23.2536 7.82617H0.746391C0.264047 9.12616 0 10.5322 0 12.0001C0 13.4679 0.264047 14.874 0.746391 16.174L12 17.2174L23.2536 16.174Z"
            fill="#0052B4" />
        <path
            d="M11.9997 23.9999C17.1593 23.9999 21.5578 20.7434 23.2533 16.1738H0.746094C2.44161 20.7434 6.84012 23.9999 11.9997 23.9999Z"
            fill="#D80027" />
    </symbol>
    <symbol id="telegram" viewBox="0 0 20 20">
        <path
            d="M10 0C15.5228 0 20 4.47715 20 10C20 15.5228 15.5228 20 10 20C4.47715 20 0 15.5228 0 10C0 4.47715 4.47715 0 10 0ZM14.0889 6.01953C13.7128 6.02618 13.1355 6.22677 10.3584 7.38184C9.38574 7.78639 7.44143 8.62349 4.52637 9.89355C4.05334 10.0817 3.80595 10.2663 3.7832 10.4463C3.73985 10.792 4.23712 10.9 4.86328 11.1035C5.37386 11.2695 6.0609 11.464 6.41797 11.4717C6.74179 11.4787 7.10292 11.3443 7.50195 11.0703C10.2257 9.23172 11.6324 8.30227 11.7207 8.28223C11.7829 8.2681 11.8694 8.25087 11.9277 8.30273C11.9861 8.35471 11.9798 8.4531 11.9736 8.47949C11.9239 8.69074 9.36688 11.0172 9.21875 11.1709C8.65612 11.7553 8.01583 12.1131 9.00293 12.7637C9.85727 13.3266 10.3552 13.6857 11.2354 14.2627C11.7976 14.6313 12.2388 15.0681 12.8193 15.0146C13.0864 14.9899 13.3618 14.7389 13.502 13.9902C13.8332 12.2194 14.4852 8.38228 14.6357 6.80078C14.6555 6.59361 14.6543 6.27997 14.4766 6.13574C14.3568 6.03852 14.1716 6.01809 14.0889 6.01953Z" />
    </symbol>
    <symbol id="arrowBottom" viewBox="0 0 11 6">
        <path
            d="M5.20543 6.00307C5.30413 6.00364 5.40198 5.98472 5.49336 5.9474C5.58474 5.91007 5.66785 5.85508 5.73793 5.78557L10.2379 1.28557C10.3792 1.14434 10.4585 0.952795 10.4585 0.753069C10.4585 0.553342 10.3792 0.361796 10.2379 0.220569C10.0967 0.0793409 9.90515 -4.83747e-08 9.70543 -6.58354e-08C9.5057 -8.3296e-08 9.31416 0.0793409 9.17293 0.220569L5.20543 4.19557L1.23793 0.228068C1.09445 0.105198 0.909897 0.0409934 0.72114 0.0482843C0.532383 0.0555751 0.353328 0.133825 0.219757 0.267396C0.0861864 0.400967 0.00793833 0.580021 0.000647478 0.768778C-0.00664338 0.957535 0.0575599 1.14209 0.180429 1.28557L4.68043 5.78557C4.82012 5.92413 5.00867 6.00224 5.20543 6.00307Z" />
    </symbol>
    
    <symbol id="telegramDark" viewBox="0 0 40 40"> <!-- width="40" height="40" -->
        <path
            d="M20 40C31.0457 40 40 31.0457 40 20C40 8.9543 31.0457 0 20 0C8.9543 0 0 8.9543 0 20C0 31.0457 8.9543 40 20 40Z"
            fill="#3DDC84" />
        <path
            d="M39.9941 19.5373L31.1159 10.6738L16.6543 28.3012L27.0671 38.714C34.6248 35.8584 40 28.5574 40 20C40 19.8452 39.9976 19.691 39.9941 19.5373Z"
            fill="#18B55E" />
        <path
            d="M29.9777 10.431C30.7751 10.1199 31.5993 10.8175 31.4242 11.6552L27.8484 28.7475C27.6814 29.5488 26.74 29.9097 26.0801 29.4249L20.6821 25.4626L17.9306 28.2721C17.4471 28.765 16.6134 28.5643 16.406 27.9071L14.4209 21.6054L9.0996 20.0336C8.40062 19.8275 8.36022 18.8552 9.03765 18.5899L29.9777 10.431ZM27.3528 14.2236C27.5858 14.0175 27.3151 13.6539 27.0511 13.8182L15.5655 20.9414C15.3635 21.0666 15.2706 21.3131 15.3419 21.5407L16.9083 28.4188C16.9393 28.5239 17.0901 28.509 17.1036 28.4L17.4537 23.1582C17.4672 23.0289 17.5291 22.9104 17.6262 22.8243L27.3528 14.2236Z"
            fill="white" />
        <path
            d="M27.0513 13.8188C27.3153 13.6545 27.586 14.0181 27.353 14.2242L17.6264 22.8249C17.5295 22.911 17.4675 23.0296 17.454 23.1588L17.1039 28.4006C17.0904 28.5096 16.9396 28.5245 16.9086 28.4194L15.3422 21.5413C15.2708 21.3137 15.3638 21.0672 15.5658 20.942L27.0513 13.8188Z"
            fill="#9EC2E5" />
        <path
            d="M16.9649 28.4901C16.7117 28.3999 16.4976 28.1979 16.406 27.9069L14.4208 21.6052L9.0996 20.0335C8.40062 19.8274 8.36022 18.855 9.03765 18.5897L29.9776 10.4309C30.4921 10.2302 31.0187 10.4497 31.2787 10.8565C31.2301 10.7825 31.1723 10.7138 31.1076 10.6532L16.9016 22.2504V22.7582L16.8234 22.7016L16.9016 25.8989V28.4632C16.9218 28.4727 16.9433 28.4807 16.9648 28.4875V28.4901H16.9649Z"
            fill="#0D1B2A" />
        <path
            d="M31.4468 11.3685C31.4509 11.46 31.4442 11.557 31.4239 11.6554L27.8482 28.7476C27.6811 29.5489 26.7397 29.9099 26.0798 29.425L20.6818 25.4628L16.9014 22.7584V22.2507L31.1075 10.6533C31.1721 10.7139 31.23 10.7826 31.2785 10.8567C31.2879 10.8729 31.2973 10.8876 31.3068 10.9025C31.3148 10.9186 31.3243 10.9348 31.3324 10.9496C31.3404 10.9657 31.3486 10.9819 31.3553 10.9981C31.3633 11.0156 31.3701 11.0318 31.3768 11.0493C31.3822 11.0641 31.3889 11.0802 31.3943 11.0978C31.4118 11.1503 31.4253 11.2042 31.4347 11.2607C31.4401 11.2957 31.4442 11.3308 31.4468 11.3685Z"
            fill="#0D1B2A" />
        <path
            d="M20.6818 25.4631L17.9303 28.2725C17.9074 28.2954 17.8832 28.3183 17.8589 28.3386C17.8346 28.3588 17.8104 28.3763 17.7848 28.3938C17.7835 28.3951 17.7835 28.3951 17.7835 28.3951C17.7323 28.4288 17.6798 28.4571 17.6246 28.48C17.5963 28.4907 17.5693 28.5015 17.5411 28.5082C17.4239 28.5432 17.304 28.5527 17.1855 28.5406C17.1546 28.5379 17.1236 28.5325 17.0939 28.5271C17.0899 28.5271 17.0859 28.5258 17.0818 28.5245C17.0522 28.5164 17.0225 28.5083 16.9929 28.4989C16.9835 28.4962 16.9741 28.4935 16.9646 28.4881L16.9014 25.8996V22.7588L20.6818 25.4631Z"
            fill="#3C5D81" />
        <path
            d="M17.8592 28.3379C17.835 28.3581 17.8107 28.377 17.7852 28.3945V28.3931C17.8108 28.3756 17.835 28.3581 17.8592 28.3379Z"
            fill="#DADDE0" />
        <path
            d="M17.7845 28.3926V28.3939C17.7845 28.3939 17.7845 28.3926 17.7832 28.3939C17.7832 28.3939 17.7832 28.3939 17.7845 28.3926Z"
            fill="#DADDE0" />
        <path
            d="M17.625 28.4794C17.6802 28.4565 17.7327 28.4282 17.7839 28.3945C17.7327 28.4281 17.6788 28.4564 17.625 28.4794Z"
            fill="#DADDE0" />
        <path
            d="M17.1855 28.5402C17.3041 28.5523 17.4239 28.5428 17.5411 28.5078C17.4562 28.5348 17.3687 28.5469 17.2812 28.5469C17.2542 28.5469 17.2273 28.5455 17.2017 28.5428C17.1963 28.5429 17.1909 28.5429 17.1855 28.5402Z"
            fill="#DADDE0" />
        <path
            d="M17.1857 28.5404C17.1911 28.543 17.1965 28.543 17.2019 28.543C17.1736 28.5417 17.148 28.5376 17.1211 28.5322C17.1426 28.5364 17.1641 28.539 17.1857 28.5404Z"
            fill="white" />
        <path
            d="M17.1853 28.5398C17.1637 28.5385 17.1422 28.5357 17.1207 28.5318C17.1113 28.5304 17.1019 28.5291 17.0938 28.5264C17.1234 28.5318 17.1543 28.5371 17.1853 28.5398Z"
            fill="#DADDE0" />
        <path
            d="M16.9932 28.498C17.0228 28.5075 17.0525 28.5155 17.0821 28.5237C17.07 28.521 17.0579 28.5183 17.0457 28.5156C17.0404 28.5143 17.035 28.513 17.0309 28.5102C17.0187 28.5075 17.0053 28.5034 16.9932 28.498Z"
            fill="#DADDE0" />
        <path
            d="M17.0461 28.5166C17.0583 28.5193 17.0704 28.522 17.0825 28.5246C17.0704 28.5233 17.0583 28.5207 17.0461 28.5166Z"
            fill="white" />
        <path
            d="M16.9936 28.4989C17.0057 28.5043 17.0192 28.5084 17.0313 28.511C17.0111 28.507 16.9909 28.5002 16.9707 28.4922C16.9787 28.4948 16.9855 28.4976 16.9936 28.4989Z"
            fill="white" />
        <path
            d="M16.9931 28.499C16.9851 28.4977 16.9783 28.4949 16.9702 28.4923C16.9689 28.4936 16.9662 28.4923 16.9648 28.4909V28.4883C16.9742 28.4936 16.9837 28.4963 16.9931 28.499Z"
            fill="#DADDE0" />
        <path d="M16.9014 25.8994L16.9646 28.4879C16.9431 28.4812 16.9215 28.4731 16.9014 28.4637V25.8994Z"
            fill="#D1D1D1" />
        <path d="M16.9014 22.7587V25.8995L16.8232 22.7021L16.9014 22.7587Z" fill="#DADDE0" />
        <path
            d="M27.353 14.2241L17.6264 22.8248C17.5295 22.911 17.4675 23.0295 17.454 23.1588L17.1045 28.401C17.0911 28.5101 16.9402 28.5249 16.9078 28.4198L15.3422 21.5413C15.2708 21.3137 15.3638 21.0672 15.5658 20.942L27.0514 13.8188C27.3153 13.6544 27.5861 14.0181 27.353 14.2241Z"
            fill="#213B57" />
    </symbol>

    <symbol id="" viewBox="">

    </symbol>
</svg>