<svg display="none" xmlns="http://www.w3.org/2000/svg" aria-hidden="true"
    style="position: absolute; width: 0; height: 0; overflow: hidden;" version="1.1">
    <symbol id="en" viewBox="24 24">
        <path
            d="M12 24C18.6274 24 24 18.6274 24 12C24 5.37258 18.6274 0 12 0C5.37258 0 0 5.37258 0 12C0 18.6274 5.37258 24 12 24Z"
            fill="#F0F0F0" />
        <path d="M2.48032 4.69434C1.53771 5.92073 0.826945 7.33424 0.413086 8.86982H6.6558L2.48032 4.69434Z"
            fill="#0052B4" />
        <path d="M23.5864 8.86977C23.1725 7.33424 22.4617 5.92073 21.5191 4.69434L17.3438 8.86977H23.5864Z"
            fill="#0052B4" />
        <path d="M0.413086 15.1309C0.826992 16.6664 1.53776 18.0799 2.48032 19.3063L6.65566 15.1309H0.413086Z"
            fill="#0052B4" />
        <path d="M19.3053 2.48134C18.0789 1.53873 16.6655 0.827969 15.1299 0.414062V6.65673L19.3053 2.48134Z"
            fill="#0052B4" />
        <path d="M4.69434 21.5191C5.92073 22.4617 7.33424 23.1725 8.86977 23.5864V17.3438L4.69434 21.5191Z"
            fill="#0052B4" />
        <path d="M8.86973 0.414062C7.33419 0.827969 5.92068 1.53873 4.69434 2.4813L8.86973 6.65669V0.414062Z"
            fill="#0052B4" />
        <path d="M15.1299 23.5864C16.6654 23.1725 18.0789 22.4617 19.3053 21.5191L15.1299 17.3438V23.5864Z"
            fill="#0052B4" />
        <path d="M17.3438 15.1309L21.5191 19.3063C22.4617 18.08 23.1725 16.6664 23.5864 15.1309H17.3438Z"
            fill="#0052B4" />
        <path
            d="M23.8984 10.4348H13.5653H13.5653V0.101578C13.0529 0.034875 12.5305 0 12 0C11.4694 0 10.9471 0.034875 10.4348 0.101578V10.4347V10.4347H0.101578C0.034875 10.9471 0 11.4695 0 12C0 12.5306 0.034875 13.0529 0.101578 13.5652H10.4347H10.4347V23.8984C10.9471 23.9651 11.4694 24 12 24C12.5305 24 13.0529 23.9652 13.5652 23.8984V13.5653V13.5653H23.8984C23.9651 13.0529 24 12.5306 24 12C24 11.4695 23.9651 10.9471 23.8984 10.4348Z"
            fill="#D80027" />
        <path
            d="M15.1299 15.1309L20.4847 20.4857C20.731 20.2395 20.9659 19.9821 21.1901 19.7153L16.6056 15.1309H15.1299V15.1309Z"
            fill="#D80027" />
        <path
            d="M8.86951 15.1309H8.86941L3.51465 20.4856C3.76084 20.7319 4.01823 20.9668 4.28504 21.191L8.86951 16.6064V15.1309Z"
            fill="#D80027" />
        <path
            d="M8.86976 8.86862V8.86853L3.51495 3.51367C3.26866 3.75986 3.03373 4.01725 2.80957 4.28406L7.39409 8.86858L8.86976 8.86862Z"
            fill="#D80027" />
        <path
            d="M15.1299 8.87078L20.4847 3.51588C20.2386 3.26959 19.9812 3.03466 19.7144 2.81055L15.1299 7.39506V8.87078Z"
            fill="#D80027" />
    </symbol>
    <symbol id="ar" viewBox="24 24">
        <path
            d="M12 24C18.6274 24 24 18.6274 24 12C24 5.37258 18.6274 0 12 0C5.37258 0 0 5.37258 0 12C0 18.6274 5.37258 24 12 24Z"
            fill="#F0F0F0" />
        <path
            d="M6.78223 16.1738L7.82571 23.2536C9.12565 23.736 10.5318 23.9999 11.9996 23.9999C17.1591 23.9999 21.5577 20.7434 23.2532 16.1738H6.78223Z"
            fill="black" />
        <path
            d="M6.78223 7.82611L7.82571 0.746297C9.12565 0.263906 10.5318 0 11.9996 0C17.1591 0 21.5577 3.2565 23.2532 7.82611H6.78223Z"
            fill="#6DA544" />
        <path d="M0 12.0007C0 17.1603 3.25655 21.5588 7.82611 23.2543V0.74707C3.25655 2.44259 0 6.8411 0 12.0007Z"
            fill="#A2001D" />
    </symbol>
    <symbol id="ru" viewBox="24 24">
        <path
            d="M12 24C18.6274 24 24 18.6274 24 12C24 5.37258 18.6274 0 12 0C5.37258 0 0 5.37258 0 12C0 18.6274 5.37258 24 12 24Z"
            fill="#F0F0F0" />
        <path
            d="M23.2536 16.174C23.736 14.874 24 13.4679 24 12.0001C24 10.5322 23.736 9.12616 23.2536 7.82617H0.746391C0.264047 9.12616 0 10.5322 0 12.0001C0 13.4679 0.264047 14.874 0.746391 16.174L12 17.2174L23.2536 16.174Z"
            fill="#0052B4" />
        <path
            d="M11.9997 23.9999C17.1593 23.9999 21.5578 20.7434 23.2533 16.1738H0.746094C2.44161 20.7434 6.84012 23.9999 11.9997 23.9999Z"
            fill="#D80027" />
    </symbol>
    <symbol id="telegram" viewBox="0 0 20 20">
        <path
            d="M10 0C15.5228 0 20 4.47715 20 10C20 15.5228 15.5228 20 10 20C4.47715 20 0 15.5228 0 10C0 4.47715 4.47715 0 10 0ZM14.0889 6.01953C13.7128 6.02618 13.1355 6.22677 10.3584 7.38184C9.38574 7.78639 7.44143 8.62349 4.52637 9.89355C4.05334 10.0817 3.80595 10.2663 3.7832 10.4463C3.73985 10.792 4.23712 10.9 4.86328 11.1035C5.37386 11.2695 6.0609 11.464 6.41797 11.4717C6.74179 11.4787 7.10292 11.3443 7.50195 11.0703C10.2257 9.23172 11.6324 8.30227 11.7207 8.28223C11.7829 8.2681 11.8694 8.25087 11.9277 8.30273C11.9861 8.35471 11.9798 8.4531 11.9736 8.47949C11.9239 8.69074 9.36688 11.0172 9.21875 11.1709C8.65612 11.7553 8.01583 12.1131 9.00293 12.7637C9.85727 13.3266 10.3552 13.6857 11.2354 14.2627C11.7976 14.6313 12.2388 15.0681 12.8193 15.0146C13.0864 14.9899 13.3618 14.7389 13.502 13.9902C13.8332 12.2194 14.4852 8.38228 14.6357 6.80078C14.6555 6.59361 14.6543 6.27997 14.4766 6.13574C14.3568 6.03852 14.1716 6.01809 14.0889 6.01953Z"/>
    </symbol>





    <symbol id="" viewBox="">

    </symbol>
</svg>
