<svg display="none" xmlns="http://www.w3.org/2000/svg" aria-hidden="true"
    style="position: absolute; width: 0; height: 0; overflow: hidden;" version="1.1">
    <symbol id="en" viewBox="24 24">
        <path
            d="M12 24C18.6274 24 24 18.6274 24 12C24 5.37258 18.6274 0 12 0C5.37258 0 0 5.37258 0 12C0 18.6274 5.37258 24 12 24Z"
            fill="#F0F0F0" />
        <path d="M2.48032 4.69434C1.53771 5.92073 0.826945 7.33424 0.413086 8.86982H6.6558L2.48032 4.69434Z"
            fill="#0052B4" />
        <path d="M23.5864 8.86977C23.1725 7.33424 22.4617 5.92073 21.5191 4.69434L17.3438 8.86977H23.5864Z"
            fill="#0052B4" />
        <path d="M0.413086 15.1309C0.826992 16.6664 1.53776 18.0799 2.48032 19.3063L6.65566 15.1309H0.413086Z"
            fill="#0052B4" />
        <path d="M19.3053 2.48134C18.0789 1.53873 16.6655 0.827969 15.1299 0.414062V6.65673L19.3053 2.48134Z"
            fill="#0052B4" />
        <path d="M4.69434 21.5191C5.92073 22.4617 7.33424 23.1725 8.86977 23.5864V17.3438L4.69434 21.5191Z"
            fill="#0052B4" />
        <path d="M8.86973 0.414062C7.33419 0.827969 5.92068 1.53873 4.69434 2.4813L8.86973 6.65669V0.414062Z"
            fill="#0052B4" />
        <path d="M15.1299 23.5864C16.6654 23.1725 18.0789 22.4617 19.3053 21.5191L15.1299 17.3438V23.5864Z"
            fill="#0052B4" />
        <path d="M17.3438 15.1309L21.5191 19.3063C22.4617 18.08 23.1725 16.6664 23.5864 15.1309H17.3438Z"
            fill="#0052B4" />
        <path
            d="M23.8984 10.4348H13.5653H13.5653V0.101578C13.0529 0.034875 12.5305 0 12 0C11.4694 0 10.9471 0.034875 10.4348 0.101578V10.4347V10.4347H0.101578C0.034875 10.9471 0 11.4695 0 12C0 12.5306 0.034875 13.0529 0.101578 13.5652H10.4347H10.4347V23.8984C10.9471 23.9651 11.4694 24 12 24C12.5305 24 13.0529 23.9652 13.5652 23.8984V13.5653V13.5653H23.8984C23.9651 13.0529 24 12.5306 24 12C24 11.4695 23.9651 10.9471 23.8984 10.4348Z"
            fill="#D80027" />
        <path
            d="M15.1299 15.1309L20.4847 20.4857C20.731 20.2395 20.9659 19.9821 21.1901 19.7153L16.6056 15.1309H15.1299V15.1309Z"
            fill="#D80027" />
        <path
            d="M8.86951 15.1309H8.86941L3.51465 20.4856C3.76084 20.7319 4.01823 20.9668 4.28504 21.191L8.86951 16.6064V15.1309Z"
            fill="#D80027" />
        <path
            d="M8.86976 8.86862V8.86853L3.51495 3.51367C3.26866 3.75986 3.03373 4.01725 2.80957 4.28406L7.39409 8.86858L8.86976 8.86862Z"
            fill="#D80027" />
        <path
            d="M15.1299 8.87078L20.4847 3.51588C20.2386 3.26959 19.9812 3.03466 19.7144 2.81055L15.1299 7.39506V8.87078Z"
            fill="#D80027" />
    </symbol>
    <symbol id="ar" viewBox="24 24">
        <path
            d="M12 24C18.6274 24 24 18.6274 24 12C24 5.37258 18.6274 0 12 0C5.37258 0 0 5.37258 0 12C0 18.6274 5.37258 24 12 24Z"
            fill="#F0F0F0" />
        <path
            d="M6.78223 16.1738L7.82571 23.2536C9.12565 23.736 10.5318 23.9999 11.9996 23.9999C17.1591 23.9999 21.5577 20.7434 23.2532 16.1738H6.78223Z"
            fill="black" />
        <path
            d="M6.78223 7.82611L7.82571 0.746297C9.12565 0.263906 10.5318 0 11.9996 0C17.1591 0 21.5577 3.2565 23.2532 7.82611H6.78223Z"
            fill="#6DA544" />
        <path d="M0 12.0007C0 17.1603 3.25655 21.5588 7.82611 23.2543V0.74707C3.25655 2.44259 0 6.8411 0 12.0007Z"
            fill="#A2001D" />
    </symbol>
    <symbol id="ru" viewBox="24 24">
        <path
            d="M12 24C18.6274 24 24 18.6274 24 12C24 5.37258 18.6274 0 12 0C5.37258 0 0 5.37258 0 12C0 18.6274 5.37258 24 12 24Z"
            fill="#F0F0F0" />
        <path
            d="M23.2536 16.174C23.736 14.874 24 13.4679 24 12.0001C24 10.5322 23.736 9.12616 23.2536 7.82617H0.746391C0.264047 9.12616 0 10.5322 0 12.0001C0 13.4679 0.264047 14.874 0.746391 16.174L12 17.2174L23.2536 16.174Z"
            fill="#0052B4" />
        <path
            d="M11.9997 23.9999C17.1593 23.9999 21.5578 20.7434 23.2533 16.1738H0.746094C2.44161 20.7434 6.84012 23.9999 11.9997 23.9999Z"
            fill="#D80027" />
    </symbol>
    <symbol id="arrowBottom" viewBox="0 0 11 6">
        <path
            d="M5.20543 6.00307C5.30413 6.00364 5.40198 5.98472 5.49336 5.9474C5.58474 5.91007 5.66785 5.85508 5.73793 5.78557L10.2379 1.28557C10.3792 1.14434 10.4585 0.952795 10.4585 0.753069C10.4585 0.553342 10.3792 0.361796 10.2379 0.220569C10.0967 0.0793409 9.90515 -4.83747e-08 9.70543 -6.58354e-08C9.5057 -8.3296e-08 9.31416 0.0793409 9.17293 0.220569L5.20543 4.19557L1.23793 0.228068C1.09445 0.105198 0.909897 0.0409934 0.72114 0.0482843C0.532383 0.0555751 0.353328 0.133825 0.219757 0.267396C0.0861864 0.400967 0.00793833 0.580021 0.000647478 0.768778C-0.00664338 0.957535 0.0575599 1.14209 0.180429 1.28557L4.68043 5.78557C4.82012 5.92413 5.00867 6.00224 5.20543 6.00307Z" />
    </symbol>
    <symbol id="badgeVPN" viewBox="0 0 40 19">
        <path
            d="M20.9033 7.5459H18.7939V9.53427H20.8627C21.4736 9.53427 21.9971 9.18152 21.9971 8.5121C21.9971 7.84268 21.5393 7.5459 20.9033 7.5459Z"
            fill="#3DDC84" />
        <g filter="url(#filter0_i_0_1)">
            <path
                d="M39.5051 4.74039C39.0699 2.87795 37.1613 1.09578 35.1918 0.660544C33.9918 0.347559 22.2183 -0.0906191 20.0004 -0.0147664C17.7824 -0.0884098 6.00897 0.347559 4.80897 0.660544C2.83709 1.09578 0.930842 2.87795 0.495686 4.74039C0.157019 6.30658 -0.00896769 7.90159 0.000373298 9.49996C-0.00857218 11.0983 0.15741 12.6933 0.495686 14.2595C0.930842 16.122 2.83944 17.9034 4.80897 18.3394C6.00975 18.6524 17.7824 19.0905 20.0004 19.0147C22.2191 19.0883 33.9918 18.6531 35.1918 18.3394C37.1637 17.9041 39.0699 16.122 39.5051 14.2595C39.8437 12.6933 40.0097 11.0983 40.0004 9.49996C40.0093 7.9016 39.8433 6.30664 39.5051 4.74039ZM14.9879 7.18977L12.3215 12.7756C12.1712 13.09 11.9279 13.3568 11.6207 13.5439C11.3136 13.7311 10.9556 13.8306 10.5898 13.8306C10.2241 13.8306 9.86609 13.7311 9.55891 13.5439C9.25173 13.3568 9.00841 13.09 8.85819 12.7756L6.19178 7.18977C6.11006 7.01892 6.07506 6.83148 6.08998 6.6446C6.1049 6.45771 6.16926 6.27733 6.27719 6.11993C6.38511 5.96253 6.53316 5.83313 6.7078 5.74356C6.88245 5.65399 7.07812 5.6071 7.27694 5.60717C7.51014 5.60749 7.7381 5.67235 7.93254 5.79371C8.12698 5.91508 8.27933 6.08759 8.37069 6.28985L10.5808 11.1871H10.6051L12.8027 6.29206C12.8938 6.08944 13.046 5.91652 13.2405 5.79476C13.4349 5.673 13.663 5.60777 13.8965 5.60717C14.0958 5.60611 14.2923 5.65228 14.4677 5.74144C14.6432 5.8306 14.7921 5.95989 14.9008 6.11744C15.0094 6.275 15.0744 6.45576 15.0896 6.64312C15.1048 6.83049 15.0698 7.01846 14.9879 7.18977ZM21.1152 11.4574H18.7973V12.6733C18.7973 12.9802 18.668 13.2745 18.4378 13.4916C18.2077 13.7087 17.8955 13.8307 17.5699 13.8309C17.2442 13.8309 16.9318 13.709 16.7015 13.4919C16.4712 13.2748 16.3418 12.9803 16.3418 12.6733V6.50709C16.342 6.26835 16.4427 6.03946 16.6219 5.87071C16.8011 5.70196 17.044 5.60717 17.2972 5.60717H21.1152C23.0848 5.60717 24.4558 6.67574 24.4558 8.54407C24.4558 10.4124 23.0848 11.4574 21.1152 11.4574ZM33.9152 12.2763C33.9152 12.6066 33.8035 12.9282 33.5965 13.1946C33.3895 13.461 33.0979 13.6584 32.7639 13.7581C32.4299 13.8578 32.0709 13.8546 31.7389 13.7491C31.407 13.6435 31.1193 13.4411 30.9176 13.1711L27.7707 8.955H27.7457V12.6733C27.7457 12.9801 27.6164 13.2744 27.3862 13.4913C27.156 13.7083 26.8439 13.8302 26.5183 13.8302C26.1928 13.8302 25.8807 13.7083 25.6505 13.4913C25.4203 13.2744 25.291 12.9801 25.291 12.6733V7.16105C25.2912 6.83087 25.403 6.50934 25.6101 6.24304C25.8171 5.97674 26.1088 5.7795 26.4427 5.6799C26.7767 5.5803 27.1356 5.58351 27.4675 5.68907C27.7994 5.79463 28.087 5.99706 28.2887 6.26702L31.4348 10.4824H31.4598V6.76411C31.4678 6.46223 31.6007 6.17527 31.8301 5.96445C32.0595 5.75363 32.3671 5.63563 32.6875 5.63563C33.0078 5.63563 33.3155 5.75363 33.5449 5.96445C33.7742 6.17527 33.9071 6.46223 33.9152 6.76411V12.2763Z"
                fill="#3DDC84" />
        </g>
        <defs>
            <filter id="filter0_i_0_1" x="0" y="-4.02344" width="40.0007" height="23.0469" filterUnits="userSpaceOnUse"
                color-interpolation-filters="sRGB">
                <feFlood flood-opacity="0" result="BackgroundImageFix" />
                <feBlend mode="normal" in="SourceGraphic" in2="BackgroundImageFix" result="shape" />
                <feColorMatrix in="SourceAlpha" type="matrix" values="0 0 0 0 0 0 0 0 0 0 0 0 0 0 0 0 0 0 127 0"
                    result="hardAlpha" />
                <feOffset dy="-7" />
                <feGaussianBlur stdDeviation="2" />
                <feComposite in2="hardAlpha" operator="arithmetic" k2="-1" k3="1" />
                <feColorMatrix type="matrix" values="0 0 0 0 1 0 0 0 0 1 0 0 0 0 1 0 0 0 0.25 0" />
                <feBlend mode="normal" in2="shape" result="effect1_innerShadow_0_1" />
            </filter>
        </defs>
    </symbol>
    <symbol id="rocket" viewBox="0 0 22 22">
        <path
            d="M5.69972 20.6688C6.26648 20.0871 6.58132 19.3055 6.57605 18.4934C6.57079 17.6812 6.24585 16.9039 5.6716 16.3295C5.09734 15.7552 4.31999 15.4302 3.50784 15.4249C2.6957 15.4195 1.91414 15.7343 1.33238 16.301C0.473002 17.1604 0.134838 18.4924 0.0274156 19.6955C-0.0336168 20.3777 -0.0297322 21.0641 0.0390172 21.7456C0.0574938 21.9174 0.221634 21.9548 0.249994 21.9604H0.258158C0.327338 21.963 1.31433 21.9823 1.61855 21.0211C1.67282 20.8416 1.75301 20.6709 1.8566 20.5145C2.05554 20.221 2.51402 20.3976 2.46331 20.7487C2.41397 21.1146 2.48967 21.4865 2.67816 21.804C2.69903 21.8392 2.72994 21.8673 2.76693 21.8848C2.80391 21.9022 2.84528 21.9082 2.8857 21.902C3.91738 21.7464 4.9757 21.3928 5.69972 20.6688Z" />
        <path
            d="M15.7061 17.1638V14.5018C16.0252 14.2277 16.3373 13.9387 16.6423 13.6347L17.488 12.7904C20.6522 9.62446 22.1969 5.56734 21.9799 1.92273C21.9159 0.850664 21.1498 0.0841018 20.0773 0.0200784C16.4348 -0.196914 12.3747 1.34781 9.20961 4.51332L8.36527 5.35766C8.06106 5.66188 7.77202 5.97412 7.49816 6.29438H4.83625C4.27121 6.31586 3.77148 6.64199 3.48875 7.12023L1.92383 10.2509C1.88262 10.3633 1.85381 10.4799 1.83789 10.5986C1.84034 10.7996 1.9213 10.9918 2.06349 11.1339C2.20567 11.2761 2.39781 11.3571 2.59887 11.3595H4.57543C4.31762 12.2232 4.48949 13.0723 5.03863 13.6205L8.37859 16.9609C8.92688 17.5097 9.77594 17.6807 10.6396 17.4241V19.4007C10.6421 19.6018 10.723 19.7939 10.8652 19.9361C11.0074 20.0783 11.1995 20.1592 11.4006 20.1617C11.5192 20.1458 11.6358 20.1169 11.7482 20.0757L14.878 18.5108C15.358 18.2289 15.6833 17.7275 15.7061 17.1638ZM13.87 8.13C13.4286 7.68855 13.128 7.12612 13.0062 6.51383C12.8844 5.90153 12.9469 5.26687 13.1858 4.69011C13.4247 4.11334 13.8293 3.62037 14.3484 3.27354C14.8675 2.92671 15.4777 2.74158 16.102 2.74158C16.7263 2.74158 17.3366 2.92671 17.8556 3.27354C18.3747 3.62037 18.7793 4.11334 19.0182 4.69011C19.2571 5.26687 19.3196 5.90153 19.1979 6.51383C19.0761 7.12612 18.7755 7.68855 18.334 8.13C18.0409 8.42312 17.6929 8.65563 17.31 8.81427C16.927 8.97291 16.5165 9.05455 16.102 9.05455C15.6875 9.05455 15.277 8.97291 14.8941 8.81427C14.5111 8.65563 14.1631 8.42312 13.87 8.13Z" />
    </symbol>
    <symbol id="rocket3D" viewBox="0 0 40 40">
        <path
            d="M20 40C31.0457 40 40 31.0457 40 20C40 8.9543 31.0457 0 20 0C8.9543 0 0 8.9543 0 20C0 31.0457 8.9543 40 20 40Z"
            fill="#3DDC84" />
        <path
            d="M39.9941 19.5373L31.1159 10.6738L16.6543 28.3012L27.0671 38.714C34.6248 35.8584 40 28.5574 40 20C40 19.8452 39.9976 19.691 39.9941 19.5373Z"
            fill="#18B55E" />
        <path
            d="M29.9777 10.431C30.7751 10.1199 31.5993 10.8175 31.4242 11.6552L27.8484 28.7475C27.6814 29.5488 26.74 29.9097 26.0801 29.4249L20.6821 25.4626L17.9306 28.2721C17.4471 28.765 16.6134 28.5643 16.406 27.9071L14.4209 21.6054L9.0996 20.0336C8.40062 19.8275 8.36022 18.8552 9.03765 18.5899L29.9777 10.431ZM27.3528 14.2236C27.5858 14.0175 27.3151 13.6539 27.0511 13.8182L15.5655 20.9414C15.3635 21.0666 15.2706 21.3131 15.3419 21.5407L16.9083 28.4188C16.9393 28.5239 17.0901 28.509 17.1036 28.4L17.4537 23.1582C17.4672 23.0289 17.5291 22.9104 17.6262 22.8243L27.3528 14.2236Z"
            fill="white" />
        <path
            d="M27.0511 13.8182C27.3151 13.6539 27.5858 14.0175 27.3528 14.2236L17.6262 22.8243C17.5291 22.9104 17.4672 23.0289 17.4537 23.1582L17.1036 28.4C17.0901 28.509 16.9393 28.5239 16.9083 28.4188L15.3419 21.5407C15.2706 21.3131 15.3635 21.0666 15.5655 20.9414L27.0511 13.8182Z"
            fill="#9EC2E5" />
        <path
            d="M16.9649 28.4901C16.7117 28.3999 16.4976 28.198 16.406 27.9071L14.4209 21.6054L9.0996 20.0336C8.40062 19.8275 8.36022 18.8552 9.03765 18.5899L29.9777 10.431C30.4922 10.2303 31.0187 10.4497 31.2787 10.8565C31.2301 10.7825 31.1723 10.7138 31.1076 10.6532L16.9016 22.2504V22.7582L16.8234 22.7016L16.9016 25.8989V28.4632C16.9218 28.4727 16.9433 28.4807 16.9648 28.4875L16.9649 28.4901Z"
            fill="#0D1B2A" />
        <path
            d="M31.4468 11.3685C31.4509 11.46 31.4444 11.5568 31.4242 11.6552L27.8484 28.7475C27.6814 29.5488 26.74 29.9097 26.0801 29.4249L20.6821 25.4626L16.9016 22.7582V22.2504L31.1076 10.6532C31.1723 10.7138 31.2301 10.7825 31.2787 10.8565C31.2881 10.8727 31.2973 10.8876 31.3068 10.9025C31.3148 10.9186 31.3243 10.9348 31.3324 10.9496C31.3404 10.9657 31.3486 10.9819 31.3553 10.9981C31.3633 11.0156 31.3701 11.0318 31.3768 11.0493C31.3822 11.0641 31.3889 11.0802 31.3943 11.0978C31.4118 11.1503 31.4253 11.2042 31.4347 11.2607C31.4401 11.2957 31.4442 11.3308 31.4468 11.3685Z"
            fill="#0D1B2A" />
        <path
            d="M20.6821 25.4626L17.9306 28.2721C17.9077 28.295 17.8832 28.3183 17.8589 28.3386C17.8346 28.3588 17.8104 28.3763 17.7848 28.3938L17.7835 28.3951C17.7323 28.4288 17.6798 28.4571 17.6246 28.48C17.5963 28.4907 17.5693 28.5015 17.5411 28.5082C17.4239 28.5432 17.304 28.5527 17.1855 28.5406C17.1546 28.5379 17.1236 28.5325 17.0939 28.5271C17.0899 28.5271 17.0859 28.5258 17.0818 28.5245C17.0522 28.5164 17.0225 28.5083 16.9929 28.4989C16.9835 28.4962 16.9743 28.4929 16.9648 28.4875L16.9016 25.8989V22.7582L20.6821 25.4626Z"
            fill="#3C5D81" />
        <path d="M17.7845 28.3926L17.7848 28.3938L17.7832 28.3939L17.7845 28.3926Z" fill="#DADDE0" />
        <path
            d="M17.7835 28.3951C17.7323 28.4288 17.6798 28.4571 17.6246 28.48C17.6784 28.457 17.7323 28.4287 17.7835 28.3951Z"
            fill="#DADDE0" />
        <path
            d="M17.1855 28.5406C17.304 28.5527 17.4239 28.5432 17.5411 28.5082C17.4562 28.5352 17.3687 28.5466 17.2812 28.5466C17.2542 28.5466 17.2273 28.5453 17.2017 28.5426C17.1963 28.5427 17.1909 28.5433 17.1855 28.5406Z"
            fill="#DADDE0" />
        <path
            d="M17.1855 28.5406C17.1909 28.5433 17.1963 28.5427 17.2017 28.5426C17.1734 28.5412 17.148 28.5376 17.1211 28.5322C17.1426 28.5364 17.1639 28.5393 17.1855 28.5406Z"
            fill="white" />
        <path
            d="M17.1855 28.5406C17.1639 28.5393 17.1426 28.5364 17.1211 28.5322C17.1116 28.5309 17.1021 28.5299 17.0939 28.5271C17.1236 28.5325 17.1546 28.5379 17.1855 28.5406Z"
            fill="#DADDE0" />
        <path
            d="M16.9929 28.4989C17.0225 28.5083 17.0522 28.5164 17.0818 28.5245C17.0697 28.5218 17.0579 28.5183 17.0457 28.5156C17.0404 28.5143 17.035 28.513 17.0309 28.5102C17.0187 28.5075 17.005 28.5043 16.9929 28.4989Z"
            fill="#DADDE0" />
        <path
            d="M17.0818 28.5245C17.0697 28.5218 17.0579 28.5183 17.0457 28.5156C17.0579 28.5197 17.0697 28.5232 17.0818 28.5245Z"
            fill="white" />
        <path
            d="M16.9929 28.4989C17.005 28.5043 17.0187 28.5075 17.0309 28.5102C17.0107 28.5062 16.9909 28.5002 16.9707 28.4922C16.9787 28.4948 16.9848 28.4975 16.9929 28.4989Z"
            fill="white" />
        <path
            d="M16.9929 28.4989C16.9848 28.4975 16.9787 28.4948 16.9707 28.4922L16.9649 28.4901L16.9648 28.4875C16.9743 28.4929 16.9835 28.4962 16.9929 28.4989Z"
            fill="#DADDE0" />
        <path d="M16.9016 25.8989L16.9648 28.4875C16.9433 28.4807 16.9218 28.4727 16.9016 28.4632V25.8989Z"
            fill="#D1D1D1" />
        <path d="M16.9016 22.7582V25.8989L16.8234 22.7016L16.9016 22.7582Z" fill="#DADDE0" />
        <path
            d="M27.3528 14.2236L17.6262 22.8243C17.5291 22.9104 17.4672 23.0289 17.4537 23.1582L17.1045 28.401C17.0911 28.5101 16.9402 28.5249 16.9078 28.4198L15.3419 21.5407C15.2706 21.3131 15.3635 21.0666 15.5655 20.9414L27.0511 13.8182C27.3151 13.6539 27.5858 14.0175 27.3528 14.2236Z"
            fill="#213B57" />
    </symbol>
    <symbol id="noAds" viewBox="0 0 35 35">
        <path
            d="M28.75 11.2422C28.5858 11.2421 28.4232 11.2744 28.2715 11.3371C28.1198 11.3999 27.982 11.492 27.8659 11.6081C27.7498 11.7242 27.6577 11.862 27.595 12.0137C27.5322 12.1654 27.4999 12.328 27.5 12.4922V22.4922C27.4999 22.6564 27.5322 22.819 27.595 22.9707C27.6577 23.1224 27.7498 23.2602 27.8659 23.3763C27.982 23.4924 28.1198 23.5844 28.2715 23.6472C28.4232 23.71 28.5858 23.7423 28.75 23.7422C30.4076 23.7422 31.9973 23.0837 33.1694 21.9116C34.3415 20.7395 35 19.1498 35 17.4922C35 15.8346 34.3415 14.2449 33.1694 13.0728C31.9973 11.9007 30.4076 11.2422 28.75 11.2422Z"
            fill="#0D1B2A" />
        <path
            d="M10 31.2422C9.83582 31.2423 9.67323 31.21 9.52153 31.1472C9.36983 31.0844 9.232 30.9924 9.1159 30.8763C8.99981 30.7602 8.90774 30.6224 8.84496 30.4707C8.78217 30.319 8.7499 30.1564 8.75 29.9922V22.4922C8.75 22.1607 8.8817 21.8427 9.11612 21.6083C9.35054 21.3739 9.66848 21.2422 10 21.2422C10.3315 21.2422 10.6495 21.3739 10.8839 21.6083C11.1183 21.8427 11.25 22.1607 11.25 22.4922V29.9922C11.2501 30.1564 11.2178 30.319 11.155 30.4707C11.0923 30.6224 11.0002 30.7602 10.8841 30.8763C10.768 30.9924 10.6302 31.0844 10.4785 31.1472C10.3268 31.21 10.1642 31.2423 10 31.2422Z"
            fill="#3DDC84" />
        <path
            d="M6.25 13.7422H3.75C2.75544 13.7422 1.80161 14.1373 1.09835 14.8405C0.395088 15.5438 0 16.4976 0 17.4922C0 18.4867 0.395088 19.4406 1.09835 20.1438C1.80161 20.8471 2.75544 21.2422 3.75 21.2422H6.25C6.41418 21.2423 6.57677 21.21 6.72847 21.1472C6.88017 21.0844 7.018 20.9924 7.1341 20.8763C7.25019 20.7602 7.34226 20.6224 7.40504 20.4707C7.46783 20.319 7.5001 20.1564 7.5 19.9922V14.9922C7.5001 14.828 7.46783 14.6654 7.40504 14.5137C7.34226 14.362 7.25019 14.2242 7.1341 14.1081C7.018 13.992 6.88017 13.8999 6.72847 13.8371C6.57677 13.7744 6.41418 13.7421 6.25 13.7422Z"
            fill="#3DDC84" />
        <path
            d="M13.75 11.2422H6.25C5.55964 11.2422 5 11.8018 5 12.4922V22.4922C5 23.1825 5.55964 23.7422 6.25 23.7422H13.75C14.4404 23.7422 15 23.1825 15 22.4922V12.4922C15 11.8018 14.4404 11.2422 13.75 11.2422Z"
            fill="#0D1B2A" />
        <path
            d="M29.4067 3.92833C29.2256 3.81608 29.0188 3.7521 28.806 3.74248C28.5931 3.73287 28.3814 3.77793 28.1909 3.87339L13.1909 11.3734C12.9833 11.4773 12.8087 11.6369 12.6867 11.8344C12.5647 12.0319 12.5 12.2594 12.5 12.4916V22.4916C12.5 22.7237 12.5647 22.9513 12.6867 23.1487C12.8087 23.3462 12.9833 23.5058 13.1909 23.6097L28.1909 31.1097C28.3815 31.2049 28.5933 31.2498 28.8061 31.2402C29.0189 31.2305 29.2258 31.1667 29.407 31.0547C29.5882 30.9426 29.7378 30.7862 29.8416 30.6001C29.9454 30.4141 29.9999 30.2046 30 29.9916V4.99156C29.9999 4.77847 29.9453 4.56894 29.8415 4.38286C29.7377 4.19678 29.588 4.04032 29.4067 3.92833Z"
            fill="#3DDC84" />
        <path
            d="M33.7505 34.9919C33.5864 34.992 33.4238 34.9598 33.2721 34.8969C33.1205 34.8341 32.9827 34.7419 32.8668 34.6256L0.366793 2.12561C0.135905 1.8905 0.00720536 1.57372 0.00869763 1.2442C0.0101899 0.914683 0.141753 0.599084 0.374761 0.366076C0.607769 0.133068 0.923367 0.0015051 1.25289 1.28337e-05C1.58241 -0.00147944 1.89918 0.12722 2.13429 0.358108L34.6343 32.8581C34.8091 33.0329 34.9281 33.2556 34.9763 33.4981C35.0245 33.7405 34.9997 33.9918 34.9051 34.2202C34.8106 34.4486 34.6504 34.6438 34.4449 34.7811C34.2393 34.9185 33.9977 34.9918 33.7505 34.9919Z"
            fill="#0D1B2A" />
    </symbol>
    <symbol id="globalAccess" viewBox="0 0 40 40">
        <path
            d="M20 0C19.572 0 19.147 0.0134375 18.7256 0.0399219L2.07445 11.1201C0.746562 13.7955 0 16.8106 0 20C0 25.8497 2.51133 31.1128 6.51477 34.77C6.51477 34.77 13.0327 39.2533 20 39.2533C29.3223 39.2533 39.0197 31.0457 39.0197 20C39.0197 6.9032 26.5588 1.10023 26.5588 1.10023C24.5041 0.387344 22.2973 0 20 0Z"
            fill="#0D1B2A" />
        <path
            d="M39.804 17.1902L34.9554 16.6367C34.9554 27.6824 26.0011 36.6367 14.9554 36.6367C11.9388 36.6367 9.07969 35.966 6.51477 34.77C8.06758 36.1886 9.84481 37.3652 11.7871 38.2411L12.9648 38.1755L14.4582 39.2217C16.2179 39.7281 18.0772 39.9997 20 39.9997C31.0457 39.9997 40 31.0454 40 19.9997C40 19.046 39.9332 18.108 39.804 17.1902Z"
            fill="#040B12" />
        <path
            d="M28.4622 1.87195C27.8445 1.5832 27.2091 1.3257 26.5588 1.10023L24.7903 2.65523C24.3058 3.06945 24.19 3.78398 24.5463 4.33742C24.8889 4.86945 25.5815 5.05508 26.1643 4.80891L26.5223 4.65766C26.9619 4.47203 27.4769 4.53922 27.8333 4.85664C28.4632 5.41773 28.3534 6.40938 27.6467 6.82758L23.4929 9.28547C22.6815 9.76555 22.1662 10.6383 22.1831 11.5809C22.2006 12.5599 22.7492 13.3573 23.8517 13.4589C26.1331 13.6691 25.8047 11.2519 27.1447 11.2519H31.7404C32.44 11.2519 33.0466 11.7749 33.1072 12.4719C33.1763 13.2659 32.5522 13.9318 31.7725 13.9318H26.2615C24.118 13.9318 22.2488 15.5836 22.1844 17.7262C22.1179 19.9432 23.8953 21.7613 26.0974 21.7613H26.6579C27.7268 21.7613 28.5933 22.6279 28.5933 23.6968V30.5748C28.5933 30.779 28.6292 30.9803 28.6966 31.1682L30.3152 31.1334L35.3548 22.9377L36.0025 18.2406L37.6455 15.8618C37.6456 15.8619 34.4696 4.68 28.4622 1.87195Z"
            fill="#3DDC84" />
        <path
            d="M39.804 17.1902C38.8491 10.3905 34.4605 4.68359 28.4619 1.87305C32.4483 5.52914 34.9554 10.8012 34.9554 16.6367C34.9554 22.3639 32.5543 27.5232 28.6964 31.1692C28.9328 31.8449 29.6035 32.3141 30.3829 32.2027C30.88 32.1317 31.302 31.7973 31.5496 31.3605L36.323 22.9437C36.7456 22.1986 36.8544 21.316 36.6256 20.4905L36.2555 19.1556C36.1339 18.717 36.4926 18.2937 36.9453 18.3417L37.2086 18.3696C37.9171 18.4448 38.6249 18.2211 39.1616 17.7525L39.804 17.1902Z"
            fill="#18B55E" />
        <path
            d="M19.8133 1.7682L18.7256 0.0399219C11.4103 0.498828 5.16688 4.88578 2.07445 11.1201L3.33477 19.8266C3.47617 20.8039 4.05742 21.6626 4.91219 22.157C5.40391 22.4414 5.61906 23.0388 5.42164 23.5714L4.99133 24.7323C4.60414 25.7768 4.93094 26.9518 5.80172 27.6465L6.95086 28.5633C7.34391 28.8769 7.65828 29.278 7.86875 29.7348L10.8548 36.2145L12.6001 37.4461L13.8325 36.6058L13.3855 34.738C13.1334 33.6843 13.2685 32.5752 13.7661 31.6128L15.7042 27.8646C16.238 26.8322 15.748 25.5655 14.6584 25.1611L13.0661 24.5702C12.5603 24.3825 12.2248 23.8999 12.2248 23.3605V23.2363C12.2248 22.5236 11.647 21.9459 10.9345 21.9459H8.16641C7.48805 21.9459 6.82172 21.7677 6.23391 21.4291L5.55867 21.0401C5.04578 20.7445 4.69687 20.23 4.61219 19.6441L4.56906 19.3457C4.46047 18.5949 4.80063 17.8499 5.43898 17.44L5.83578 17.1852C6.31648 16.8766 6.94289 16.9208 7.37555 17.2938L7.72922 17.5987C8.15984 17.9699 8.83086 17.7499 8.95805 17.1957L9.33523 15.5522C9.53625 14.6766 10.1781 13.9684 11.03 13.6827L13.8138 12.7491C14.6088 12.4825 14.9423 11.5404 14.4921 10.833L13.2266 8.84453C12.8789 8.29812 12.18 8.09414 11.5929 8.36773L10.5478 8.85484C10.0073 9.10688 9.33375 8.99883 8.96891 8.52703C8.4982 7.91844 8.68734 7.04406 9.35141 6.67953L11.9779 5.2375C12.8491 4.75914 13.9411 5.01844 14.5042 5.83742L14.7483 6.19234C15.1091 6.71758 15.7056 7.03125 16.3429 7.03125H17.5248C18.3083 7.03125 19.0145 6.55891 19.3136 5.83484L20.017 4.13242C20.3369 3.35797 20.2609 2.47648 19.8133 1.7682Z"
            fill="#3DDC84" />
        <path
            d="M11.7871 38.2411C12.6471 38.6291 13.5386 38.957 14.4582 39.2217L13.8325 36.6058C12.8159 36.5492 11.825 36.4177 10.8548 36.2145L11.7871 38.2411Z"
            fill="#18B55E" />
    </symbol>
    <symbol id="unlimited" viewBox="0 0 40 40">
        <path
            d="M20 40C31.0457 40 40 31.0457 40 20C40 8.9543 31.0457 0 20 0C8.9543 0 0 8.9543 0 20C0 31.0457 8.9543 40 20 40Z"
            fill="#3DDC84" />
        <path
            d="M39.9634 21.2234L33.7126 14.9727L18.8618 18.9245L10.7033 15.2339L6.22559 24.958L21.2299 39.9623C31.2981 39.3516 39.3556 31.2923 39.9634 21.2234Z"
            fill="#18B55E" />
        <path
            d="M19.9687 16.8168C19.5129 16.4576 18.9838 16.0609 18.4062 15.6641C15.728 13.8238 13.342 12.8906 11.3143 12.8906C7.39422 12.8906 4.20508 16.0798 4.20508 19.9999C4.20508 23.92 7.3943 27.1092 11.3143 27.1092C13.7766 27.1092 16.3167 25.8152 18.2734 24.4891C18.6423 24.239 18.7662 23.7737 19.0892 23.5298C19.3447 23.3369 19.8088 23.3626 20.0306 23.183C20.064 23.2094 20.0986 23.1191 20.1328 23.1459V16.8316C20.0772 16.8759 20.0222 16.7734 19.9687 16.8168ZM15.9459 20.9347C15.4188 21.3001 14.6505 21.095 14.1663 21.3578C13.0476 21.9651 12.0645 22.2896 11.3143 22.2896C10.0518 22.2896 9.02461 21.2625 9.02461 19.9999C9.02461 18.7374 10.0517 17.7102 11.3142 17.7102C12.5859 17.7102 14.5441 18.7984 16.2318 20.0229C16.0575 20.1522 16.1342 20.8041 15.9459 20.9347Z"
            fill="#0D1B2A" />
        <path
            d="M20.0306 23.183C20.4865 23.5423 21.0155 23.9389 21.5932 24.3358C24.2714 26.1761 26.6575 27.1092 28.6852 27.1092C32.6052 27.1092 35.7944 23.92 35.7944 20C35.7944 18.101 35.0554 16.3155 33.7126 14.9727C32.3698 13.6298 30.584 12.8906 28.6851 12.8906C26.1265 12.8906 23.4838 14.2879 21.4991 15.6666C21.2146 15.8641 21.4402 16.4734 21.185 16.6661C20.9298 16.8588 20.1936 16.6348 19.972 16.8142L19.9687 16.8168L20.0306 23.183ZM25.9497 18.5795C27.0201 18.0125 27.961 17.7103 28.685 17.7103C29.2966 17.7103 29.8716 17.9484 30.3041 18.3809C30.7365 18.8134 30.9747 19.3884 30.9747 20C30.9747 21.2626 29.9476 22.2897 28.6851 22.2897C27.4134 22.2897 25.4552 21.2015 23.7675 19.977L23.9592 18.6345L25.9497 18.5795Z"
            fill="#0D1B2A" />
        <path
            d="M24.3123 19.5865C24.882 19.1917 25.431 18.8543 25.9497 18.5795L21.4991 15.6666C20.9287 16.0627 20.4127 16.4573 19.9687 16.8168L23.7675 19.977C23.942 19.8477 24.124 19.7171 24.3123 19.5865Z"
            fill="#020B15" />
        <path
            d="M15.6879 20.4144C15.1608 20.7798 14.6505 21.0949 14.1663 21.3578L18.2734 24.4891C18.9341 24.0413 19.5292 23.5902 20.0314 23.1837L16.2327 20.0234C16.0583 20.1527 15.8763 20.2838 15.6879 20.4144Z"
            fill="#020B15" />
    </symbol>
    <symbol id="email" viewBox="0 0 22 17">
        <path fill-rule="evenodd" clip-rule="evenodd"
            d="M1.73269 0.960281L8.21644 7.44684C9.63056 8.85825 11.9422 8.85947 13.3575 7.44684L19.8412 0.960281C19.9065 0.894984 19.897 0.787453 19.8212 0.734625C19.1599 0.273422 18.3553 0 17.4886 0H4.08534C3.21858 0 2.41397 0.273469 1.75266 0.734625C1.67691 0.787453 1.66739 0.894984 1.73269 0.960281ZM0 4.0853C0 3.40373 0.168984 2.75977 0.466641 2.19375C0.513187 2.1052 0.631172 2.0873 0.701906 2.15803L7.10358 8.5597C9.13078 10.5899 12.4419 10.591 14.4704 8.5597L20.872 2.15803C20.9428 2.0873 21.0608 2.1052 21.1073 2.19375C21.4049 2.75977 21.5739 3.40378 21.5739 4.0853V12.6136C21.5739 14.868 19.7401 16.6989 17.4886 16.6989H4.08534C1.83384 16.6989 0 14.868 0 12.6136V4.0853Z"
            fill="#3DDC84" />
    </symbol>
    <symbol id="telegramLight" viewBox="0 0 20 20">
        <path
            d="M10 0C15.5228 0 20 4.47715 20 10C20 15.5228 15.5228 20 10 20C4.47715 20 0 15.5228 0 10C0 4.47715 4.47715 0 10 0ZM14.0889 6.01953C13.7128 6.02618 13.1355 6.22677 10.3584 7.38184C9.38574 7.78639 7.44143 8.62349 4.52637 9.89355C4.05334 10.0817 3.80595 10.2663 3.7832 10.4463C3.73985 10.792 4.23712 10.9 4.86328 11.1035C5.37386 11.2695 6.0609 11.464 6.41797 11.4717C6.74179 11.4787 7.10292 11.3443 7.50195 11.0703C10.2257 9.23172 11.6324 8.30227 11.7207 8.28223C11.7829 8.2681 11.8694 8.25087 11.9277 8.30273C11.9861 8.35471 11.9798 8.4531 11.9736 8.47949C11.9239 8.69074 9.36689 11.0172 9.21875 11.1709C8.65612 11.7553 8.01583 12.1131 9.00293 12.7637C9.85727 13.3266 10.3552 13.6857 11.2354 14.2627C11.7976 14.6313 12.2388 15.0681 12.8193 15.0146C13.0864 14.9899 13.3618 14.7389 13.502 13.9902C13.8332 12.2194 14.4852 8.38228 14.6357 6.80078C14.6555 6.59361 14.6543 6.27997 14.4766 6.13574C14.3568 6.03852 14.1716 6.01809 14.0889 6.01953Z"
            fill="#0D1B2A" />
    </symbol>
    <symbol id="instagram" viewBox="0 0 24 24">
        <path fill-rule="evenodd" clip-rule="evenodd"
            d="M11.998 8.52051C13.9211 8.52051 15.4824 10.0808 15.4824 12.0039C15.4824 13.927 13.9211 15.4883 11.998 15.4883C10.0751 15.4881 8.51465 13.9269 8.51465 12.0039C8.51469 10.081 10.0751 8.52068 11.998 8.52051ZM11.999 9.91309C10.8447 9.91309 9.90844 10.8487 9.9082 12.0029C9.9082 13.1574 10.8446 14.0938 11.999 14.0938C13.1533 14.0935 14.0889 13.1573 14.0889 12.0029C14.0886 10.8488 13.1532 9.91329 11.999 9.91309Z"
            fill="#3DDC84" />
        <path
            d="M15.7266 7.55859C16.1094 7.55884 16.4226 7.87202 16.4229 8.25488C16.4229 8.63796 16.1096 8.9519 15.7266 8.95215C15.3433 8.95215 15.0293 8.63811 15.0293 8.25488C15.0295 7.87187 15.3435 7.55859 15.7266 7.55859Z"
            fill="#3DDC84" />
        <path fill-rule="evenodd" clip-rule="evenodd"
            d="M12 0C18.6274 0 24 5.37258 24 12C24 18.6274 18.6274 24 12 24C5.37258 24 0 18.6274 0 12C0 5.37258 5.37258 0 12 0ZM8.51465 5.03613C6.59155 5.03613 5.03027 6.59741 5.03027 8.52051V15.4883C5.0305 17.4112 6.59169 18.9717 8.51465 18.9717H15.4824C17.4053 18.9716 18.9656 17.4111 18.9658 15.4883V8.52051C18.9658 6.59747 17.4054 5.03623 15.4824 5.03613H8.51465Z"
            fill="#3DDC84" />
    </symbol>
    <symbol id="telegramDark" viewBox="0 0 24 24">
        <path
            d="M11.9229 0C18.5074 0.000130914 23.8457 5.33826 23.8457 11.9229C23.8456 18.5073 18.5073 23.8456 11.9229 23.8457C5.33826 23.8457 0.000130911 18.5074 0 11.9229C0 5.33818 5.33818 0 11.9229 0ZM16.7969 7.17773C16.3485 7.18565 15.6597 7.4246 12.3486 8.80176C11.189 9.28409 8.87104 10.2826 5.39551 11.7969C4.83131 12.0213 4.5357 12.2413 4.50879 12.4561C4.45739 12.868 5.05136 12.9966 5.79785 13.2393C6.40641 13.4371 7.2247 13.6685 7.65039 13.6777C8.03645 13.6861 8.46764 13.5268 8.94336 13.2002C12.1908 11.0081 13.8674 9.89987 13.9727 9.87598C14.0469 9.85912 14.15 9.83845 14.2197 9.90039C14.2887 9.96212 14.2827 10.0783 14.2754 10.1104C14.2164 10.3619 11.1692 13.1339 10.9902 13.3193C10.3194 14.0161 9.55627 14.443 10.7334 15.2188C11.7517 15.8898 12.3444 16.3181 13.3936 17.0059C14.0641 17.4454 14.59 17.966 15.2822 17.9023C15.6008 17.8731 15.9305 17.574 16.0977 16.6807C16.4926 14.5692 17.2688 9.99366 17.4482 8.1084C17.4717 7.86145 17.4704 7.48836 17.2588 7.31641C17.1162 7.20067 16.8957 7.1761 16.7969 7.17773Z"
            fill="#3DDC84" />
    </symbol>
    <symbol id="x" viewBox="0 0 24 24">
        <path fill-rule="evenodd" clip-rule="evenodd"
            d="M12 0C18.6274 0 24 5.37258 24 12C24 18.6274 18.6274 24 12 24C5.37258 24 0 18.6274 0 12C0 5.37258 5.37258 0 12 0ZM10.6709 12.6914L5.93848 18.1924H7.00781L11.1455 13.3828L14.4502 18.1924H18.0596L13.1523 11.0498L17.6641 5.80469H16.5957L12.6777 10.3594L9.54785 5.80469H5.93848L10.6709 12.6914Z"
            fill="#3DDC84" />
    </symbol>
    <symbol id="facebook" viewBox="0 0 24 24">
        <path fill-rule="evenodd" clip-rule="evenodd"
            d="M12 0C14.235 0.0255045 16.2541 0.574809 18.0574 1.64791C19.8391 2.69959 21.3212 4.19079 22.362 5.9789C23.4286 7.79299 23.9746 9.82436 24 12.073C23.9367 15.1497 22.9663 17.7775 21.0888 19.9564C19.2113 22.1353 16.8067 23.4832 14.3175 24V15.3739H16.6708L17.203 11.9841H13.6395V9.76385C13.6197 9.30358 13.7653 8.85141 14.0499 8.48912C14.3349 8.12583 14.8367 7.93489 15.5554 7.9163H17.7073V4.94688C17.6764 4.93694 17.3835 4.89766 16.8284 4.82903C16.1989 4.75537 15.5658 4.71603 14.932 4.71118C13.4975 4.71779 12.363 5.12243 11.5286 5.9251C10.6941 6.72753 10.2678 7.88849 10.2497 9.40796V11.9841H7.53783V15.3739H10.2497V24C7.19328 23.4832 4.78868 22.1353 2.9112 19.9564C1.03371 17.7775 0.0633511 15.1497 0 12.073C0.0253463 9.82425 0.571329 7.79289 1.63795 5.9789C2.67876 4.19079 4.1609 2.6996 5.94263 1.64791C7.74581 0.575015 9.76492 0.0257111 12 0Z"
            fill="#3DDC84" />
    </symbol>
    <symbol id="tikTok" viewBox="0 0 24 24">
        <path fill-rule="evenodd" clip-rule="evenodd"
            d="M12 0C18.6274 0 24 5.37258 24 12C24 18.6274 18.6274 24 12 24C5.37258 24 0 18.6274 0 12C0 5.37258 5.37258 0 12 0ZM12.3301 14.7998C12.3301 15.7594 11.7051 16.5732 10.8389 16.8594C10.5876 16.9423 10.3158 16.9813 10.0332 16.9658C9.67252 16.9459 9.33481 16.8369 9.04102 16.6611C8.41567 16.2871 7.99111 15.6091 7.97949 14.833C7.96139 13.6199 8.94212 12.6301 10.1543 12.6299C10.3935 12.6299 10.6237 12.6693 10.8389 12.7402V10.3057C10.612 10.2721 10.381 10.2539 10.1475 10.2539C8.82048 10.2539 7.57953 10.8061 6.69238 11.7998C6.02184 12.5508 5.61967 13.509 5.55762 14.5137C5.47638 15.8334 5.95899 17.088 6.89551 18.0137C7.03311 18.1495 7.178 18.2753 7.3291 18.3916C8.13207 19.0096 9.11352 19.3447 10.1475 19.3447C10.381 19.3447 10.612 19.3275 10.8389 19.2939C11.8047 19.1509 12.6961 18.7089 13.3994 18.0137C14.2636 17.1595 14.7409 16.0253 14.7461 14.8184L14.7344 9.45898C15.1466 9.7769 15.5974 10.0399 16.0811 10.2441C16.8334 10.5616 17.6311 10.7229 18.4521 10.7227V8.33496H18.4453C17.6058 8.33496 16.831 8.05704 16.209 7.58789C15.4959 7.05017 14.9838 6.26149 14.8027 5.35254C14.7579 5.12795 14.7338 4.89572 14.7314 4.6582H12.333L12.3301 14.7998Z"
            fill="#3DDC84" />
    </symbol>
    <symbol id="telegram3D" viewBox="0 0 40 40">
        <path
            d="M20 40C31.0457 40 40 31.0457 40 20C40 8.9543 31.0457 0 20 0C8.9543 0 0 8.9543 0 20C0 31.0457 8.9543 40 20 40Z"
            fill="#3DDC84" />
        <path
            d="M39.9941 19.5373L31.1159 10.6738L16.6543 28.3012L27.0671 38.714C34.6248 35.8584 40 28.5574 40 20C40 19.8452 39.9976 19.691 39.9941 19.5373Z"
            fill="#18B55E" />
        <path
            d="M29.9777 10.431C30.7751 10.1199 31.5993 10.8175 31.4242 11.6552L27.8484 28.7475C27.6814 29.5488 26.74 29.9097 26.0801 29.4249L20.6821 25.4626L17.9306 28.2721C17.4471 28.765 16.6134 28.5643 16.406 27.9071L14.4209 21.6054L9.0996 20.0336C8.40062 19.8275 8.36022 18.8552 9.03765 18.5899L29.9777 10.431ZM27.3528 14.2236C27.5858 14.0175 27.3151 13.6539 27.0511 13.8182L15.5655 20.9414C15.3635 21.0666 15.2706 21.3131 15.3419 21.5407L16.9083 28.4188C16.9393 28.5239 17.0901 28.509 17.1036 28.4L17.4537 23.1582C17.4672 23.0289 17.5291 22.9104 17.6262 22.8243L27.3528 14.2236Z"
            fill="white" />
        <path
            d="M27.0511 13.8182C27.3151 13.6539 27.5858 14.0175 27.3528 14.2236L17.6262 22.8243C17.5291 22.9104 17.4672 23.0289 17.4537 23.1582L17.1036 28.4C17.0901 28.509 16.9393 28.5239 16.9083 28.4188L15.3419 21.5407C15.2706 21.3131 15.3635 21.0666 15.5655 20.9414L27.0511 13.8182Z"
            fill="#9EC2E5" />
        <path
            d="M16.9649 28.4901C16.7117 28.3999 16.4976 28.198 16.406 27.9071L14.4209 21.6054L9.0996 20.0336C8.40062 19.8275 8.36022 18.8552 9.03765 18.5899L29.9777 10.431C30.4922 10.2303 31.0187 10.4497 31.2787 10.8565C31.2301 10.7825 31.1723 10.7138 31.1076 10.6532L16.9016 22.2504V22.7582L16.8234 22.7016L16.9016 25.8989V28.4632C16.9218 28.4727 16.9433 28.4807 16.9648 28.4875L16.9649 28.4901Z"
            fill="#0D1B2A" />
        <path
            d="M31.4468 11.3685C31.4509 11.46 31.4444 11.5568 31.4242 11.6552L27.8484 28.7475C27.6814 29.5488 26.74 29.9097 26.0801 29.4249L20.6821 25.4626L16.9016 22.7582V22.2504L31.1076 10.6532C31.1723 10.7138 31.2301 10.7825 31.2787 10.8565C31.2881 10.8727 31.2973 10.8876 31.3068 10.9025C31.3148 10.9186 31.3243 10.9348 31.3324 10.9496C31.3404 10.9657 31.3486 10.9819 31.3553 10.9981C31.3633 11.0156 31.3701 11.0318 31.3768 11.0493C31.3822 11.0641 31.3889 11.0802 31.3943 11.0978C31.4118 11.1503 31.4253 11.2042 31.4347 11.2607C31.4401 11.2957 31.4442 11.3308 31.4468 11.3685Z"
            fill="#0D1B2A" />
        <path
            d="M20.6821 25.4626L17.9306 28.2721C17.9077 28.295 17.8832 28.3183 17.8589 28.3386C17.8346 28.3588 17.8104 28.3763 17.7848 28.3938L17.7835 28.3951C17.7323 28.4288 17.6798 28.4571 17.6246 28.48C17.5963 28.4907 17.5693 28.5015 17.5411 28.5082C17.4239 28.5432 17.304 28.5527 17.1855 28.5406C17.1546 28.5379 17.1236 28.5325 17.0939 28.5271C17.0899 28.5271 17.0859 28.5258 17.0818 28.5245C17.0522 28.5164 17.0225 28.5083 16.9929 28.4989C16.9835 28.4962 16.9743 28.4929 16.9648 28.4875L16.9016 25.8989V22.7582L20.6821 25.4626Z"
            fill="#3C5D81" />
        <path d="M17.7845 28.3926L17.7848 28.3938L17.7832 28.3939L17.7845 28.3926Z" fill="#DADDE0" />
        <path
            d="M17.7835 28.3951C17.7323 28.4288 17.6798 28.4571 17.6246 28.48C17.6784 28.457 17.7323 28.4287 17.7835 28.3951Z"
            fill="#DADDE0" />
        <path
            d="M17.1855 28.5406C17.304 28.5527 17.4239 28.5432 17.5411 28.5082C17.4562 28.5352 17.3687 28.5466 17.2812 28.5466C17.2542 28.5466 17.2273 28.5453 17.2017 28.5426C17.1963 28.5427 17.1909 28.5433 17.1855 28.5406Z"
            fill="#DADDE0" />
        <path
            d="M17.1855 28.5406C17.1909 28.5433 17.1963 28.5427 17.2017 28.5426C17.1734 28.5412 17.148 28.5376 17.1211 28.5322C17.1426 28.5364 17.1639 28.5393 17.1855 28.5406Z"
            fill="white" />
        <path
            d="M17.1855 28.5406C17.1639 28.5393 17.1426 28.5364 17.1211 28.5322C17.1116 28.5309 17.1021 28.5299 17.0939 28.5271C17.1236 28.5325 17.1546 28.5379 17.1855 28.5406Z"
            fill="#DADDE0" />
        <path
            d="M16.9929 28.4989C17.0225 28.5083 17.0522 28.5164 17.0818 28.5245C17.0697 28.5218 17.0579 28.5183 17.0457 28.5156C17.0404 28.5143 17.035 28.513 17.0309 28.5102C17.0187 28.5075 17.005 28.5043 16.9929 28.4989Z"
            fill="#DADDE0" />
        <path
            d="M17.0818 28.5245C17.0697 28.5218 17.0579 28.5183 17.0457 28.5156C17.0579 28.5197 17.0697 28.5232 17.0818 28.5245Z"
            fill="white" />
        <path
            d="M16.9929 28.4989C17.005 28.5043 17.0187 28.5075 17.0309 28.5102C17.0107 28.5062 16.9909 28.5002 16.9707 28.4922C16.9787 28.4948 16.9848 28.4975 16.9929 28.4989Z"
            fill="white" />
        <path
            d="M16.9929 28.4989C16.9848 28.4975 16.9787 28.4948 16.9707 28.4922L16.9649 28.4901L16.9648 28.4875C16.9743 28.4929 16.9835 28.4962 16.9929 28.4989Z"
            fill="#DADDE0" />
        <path d="M16.9016 25.8989L16.9648 28.4875C16.9433 28.4807 16.9218 28.4727 16.9016 28.4632V25.8989Z"
            fill="#D1D1D1" />
        <path d="M16.9016 22.7582V25.8989L16.8234 22.7016L16.9016 22.7582Z" fill="#DADDE0" />
        <path
            d="M27.3528 14.2236L17.6262 22.8243C17.5291 22.9104 17.4672 23.0289 17.4537 23.1582L17.1045 28.401C17.0911 28.5101 16.9402 28.5249 16.9078 28.4198L15.3419 21.5407C15.2706 21.3131 15.3635 21.0666 15.5655 20.9414L27.0511 13.8182C27.3151 13.6539 27.5858 14.0175 27.3528 14.2236Z"
            fill="#213B57" />
    </symbol>
    <symbol id="plan" viewBox="0 0 30 37">
        <path
            d="M26.6666 2.5H3.33336C1.4924 2.5 0 3.9924 0 5.83336V33.3333C0 35.1742 1.4924 36.6666 3.33336 36.6666H26.6666C28.5076 36.6666 30 35.1742 30 33.3333V5.83336C30 3.9924 28.5076 2.5 26.6666 2.5Z"
            fill="#3DDC84" />
        <path
            d="M0.916719 3.54395C0.32848 4.1609 0.000222599 4.98092 0 5.83336V33.3333C0.00101318 34.217 0.352531 35.064 0.977437 35.6889C1.60234 36.3138 2.44961 36.6656 3.33336 36.6666H26.6666C27.1194 36.6665 27.5673 36.5735 27.9828 36.3939C28.3984 36.2143 28.7729 35.9517 29.0833 35.6221L0.916719 3.54395Z"
            fill="#18B55E" />
        <path
            d="M8.33336 15.833H6.66664C6.22477 15.8325 5.80113 15.6568 5.48867 15.3443C5.17622 15.0319 5.00048 14.6082 5 14.1664V12.4996C5.00048 12.0578 5.17622 11.6341 5.48867 11.3217C5.80113 11.0092 6.22477 10.8335 6.66664 10.833H8.33328C8.77517 10.8335 9.19883 11.0092 9.5113 11.3217C9.82377 11.6341 9.99952 12.0578 10 12.4996V14.1663C9.99955 14.6082 9.82381 15.0318 9.51135 15.3443C9.1989 15.6568 8.77525 15.8325 8.33336 15.833ZM6.66672 12.4996V14.1663H8.33461L8.33336 12.4996H6.66672Z"
            fill="#0D1B2A" />
        <path
            d="M7.31711 10.833H6.66664C6.22477 10.8335 5.80113 11.0092 5.48867 11.3217C5.17622 11.6341 5.00048 12.0578 5 12.4996V14.1664C5.00048 14.6082 5.17622 15.0319 5.48867 15.3443C5.80113 15.6568 6.22477 15.8325 6.66664 15.833H8.33336C8.77525 15.8325 9.1989 15.6568 9.51135 15.3443C9.82381 15.0318 9.99955 14.6082 10 14.1663V13.8886L7.31711 10.833ZM6.66672 14.1663V12.4996H8.33336L8.33461 14.1663H6.66672Z"
            fill="#040B12" />
        <path
            d="M8.33336 23.333H6.66664C6.22477 23.3325 5.80113 23.1568 5.48867 22.8443C5.17622 22.5319 5.00048 22.1082 5 21.6664V19.9996C5.00048 19.5578 5.17622 19.1341 5.48867 18.8217C5.80113 18.5092 6.22477 18.3335 6.66664 18.333H8.33328C8.77517 18.3335 9.19883 18.5092 9.5113 18.8217C9.82377 19.1341 9.99952 19.5578 10 19.9996V21.6663C9.99955 22.1082 9.82381 22.5318 9.51135 22.8443C9.1989 23.1568 8.77525 23.3325 8.33336 23.333ZM6.66672 19.9996V21.6663H8.33461L8.33336 19.9996H6.66672Z"
            fill="#040B12" />
        <path
            d="M8.33336 30.833H6.66664C6.22477 30.8325 5.80113 30.6568 5.48867 30.3443C5.17622 30.0319 5.00048 29.6082 5 29.1664V27.4996C5.00048 27.0578 5.17622 26.6341 5.48867 26.3217C5.80113 26.0092 6.22477 25.8335 6.66664 25.833H8.33328C8.77517 25.8335 9.19883 26.0092 9.5113 26.3217C9.82377 26.6341 9.99952 27.0578 10 27.4996V29.1663C9.99955 29.6082 9.82381 30.0318 9.51135 30.3443C9.1989 30.6568 8.77525 30.8325 8.33336 30.833ZM6.66672 27.4996V29.1663H8.33461L8.33336 27.4996H6.66672Z"
            fill="#040B12" />
        <path
            d="M24.1667 14.1667H12.5001C12.2805 14.1646 12.0706 14.0758 11.916 13.9198C11.7615 13.7637 11.6748 13.553 11.6748 13.3334C11.6748 13.1137 11.7615 12.903 11.916 12.7469C12.0706 12.5909 12.2805 12.5022 12.5001 12.5H24.1667C24.2768 12.499 24.3861 12.5197 24.4881 12.5611C24.5902 12.6025 24.683 12.6638 24.7612 12.7412C24.8395 12.8187 24.9016 12.911 24.944 13.0126C24.9863 13.1142 25.0082 13.2232 25.0082 13.3334C25.0082 13.4435 24.9863 13.5525 24.944 13.6541C24.9016 13.7558 24.8395 13.848 24.7612 13.9255C24.683 14.003 24.5902 14.0642 24.4881 14.1056C24.3861 14.147 24.2768 14.1677 24.1667 14.1667Z"
            fill="#0D1B2A" />
        <path
            d="M24.1667 21.6667H12.5001C12.2805 21.6646 12.0706 21.5758 11.916 21.4198C11.7615 21.2637 11.6748 21.053 11.6748 20.8334C11.6748 20.6137 11.7615 20.403 11.916 20.2469C12.0706 20.0909 12.2805 20.0022 12.5001 20H24.1667C24.2768 19.999 24.3861 20.0197 24.4881 20.0611C24.5902 20.1025 24.683 20.1638 24.7612 20.2412C24.8395 20.3187 24.9016 20.4109 24.944 20.5126C24.9863 20.6142 25.0082 20.7232 25.0082 20.8334C25.0082 20.9435 24.9863 21.0525 24.944 21.1541C24.9016 21.2558 24.8395 21.348 24.7612 21.4255C24.683 21.503 24.5902 21.5642 24.4881 21.6056C24.3861 21.647 24.2768 21.6677 24.1667 21.6667Z"
            fill="#0D1B2A" />
        <path
            d="M15.3659 20L12.5001 20C12.2805 20.0022 12.0706 20.0909 11.916 20.2469C11.7615 20.403 11.6748 20.6137 11.6748 20.8334C11.6748 21.053 11.7615 21.2637 11.916 21.4198C12.0706 21.5758 12.2805 21.6646 12.5001 21.6667L16.8293 21.6666L15.3659 20Z"
            fill="#040B12" />
        <path
            d="M24.1667 29.1667H12.5001C12.2805 29.1646 12.0706 29.0758 11.916 28.9198C11.7615 28.7637 11.6748 28.553 11.6748 28.3334C11.6748 28.1137 11.7615 27.903 11.916 27.7469C12.0706 27.5909 12.2805 27.5022 12.5001 27.5H24.1667C24.2768 27.499 24.3861 27.5197 24.4881 27.5611C24.5902 27.6025 24.683 27.6638 24.7612 27.7412C24.8395 27.8187 24.9016 27.9109 24.944 28.0126C24.9863 28.1142 25.0082 28.2232 25.0082 28.3334C25.0082 28.4435 24.9863 28.5525 24.944 28.6541C24.9016 28.7558 24.8395 28.848 24.7612 28.9255C24.683 29.003 24.5902 29.0642 24.4881 29.1056C24.3861 29.147 24.2768 29.1677 24.1667 29.1667Z"
            fill="#0D1B2A" />
        <path
            d="M21.9514 27.5L12.5001 27.5C12.2805 27.5022 12.0706 27.5909 11.916 27.7469C11.7615 27.903 11.6748 28.1137 11.6748 28.3334C11.6748 28.553 11.7615 28.7637 11.916 28.9198C12.0706 29.0758 12.2805 29.1646 12.5001 29.1667L23.4148 29.1666L21.9514 27.5Z"
            fill="#040B12" />
        <path
            d="M20.8334 0H9.16664C8.24618 0 7.5 0.74618 7.5 1.66664V3.33336C7.5 4.25382 8.24618 5 9.16664 5H20.8334C21.7538 5 22.5 4.25382 22.5 3.33336V1.66664C22.5 0.74618 21.7538 0 20.8334 0Z"
            fill="#0D1B2A" />
    </symbol>
    <symbol id="connect" viewBox="0 0 40 40">
        <path
            d="M5.85895 28.9322L0.343242 34.4479C-0.114414 34.9056 -0.114414 35.6475 0.343242 36.1052L3.89449 39.6564C4.35215 40.1141 5.0941 40.1141 5.55176 39.6564L11.0675 34.1407C11.5251 33.6831 11.5251 32.9411 11.0675 32.4835L7.51621 28.9322C7.05856 28.4746 6.3166 28.4746 5.85895 28.9322Z"
            fill="#0D1B2A" />
        <path
            d="M5.55176 39.6564L11.0675 34.1407C11.5251 33.6831 11.5251 32.9411 11.0675 32.4835L9.29204 30.7082L2.11908 37.8812L3.89449 39.6564C4.35215 40.1141 5.0941 40.1141 5.55176 39.6564Z"
            fill="#040B12" />
        <path
            d="M34.4485 0.343184L28.9329 5.85889C28.4752 6.31654 28.4752 7.0585 28.9329 7.51615L32.4842 11.0674C32.9418 11.5251 33.6838 11.5251 34.1414 11.0674L39.657 5.5517C40.1147 5.09404 40.1147 4.35209 39.657 3.89443L36.1058 0.343184C35.6481 -0.114395 34.9062 -0.114395 34.4485 0.343184Z"
            fill="#0D1B2A" />
        <path
            d="M34.1414 11.0674L39.657 5.5517C40.1147 5.09404 40.1147 4.35209 39.657 3.89443L37.881 2.11924L30.708 9.29221L32.4842 11.0674C32.9418 11.5251 33.6838 11.5251 34.1414 11.0674Z"
            fill="#040B12" />
        <path
            d="M4.93775 14.8958H3.68251C3.03533 14.8958 2.51064 14.3712 2.51064 13.724C2.51064 13.0768 3.03533 12.5521 3.68251 12.5521H4.93775C5.58493 12.5521 6.10962 13.0768 6.10962 13.724C6.10962 14.3712 5.58493 14.8958 4.93775 14.8958Z"
            fill="#3DDC84" />
        <path
            d="M36.3177 27.4474H35.0625C34.4153 27.4474 33.8906 26.9227 33.8906 26.2755C33.8906 25.6283 34.4153 25.1036 35.0625 25.1036H36.3177C36.9649 25.1036 37.4896 25.6283 37.4896 26.2755C37.4896 26.9227 36.9649 27.4474 36.3177 27.4474Z"
            fill="#0D1B2A" />
        <path
            d="M13.7246 6.10885C13.0774 6.10885 12.5527 5.58417 12.5527 4.93698V3.68174C12.5527 3.03456 13.0774 2.50987 13.7246 2.50987C14.3718 2.50987 14.8965 3.03456 14.8965 3.68174V4.93698C14.8965 5.58417 14.3718 6.10885 13.7246 6.10885Z"
            fill="#3DDC84" />
        <path
            d="M26.2763 37.4896C25.6291 37.4896 25.1044 36.9649 25.1044 36.3177V35.0625C25.1044 34.4153 25.6291 33.8906 26.2763 33.8906C26.9234 33.8906 27.4481 34.4153 27.4481 35.0625V36.3177C27.4481 36.9649 26.9235 37.4896 26.2763 37.4896Z"
            fill="#0D1B2A" />
        <path
            d="M6.68102 8.33801L5.79609 7.45051C5.33914 6.99215 5.34024 6.25019 5.7986 5.79324C6.25695 5.33637 6.99883 5.33738 7.45586 5.79574L8.34078 6.68332C8.79774 7.14168 8.79664 7.88363 8.33828 8.34058C7.88008 8.79722 7.1382 8.7966 6.68102 8.33801Z"
            fill="#3DDC84" />
        <path
            d="M32.5443 34.2033L31.6594 33.3157C31.2024 32.8574 31.2035 32.1154 31.6619 31.6585C32.1202 31.2016 32.8621 31.2026 33.3191 31.661L34.2041 32.5486C34.661 33.0069 34.6599 33.7489 34.2016 34.2058C33.7434 34.6625 33.0016 34.6618 32.5443 34.2033Z"
            fill="#0D1B2A" />
        <path
            d="M18.1691 14.7314C17.1909 13.7532 15.597 13.7514 14.6163 14.7323L10.2368 19.1147C9.77914 19.5724 9.77914 20.3144 10.2368 20.772L12.1286 22.6638C12.5862 23.1215 13.3282 23.1215 13.7859 22.6638L18.1691 18.2819C19.144 17.3069 19.1548 15.7176 18.1691 14.7314Z"
            fill="#0D1B2A" />
        <path
            d="M25.2688 21.8312C24.2907 20.853 22.6968 20.8512 21.716 21.8322L17.3366 26.2146C16.8789 26.6722 16.8789 27.4142 17.3366 27.8719L19.2284 29.7637C19.686 30.2213 20.428 30.2213 20.8856 29.7637L25.2688 25.3818C26.2438 24.4066 26.2546 22.8173 25.2688 21.8312Z"
            fill="#040B12" />
        <path
            d="M9.40658 34.1426L5.86048 30.5922C2.9479 27.6832 2.94423 22.9712 5.86064 20.0583L8.52189 17.3955C8.97954 16.9384 9.72103 16.9388 10.1785 17.3962L22.6049 29.8221C23.0628 30.28 23.0622 31.023 22.6042 31.4801C22.6039 31.4805 19.945 34.1411 19.945 34.1411C17.04 37.0426 12.3131 37.0456 9.40658 34.1426Z"
            fill="#3DDC84" />
        <path
            d="M19.945 34.1411C19.945 34.1411 22.6039 31.4805 22.6042 31.4801C23.0622 31.023 23.0628 30.28 22.6049 29.8221L16.391 23.6085L7.63281 32.3668L9.40658 34.1426C12.3131 37.0456 17.04 37.0426 19.945 34.1411Z"
            fill="#18B55E" />
        <path
            d="M29.8223 22.6042L17.3958 10.1782C16.9379 9.72025 16.9386 8.97736 17.3965 8.52017C17.3968 8.51986 20.0558 5.85931 20.0558 5.85931C22.9624 2.95611 27.6893 2.95619 30.5943 5.85775L34.1403 9.40806C37.0526 12.3169 37.0569 17.0287 34.1402 19.9419L31.479 22.6048C31.0211 23.0619 30.2797 23.0616 29.8223 22.6042Z"
            fill="#3DDC84" />
        <path
            d="M31.479 22.6048L34.1402 19.9419C37.0569 17.0287 37.0526 12.3169 34.1403 9.40806L32.3676 7.63292L23.6094 16.3911L29.8223 22.6042C30.2797 23.0616 31.0211 23.0619 31.479 22.6048Z"
            fill="#18B55E" />
    </symbol>
    <symbol id="arrowAngle" viewBox="0 0 15 15">
        <path
            d="M1.01521 13.8075C1.4287 14.221 2.0991 14.221 2.51261 13.8075L14.5126 1.80745C14.9261 1.39394 14.9261 0.723635 14.5126 0.310129C14.0991 -0.103376 13.4287 -0.103376 13.0152 0.310129L1.01521 12.3101C0.601702 12.7236 0.601702 13.394 1.01521 13.8075Z"
            fill="#3DDC84" />
        <path
            d="M13.7648 14.8246C14.3495 14.8246 14.8236 14.3506 14.8236 13.7658V1.05987C14.8236 0.475121 14.3495 0.00105095 13.7648 0.00105095H1.05882C0.474042 0.00105095 0 0.475121 0 1.05987C0 1.64477 0.474042 2.1187 1.05882 2.1187H12.7059V13.7658C12.7059 14.3506 13.1799 14.8246 13.7648 14.8246Z"
            fill="#3DDC84" />
    </symbol>
    <symbol id="payPal" viewBox="0 0 57 35">
        <rect x="0.5" y="0.5" width="56" height="34" rx="9.5" fill="none" stroke="white" stroke-opacity="0.06" />
        <path
            d="M25.4535 25.6696L25.774 23.6562L25.06 23.6399H21.6504L24.0199 8.78352C24.0272 8.73867 24.0511 8.69685 24.0861 8.66715C24.121 8.63746 24.1657 8.62109 24.2123 8.62109H29.9614C31.8699 8.62109 33.1871 9.01382 33.8747 9.78897C34.1971 10.1526 34.4024 10.5326 34.5017 10.9508C34.6059 11.3896 34.6078 11.9138 34.506 12.5532L34.4987 12.5999V13.0096L34.8211 13.1902C35.0926 13.3326 35.3083 13.4956 35.4738 13.6823C35.7496 13.9932 35.928 14.3884 36.0034 14.8569C36.0812 15.3387 36.0554 15.912 35.928 16.5611C35.7809 17.3078 35.5431 17.9581 35.2219 18.4902C34.9265 18.9805 34.5502 19.3872 34.1034 19.7023C33.6768 20.0017 33.1699 20.229 32.5968 20.3744C32.0415 20.5175 31.4084 20.5896 30.714 20.5896H30.2666C29.9466 20.5896 29.6359 20.7035 29.392 20.9078C29.1474 21.1162 28.9856 21.4011 28.936 21.7126L28.9023 21.8938L28.3359 25.4423L28.3102 25.5726C28.3035 25.6138 28.2918 25.6344 28.2746 25.6484C28.2593 25.6611 28.2373 25.6696 28.2158 25.6696H25.4535Z"
            fill="#253B80" />
        <path
            d="M35.1263 12.6465C35.1091 12.755 35.0895 12.8659 35.0675 12.9798C34.3093 16.8289 31.7155 18.1586 28.4028 18.1586H26.7161C26.3109 18.1586 25.9695 18.4495 25.9064 18.8447L25.0428 24.2604L24.7983 25.7956C24.7572 26.055 24.9595 26.2889 25.2242 26.2889H28.2158C28.5701 26.2889 28.871 26.0344 28.9268 25.6889L28.9562 25.5386L29.5195 22.0041L29.5556 21.8101C29.6108 21.4635 29.9123 21.2089 30.2666 21.2089H30.714C33.6124 21.2089 35.8814 20.0453 36.5446 16.678C36.8216 15.2713 36.6782 14.0968 35.9451 13.2707C35.7233 13.0216 35.4481 12.815 35.1263 12.6465Z"
            fill="#3A4E62" />
        <path
            d="M34.334 12.3355C34.2182 12.3022 34.0987 12.2719 33.9761 12.2446C33.8529 12.2179 33.7266 12.1943 33.5967 12.1737C33.1419 12.101 32.6436 12.0664 32.1098 12.0664H27.6037C27.4928 12.0664 27.3874 12.0913 27.293 12.1361C27.0852 12.2349 26.9308 12.4294 26.8934 12.6676L25.9348 18.6713L25.9072 18.8464C25.9704 18.4513 26.3117 18.1603 26.7169 18.1603H28.4036C31.7163 18.1603 34.3101 16.83 35.0683 12.9816C35.091 12.8676 35.11 12.7567 35.1271 12.6482C34.9353 12.5476 34.7275 12.4616 34.5038 12.3882C34.4486 12.37 34.3916 12.3525 34.334 12.3355Z"
            fill="#455C73" />
        <path
            d="M26.8924 12.6661C26.9298 12.4279 27.0843 12.2333 27.2921 12.1352C27.3871 12.0903 27.4919 12.0655 27.6028 12.0655H32.1089C32.6427 12.0655 33.141 12.1 33.5958 12.1727C33.7257 12.1933 33.852 12.217 33.9752 12.2436C34.0977 12.2709 34.2172 12.3012 34.3331 12.3345C34.3907 12.3515 34.4477 12.3691 34.5035 12.3867C34.7272 12.46 34.935 12.5467 35.1268 12.6467C35.3523 11.2242 35.125 10.2558 34.3472 9.37879C33.4897 8.41333 31.9422 8 29.9619 8H24.2128C23.8083 8 23.4633 8.29091 23.4007 8.68667L21.0061 23.6958C20.9589 23.9927 21.1906 24.2606 21.4934 24.2606H25.0427L25.9339 18.6697L26.8924 12.6661Z"
            fill="#303F4E" />
    </symbol>
    <symbol id="masterCard" viewBox="0 0 61 34">
        <path d="M34.8873 8.14648H25.459V24.8508H34.8873V8.14648Z" fill="#455C73" />
        <path
            d="M26.0863 16.498C26.0863 13.1042 27.7041 10.0921 30.1868 8.1459C28.3597 6.72924 26.0549 5.87305 23.5409 5.87305C17.5854 5.87305 12.7666 10.6251 12.7666 16.498C12.7666 22.371 17.5854 27.123 23.5409 27.123C26.0549 27.123 28.3597 26.2669 30.1868 24.8502C27.7007 22.9315 26.0863 19.8919 26.0863 16.498Z"
            fill="#303F4E" />
        <path
            d="M47.6067 16.498C47.6067 22.371 42.7879 27.123 36.8324 27.123C34.3184 27.123 32.0136 26.2669 30.1865 24.8502C32.7005 22.9006 34.287 19.8919 34.287 16.498C34.287 13.1042 32.6691 10.0921 30.1865 8.1459C32.0101 6.72924 34.3149 5.87305 36.8289 5.87305C42.7879 5.87305 47.6067 10.656 47.6067 16.498Z"
            fill="#3A4E62" />
        <rect x="0.5" y="0.5" width="60" height="33" rx="9.5" fill="none" stroke="white" stroke-opacity="0.06" />
    </symbol>
    <symbol id="visa" viewBox="0 0 61 34">
        <path d="M27.8202 22.5895H25.0498L26.7826 11.6992H29.5529L27.8202 22.5895Z" fill="#303F4E" />
        <path
            d="M37.8631 11.9636C37.3166 11.7433 36.4499 11.5 35.3782 11.5C32.6423 11.5 30.7157 12.9829 30.7039 15.1029C30.6811 16.6671 32.0833 17.5358 33.1319 18.0574C34.2038 18.5903 34.5681 18.9382 34.5681 19.4132C34.5572 20.1428 33.702 20.4791 32.9044 20.4791C31.7983 20.4791 31.2056 20.3057 30.305 19.8998L29.9402 19.7258L29.5525 22.1704C30.2023 22.4713 31.3994 22.7383 32.6423 22.75C35.5492 22.75 37.4417 21.2901 37.4642 19.0309C37.4752 17.7911 36.7349 16.8412 35.1387 16.065C34.1697 15.5667 33.5763 15.2307 33.5763 14.7209C33.5876 14.2574 34.0782 13.7826 35.172 13.7826C36.0727 13.7594 36.7344 13.9794 37.2357 14.1996L37.4863 14.3153L37.8631 11.9636Z"
            fill="#303F4E" />
        <path
            d="M41.5461 18.7315C41.7743 18.1058 42.6522 15.6845 42.6522 15.6845C42.6407 15.7077 42.8799 15.0473 43.0167 14.6418L43.2103 15.5802C43.2103 15.5802 43.7349 18.187 43.8489 18.7315C43.4159 18.7315 42.0933 18.7315 41.5461 18.7315ZM44.9659 11.6992H42.8229C42.1621 11.6992 41.66 11.896 41.3749 12.6028L37.2598 22.5894H40.1667C40.1667 22.5894 40.6453 21.2452 40.7482 20.9558C41.0671 20.9558 43.8949 20.9558 44.3052 20.9558C44.3847 21.3381 44.6357 22.5894 44.6357 22.5894H47.2009L44.9659 11.6992Z"
            fill="#303F4E" />
        <path
            d="M22.7355 11.6992L20.0223 19.1254L19.7258 17.6193C19.2242 15.8814 17.6511 13.9933 15.8955 13.0544L18.3807 22.578H21.3103L25.665 11.6992H22.7355Z"
            fill="#303F4E" />
        <path
            d="M17.503 11.6992H13.0456L13 11.9193C16.477 12.823 18.7798 15.0014 19.7259 17.6197L18.7569 12.6146C18.5974 11.9191 18.1071 11.7222 17.503 11.6992Z"
            fill="#455C73" />
        <rect x="0.5" y="0.5" width="60" height="33" rx="9.5" stroke="white" fill="none" stroke-opacity="0.06" />
    </symbol>
    <symbol id="americanExpress" viewBox="0 0 61 34">
        <rect x="0.5" y="0.5" width="60" height="33" rx="9.5" fill="none" stroke="white" stroke-opacity="0.06" />
        <path
            d="M4.8748 7.5L2 14.0569H3.87165L4.40208 12.7439H7.48577L8.01345 14.0569H9.92633L7.05427 7.5H4.8748ZM5.93843 9.02599L6.87837 11.3204H4.99573L5.93843 9.02599Z"
            fill="#303F4E" />
        <path
            d="M10.124 14.0569V7.5L12.7837 7.50969L14.3307 11.7372L15.8407 7.5H18.4791V14.0569H16.8081V9.2255L15.0368 14.0569H13.5713L11.795 9.2255V14.0569H10.124Z"
            fill="#303F4E" />
        <path
            d="M19.6221 14.0569V7.5H25.0749V8.96668H21.3107V10.0883H24.9869V11.4687H21.3107V12.6334H25.0749V14.0569H19.6221Z"
            fill="#303F4E" />
        <path
            d="M26.042 7.5V14.0569H27.713V11.7275H28.4166L30.4202 14.0569H32.4622L30.2635 11.6412C31.1659 11.5665 32.0967 10.8068 32.0967 9.62723C32.0967 8.24742 30.9927 7.5 29.7605 7.5H26.042ZM27.713 8.96668H29.6231C30.0813 8.96668 30.4147 9.31829 30.4147 9.65688C30.4147 10.0925 29.9828 10.3471 29.6479 10.3471H27.713V8.96668Z"
            fill="#303F4E" />
        <path d="M34.4855 14.0569H32.7793V7.5H34.4855V14.0569Z" fill="#303F4E" />
        <path
            d="M38.5312 14.0569H38.1629C36.381 14.0569 35.2991 12.6798 35.2991 10.8054C35.2991 8.88478 36.3689 7.5 38.6191 7.5H40.466V9.05295H38.5516C37.6381 9.05295 36.9921 9.75227 36.9921 10.8216C36.9921 12.0914 37.7308 12.6247 38.795 12.6247H39.2348L38.5312 14.0569Z"
            fill="#303F4E" />
        <path
            d="M42.1668 7.5L39.292 14.0569H41.1636L41.6941 12.7439H44.7778L45.3054 14.0569H47.2183L44.3463 7.5H42.1668ZM43.2304 9.02599L44.1704 11.3204H42.2877L43.2304 9.02599Z"
            fill="#303F4E" />
        <path
            d="M47.4131 14.0569V7.5H49.5376L52.2502 11.6196V7.5H53.9212V14.0569H51.8655L49.0841 9.82943V14.0569H47.4131Z"
            fill="#303F4E" />
        <path
            d="M14.1689 25.5315V18.9746H19.6217V20.4413H15.8575V21.5629H19.5338V22.9433H15.8575V24.108H19.6217V25.5315H14.1689Z"
            fill="#303F4E" />
        <path
            d="M40.8877 25.5315V18.9746H46.3405V20.4413H42.5763V21.5629H46.2349V22.9433H42.5763V24.108H46.3405V25.5315H40.8877Z"
            fill="#303F4E" />
        <path
            d="M19.8337 25.5315L22.4887 22.2935L19.7705 18.9746H21.8758L23.4946 21.0263L25.1189 18.9746H27.1417L24.4592 22.2531L27.1191 25.5315H25.0141L23.4423 23.5121L21.9087 25.5315H19.8337Z"
            fill="#303F4E" />
        <path
            d="M27.3174 18.9746V25.5315H29.0324V23.4609H30.7913C32.2797 23.4609 33.4078 22.6863 33.4078 21.18C33.4078 19.9322 32.523 18.9746 31.0085 18.9746H27.3174ZM29.0324 20.4575H30.8848C31.3656 20.4575 31.7093 20.7466 31.7093 21.2124C31.7093 21.65 31.3673 21.9673 30.8793 21.9673H29.0324V20.4575Z"
            fill="#303F4E" />
        <path
            d="M34.1338 18.9746V25.5315H35.8048V23.2021H36.5084L38.512 25.5315H40.554L38.3553 23.1158C39.2577 23.0411 40.1885 22.2814 40.1885 21.1018C40.1885 19.722 39.0845 18.9746 37.8523 18.9746H34.1338ZM35.8048 20.4413H37.7149C38.1731 20.4413 38.5065 20.7929 38.5065 21.1315C38.5065 21.5671 38.0746 21.8217 37.7397 21.8217H35.8048V20.4413Z"
            fill="#303F4E" />
        <path
            d="M47.1145 25.5315V24.108H50.4587C50.9536 24.108 51.1678 23.8457 51.1678 23.558C51.1678 23.2823 50.9543 23.0037 50.4587 23.0037H48.9475C47.6339 23.0037 46.9023 22.2186 46.9023 21.0398C46.9023 19.9885 47.5723 18.9746 49.5243 18.9746H52.7784L52.0748 20.4499H49.2605C48.7225 20.4499 48.5569 20.7268 48.5569 20.9913C48.5569 21.2631 48.7615 21.5629 49.1725 21.5629H50.7556C52.2199 21.5629 52.8553 22.3777 52.8553 23.4447C52.8553 24.5919 52.1473 25.5315 50.6759 25.5315H47.1145Z"
            fill="#303F4E" />
        <path
            d="M53.2473 25.5315V24.108H56.5916C57.0864 24.108 57.3006 23.8457 57.3006 23.558C57.3006 23.2823 57.0871 23.0037 56.5916 23.0037H55.0803C53.7667 23.0037 53.0352 22.2186 53.0352 21.0398C53.0352 19.9885 53.7051 18.9746 55.6571 18.9746H58.9112L58.2076 20.4499H55.3933C54.8553 20.4499 54.6897 20.7268 54.6897 20.9913C54.6897 21.2631 54.8943 21.5629 55.3053 21.5629H56.8884C58.3527 21.5629 58.9881 22.3777 58.9881 23.4447C58.9881 24.5919 58.2801 25.5315 56.8087 25.5315H53.2473Z"
            fill="#303F4E" />
    </symbol>
    <symbol id="jcb" viewBox="0 0 61 34">
        <rect x="0.5" y="0.5" width="60" height="33" rx="9.5" fill="none" stroke="white" stroke-opacity="0.06" />
        <path d="M13.0244 10.752H23.1732V25.127H13.0244V10.752Z" fill="#455C73" />
        <path d="M24.8475 10.752H34.7526V25.127H24.8475V10.752Z" fill="#455C73" />
        <path d="M36.6705 10.752H46.6573V25.127H36.6705V10.752Z" fill="#455C73" />
        <path
            d="M38.7627 19.6802H41.2307C41.3013 19.6802 41.4658 19.6573 41.5363 19.6573C42.0064 19.5658 42.406 19.1537 42.406 18.5813C42.406 18.0319 42.0064 17.6198 41.5363 17.5053C41.4658 17.4824 41.3248 17.4824 41.2307 17.4824H38.7627V19.6802Z"
            fill="#303F4E" />
        <path
            d="M40.9479 4.5C38.5974 4.5 36.67 6.3544 36.67 8.66667V12.9936H42.7108C42.8518 12.9936 43.0164 12.9936 43.1339 13.0165C44.4972 13.0852 45.5079 13.772 45.5079 14.9625C45.5079 15.9011 44.8263 16.7024 43.557 16.8626V16.9084C44.9438 17 46.0015 17.7555 46.0015 18.9231C46.0015 20.1822 44.8263 21.0064 43.2749 21.0064H36.6465V29.4771H42.9224C45.2729 29.4771 47.2003 27.6227 47.2003 25.3104V4.5H40.9479Z"
            fill="#303F4E" />
        <path
            d="M42.1004 15.2378C42.1004 14.6883 41.7008 14.322 41.2307 14.2534C41.1837 14.2534 41.0662 14.2305 40.9957 14.2305H38.7627V16.2451H40.9957C41.0662 16.2451 41.2072 16.2451 41.2307 16.2222C41.7008 16.1535 42.1004 15.7872 42.1004 15.2378Z"
            fill="#303F4E" />
        <path
            d="M17.3014 4.5C14.9509 4.5 13.0235 6.3544 13.0235 8.66667V18.946C14.2223 19.5183 15.468 19.8846 16.7138 19.8846C18.1946 19.8846 18.9938 19.0147 18.9938 17.8242V12.9707H22.6606V17.8013C22.6606 19.6786 21.4619 21.2125 17.3955 21.2125C14.9274 21.2125 13 20.6859 13 20.6859V29.4542H19.2759C21.6264 29.4542 23.5538 27.5998 23.5538 25.2875V4.5H17.3014Z"
            fill="#303F4E" />
        <path
            d="M29.1246 4.5C26.7741 4.5 24.8467 6.3544 24.8467 8.66667V14.1154C25.9279 13.2225 27.8083 12.6502 30.8405 12.7875C32.4623 12.8562 34.2017 13.2912 34.2017 13.2912V15.054C33.332 14.619 32.2978 14.2299 30.958 14.1383C28.6545 13.978 27.2677 15.0769 27.2677 17C27.2677 18.946 28.6545 20.0449 30.958 19.8617C32.2978 19.7702 33.332 19.3581 34.2017 18.946V20.7088C34.2017 20.7088 32.4859 21.1438 30.8405 21.2125C27.8083 21.3498 25.9279 20.7775 24.8467 19.8846V29.5H31.1226C33.4731 29.5 35.4005 27.6456 35.4005 25.3333V4.5H29.1246Z"
            fill="#303F4E" />
    </symbol>
    <symbol id="discover" viewBox="0 0 61 34">
        <path
            d="M24.9809 8.80469C25.6266 8.80469 26.1682 8.93353 26.8273 9.24435V10.8869C26.203 10.3192 25.6614 10.0816 24.9452 10.0816C23.5374 10.0816 22.4303 11.1656 22.4303 12.54C22.4303 13.9892 23.5032 15.0087 25.015 15.0087C25.6955 15.0087 26.2271 14.7834 26.8273 14.2248V15.8683C26.1447 16.1672 25.5915 16.2852 24.9452 16.2852C22.6595 16.2852 20.8834 14.6539 20.8834 12.5501C20.8834 10.469 22.7068 8.80469 24.9809 8.80469ZM17.8841 8.84995C18.7279 8.84995 19.4999 9.11855 20.1454 9.64368L19.3599 10.6001C18.9689 10.1925 18.5991 10.0206 18.1495 10.0206C17.5025 10.0206 17.0313 10.3632 17.0313 10.8139C17.0313 11.2005 17.2958 11.4051 18.1966 11.7151C19.904 12.2958 20.41 12.8107 20.41 13.9478C20.41 15.3334 19.3156 16.2979 17.7558 16.2979C16.6136 16.2979 15.7832 15.8796 15.0917 14.9355L16.0612 14.0669C16.4069 14.6885 16.9836 15.0215 17.6996 15.0215C18.3692 15.0215 18.865 14.5918 18.865 14.0119C18.865 13.7113 18.7148 13.4536 18.4149 13.2714C18.264 13.1851 17.9649 13.0564 17.3773 12.8637C15.9675 12.3917 15.4839 11.8871 15.4839 10.901C15.4839 9.72967 16.5226 8.84995 17.8841 8.84995ZM35.0369 8.97474H36.6766L38.7289 13.7824L40.8076 8.97474H42.4348L39.1103 16.316H38.3026L35.0369 8.97474ZM6 8.98574H8.2033C10.6376 8.98574 12.3346 10.4572 12.3346 12.5696C12.3346 13.6229 11.8154 14.6413 10.9375 15.3171C10.1988 15.8876 9.35715 16.1434 8.19174 16.1434H6V8.98574ZM13.0252 8.98574H14.5263V16.1434H13.0252V8.98574ZM43.1135 8.98574H47.3704V10.1985H44.6134V11.7873H47.2688V12.9995H44.6134V14.9316H47.3704V16.1434H43.1135V8.98574ZM48.3646 8.98574H50.5902C52.3214 8.98574 53.3134 9.75896 53.3134 11.099C53.3134 12.1949 52.6913 12.9141 51.5606 13.1281L53.983 16.1434H52.1371L50.0595 13.268H49.8638V16.1434H48.3646V8.98574ZM49.8638 10.1131V12.2808H50.3025C51.261 12.2808 51.769 11.8937 51.769 11.1742C51.769 10.4776 51.2609 10.1131 50.3261 10.1131H49.8638ZM7.49993 10.1985V14.9316H7.90271C8.87267 14.9316 9.48524 14.7587 9.95686 14.3628C10.476 13.9328 10.7883 13.2462 10.7883 12.5593C10.7883 11.8735 10.476 11.2074 9.95686 10.7774C9.46107 10.3601 8.87267 10.1985 7.90271 10.1985H7.49993Z"
            fill="#303F4E" />
        <path d="M61 17.5C58.9953 18.8488 42.9866 28.3046 17 32.961L52 34C57.5 33.5 60.5 29 61 24.6305V17.5Z"
            fill="#303F4E" />
        <path
            d="M35.0742 12.4975C35.0742 10.2883 33.375 8.5 31.2788 8.5C29.1826 8.5 27.4834 10.2883 27.4834 12.4975V12.5C27.4834 14.7092 29.1826 16.5 31.2788 16.5C33.375 16.5 35.0742 14.7092 35.0742 12.5V12.4975Z"
            fill="#455C73" />
        <path
            d="M51 0C56.5228 0 61 4.47715 61 10V24C61 29.5228 56.5228 34 51 34H10L9.48535 33.9873C4.37212 33.7281 0.271903 29.6279 0.0126953 24.5146L0 24V10C0 4.64975 4.20167 0.280543 9.48535 0.0126953L10 0H51ZM10 1C5.02944 1 1 5.02944 1 10V24C1 28.9706 5.02944 33 10 33H51C55.9706 33 60 28.9706 60 24V10C60 5.02944 55.9706 1 51 1H10Z"
            fill="white" fill-opacity="0.06" />
    </symbol>
    <symbol id="bitcoin" viewBox="0 0 61 34">
        <path
            d="M51 0C56.5228 0 61 4.47715 61 10V24C61 29.5228 56.5228 34 51 34H10L9.48535 33.9873C4.37212 33.7281 0.271903 29.6279 0.0126953 24.5146L0 24V10C0 4.64975 4.20167 0.280543 9.48535 0.0126953L10 0H51ZM10 1C5.02944 1 1 5.02944 1 10V24C1 28.9706 5.02944 33 10 33H51C55.9706 33 60 28.9706 60 24V10C60 5.02944 55.9706 1 51 1H10Z"
            fill="white" fill-opacity="0.06" />
        <path
            d="M41.704 20.2479C40.0968 26.6095 33.5676 30.4811 27.1203 28.8947C20.6757 27.3086 16.7525 20.865 18.3604 14.5037C19.9669 8.14129 26.4961 4.2693 32.9414 5.85536C39.3883 7.44141 43.3112 13.8858 41.704 20.2479Z"
            fill="#303F4E" />
        <path
            d="M35.3365 15.6822C35.5761 14.1021 34.357 13.2527 32.69 12.686L33.2307 10.5455L31.9104 10.2208L31.384 12.3049C31.0369 12.2195 30.6804 12.139 30.3262 12.0592L30.8564 9.96143L29.5369 9.63672L28.9957 11.7764C28.7084 11.7119 28.4264 11.648 28.1526 11.5809L28.1542 11.5742L26.3334 11.1255L25.9821 12.5171C25.9821 12.5171 26.9617 12.7387 26.941 12.7524C27.4758 12.8842 27.5724 13.2334 27.5562 13.5102L26.9403 15.9487C26.9771 15.9579 27.0249 15.9713 27.0775 15.9921C27.0335 15.9813 26.9865 15.9694 26.938 15.9579L26.0746 19.3738C26.0092 19.5342 25.8434 19.7746 25.4696 19.6833C25.4828 19.7023 24.5099 19.447 24.5099 19.447L23.8545 20.9384L25.5726 21.3611C25.8923 21.4401 26.2055 21.5229 26.5139 21.6008L25.9675 23.7657L27.2862 24.0904L27.8274 21.9485C28.1876 22.045 28.5373 22.134 28.8795 22.2179L28.3403 24.3498L29.6606 24.6745L30.207 22.5137C32.4583 22.9341 34.1513 22.7645 34.8639 20.7551C35.4381 19.1371 34.8353 18.2038 33.6508 17.5952C34.5134 17.3989 35.1632 16.8389 35.3365 15.6822ZM32.3199 19.8566C31.9119 21.4746 29.1514 20.5999 28.2564 20.3806L28.9814 17.5124C29.8764 17.7329 32.7464 18.1693 32.3199 19.8566ZM32.7283 15.6588C32.356 17.1306 30.0584 16.3828 29.3131 16.1995L29.9704 13.5981C30.7157 13.7815 33.116 14.1236 32.7283 15.6588Z"
            fill="#455C73" />
    </symbol>
    <symbol id="apple" viewBox="0 0 17 20">
        <path
            d="M11.8716 0C10.8418 0.0712298 9.63815 0.730408 8.93672 1.58879C8.29686 2.36749 7.77049 3.52407 7.97572 4.64805C9.10091 4.68306 10.2635 4.00819 10.9372 3.13532C11.5674 2.32282 12.0443 1.17348 11.8716 0Z"
            fill="#3DDC84" />
        <path
            d="M15.9405 6.48091C14.9518 5.24103 13.5622 4.52148 12.2499 4.52148C10.5174 4.52148 9.78459 5.35089 8.58093 5.35089C7.33984 5.35089 6.39695 4.5239 4.89871 4.5239C3.42703 4.5239 1.85997 5.42333 0.866378 6.96141C-0.530451 9.12728 -0.291408 13.1995 1.97225 16.668C2.78234 17.9091 3.86407 19.3047 5.27901 19.3168C6.5382 19.3288 6.89315 18.5091 8.59904 18.5006C10.3049 18.491 10.6285 19.3276 11.8853 19.3144C13.3014 19.3035 14.4423 17.757 15.2524 16.5159C15.8331 15.6261 16.0492 15.1782 16.4995 14.1737C13.2242 12.9266 12.699 8.2689 15.9405 6.48091Z"
            fill="#3DDC84" />
    </symbol>
    <symbol id="android" viewBox="0 0 19 22">
        <path
            d="M11.4829 22.0007C12.2184 22.0007 12.8599 21.3592 12.8599 20.6236V17.4076H13.7794C14.3312 17.4076 14.6989 17.0398 14.6989 16.4881V7.30273H3.67383V16.4882C3.67383 17.0399 4.04164 17.4077 4.59331 17.4077H5.51288V20.6237C5.51288 21.3593 6.15419 22.0008 6.88994 22.0008C7.62543 22.0008 8.26687 21.3593 8.26687 20.6237V17.4077H10.1059V20.6237C10.1058 21.3592 10.7473 22.0007 11.4829 22.0007Z"
            fill="#3DDC84" />
        <path
            d="M16.9952 16.4882C17.7308 16.4882 18.3722 15.8468 18.3722 15.1112V8.67919C18.3722 7.94748 17.7308 7.30273 16.9952 7.30273C16.2596 7.30273 15.6182 7.94752 15.6182 8.67919V15.1112C15.6182 15.8467 16.2595 16.4882 16.9952 16.4882Z"
            fill="#3DDC84" />
        <path
            d="M1.37693 16.4882C2.11259 16.4882 2.75399 15.8468 2.75399 15.1112V8.67919C2.75399 7.94748 2.11268 7.30273 1.37693 7.30273C0.641349 7.30273 0 7.94752 0 8.67919V15.1112C4.29686e-05 15.8467 0.641349 16.4882 1.37693 16.4882Z"
            fill="#3DDC84" />
        <path
            d="M13.5954 0.138735C13.4115 -0.0462449 13.1379 -0.0462449 12.9541 0.138735L11.7208 1.36785L11.6639 1.42466C10.9327 1.05848 10.1128 0.875603 9.1998 0.873841C9.19533 0.873841 9.19091 0.873712 9.18644 0.873712H9.18631C9.18167 0.873712 9.17742 0.873841 9.17282 0.873841C8.25987 0.875603 7.44002 1.05848 6.70883 1.42466L6.65181 1.36785L5.41857 0.138735C5.23462 -0.0462449 4.96108 -0.0462449 4.77726 0.138735C4.59331 0.322683 4.59331 0.595706 4.77726 0.779525L5.9702 1.97268C5.5858 2.22933 5.23724 2.54339 4.93414 2.9026C4.20849 3.76275 3.74559 4.88221 3.68195 6.09513C3.68135 6.10776 3.6801 6.12022 3.67954 6.13285C3.67563 6.21544 3.67383 6.29845 3.67383 6.38181H14.6988C14.6988 6.2985 14.6969 6.21548 14.6931 6.13285C14.6925 6.12022 14.6913 6.10776 14.6905 6.09513C14.627 4.88221 14.164 3.7627 13.4384 2.90269C13.1354 2.54347 12.7867 2.22941 12.4023 1.97276L13.5954 0.779611C13.7794 0.595706 13.7794 0.322726 13.5954 0.138735ZM6.88814 4.77638C6.50774 4.77638 6.19931 4.46799 6.19931 4.08755C6.19931 3.7071 6.50769 3.39872 6.88814 3.39872C7.26854 3.39872 7.57697 3.7071 7.57697 4.08755C7.57697 4.46799 7.26854 4.77638 6.88814 4.77638ZM11.4845 4.77638C11.1041 4.77638 10.7957 4.46799 10.7957 4.08755C10.7957 3.7071 11.104 3.39872 11.4845 3.39872C11.8649 3.39872 12.1733 3.7071 12.1733 4.08755C12.1733 4.46799 11.8649 4.77638 11.4845 4.77638Z"
            fill="#3DDC84" />
    </symbol>
    <symbol id="checked" viewBox="0 0 15 15">
        <path
            d="M7.3315 14.663C11.3806 14.663 14.663 11.3806 14.663 7.3315C14.663 3.28242 11.3806 0 7.3315 0C3.28242 0 0 3.28242 0 7.3315C0 11.3806 3.28242 14.663 7.3315 14.663Z"
            fill="#3DDC84" />
        <path fill-rule="evenodd" clip-rule="evenodd"
            d="M4.40671 6.81584C4.13671 6.63551 3.77604 6.67651 3.55271 6.91251C3.32971 7.14818 3.30871 7.51084 3.50371 7.77051L5.50371 10.4372C5.62438 10.5978 5.81104 10.6958 6.01204 10.7035C6.21271 10.7108 6.40638 10.6275 6.53871 10.4762L11.2054 5.14284C11.4357 4.87984 11.4234 4.4835 11.1774 4.23484C10.9314 3.98617 10.5354 3.97017 10.2697 4.1975L5.98671 7.86884L4.40671 6.81584Z"
            fill="#0D1B2A" />
    </symbol>
    <symbol id="increase" viewBox="0 0 15 15">
        <path
            d="M3.66634 6.83301H1.66634C1.2061 6.83301 0.833008 7.2061 0.833008 7.66634V13.6663C0.833008 14.1266 1.2061 14.4997 1.66634 14.4997H3.66634C4.12658 14.4997 4.49967 14.1266 4.49967 13.6663V7.66634C4.49967 7.2061 4.12658 6.83301 3.66634 6.83301Z"
            fill="#3DDC84" />
        <path
            d="M8.99935 4.16699H6.99935C6.53911 4.16699 6.16602 4.54009 6.16602 5.00033V13.667C6.16602 14.1272 6.53911 14.5003 6.99935 14.5003H8.99935C9.45959 14.5003 9.83268 14.1272 9.83268 13.667V5.00033C9.83268 4.54009 9.45959 4.16699 8.99935 4.16699Z"
            fill="#3DDC84" />
        <path
            d="M14.3333 1.5H12.3333C11.8731 1.5 11.5 1.8731 11.5 2.33333V13.6667C11.5 14.1269 11.8731 14.5 12.3333 14.5H14.3333C14.7936 14.5 15.1667 14.1269 15.1667 13.6667V2.33333C15.1667 1.8731 14.7936 1.5 14.3333 1.5Z"
            fill="#3DDC84" />
    </symbol>
    <symbol id="upload" viewBox="0 0 36 36">
        <path
            d="M35.994 18C35.994 8.05875 27.9366 0 17.997 0C8.05765 0 0 8.05875 0 18C0 27.9413 8.05765 36 17.997 36C27.9366 36 35.994 27.9413 35.994 18Z"
            fill="#3DDC84" fill-opacity="0.96" />
        <path
            d="M28.9737 3.73633C31.3154 6.7746 32.709 10.5816 32.709 14.7144C32.709 24.6557 24.6514 32.7144 14.7118 32.7144C10.5796 32.7144 6.77335 31.3205 3.73535 28.9785C7.02631 33.2486 12.1902 36.0004 17.9973 36.0004C27.9369 36.0004 35.9942 27.9417 35.9942 18.0004C35.9942 12.1922 33.243 7.02756 28.9737 3.73633Z"
            fill="#18B55E" />
        <path
            d="M21.292 18.8197L20.1077 17.6334V23.3404C20.1077 24.5072 19.1635 25.4531 17.9987 25.4531C16.8338 25.4531 15.8896 24.5072 15.8896 23.3404V17.5812L14.7098 18.7628C13.8862 19.5879 12.5508 19.5879 11.7272 18.7628C10.9034 17.9377 10.9034 16.6 11.7272 15.7749L14.9898 12.5067L16.2206 11.2737C17.1882 10.3046 18.7567 10.3046 19.7243 11.2737L20.9552 12.5067L24.2748 15.8318C25.0959 16.6543 25.0959 17.9881 24.2748 18.8106L24.2658 18.8197C23.4445 19.6421 22.1131 19.6421 21.292 18.8197Z"
            fill="#0D1B2A" />
    </symbol>
    <symbol id="download" viewBox="0 0 40 40">
        <path
            d="M39.9933 20C39.9933 8.95416 31.0406 0 19.9966 0C8.95294 0 0 8.95416 0 20C0 31.0458 8.95294 40 19.9966 40C31.0406 40 39.9933 31.0458 39.9933 20Z"
            fill="#3DDC84" fill-opacity="0.96" />
        <path
            d="M32.193 4.15137C34.7949 7.52722 36.3434 11.7573 36.3434 16.3492C36.3434 27.3951 27.3904 36.3492 16.3464 36.3492C11.7551 36.3492 7.52594 34.8005 4.15039 32.1982C7.80701 36.9428 13.5446 40.0004 19.9969 40.0004C31.041 40.0004 39.9936 31.0462 39.9936 20.0004C39.9936 13.5468 36.9366 7.80829 32.193 4.15137Z"
            fill="#18B55E" />
        <path
            d="M23.6577 19.0892L22.3419 20.4073V14.0663C22.3419 12.7697 21.2928 11.7188 19.9985 11.7188C18.7042 11.7188 17.6551 12.7697 17.6551 14.0663V20.4654L16.3442 19.1525C15.4291 18.2357 13.9454 18.2357 13.0303 19.1525C12.1149 20.0692 12.1149 21.5555 13.0303 22.4723L16.6553 26.1037L18.0229 27.4737C19.098 28.5504 20.8408 28.5504 21.9159 27.4737L23.2835 26.1037L26.972 22.4091C27.8843 21.4953 27.8843 20.0132 26.972 19.0994L26.9621 19.0892C26.0494 18.1754 24.5701 18.1754 23.6577 19.0892Z"
            fill="#0D1B2A" />
    </symbol>
    <symbol id="wifi" viewBox="0 0 36 36">
        <path
            d="M35.994 18C35.994 8.05875 27.9366 0 17.997 0C8.05765 0 0 8.05875 0 18C0 27.9413 8.05765 36 17.997 36C27.9366 36 35.994 27.9413 35.994 18Z"
            fill="#3DDC84" fill-opacity="0.96" />
        <path
            d="M17.9997 25.6097C19.0286 25.6097 19.8627 24.7756 19.8627 23.7468C19.8627 22.7179 19.0286 21.8838 17.9997 21.8838C16.9708 21.8838 16.1367 22.7179 16.1367 23.7468C16.1367 24.7756 16.9708 25.6097 17.9997 25.6097Z"
            fill="#0D1B2A" />
        <path
            d="M27.4439 14.3027C24.7592 11.618 21.3066 10.3906 18 10.3906C14.6934 10.3906 11.2408 11.618 8.55606 14.3027C7.8141 15.0455 7.8175 16.1957 8.54914 16.9304C9.46281 17.8543 10.6591 17.4865 11.1947 16.9329C13.0132 15.1168 15.4298 14.1167 18 14.1167C20.5702 14.1167 22.9868 15.1168 24.8053 16.9329C25.3409 17.4865 26.5372 17.8543 27.4509 16.9304C28.1825 16.1957 28.1859 15.0455 27.4439 14.3027Z"
            fill="#0D1B2A" />
        <path
            d="M23.3802 18.3652C21.84 16.8254 19.8524 16.1367 18 16.1367C16.1476 16.1367 14.16 16.8254 12.6198 18.3652C11.8684 19.1166 11.8833 20.2722 12.6273 21.0083C13.366 21.742 14.5154 21.7389 15.2539 21.0004C15.9874 20.2669 16.9626 19.863 18 19.863C19.0373 19.863 20.0125 20.2669 20.7461 21.0004C21.4846 21.7389 22.634 21.742 23.3726 21.0083C24.1166 20.2722 24.1316 19.1166 23.3802 18.3652Z"
            fill="#0D1B2A" />
        <path
            d="M19.863 23.7468C19.863 22.7195 19.0272 21.8838 18 21.8838V25.6097C19.0272 25.6097 19.863 24.774 19.863 23.7468Z"
            fill="#0D1B2A" />
        <path
            d="M27.4509 16.9304C28.1825 16.1957 28.1859 15.0455 27.4439 14.3027C24.7592 11.618 21.3066 10.3906 18 10.3906V14.1167C20.5702 14.1167 22.9868 15.1169 24.8053 16.933C25.341 17.4866 26.5372 17.8543 27.4509 16.9304Z"
            fill="#0D1B2A" />
        <path
            d="M23.3727 21.0083C24.1167 20.2722 24.1316 19.1166 23.3802 18.3652C21.84 16.8254 19.8524 16.1367 18 16.1367V19.863C19.0373 19.863 20.0126 20.2669 20.7461 21.0004C21.4846 21.7389 22.634 21.742 23.3727 21.0083Z"
            fill="#0D1B2A" />
        <path
            d="M28.9737 3.73633C31.3154 6.7746 32.709 10.5816 32.709 14.7144C32.709 24.6557 24.6514 32.7144 14.7118 32.7144C10.5796 32.7144 6.77335 31.3205 3.73535 28.9785C7.02631 33.2486 12.1902 36.0004 17.9973 36.0004C27.9369 36.0004 35.9942 27.9417 35.9942 18.0004C35.9942 12.1922 33.243 7.02756 28.9737 3.73633Z"
            fill="#18B55E" />
    </symbol>
</svg>