<svg display="none" xmlns="http://www.w3.org/2000/svg" aria-hidden="true"
    style="position: absolute; width: 0; height: 0; overflow: hidden;" version="1.1">
    <symbol id="en" viewBox="24 24">
        <path
            d="M12 24C18.6274 24 24 18.6274 24 12C24 5.37258 18.6274 0 12 0C5.37258 0 0 5.37258 0 12C0 18.6274 5.37258 24 12 24Z"
            fill="#F0F0F0" />
        <path d="M2.48032 4.69434C1.53771 5.92073 0.826945 7.33424 0.413086 8.86982H6.6558L2.48032 4.69434Z"
            fill="#0052B4" />
        <path d="M23.5864 8.86977C23.1725 7.33424 22.4617 5.92073 21.5191 4.69434L17.3438 8.86977H23.5864Z"
            fill="#0052B4" />
        <path d="M0.413086 15.1309C0.826992 16.6664 1.53776 18.0799 2.48032 19.3063L6.65566 15.1309H0.413086Z"
            fill="#0052B4" />
        <path d="M19.3053 2.48134C18.0789 1.53873 16.6655 0.827969 15.1299 0.414062V6.65673L19.3053 2.48134Z"
            fill="#0052B4" />
        <path d="M4.69434 21.5191C5.92073 22.4617 7.33424 23.1725 8.86977 23.5864V17.3438L4.69434 21.5191Z"
            fill="#0052B4" />
        <path d="M8.86973 0.414062C7.33419 0.827969 5.92068 1.53873 4.69434 2.4813L8.86973 6.65669V0.414062Z"
            fill="#0052B4" />
        <path d="M15.1299 23.5864C16.6654 23.1725 18.0789 22.4617 19.3053 21.5191L15.1299 17.3438V23.5864Z"
            fill="#0052B4" />
        <path d="M17.3438 15.1309L21.5191 19.3063C22.4617 18.08 23.1725 16.6664 23.5864 15.1309H17.3438Z"
            fill="#0052B4" />
        <path
            d="M23.8984 10.4348H13.5653H13.5653V0.101578C13.0529 0.034875 12.5305 0 12 0C11.4694 0 10.9471 0.034875 10.4348 0.101578V10.4347V10.4347H0.101578C0.034875 10.9471 0 11.4695 0 12C0 12.5306 0.034875 13.0529 0.101578 13.5652H10.4347H10.4347V23.8984C10.9471 23.9651 11.4694 24 12 24C12.5305 24 13.0529 23.9652 13.5652 23.8984V13.5653V13.5653H23.8984C23.9651 13.0529 24 12.5306 24 12C24 11.4695 23.9651 10.9471 23.8984 10.4348Z"
            fill="#D80027" />
        <path
            d="M15.1299 15.1309L20.4847 20.4857C20.731 20.2395 20.9659 19.9821 21.1901 19.7153L16.6056 15.1309H15.1299V15.1309Z"
            fill="#D80027" />
        <path
            d="M8.86951 15.1309H8.86941L3.51465 20.4856C3.76084 20.7319 4.01823 20.9668 4.28504 21.191L8.86951 16.6064V15.1309Z"
            fill="#D80027" />
        <path
            d="M8.86976 8.86862V8.86853L3.51495 3.51367C3.26866 3.75986 3.03373 4.01725 2.80957 4.28406L7.39409 8.86858L8.86976 8.86862Z"
            fill="#D80027" />
        <path
            d="M15.1299 8.87078L20.4847 3.51588C20.2386 3.26959 19.9812 3.03466 19.7144 2.81055L15.1299 7.39506V8.87078Z"
            fill="#D80027" />
    </symbol>
    <symbol id="ar" viewBox="24 24">
        <path
            d="M12 24C18.6274 24 24 18.6274 24 12C24 5.37258 18.6274 0 12 0C5.37258 0 0 5.37258 0 12C0 18.6274 5.37258 24 12 24Z"
            fill="#F0F0F0" />
        <path
            d="M6.78223 16.1738L7.82571 23.2536C9.12565 23.736 10.5318 23.9999 11.9996 23.9999C17.1591 23.9999 21.5577 20.7434 23.2532 16.1738H6.78223Z"
            fill="black" />
        <path
            d="M6.78223 7.82611L7.82571 0.746297C9.12565 0.263906 10.5318 0 11.9996 0C17.1591 0 21.5577 3.2565 23.2532 7.82611H6.78223Z"
            fill="#6DA544" />
        <path d="M0 12.0007C0 17.1603 3.25655 21.5588 7.82611 23.2543V0.74707C3.25655 2.44259 0 6.8411 0 12.0007Z"
            fill="#A2001D" />
    </symbol>
    <symbol id="ru" viewBox="24 24">
        <path
            d="M12 24C18.6274 24 24 18.6274 24 12C24 5.37258 18.6274 0 12 0C5.37258 0 0 5.37258 0 12C0 18.6274 5.37258 24 12 24Z"
            fill="#F0F0F0" />
        <path
            d="M23.2536 16.174C23.736 14.874 24 13.4679 24 12.0001C24 10.5322 23.736 9.12616 23.2536 7.82617H0.746391C0.264047 9.12616 0 10.5322 0 12.0001C0 13.4679 0.264047 14.874 0.746391 16.174L12 17.2174L23.2536 16.174Z"
            fill="#0052B4" />
        <path
            d="M11.9997 23.9999C17.1593 23.9999 21.5578 20.7434 23.2533 16.1738H0.746094C2.44161 20.7434 6.84012 23.9999 11.9997 23.9999Z"
            fill="#D80027" />
    </symbol>
    <symbol id="telegram" viewBox="0 0 20 20">
        <path
            d="M10 0C15.5228 0 20 4.47715 20 10C20 15.5228 15.5228 20 10 20C4.47715 20 0 15.5228 0 10C0 4.47715 4.47715 0 10 0ZM14.0889 6.01953C13.7128 6.02618 13.1355 6.22677 10.3584 7.38184C9.38574 7.78639 7.44143 8.62349 4.52637 9.89355C4.05334 10.0817 3.80595 10.2663 3.7832 10.4463C3.73985 10.792 4.23712 10.9 4.86328 11.1035C5.37386 11.2695 6.0609 11.464 6.41797 11.4717C6.74179 11.4787 7.10292 11.3443 7.50195 11.0703C10.2257 9.23172 11.6324 8.30227 11.7207 8.28223C11.7829 8.2681 11.8694 8.25087 11.9277 8.30273C11.9861 8.35471 11.9798 8.4531 11.9736 8.47949C11.9239 8.69074 9.36688 11.0172 9.21875 11.1709C8.65612 11.7553 8.01583 12.1131 9.00293 12.7637C9.85727 13.3266 10.3552 13.6857 11.2354 14.2627C11.7976 14.6313 12.2388 15.0681 12.8193 15.0146C13.0864 14.9899 13.3618 14.7389 13.502 13.9902C13.8332 12.2194 14.4852 8.38228 14.6357 6.80078C14.6555 6.59361 14.6543 6.27997 14.4766 6.13574C14.3568 6.03852 14.1716 6.01809 14.0889 6.01953Z" />
    </symbol>
    <symbol id="arrowBottom" viewBox="0 0 11 6">
        <path
            d="M5.20543 6.00307C5.30413 6.00364 5.40198 5.98472 5.49336 5.9474C5.58474 5.91007 5.66785 5.85508 5.73793 5.78557L10.2379 1.28557C10.3792 1.14434 10.4585 0.952795 10.4585 0.753069C10.4585 0.553342 10.3792 0.361796 10.2379 0.220569C10.0967 0.0793409 9.90515 -4.83747e-08 9.70543 -6.58354e-08C9.5057 -8.3296e-08 9.31416 0.0793409 9.17293 0.220569L5.20543 4.19557L1.23793 0.228068C1.09445 0.105198 0.909897 0.0409934 0.72114 0.0482843C0.532383 0.0555751 0.353328 0.133825 0.219757 0.267396C0.0861864 0.400967 0.00793833 0.580021 0.000647478 0.768778C-0.00664338 0.957535 0.0575599 1.14209 0.180429 1.28557L4.68043 5.78557C4.82012 5.92413 5.00867 6.00224 5.20543 6.00307Z" />
    </symbol>
    <symbol id="badgeVPN" viewBox="0 0 40 19">
        <path
            d="M20.9033 7.5459H18.7939V9.53427H20.8627C21.4736 9.53427 21.9971 9.18152 21.9971 8.5121C21.9971 7.84268 21.5393 7.5459 20.9033 7.5459Z"
            fill="#3DDC84" />
        <g filter="url(#filter0_i_0_1)">
            <path
                d="M39.5051 4.74039C39.0699 2.87795 37.1613 1.09578 35.1918 0.660544C33.9918 0.347559 22.2183 -0.0906191 20.0004 -0.0147664C17.7824 -0.0884098 6.00897 0.347559 4.80897 0.660544C2.83709 1.09578 0.930842 2.87795 0.495686 4.74039C0.157019 6.30658 -0.00896769 7.90159 0.000373298 9.49996C-0.00857218 11.0983 0.15741 12.6933 0.495686 14.2595C0.930842 16.122 2.83944 17.9034 4.80897 18.3394C6.00975 18.6524 17.7824 19.0905 20.0004 19.0147C22.2191 19.0883 33.9918 18.6531 35.1918 18.3394C37.1637 17.9041 39.0699 16.122 39.5051 14.2595C39.8437 12.6933 40.0097 11.0983 40.0004 9.49996C40.0093 7.9016 39.8433 6.30664 39.5051 4.74039ZM14.9879 7.18977L12.3215 12.7756C12.1712 13.09 11.9279 13.3568 11.6207 13.5439C11.3136 13.7311 10.9556 13.8306 10.5898 13.8306C10.2241 13.8306 9.86609 13.7311 9.55891 13.5439C9.25173 13.3568 9.00841 13.09 8.85819 12.7756L6.19178 7.18977C6.11006 7.01892 6.07506 6.83148 6.08998 6.6446C6.1049 6.45771 6.16926 6.27733 6.27719 6.11993C6.38511 5.96253 6.53316 5.83313 6.7078 5.74356C6.88245 5.65399 7.07812 5.6071 7.27694 5.60717C7.51014 5.60749 7.7381 5.67235 7.93254 5.79371C8.12698 5.91508 8.27933 6.08759 8.37069 6.28985L10.5808 11.1871H10.6051L12.8027 6.29206C12.8938 6.08944 13.046 5.91652 13.2405 5.79476C13.4349 5.673 13.663 5.60777 13.8965 5.60717C14.0958 5.60611 14.2923 5.65228 14.4677 5.74144C14.6432 5.8306 14.7921 5.95989 14.9008 6.11744C15.0094 6.275 15.0744 6.45576 15.0896 6.64312C15.1048 6.83049 15.0698 7.01846 14.9879 7.18977ZM21.1152 11.4574H18.7973V12.6733C18.7973 12.9802 18.668 13.2745 18.4378 13.4916C18.2077 13.7087 17.8955 13.8307 17.5699 13.8309C17.2442 13.8309 16.9318 13.709 16.7015 13.4919C16.4712 13.2748 16.3418 12.9803 16.3418 12.6733V6.50709C16.342 6.26835 16.4427 6.03946 16.6219 5.87071C16.8011 5.70196 17.044 5.60717 17.2972 5.60717H21.1152C23.0848 5.60717 24.4558 6.67574 24.4558 8.54407C24.4558 10.4124 23.0848 11.4574 21.1152 11.4574ZM33.9152 12.2763C33.9152 12.6066 33.8035 12.9282 33.5965 13.1946C33.3895 13.461 33.0979 13.6584 32.7639 13.7581C32.4299 13.8578 32.0709 13.8546 31.7389 13.7491C31.407 13.6435 31.1193 13.4411 30.9176 13.1711L27.7707 8.955H27.7457V12.6733C27.7457 12.9801 27.6164 13.2744 27.3862 13.4913C27.156 13.7083 26.8439 13.8302 26.5183 13.8302C26.1928 13.8302 25.8807 13.7083 25.6505 13.4913C25.4203 13.2744 25.291 12.9801 25.291 12.6733V7.16105C25.2912 6.83087 25.403 6.50934 25.6101 6.24304C25.8171 5.97674 26.1088 5.7795 26.4427 5.6799C26.7767 5.5803 27.1356 5.58351 27.4675 5.68907C27.7994 5.79463 28.087 5.99706 28.2887 6.26702L31.4348 10.4824H31.4598V6.76411C31.4678 6.46223 31.6007 6.17527 31.8301 5.96445C32.0595 5.75363 32.3671 5.63563 32.6875 5.63563C33.0078 5.63563 33.3155 5.75363 33.5449 5.96445C33.7742 6.17527 33.9071 6.46223 33.9152 6.76411V12.2763Z"
                fill="#3DDC84" />
        </g>
        <defs>
            <filter id="filter0_i_0_1" x="0" y="-4.02344" width="40.0007" height="23.0469" filterUnits="userSpaceOnUse"
                color-interpolation-filters="sRGB">
                <feFlood flood-opacity="0" result="BackgroundImageFix" />
                <feBlend mode="normal" in="SourceGraphic" in2="BackgroundImageFix" result="shape" />
                <feColorMatrix in="SourceAlpha" type="matrix" values="0 0 0 0 0 0 0 0 0 0 0 0 0 0 0 0 0 0 127 0"
                    result="hardAlpha" />
                <feOffset dy="-7" />
                <feGaussianBlur stdDeviation="2" />
                <feComposite in2="hardAlpha" operator="arithmetic" k2="-1" k3="1" />
                <feColorMatrix type="matrix" values="0 0 0 0 1 0 0 0 0 1 0 0 0 0 1 0 0 0 0.25 0" />
                <feBlend mode="normal" in2="shape" result="effect1_innerShadow_0_1" />
            </filter>
        </defs>
    </symbol>
    <symbol id="rocket" viewBox="0 0 22 22">
        <path
            d="M5.69972 20.6688C6.26648 20.0871 6.58132 19.3055 6.57605 18.4934C6.57079 17.6812 6.24585 16.9039 5.6716 16.3295C5.09734 15.7552 4.31999 15.4302 3.50784 15.4249C2.6957 15.4195 1.91414 15.7343 1.33238 16.301C0.473002 17.1604 0.134838 18.4924 0.0274156 19.6955C-0.0336168 20.3777 -0.0297322 21.0641 0.0390172 21.7456C0.0574938 21.9174 0.221634 21.9548 0.249994 21.9604H0.258158C0.327338 21.963 1.31433 21.9823 1.61855 21.0211C1.67282 20.8416 1.75301 20.6709 1.8566 20.5145C2.05554 20.221 2.51402 20.3976 2.46331 20.7487C2.41397 21.1146 2.48967 21.4865 2.67816 21.804C2.69903 21.8392 2.72994 21.8673 2.76693 21.8848C2.80391 21.9022 2.84528 21.9082 2.8857 21.902C3.91738 21.7464 4.9757 21.3928 5.69972 20.6688Z" />
        <path
            d="M15.7061 17.1638V14.5018C16.0252 14.2277 16.3373 13.9387 16.6423 13.6347L17.488 12.7904C20.6522 9.62446 22.1969 5.56734 21.9799 1.92273C21.9159 0.850664 21.1498 0.0841018 20.0773 0.0200784C16.4348 -0.196914 12.3747 1.34781 9.20961 4.51332L8.36527 5.35766C8.06106 5.66188 7.77202 5.97412 7.49816 6.29438H4.83625C4.27121 6.31586 3.77148 6.64199 3.48875 7.12023L1.92383 10.2509C1.88262 10.3633 1.85381 10.4799 1.83789 10.5986C1.84034 10.7996 1.9213 10.9918 2.06349 11.1339C2.20567 11.2761 2.39781 11.3571 2.59887 11.3595H4.57543C4.31762 12.2232 4.48949 13.0723 5.03863 13.6205L8.37859 16.9609C8.92688 17.5097 9.77594 17.6807 10.6396 17.4241V19.4007C10.6421 19.6018 10.723 19.7939 10.8652 19.9361C11.0074 20.0783 11.1995 20.1592 11.4006 20.1617C11.5192 20.1458 11.6358 20.1169 11.7482 20.0757L14.878 18.5108C15.358 18.2289 15.6833 17.7275 15.7061 17.1638ZM13.87 8.13C13.4286 7.68855 13.128 7.12612 13.0062 6.51383C12.8844 5.90153 12.9469 5.26687 13.1858 4.69011C13.4247 4.11334 13.8293 3.62037 14.3484 3.27354C14.8675 2.92671 15.4777 2.74158 16.102 2.74158C16.7263 2.74158 17.3366 2.92671 17.8556 3.27354C18.3747 3.62037 18.7793 4.11334 19.0182 4.69011C19.2571 5.26687 19.3196 5.90153 19.1979 6.51383C19.0761 7.12612 18.7755 7.68855 18.334 8.13C18.0409 8.42312 17.6929 8.65563 17.31 8.81427C16.927 8.97291 16.5165 9.05455 16.102 9.05455C15.6875 9.05455 15.277 8.97291 14.8941 8.81427C14.5111 8.65563 14.1631 8.42312 13.87 8.13Z" />
    </symbol>
    <symbol id="telegramDark" viewBox="0 0 40 40"> <!-- width="40" height="40" -->
        <path
            d="M20 40C31.0457 40 40 31.0457 40 20C40 8.9543 31.0457 0 20 0C8.9543 0 0 8.9543 0 20C0 31.0457 8.9543 40 20 40Z"
            fill="#3DDC84" />
        <path
            d="M39.9941 19.5373L31.1159 10.6738L16.6543 28.3012L27.0671 38.714C34.6248 35.8584 40 28.5574 40 20C40 19.8452 39.9976 19.691 39.9941 19.5373Z"
            fill="#18B55E" />
        <path
            d="M29.9777 10.431C30.7751 10.1199 31.5993 10.8175 31.4242 11.6552L27.8484 28.7475C27.6814 29.5488 26.74 29.9097 26.0801 29.4249L20.6821 25.4626L17.9306 28.2721C17.4471 28.765 16.6134 28.5643 16.406 27.9071L14.4209 21.6054L9.0996 20.0336C8.40062 19.8275 8.36022 18.8552 9.03765 18.5899L29.9777 10.431ZM27.3528 14.2236C27.5858 14.0175 27.3151 13.6539 27.0511 13.8182L15.5655 20.9414C15.3635 21.0666 15.2706 21.3131 15.3419 21.5407L16.9083 28.4188C16.9393 28.5239 17.0901 28.509 17.1036 28.4L17.4537 23.1582C17.4672 23.0289 17.5291 22.9104 17.6262 22.8243L27.3528 14.2236Z"
            fill="white" />
        <path
            d="M27.0513 13.8188C27.3153 13.6545 27.586 14.0181 27.353 14.2242L17.6264 22.8249C17.5295 22.911 17.4675 23.0296 17.454 23.1588L17.1039 28.4006C17.0904 28.5096 16.9396 28.5245 16.9086 28.4194L15.3422 21.5413C15.2708 21.3137 15.3638 21.0672 15.5658 20.942L27.0513 13.8188Z"
            fill="#9EC2E5" />
        <path
            d="M16.9649 28.4901C16.7117 28.3999 16.4976 28.1979 16.406 27.9069L14.4208 21.6052L9.0996 20.0335C8.40062 19.8274 8.36022 18.855 9.03765 18.5897L29.9776 10.4309C30.4921 10.2302 31.0187 10.4497 31.2787 10.8565C31.2301 10.7825 31.1723 10.7138 31.1076 10.6532L16.9016 22.2504V22.7582L16.8234 22.7016L16.9016 25.8989V28.4632C16.9218 28.4727 16.9433 28.4807 16.9648 28.4875V28.4901H16.9649Z"
            fill="#0D1B2A" />
        <path
            d="M31.4468 11.3685C31.4509 11.46 31.4442 11.557 31.4239 11.6554L27.8482 28.7476C27.6811 29.5489 26.7397 29.9099 26.0798 29.425L20.6818 25.4628L16.9014 22.7584V22.2507L31.1075 10.6533C31.1721 10.7139 31.23 10.7826 31.2785 10.8567C31.2879 10.8729 31.2973 10.8876 31.3068 10.9025C31.3148 10.9186 31.3243 10.9348 31.3324 10.9496C31.3404 10.9657 31.3486 10.9819 31.3553 10.9981C31.3633 11.0156 31.3701 11.0318 31.3768 11.0493C31.3822 11.0641 31.3889 11.0802 31.3943 11.0978C31.4118 11.1503 31.4253 11.2042 31.4347 11.2607C31.4401 11.2957 31.4442 11.3308 31.4468 11.3685Z"
            fill="#0D1B2A" />
        <path
            d="M20.6818 25.4631L17.9303 28.2725C17.9074 28.2954 17.8832 28.3183 17.8589 28.3386C17.8346 28.3588 17.8104 28.3763 17.7848 28.3938C17.7835 28.3951 17.7835 28.3951 17.7835 28.3951C17.7323 28.4288 17.6798 28.4571 17.6246 28.48C17.5963 28.4907 17.5693 28.5015 17.5411 28.5082C17.4239 28.5432 17.304 28.5527 17.1855 28.5406C17.1546 28.5379 17.1236 28.5325 17.0939 28.5271C17.0899 28.5271 17.0859 28.5258 17.0818 28.5245C17.0522 28.5164 17.0225 28.5083 16.9929 28.4989C16.9835 28.4962 16.9741 28.4935 16.9646 28.4881L16.9014 25.8996V22.7588L20.6818 25.4631Z"
            fill="#3C5D81" />
        <path
            d="M17.8592 28.3379C17.835 28.3581 17.8107 28.377 17.7852 28.3945V28.3931C17.8108 28.3756 17.835 28.3581 17.8592 28.3379Z"
            fill="#DADDE0" />
        <path
            d="M17.7845 28.3926V28.3939C17.7845 28.3939 17.7845 28.3926 17.7832 28.3939C17.7832 28.3939 17.7832 28.3939 17.7845 28.3926Z"
            fill="#DADDE0" />
        <path
            d="M17.625 28.4794C17.6802 28.4565 17.7327 28.4282 17.7839 28.3945C17.7327 28.4281 17.6788 28.4564 17.625 28.4794Z"
            fill="#DADDE0" />
        <path
            d="M17.1855 28.5402C17.3041 28.5523 17.4239 28.5428 17.5411 28.5078C17.4562 28.5348 17.3687 28.5469 17.2812 28.5469C17.2542 28.5469 17.2273 28.5455 17.2017 28.5428C17.1963 28.5429 17.1909 28.5429 17.1855 28.5402Z"
            fill="#DADDE0" />
        <path
            d="M17.1857 28.5404C17.1911 28.543 17.1965 28.543 17.2019 28.543C17.1736 28.5417 17.148 28.5376 17.1211 28.5322C17.1426 28.5364 17.1641 28.539 17.1857 28.5404Z"
            fill="white" />
        <path
            d="M17.1853 28.5398C17.1637 28.5385 17.1422 28.5357 17.1207 28.5318C17.1113 28.5304 17.1019 28.5291 17.0938 28.5264C17.1234 28.5318 17.1543 28.5371 17.1853 28.5398Z"
            fill="#DADDE0" />
        <path
            d="M16.9932 28.498C17.0228 28.5075 17.0525 28.5155 17.0821 28.5237C17.07 28.521 17.0579 28.5183 17.0457 28.5156C17.0404 28.5143 17.035 28.513 17.0309 28.5102C17.0187 28.5075 17.0053 28.5034 16.9932 28.498Z"
            fill="#DADDE0" />
        <path
            d="M17.0461 28.5166C17.0583 28.5193 17.0704 28.522 17.0825 28.5246C17.0704 28.5233 17.0583 28.5207 17.0461 28.5166Z"
            fill="white" />
        <path
            d="M16.9936 28.4989C17.0057 28.5043 17.0192 28.5084 17.0313 28.511C17.0111 28.507 16.9909 28.5002 16.9707 28.4922C16.9787 28.4948 16.9855 28.4976 16.9936 28.4989Z"
            fill="white" />
        <path
            d="M16.9931 28.499C16.9851 28.4977 16.9783 28.4949 16.9702 28.4923C16.9689 28.4936 16.9662 28.4923 16.9648 28.4909V28.4883C16.9742 28.4936 16.9837 28.4963 16.9931 28.499Z"
            fill="#DADDE0" />
        <path d="M16.9014 25.8994L16.9646 28.4879C16.9431 28.4812 16.9215 28.4731 16.9014 28.4637V25.8994Z"
            fill="#D1D1D1" />
        <path d="M16.9014 22.7587V25.8995L16.8232 22.7021L16.9014 22.7587Z" fill="#DADDE0" />
        <path
            d="M27.353 14.2241L17.6264 22.8248C17.5295 22.911 17.4675 23.0295 17.454 23.1588L17.1045 28.401C17.0911 28.5101 16.9402 28.5249 16.9078 28.4198L15.3422 21.5413C15.2708 21.3137 15.3638 21.0672 15.5658 20.942L27.0514 13.8188C27.3153 13.6544 27.5861 14.0181 27.353 14.2241Z"
            fill="#213B57" />
    </symbol>
    <symbol id="rocket3D" viewBox="0 0 76 76">
        <g opacity="0.8" filter="url(#filter0_f_2006_42)">
            <circle cx="38" cy="38" r="14" fill="#3DDC84" />
        </g>
        <path fill-rule="evenodd" clip-rule="evenodd"
            d="M27.777 41.9033C25.6071 42.0167 21.8982 43.2478 22.2563 45.8193C23.1622 52.3441 16.0291 54.4389 25.5219 54.4389C30.2973 54.4389 33.3073 52.3441 33.7623 47.9474L32.4731 42.9625L27.777 41.9033Z"
            fill="url(#paint0_linear_2006_42)" />
        <path fill-rule="evenodd" clip-rule="evenodd"
            d="M29.4842 43.6289C28.4776 43.6817 26.7549 44.2523 26.9194 45.4482C27.3414 48.479 24.0275 49.4502 28.437 49.4502C30.6553 49.4502 32.0548 48.479 32.2658 46.435L31.778 43.9728L29.4842 43.6289Z"
            fill="#0D1B2A" />
        <path fill-rule="evenodd" clip-rule="evenodd"
            d="M31.6626 48.1395C30.3734 50.4864 27.8163 51.6178 24.3069 51.6178C22.9325 51.6178 21.9066 51.5729 21.1556 51.4791C20.1412 53.6364 19.6476 54.4395 25.5225 54.4395C30.2979 54.4395 33.3079 52.3447 33.7629 47.948L32.6788 46.8537L32.3091 46.4805C32.2762 46.6075 32.2413 46.7306 32.2026 46.8537C32.1039 47.3559 31.92 47.7839 31.6626 48.1395Z"
            fill="white" fill-opacity="0.13" />
        <path fill-rule="evenodd" clip-rule="evenodd"
            d="M31.2556 45.417C30.7814 46.8826 29.4883 47.5841 27.6029 47.5841C27.2254 47.5841 26.906 47.5782 26.635 47.5626C26.0794 48.9539 25.2839 49.4503 28.4372 49.4503C29.9083 49.4503 31.0194 49.0243 31.6621 48.1391C31.9195 47.7835 32.1034 47.3555 32.2021 46.8533C32.2292 46.7185 32.2505 46.5797 32.266 46.4351L31.2556 45.417Z"
            fill="#1B314A" />
        <path fill-rule="evenodd" clip-rule="evenodd"
            d="M30.4012 38.3281L27.5712 39.9891C27.0021 40.3233 27.0969 41.2182 27.5499 41.6775L27.7764 41.9042L29.4837 43.6296L32.2653 46.4357L33.7616 47.9482L34.5417 48.7357C34.9966 49.193 35.8832 49.2868 36.2142 48.7142L37.8576 45.8554L35.9973 38.6174L30.4012 38.3281Z"
            fill="#0D1B2A" />
        <path fill-rule="evenodd" clip-rule="evenodd"
            d="M53.3338 21.6496C51.973 21.3975 49.4934 21.6613 46.4736 22.6931L47.8325 27.7346L53.3513 29.6184C54.3772 26.5505 54.6347 24.0375 54.3753 22.6736C54.2242 21.8782 54.1274 21.7961 53.3338 21.6496Z"
            fill="#0D1B2A" />
        <path fill-rule="evenodd" clip-rule="evenodd"
            d="M37.7867 27.2614C34.0081 25.8838 31.0813 26.5111 28.1139 29.2234C26.7376 30.56 24.4476 32.3167 26.3388 34.2259L28.6907 36.6001L35.4502 33.153L37.7867 27.2614Z"
            fill="#24AE61" />
        <path fill-rule="evenodd" clip-rule="evenodd"
            d="M48.8221 38.4004L42.4691 41.0521L39.5713 47.5846L41.9232 49.9589C43.8144 51.868 45.5546 49.5563 46.8786 48.167C48.251 46.635 50.6959 43.7175 48.8221 38.4004Z"
            fill="#24AE61" />
        <path fill-rule="evenodd" clip-rule="evenodd"
            d="M53.3515 29.6184C53.1924 30.0976 53.0128 30.5897 52.8154 31.0921C51.9168 33.3684 50.6145 35.8756 48.8219 38.3999C46.5705 41.5696 43.5466 44.7685 39.5709 47.5848L39.1045 47.1138L37.8582 45.8554L34.4929 42.4581L34.1296 42.0918L33.7663 41.7247L30.4017 38.3281L28.6904 36.6002C31.4794 32.587 34.6486 29.5343 37.7865 27.2622C40.8369 25.0557 43.8587 23.5861 46.4735 22.6934L53.3515 29.6184Z"
            fill="url(#paint1_linear_2006_42)" />
        <path fill-rule="evenodd" clip-rule="evenodd"
            d="M46.0749 30.0743C44.2515 28.2336 41.2588 28.2726 39.3889 30.1603C37.519 32.048 37.4803 35.069 39.3037 36.9097C41.1272 38.7505 44.1198 38.7114 45.9897 36.8237C47.8597 34.9361 47.8984 31.9151 46.0749 30.0743Z"
            fill="#0D1B2A" />
        <path fill-rule="evenodd" clip-rule="evenodd"
            d="M52.9062 21.5908C53.0398 23.0212 52.7398 25.3251 51.8203 28.0745L53.3515 29.6182C54.3774 26.5503 54.6349 24.0373 54.3755 22.6734C54.2245 21.878 54.1277 21.796 53.3341 21.6494C53.2005 21.624 53.0592 21.6045 52.9062 21.5908Z"
            fill="#1B314A" />
        <path fill-rule="evenodd" clip-rule="evenodd"
            d="M51.2823 29.5495C50.3841 31.826 49.0834 34.3312 47.289 36.8578C46.5127 37.9502 45.6455 39.0464 44.6777 40.129C43.706 41.2174 42.6355 42.2902 41.4566 43.3338C40.4055 44.2639 39.2692 45.1706 38.042 46.0402L39.1047 47.113L39.5713 47.5839C43.5472 44.768 46.5708 41.5692 48.8221 38.3996C50.6145 35.8749 51.9173 33.3678 52.8154 31.0913C53.0129 30.5891 53.1929 30.0967 53.3516 29.6179L51.8205 28.0742C51.7198 28.3732 51.6133 28.6761 51.4972 28.9848C51.4294 29.1704 51.3578 29.36 51.2823 29.5495Z"
            fill="white" fill-opacity="0.13" />
        <path fill-rule="evenodd" clip-rule="evenodd"
            d="M35.9936 43.9727L34.3502 46.8315C34.0192 47.404 33.1326 47.3103 32.6777 46.853L33.7617 47.9473L34.5418 48.7348C34.9967 49.192 35.8833 49.2858 36.2143 48.7133L37.8577 45.8544L35.9936 43.9727Z"
            fill="#1B314A" />
        <path fill-rule="evenodd" clip-rule="evenodd"
            d="M44.3472 28.9795C45.8261 30.834 45.6809 33.5911 43.931 35.3576C42.578 36.7236 40.6345 37.1202 38.9736 36.5379C39.0762 36.6669 39.1865 36.79 39.3047 36.9092C41.1281 38.7499 44.1208 38.7109 45.9907 36.8232C47.8606 34.9355 47.8993 31.9145 46.0759 30.0738C45.5725 29.5657 44.9802 29.2003 44.3472 28.9795Z"
            fill="#1B314A" />
        <path fill-rule="evenodd" clip-rule="evenodd"
            d="M48.8223 38.4004C48.5107 38.8401 48.1835 39.2798 47.8428 39.7175C48.2842 43.4439 46.4201 45.656 45.2858 46.9222C44.1979 48.0615 42.8332 49.8221 41.333 49.3629L41.9234 49.9589C43.8146 51.868 45.5548 49.5563 46.8788 48.167C48.2512 46.635 50.696 43.7175 48.8223 38.4004Z"
            fill="#0C8743" />
        <path fill-rule="evenodd" clip-rule="evenodd"
            d="M35.3923 26.6426C32.5681 28.7804 29.7438 31.5591 27.2139 35.1097L28.6908 36.6006C31.4802 32.5869 34.649 29.5346 37.7868 27.262C36.9506 26.9572 36.155 26.7501 35.3923 26.6426Z"
            fill="#0C8743" />
        <path
            d="M37.1347 39.7936L34.4967 42.4553C34.4953 42.4567 34.4946 42.4574 34.4932 42.4581L34.1299 42.0917L33.7666 41.7246L36.4019 39.0663C36.6027 38.8633 36.9297 38.8619 37.1319 39.0629C37.3341 39.2646 37.3355 39.5913 37.1347 39.7936Z"
            fill="#12A654" />
        <defs>
            <filter id="filter0_f_2006_42" x="0" y="0" width="76" height="76" filterUnits="userSpaceOnUse"
                color-interpolation-filters="sRGB">
                <feFlood flood-opacity="0" result="BackgroundImageFix" />
                <feBlend mode="normal" in="SourceGraphic" in2="BackgroundImageFix" result="shape" />
                <feGaussianBlur stdDeviation="12" result="effect1_foregroundBlur_2006_42" />
            </filter>
            <linearGradient id="paint0_linear_2006_42" x1="27.1463" y1="41.9033" x2="27.1463" y2="54.4389"
                gradientUnits="userSpaceOnUse">
                <stop stop-color="#3DDC84" />
                <stop offset="1" stop-color="#1FC067" />
            </linearGradient>
            <linearGradient id="paint1_linear_2006_42" x1="41.021" y1="22.6934" x2="41.021" y2="47.5848"
                gradientUnits="userSpaceOnUse">
                <stop stop-color="#3DDC84" />
                <stop offset="1" stop-color="#1FC067" />
            </linearGradient>
        </defs>
    </symbol>
    <symbol id="noAds" viewBox="0 0 86 86">
        <g opacity="0.8" filter="url(#filter0_f_2006_44)">
            <circle cx="43" cy="43" r="19" fill="#3DDC84" />
        </g>
        <path
            d="M54.25 36.75C54.0858 36.7499 53.9232 36.7822 53.7715 36.845C53.6198 36.9077 53.482 36.9998 53.3659 37.1159C53.2498 37.232 53.1577 37.3698 53.095 37.5215C53.0322 37.6732 52.9999 37.8358 53 38V48C52.9999 48.1642 53.0322 48.3268 53.095 48.4785C53.1577 48.6302 53.2498 48.768 53.3659 48.8841C53.482 49.0002 53.6198 49.0923 53.7715 49.155C53.9232 49.2178 54.0858 49.2501 54.25 49.25C55.9076 49.25 57.4973 48.5915 58.6694 47.4194C59.8415 46.2473 60.5 44.6576 60.5 43C60.5 41.3424 59.8415 39.7527 58.6694 38.5806C57.4973 37.4085 55.9076 36.75 54.25 36.75Z"
            fill="#0D1B2A" />
        <path
            d="M35.5 56.75C35.3358 56.7501 35.1732 56.7178 35.0215 56.655C34.8698 56.5923 34.732 56.5002 34.6159 56.3841C34.4998 56.268 34.4077 56.1302 34.345 55.9785C34.2822 55.8268 34.2499 55.6642 34.25 55.5V48C34.25 47.6685 34.3817 47.3505 34.6161 47.1161C34.8505 46.8817 35.1685 46.75 35.5 46.75C35.8315 46.75 36.1495 46.8817 36.3839 47.1161C36.6183 47.3505 36.75 47.6685 36.75 48V55.5C36.7501 55.6642 36.7178 55.8268 36.655 55.9785C36.5923 56.1302 36.5002 56.268 36.3841 56.3841C36.268 56.5002 36.1302 56.5923 35.9785 56.655C35.8268 56.7178 35.6642 56.7501 35.5 56.75Z"
            fill="#3DDC84" />
        <path
            d="M31.75 39.25H29.25C28.2554 39.25 27.3016 39.6451 26.5983 40.3483C25.8951 41.0516 25.5 42.0054 25.5 43C25.5 43.9946 25.8951 44.9484 26.5983 45.6517C27.3016 46.3549 28.2554 46.75 29.25 46.75H31.75C31.9142 46.7501 32.0768 46.7178 32.2285 46.655C32.3802 46.5923 32.518 46.5002 32.6341 46.3841C32.7502 46.268 32.8423 46.1302 32.905 45.9785C32.9678 45.8268 33.0001 45.6642 33 45.5V40.5C33.0001 40.3358 32.9678 40.1732 32.905 40.0215C32.8423 39.8698 32.7502 39.732 32.6341 39.6159C32.518 39.4998 32.3802 39.4077 32.2285 39.345C32.0768 39.2822 31.9142 39.2499 31.75 39.25Z"
            fill="#3DDC84" />
        <path
            d="M39.25 36.75H31.75C31.0596 36.75 30.5 37.3096 30.5 38V48C30.5 48.6904 31.0596 49.25 31.75 49.25H39.25C39.9404 49.25 40.5 48.6904 40.5 48V38C40.5 37.3096 39.9404 36.75 39.25 36.75Z"
            fill="#0D1B2A" />
        <path
            d="M54.9067 29.4361C54.7256 29.3239 54.5188 29.2599 54.306 29.2503C54.0931 29.2407 53.8814 29.2857 53.6909 29.3812L38.6909 36.8812C38.4833 36.9851 38.3087 37.1447 38.1867 37.3422C38.0647 37.5397 38 37.7672 38 37.9994V47.9994C38 48.2315 38.0647 48.4591 38.1867 48.6566C38.3087 48.854 38.4833 49.0137 38.6909 49.1175L53.6909 56.6175C53.8815 56.7127 54.0933 56.7576 54.3061 56.748C54.5189 56.7383 54.7258 56.6745 54.907 56.5625C55.0882 56.4505 55.2378 56.294 55.3416 56.108C55.4454 55.9219 55.4999 55.7124 55.5 55.4994V30.4994C55.4999 30.2863 55.4453 30.0768 55.3415 29.8907C55.2377 29.7046 55.088 29.5481 54.9067 29.4361Z"
            fill="#3DDC84" />
        <path
            d="M59.2506 60.4997C59.0865 60.4999 58.9239 60.4676 58.7722 60.4047C58.6206 60.3419 58.4828 60.2497 58.3669 60.1334L25.8669 27.6334C25.636 27.3983 25.5073 27.0815 25.5088 26.752C25.5103 26.4225 25.6419 26.1069 25.8749 25.8739C26.1079 25.6409 26.4235 25.5093 26.753 25.5078C27.0825 25.5063 27.3993 25.635 27.6344 25.8659L60.1344 58.3659C60.3092 58.5407 60.4282 58.7634 60.4764 59.0059C60.5246 59.2483 60.4998 59.4996 60.4052 59.728C60.3107 59.9564 60.1505 60.1516 59.945 60.2889C59.7395 60.4263 59.4978 60.4996 59.2506 60.4997Z"
            fill="#0D1B2A" />
        <defs>
            <filter id="filter0_f_2006_44" x="0" y="0" width="86" height="86" filterUnits="userSpaceOnUse"
                color-interpolation-filters="sRGB">
                <feFlood flood-opacity="0" result="BackgroundImageFix" />
                <feBlend mode="normal" in="SourceGraphic" in2="BackgroundImageFix" result="shape" />
                <feGaussianBlur stdDeviation="12" result="effect1_foregroundBlur_2006_44" />
            </filter>
        </defs>
    </symbol>
    <symbol id="globalAccess" viewBox="0 0 86 86">
        <g opacity="0.8" filter="url(#filter0_f_2006_45)">
            <circle cx="43" cy="43" r="19" fill="#3DDC84" />
        </g>
        <g clip-path="url(#clip0_2006_45)">
            <path
                d="M43 23C42.572 23 42.147 23.0134 41.7256 23.0399L25.0745 34.1201C23.7466 36.7955 23 39.8106 23 43C23 48.8497 25.5113 54.1128 29.5148 57.77C29.5148 57.77 36.0327 62.2533 43 62.2533C52.3223 62.2533 62.0197 54.0457 62.0197 43C62.0197 29.9032 49.5588 24.1002 49.5588 24.1002C47.5041 23.3873 45.2973 23 43 23Z"
                fill="#0D1B2A" />
            <path
                d="M62.804 40.1902L57.9554 39.6367C57.9554 50.6824 49.0011 59.6367 37.9554 59.6367C34.9388 59.6367 32.0796 58.9657 29.5146 57.7697C31.0675 59.1883 32.8448 60.3652 34.7871 61.2411L35.9648 61.1755L37.4582 62.2217C39.2179 62.7281 41.0772 62.9997 43 62.9997C54.0457 62.9997 63 54.0454 63 42.9997C63 42.046 62.9332 41.108 62.804 40.1902Z"
                fill="#040B12" />
            <path
                d="M51.4622 24.872C50.8445 24.5832 50.2094 24.3251 49.5591 24.0996L47.7903 25.6552C47.3058 26.0695 47.19 26.784 47.5463 27.3374C47.8889 27.8695 48.5815 28.0551 49.1643 27.8089L49.5223 27.6577C49.9619 27.472 50.4769 27.5392 50.8333 27.8566C51.4632 28.4177 51.3534 29.4094 50.6467 29.8276L46.4929 32.2855C45.6815 32.7655 45.1662 33.6383 45.1831 34.5809C45.2006 35.5599 45.7492 36.3573 46.8517 36.4589C49.1331 36.6691 48.8047 34.2519 50.1447 34.2519H54.7404C55.44 34.2519 56.0466 34.7749 56.1072 35.4719C56.1763 36.2659 55.5522 36.9318 54.7725 36.9318H49.2615C47.118 36.9318 45.2488 38.5836 45.1844 40.7262C45.1179 42.9432 46.8953 44.7613 49.0974 44.7613H49.6579C50.7268 44.7613 51.5933 45.6279 51.5933 46.6968V53.5748C51.5933 53.779 51.6292 53.9803 51.6966 54.1682L53.3152 54.1334L58.3548 45.9377L59.0025 41.2406L60.6455 38.8618C60.6456 38.8619 57.4696 27.68 51.4622 24.872Z"
                fill="#3DDC84" />
            <path
                d="M62.8041 40.1909C61.8492 33.3912 57.4605 27.6836 51.4619 24.873C55.4483 28.5291 57.9555 33.802 57.9555 39.6374C57.9555 45.3646 55.5543 50.5232 51.6964 54.1692C51.9328 54.8449 52.6035 55.3141 53.3829 55.2027C53.88 55.1317 54.302 54.7973 54.5496 54.3605L59.323 45.9437C59.7456 45.1986 59.8544 44.316 59.6256 43.4905L59.2555 42.1556C59.1339 41.717 59.4926 41.2937 59.9453 41.3417L60.2086 41.3696C60.9171 41.4448 61.6249 41.2211 62.1616 40.7525L62.8041 40.1909Z"
                fill="#18B55E" />
            <path
                d="M42.8133 24.7683L41.7256 23.04C34.4103 23.4989 28.1669 27.8859 25.0745 34.1202L26.3348 42.8268C26.4762 43.804 27.0574 44.6627 27.9122 45.1571C28.4039 45.4415 28.6191 46.0389 28.4217 46.5715L27.9913 47.7324C27.6042 48.7769 27.9309 49.9519 28.8017 50.6466L29.9509 51.5634C30.3439 51.877 30.6583 52.2782 30.8688 52.7349L33.8548 59.2146L35.6001 60.4462L36.8325 59.6059L36.3856 57.7381C36.1334 56.6844 36.2685 55.5753 36.7661 54.6129L38.7042 50.8647C39.2381 49.8323 38.7481 48.5656 37.6584 48.1612L36.0661 47.5703C35.5603 47.3826 35.2248 46.9 35.2248 46.3607V46.2364C35.2248 45.5237 34.647 44.9461 33.9345 44.9461H31.1664C30.4881 44.9461 29.8217 44.7679 29.2339 44.4292L28.5587 44.0402C28.0458 43.7446 27.6969 43.2301 27.6122 42.6443L27.5691 42.3458C27.4605 41.595 27.8006 40.85 28.439 40.4401L28.8358 40.1854C29.3165 39.8768 29.9429 39.9209 30.3756 40.2939L30.7292 40.5988C31.1599 40.97 31.8309 40.75 31.9581 40.1958L32.3352 38.5523C32.5363 37.6767 33.1781 36.9686 34.03 36.6829L36.8138 35.7493C37.6088 35.4826 37.9423 34.5405 37.4921 33.8332L36.2267 31.8446C35.8789 31.2982 35.18 31.0943 34.5929 31.3679L33.5478 31.855C33.0073 32.107 32.3338 31.9989 31.9689 31.5271C31.4982 30.9186 31.6874 30.0442 32.3514 29.6796L34.9779 28.2376C35.8492 27.7593 36.9411 28.0186 37.5042 28.8375L37.7483 29.1925C38.1092 29.7177 38.7056 30.0314 39.3429 30.0314H40.5248C41.3083 30.0314 42.0145 29.559 42.3136 28.835L43.017 27.1325C43.3369 26.3581 43.2609 25.4766 42.8133 24.7683Z"
                fill="#3DDC84" />
            <path
                d="M34.787 61.2418C35.647 61.6298 36.5383 61.9577 37.4579 62.2224L36.8321 59.6062C35.8156 59.5496 34.8247 59.418 33.8545 59.2148L34.787 61.2418Z"
                fill="#18B55E" />
        </g>
        <defs>
            <filter id="filter0_f_2006_45" x="0" y="0" width="86" height="86" filterUnits="userSpaceOnUse"
                color-interpolation-filters="sRGB">
                <feFlood flood-opacity="0" result="BackgroundImageFix" />
                <feBlend mode="normal" in="SourceGraphic" in2="BackgroundImageFix" result="shape" />
                <feGaussianBlur stdDeviation="12" result="effect1_foregroundBlur_2006_45" />
            </filter>
            <clipPath id="clip0_2006_45">
                <rect width="40" height="40" fill="white" transform="translate(23 23)" />
            </clipPath>
        </defs>
    </symbol>
    <symbol id="unlimited" viewBox="0 0 86 86">
        <g opacity="0.8" filter="url(#filter0_f_2006_46)">
            <circle cx="43" cy="43" r="19" fill="#3DDC84" />
        </g>
        <g clip-path="url(#clip0_2006_46)">
            <path
                d="M43 63C54.0457 63 63 54.0457 63 43C63 31.9543 54.0457 23 43 23C31.9543 23 23 31.9543 23 43C23 54.0457 31.9543 63 43 63Z"
                fill="#3DDC84" />
            <path
                d="M62.9634 44.2234L56.7126 37.9727L41.8618 41.9245L33.7033 38.2339L29.2256 47.958L44.2299 62.9623C54.2981 62.3516 62.3556 54.2923 62.9634 44.2234Z"
                fill="#18B55E" />
            <path
                d="M42.9687 39.8168C42.5129 39.4576 41.9838 39.0609 41.4062 38.6641C38.728 36.8238 36.342 35.8906 34.3143 35.8906C30.3942 35.8906 27.2051 39.0798 27.2051 42.9999C27.2051 46.92 30.3943 50.1092 34.3143 50.1092C36.7766 50.1092 39.3167 48.8152 41.2734 47.4891C41.6423 47.239 41.7662 46.7737 42.0892 46.5298C42.3447 46.3369 42.8088 46.3626 43.0306 46.183C43.064 46.2094 43.0986 46.1191 43.1328 46.1459V39.8316C43.0772 39.8759 43.0222 39.7734 42.9687 39.8168ZM38.9459 43.9347C38.4188 44.3001 37.6505 44.095 37.1663 44.3578C36.0476 44.9651 35.0645 45.2896 34.3143 45.2896C33.0518 45.2896 32.0246 44.2625 32.0246 42.9999C32.0246 41.7374 33.0517 40.7102 34.3142 40.7102C35.5859 40.7102 37.5441 41.7984 39.2318 43.0229C39.0575 43.1522 39.1342 43.8041 38.9459 43.9347Z"
                fill="#0D1B2A" />
            <path
                d="M43.0307 46.183C43.4866 46.5423 44.0155 46.9389 44.5932 47.3358C47.2714 49.1761 49.6575 50.1092 51.6852 50.1092C55.6052 50.1092 58.7944 46.92 58.7944 43C58.7944 41.101 58.0548 39.3157 56.7121 37.9729C55.3693 36.6301 53.584 35.8906 51.6851 35.8906C49.1265 35.8906 46.4838 37.2879 44.4991 38.6666C44.2146 38.8641 44.4402 39.4734 44.185 39.6661C43.9298 39.8588 43.1936 39.6348 42.972 39.8142L42.9688 39.8168L43.0307 46.183ZM48.9497 41.5795C50.0201 41.0125 50.961 40.7103 51.685 40.7103C52.2966 40.7103 52.8716 40.9484 53.3041 41.3809C53.7365 41.8134 53.9747 42.3884 53.9747 43C53.9747 44.2626 52.9476 45.2897 51.6851 45.2897C50.4134 45.2897 48.4552 44.2015 46.7675 42.977L46.9592 41.6345L48.9497 41.5795Z"
                fill="#0D1B2A" />
            <path
                d="M47.3123 42.5865C47.882 42.1917 48.4311 41.8547 48.9498 41.58L44.4991 38.667C43.9288 39.0631 43.4128 39.4577 42.9688 39.8172L46.7675 42.9775C46.942 42.8481 47.124 42.7171 47.3123 42.5865Z"
                fill="#020B15" />
            <path
                d="M38.6879 43.4144C38.1608 43.7798 37.6512 44.0955 37.167 44.3584L41.2742 47.4896C41.935 47.0418 42.5292 46.5902 43.0314 46.1837L39.2327 43.0234C39.0583 43.1527 38.8763 43.2838 38.6879 43.4144Z"
                fill="#020B15" />
        </g>
        <defs>
            <filter id="filter0_f_2006_46" x="0" y="0" width="86" height="86" filterUnits="userSpaceOnUse"
                color-interpolation-filters="sRGB">
                <feFlood flood-opacity="0" result="BackgroundImageFix" />
                <feBlend mode="normal" in="SourceGraphic" in2="BackgroundImageFix" result="shape" />
                <feGaussianBlur stdDeviation="12" result="effect1_foregroundBlur_2006_46" />
            </filter>
            <clipPath id="clip0_2006_46">
                <rect width="40" height="40" fill="white" transform="translate(23 23)" />
            </clipPath>
        </defs>
    </symbol>
    <symbol id="email" viewBox="0 0 22 17">
        <path fill-rule="evenodd" clip-rule="evenodd"
            d="M1.73269 0.960281L8.21644 7.44684C9.63056 8.85825 11.9422 8.85947 13.3575 7.44684L19.8412 0.960281C19.9065 0.894984 19.897 0.787453 19.8212 0.734625C19.1599 0.273422 18.3553 0 17.4886 0H4.08534C3.21858 0 2.41397 0.273469 1.75266 0.734625C1.67691 0.787453 1.66739 0.894984 1.73269 0.960281ZM0 4.0853C0 3.40373 0.168984 2.75977 0.466641 2.19375C0.513187 2.1052 0.631172 2.0873 0.701906 2.15803L7.10358 8.5597C9.13078 10.5899 12.4419 10.591 14.4704 8.5597L20.872 2.15803C20.9428 2.0873 21.0608 2.1052 21.1073 2.19375C21.4049 2.75977 21.5739 3.40378 21.5739 4.0853V12.6136C21.5739 14.868 19.7401 16.6989 17.4886 16.6989H4.08534C1.83384 16.6989 0 14.868 0 12.6136V4.0853Z"
            fill="#3DDC84" />
    </symbol>
</svg>