<svg width="268" height="268" viewBox="0 0 268 268" fill="none" xmlns="http://www.w3.org/2000/svg">
<path d="M256.506 171.098C251.634 187.185 243.642 202.156 232.984 215.155C222.327 228.154 209.214 238.926 194.393 246.857C179.572 254.788 163.335 259.722 146.607 261.378C129.88 263.033 112.99 261.378 96.9024 256.506C80.8146 251.634 65.844 243.642 52.8452 232.984C39.8464 222.327 29.074 209.214 21.1431 194.393C13.2121 179.572 8.27802 163.335 6.62239 146.607C4.96677 129.88 6.62208 112.99 11.4938 96.9024C16.3655 80.8146 24.3583 65.844 35.0157 52.8452C45.6731 39.8464 58.7864 29.074 73.607 21.1431C88.4276 13.2121 104.665 8.27802 121.393 6.62239C138.12 4.96677 155.01 6.62208 171.098 11.4938C187.185 16.3655 202.156 24.3583 215.155 35.0157C228.154 45.6731 238.926 58.7864 246.857 73.607C254.788 88.4276 259.722 104.665 261.378 121.393C263.033 138.12 261.378 155.01 256.506 171.098L256.506 171.098Z" stroke="url(#paint0_linear_296_2918)" stroke-opacity="0.6" stroke-width="12" stroke-linecap="round"/>
<defs>
<linearGradient id="paint0_linear_296_2918" x1="354.852" y1="-72.9435" x2="-142.466" y2="317.435" gradientUnits="userSpaceOnUse">
<stop stop-color="white" stop-opacity="0.3"/>
<stop offset="0.518857" stop-color="white" stop-opacity="0.05"/>
<stop offset="1" stop-color="white" stop-opacity="0.2"/>
</linearGradient>
</defs>
</svg>
