<svg xmlns="http://www.w3.org/2000/svg" version="1.1" xmlns:xlink="http://www.w3.org/1999/xlink" width="115" height="135"><svg width="115" height="135" viewBox="0 0 115 135" fill="none" xmlns="http://www.w3.org/2000/svg">
<path d="M22.3179 91.5071C18.8261 86.8537 16.4237 81.6356 15.2505 75.8257C14.6359 72.7324 14.2169 69.6392 13.9655 66.4921C13.9376 66.1962 13.9097 65.9004 13.9097 65.6045C14.2728 65.6314 14.636 65.6583 15.027 65.6852V66.3576C15.027 75.1532 17.5691 83.7336 22.3179 91.5071Z" fill="url(#paint0_linear_230_9655)"></path>
<path d="M57.5161 103.503C57.6837 103.933 57.7954 104.39 57.8234 104.875C58.1027 104.229 58.4379 103.61 58.8569 102.992C60.6168 100.544 63.4103 99.2799 66.2037 98.1233C66.2596 98.0695 66.3154 98.0157 66.3713 97.9619C67.1535 97.3432 68.0474 96.9398 68.9971 96.5901C68.8854 95.2452 69.919 92.9858 70.5335 92.5823C73.7181 90.5919 77.2657 89.4622 80.9251 88.6822C81.0369 87.2566 81.819 85.4813 82.7129 85.4275C84.2214 85.3737 85.7578 85.293 87.2662 85.2392C88.7468 84.0826 90.339 83.4909 92.1827 85.0779C92.3782 85.2661 92.5179 85.562 92.5738 85.9386C92.9649 85.9655 93.3559 85.9655 93.747 85.9924C93.8867 85.8579 94.0264 85.7234 94.166 85.6158C95.7304 84.1095 97.3226 82.5226 98.6914 80.828C99.2501 80.1287 99.6691 79.2679 100.256 78.6224C100.312 78.5417 100.367 78.4341 100.395 78.3265C100.34 78.2189 100.312 78.1382 100.284 78.1113H66.6227C66.4272 81.1508 66.1758 82.6302 64.1645 85.0779C62.0135 87.6869 60.1419 89.6236 56.9854 89.0856V103.019C57.2088 103.019 57.3764 103.126 57.5161 103.503Z" fill="url(#paint1_linear_230_9655)"></path>
<path d="M13.3525 32.6538L24.8615 32.2772V22.594L13.4363 18.7207L13.3525 32.6538Z" fill="url(#paint2_linear_230_9655)"></path>
<path d="M35.4478 23.3202H44.3888V13.637L35.6191 9.78906L35.4478 23.3202Z" fill="url(#paint3_linear_230_9655)"></path>
<path d="M113.974 65.8452C113.75 68.2122 113.527 69.8261 113.247 71.9779H69.3066L75.3405 65.5225L113.974 65.8452Z" fill="url(#paint4_linear_230_9655)"></path>
<path d="M100.62 32.4924L89.2231 32.2772V22.594L100.62 18.7207V32.4924Z" fill="url(#paint5_linear_230_9655)"></path>
<path d="M78.4957 23.2401H69.6685L69.7522 13.5569L78.4957 9.68359V23.2401Z" fill="url(#paint6_linear_230_9655)"></path>
<path d="M56.9853 30.5021C60.4491 31.9277 63.8851 33.4608 67.2652 35.0747C72.4051 37.361 77.4333 39.7549 82.5173 42.1488C85.7298 43.5475 88.8305 45.0807 92.043 46.3987C92.043 49.734 92.043 57.2654 92.043 57.2654H100.703V42.4985C100.703 42.4985 92.3223 38.6521 90.5345 37.8452C89.9758 37.5762 89.3892 37.3341 88.8305 37.0652C85.3666 35.5051 81.9307 33.9181 78.4668 32.358C76.4276 31.4166 74.3884 30.4752 72.3771 29.5607C71.5112 29.1572 70.6452 28.7806 69.7513 28.3772C69.0529 28.0544 68.3825 27.7585 67.7121 27.4357C64.1644 25.8488 60.5609 24.3156 57.0132 22.7286V0L68.9691 5.46025L69.7793 5.80992V19.0974C72.6006 20.2002 75.3661 21.4913 78.1037 22.7555C78.2713 22.8093 78.383 22.89 78.4948 22.9438V9.6832L90.5624 15.4931C90.5624 15.4931 90.5624 15.4931 90.4227 27.9737C91.7915 28.5655 100.591 32.4656 100.591 32.4656C100.591 27.884 100.591 23.3021 100.591 18.7209L113.999 24.5308V38.4638C114.111 42.2026 113.999 45.9414 113.999 49.6533C113.999 55.006 113.999 60.4662 113.999 65.8189C101.345 65.8189 88.6908 65.6575 76.0365 65.792C75.8131 65.792 75.5896 65.7651 75.422 65.9265C75.3102 65.9803 75.1985 66.0341 75.1147 66.0879C75.1147 64.205 76.4556 51.8051 75.7851 51.3748C73.7459 50.4065 70.7849 48.8195 68.7457 47.8512C65.0304 46.0759 61.371 44.3007 57.7395 42.364C57.7116 42.3371 57.6557 42.3371 57.5998 42.3371C57.4881 42.2833 57.4043 42.2295 57.3205 42.2026C57.1808 42.095 57.0411 42.0143 56.8735 41.9068" fill="url(#paint7_linear_230_9655)"></path>
<path d="M93.7749 88.6824C92.1268 90.9418 90.4507 93.1743 88.4674 95.1917C87.4059 96.2945 86.3723 97.478 85.2549 98.527C82.4335 101.217 79.4446 103.664 76.3159 105.951C77.0143 105.386 77.6847 104.821 78.3272 104.229C83.2437 99.8988 87.797 95.1648 92.1547 90.3232C92.7693 89.6238 93.3839 88.9245 93.9705 88.1982C94.0543 88.3865 93.8867 88.5479 93.7749 88.6824Z" fill="url(#paint8_linear_230_9655)"></path>
<path d="M112.1 77.5999C111.848 78.7028 111.541 79.8325 111.234 80.9084C109.055 89.0315 105.451 96.4015 100.535 103.072C90.7857 116.306 75.9804 126.796 56.8733 134.973L56.7895 133.763C56.7616 133.763 56.7615 133.789 56.7615 133.789C56.7615 133.763 56.7615 133.736 56.7615 133.682C56.7615 133.655 56.7615 133.655 56.7615 133.655C56.7615 133.601 56.7615 133.574 56.7336 133.52V133.09C56.7336 131.907 56.6777 130.723 56.7615 129.566V123.783L56.9012 117.893C60.1975 116.198 63.1865 114.369 66.3151 112.459C66.8459 112.137 67.3766 111.814 67.9353 111.464C69.7231 110.442 71.483 109.393 73.1032 108.29C74.2485 107.51 75.3659 106.73 76.4833 105.923C79.6398 103.637 82.6288 101.189 85.4502 98.4995C86.5676 97.4236 87.5732 96.267 88.6626 95.1642C90.646 93.1469 92.3221 90.9143 93.9702 88.6549C94.0819 88.5204 94.2495 88.3591 94.1657 88.1977C94.1657 88.1977 94.1657 88.1977 94.1657 88.1708C94.054 88.0094 93.8584 88.0632 93.6908 88.0632C93.6629 88.0632 93.6629 88.0632 93.6629 88.0632C90.4505 88.0632 87.238 88.0632 84.0535 88.0632C83.6903 88.0632 83.411 88.1708 83.2154 88.4398C81.2321 90.9681 78.8577 93.12 76.4553 95.2449C73.4663 97.8809 70.198 100.14 66.8459 102.346C63.6614 104.444 60.3651 106.407 57.1247 108.425C57.0968 108.398 56.9653 108.549 56.9374 108.522C56.9374 103.573 56.0968 98.4995 56.0968 93.5503L56.0688 93.0393C56.0968 92.9317 56.1247 92.851 56.1526 92.7703C56.1806 92.7165 56.1806 92.6627 56.2085 92.6089C56.3203 92.4206 56.4041 92.2861 56.4879 92.1516C58.1919 91.1833 60.8958 90.2419 62.5719 89.2467C64.5832 88.0632 66.6224 86.8528 68.3823 85.3196C69.779 84.0823 71.2036 82.845 72.4607 81.4732C72.9356 80.9622 72.7617 81.588 69.9682 81.0231C70.2476 80.4582 70.471 79.8665 70.6386 79.2747C70.6945 79.0327 70.7783 78.7906 70.8063 78.5216L75.0371 77.3848H75.3379L97.9089 77.4386H98.1603L112.1 77.5999Z" fill="url(#paint9_linear_230_9655)"></path>
<path d="M66.3162 112.46C63.1596 114.37 60.003 116.28 56.7347 117.974V123.811L56.5112 117.49C60.1986 115.526 64.1652 113.59 67.9084 111.465C67.4056 111.815 66.847 112.137 66.3162 112.46Z" fill="url(#paint10_linear_230_9655)"></path>
<path d="M56.9298 118C53.6336 116.305 50.477 114.369 47.3204 112.46C43.3817 110.066 39.5546 107.51 35.8952 104.686C33.3811 102.749 30.895 100.786 28.6881 98.4727C28.6323 98.4189 28.5764 98.3651 28.5485 98.3113C28.4926 98.2575 28.4367 98.2306 28.4088 98.1768C28.3529 98.123 28.2971 98.0692 28.2691 98.0423C28.2133 97.9885 28.1574 97.9347 28.1295 97.9078C28.0736 97.854 28.0177 97.8002 27.9898 97.7733C27.9339 97.7195 27.8781 97.6657 27.8222 97.6388C27.4311 97.3161 27.04 96.9664 26.7048 96.5629C20.8107 90.6992 16.844 83.8672 15.2238 75.7978C14.6092 72.7046 14.1902 69.6113 13.9388 66.4643C13.7991 64.6352 13.7153 62.8062 13.6595 60.9502C13.5477 57.1577 13.4639 53.3651 13.5477 49.5725C13.6036 47.1786 13.6595 44.7578 13.6595 42.3639V41.9873L23.2689 46.9903C22.9896 47.2593 22.8778 47.6089 22.8778 48.0931C22.9057 49.8684 22.8219 51.6436 22.8219 53.392C22.7661 58.9867 22.6264 64.5815 23.2968 70.1493C23.632 72.8391 24.2187 75.4482 25.0008 78.0303C26.1461 81.8498 28.1854 85.1852 30.8112 88.2246C31.1185 88.655 31.4257 89.0853 31.733 89.5157C31.8447 89.6233 31.9565 89.704 32.0403 89.7847C35.0293 93.0393 38.4373 95.8905 42.0687 98.4996C45.1694 100.732 56.9298 108.5 56.9298 108.5C56.9298 108.5 57.0165 113.715 57.0444 116.566" fill="url(#paint11_linear_230_9655)"></path>
<path d="M56.9852 22.7551V30.5286C56.9852 30.5286 51.7615 33.057 49.5268 34.1329C44.6941 36.4999 39.8894 38.7862 35.0567 41.207C32.5985 42.4443 30.0844 43.574 27.5983 44.8113C26.3691 45.43 25.1121 46.0486 23.855 46.6673C23.6036 46.7749 23.4081 46.9093 23.2964 47.0438L13.7148 42.014C13.7707 41.8795 13.9383 41.8257 14.1339 41.745C15.782 41.0456 17.4022 40.3194 19.0503 39.5932C21.5085 38.4903 23.9388 37.3606 26.3971 36.2309C33.7717 32.8418 41.1464 29.4258 48.5491 26.0367C51.2587 24.7994 53.9404 23.5621 56.7897 22.5938C56.7618 22.6206 56.9573 22.7551 56.9852 22.7551Z" fill="url(#paint12_linear_230_9655)"></path>
<path d="M16.4751 104.714C16.4487 104.74 16.4487 104.767 16.4224 104.82L16.396 104.767C16.4223 104.74 16.4487 104.714 16.4751 104.714Z" fill="#006B44"></path>
<path d="M13.7437 42.0412C13.6599 48.1739 13.5202 54.8446 13.7158 60.9773C13.7717 62.5105 13.8275 64.0705 13.9393 65.6037C13.9672 65.8996 13.9672 66.1955 13.9951 66.4913C14.2186 69.6384 14.6376 72.7585 15.2801 75.8249C16.4533 81.6617 18.8557 86.853 22.3475 91.5063C23.6604 93.2546 25.141 94.9492 26.7612 96.5631C27.0684 96.9665 27.4595 97.3162 27.8785 97.639C27.9344 97.6928 27.9903 97.7197 28.0461 97.7735C28.102 97.8273 28.1579 97.8811 28.1858 97.908C28.2417 97.9349 28.2976 97.9886 28.3255 98.0424C28.3814 98.0962 28.4093 98.15 28.4652 98.1769C28.521 98.2307 28.549 98.2845 28.6048 98.3114C28.6607 98.3652 28.7166 98.419 28.7445 98.4728C30.9513 100.759 33.4375 102.723 35.9516 104.686C39.583 107.484 43.41 110.039 47.3767 112.433C50.5333 114.343 53.6899 116.252 56.9582 117.947C56.9582 123.649 56.9024 129.298 56.9024 135C28.0741 122.735 8.91109 105.09 2.45824 80.9354C1.92749 79.1064 1.48052 77.2774 1.11738 75.3676C0.921835 74.2917 0.726288 73.2427 0.586616 72.1668C0.279337 69.6922 0.0837964 67.1907 0.0279276 64.6892V60.3317C0.0279276 56.6467 0 52.9348 0 49.223V46.3449C0.0279344 46.3449 0.0279208 46.3449 0.0558552 46.3718C0.0279208 43.7627 1.36365e-05 41.1805 0.0838168 38.5714V24.6115L13.4923 18.8016C13.4923 23.2935 13.5203 28.0006 13.5203 32.6539C13.5203 32.6539 22.0682 28.7537 23.437 28.162C23.437 28.162 23.5487 19.6354 23.5487 15.6007L35.6164 9.7908V23.0514C35.7281 22.9976 35.8398 22.9438 36.0074 22.8631C38.745 21.5989 41.5105 20.3078 44.3319 19.205V5.80992L45.142 5.46025L57.07 0V22.7286C53.5223 24.3156 49.9746 25.8757 46.399 27.4626C45.7007 27.7585 45.0303 28.0813 44.3598 28.4041C43.4939 28.7806 42.6279 29.1841 41.734 29.5876C39.6948 30.5021 37.6835 31.4435 35.6443 32.3849C32.1804 33.9719 28.7445 35.5589 25.2806 37.092C24.7219 37.361 24.1353 37.6031 23.5766 37.8721C21.705 38.679 13.7437 42.0412 13.7437 42.0412Z" fill="url(#paint13_linear_230_9655)"></path>
<path d="M16.592 104.955L16.4824 104.847C16.592 104.793 16.6468 104.82 16.592 104.955Z" fill="#006B44"></path>
<path d="M28.1562 97.9355C28.2111 97.9893 28.2659 98.0431 28.2933 98.07C28.2385 98.0162 28.2111 97.9624 28.1562 97.9355Z" fill="#004233"></path>
<path d="M28.2974 98.0684C28.3522 98.1222 28.407 98.176 28.4344 98.2028C28.3796 98.1491 28.3522 98.1222 28.2974 98.0684Z" fill="#004233"></path>
<path d="M28.438 98.2031C28.4928 98.2569 28.5476 98.3107 28.575 98.3376C28.5202 98.2838 28.4654 98.2569 28.438 98.2031Z" fill="#004233"></path>
<path d="M57.0152 41.8533C57.0152 41.8533 44.6402 47.9591 38.6344 50.891C38.2153 51.1062 38.0757 51.3214 38.0757 51.7786C37.9919 57.4541 37.936 63.1026 38.0198 68.7511C38.0477 71.1181 38.2153 73.4582 38.8299 75.7715C39.1092 76.7667 39.4724 77.7081 40.059 78.5957C40.1987 78.784 40.3104 78.9723 40.2825 79.2144C41.0087 79.8061 41.5116 80.6131 42.2099 81.2586C42.4055 81.4469 42.601 81.6352 42.7966 81.8504C43.02 82.0655 43.2435 82.3076 43.467 82.5228C43.6905 82.7918 43.9139 83.0339 44.1933 83.1953C44.2491 83.249 44.305 83.3028 44.3329 83.3566C44.3609 83.3835 44.4168 83.4104 44.4447 83.4642C44.5006 83.518 44.5564 83.5718 44.6123 83.6256C46.2325 85.2395 48.0762 86.5844 49.9757 87.8755C52.0708 89.301 54.1938 90.6728 56.3168 92.0446C56.6241 92.2598 57.1269 92.5557 57.0431 92.9591C57.0431 98.1504 56.933 103.331 56.933 108.522C51.849 105.482 46.875 102.024 42.0982 98.5808C34.7235 93.255 27.7399 86.8264 25.0582 78.1116C24.276 75.5294 23.6894 72.9203 23.3542 70.2305C22.6838 64.6358 22.8235 59.041 22.8793 53.4732V46.7756C26.5946 44.9735 31.3155 42.9562 35.0308 41.1271C39.8635 38.7332 44.724 36.3662 49.5846 33.9723C51.8473 32.8695 54.7525 31.5784 57.0431 30.4756C56.9872 30.5025 56.9872 40.105 57.0152 41.8533Z" fill="url(#paint14_linear_230_9655)"></path>
<path d="M56.9307 117.921C56.9307 114.747 56.9586 111.626 56.9307 108.453C60.1431 106.462 63.3835 104.445 66.568 102.374C69.8922 100.168 73.1885 97.9086 76.1774 95.2726C77.7138 93.9277 83.4963 88.0909 83.4963 88.0909C84.8092 88.0909 94.5024 88.0371 94.5024 88.0371C88.2731 97.5589 81.3453 102.831 72.9371 108.533C67.853 111.976 62.3779 115.042 56.9307 117.921Z" fill="url(#paint15_linear_230_9655)"></path>
<path d="M92.0445 46.3724C94.8659 45.162 97.9387 43.7902 100.704 42.4453V57.266C97.799 57.266 94.9218 57.266 92.0166 57.266C92.0445 53.9307 92.0445 49.7077 92.0445 46.3724Z" fill="#0B1826"></path>
<path d="M100.703 42.4715C97.9372 43.8164 94.8644 45.1882 92.043 46.3986C89.7803 45.484 87.5735 44.435 85.3667 43.4129C84.8639 43.1977 84.3611 42.9557 83.8303 42.7136C74.8913 38.6251 65.9802 34.4291 56.9854 30.502V22.7285C60.6168 24.3424 64.0807 25.8487 67.7122 27.4625C69.2765 28.1619 70.8408 28.8612 72.3772 29.5875C76.2042 31.3358 80.0312 33.0842 83.8303 34.8056C85.4784 35.5588 87.1545 36.3119 88.8306 37.0919C91.8195 38.4368 94.8365 39.7279 97.7975 41.1266C98.4121 41.4494 100.703 42.4715 100.703 42.4715Z" fill="url(#paint16_linear_230_9655)"></path>
<path d="M53.0182 82.9531C47.9341 80.2633 44.7496 75.1796 44.7496 69.6656L44.9172 55.1138L37.9336 51.0254V71.2256C37.9336 82.8186 48.4369 87.9829 57.0407 93.7929L57.0645 85.0942L53.0182 82.9531Z" fill="url(#paint17_linear_230_9655)"></path>
<path d="M56.9848 41.8262V49.1155L44.9172 55.0868L37.9336 50.9983L56.9848 41.8262Z" fill="url(#paint18_linear_230_9655)"></path>
<path d="M75.0527 77.3823C72.1196 85.4248 63.831 89.1662 57.043 93.7657V85.0777C60.842 83.0604 64.8489 81.0943 67.0836 77.3555L75.0527 77.3823Z" fill="url(#paint19_linear_230_9655)"></path>
<path d="M76.1506 51.375V65.846L69.3066 72.0056V55.1676L76.1506 51.375Z" fill="url(#paint20_linear_230_9655)"></path>
<path d="M76.1483 51.2673V51.3749L69.3044 55.1675L68.4385 54.7371L65.4215 53.2577L56.9854 49.1155V41.8262L68.4385 47.4478L72.8241 49.6265L76.1483 51.2673Z" fill="url(#paint21_linear_230_9655)"></path>
<defs>
<linearGradient id="SvgjsLinearGradient1052" x1="49.8578" y1="39.8254" x2="7.1143" y2="96.0537" gradientUnits="userSpaceOnUse">
<stop></stop>
<stop offset="0.1041" stop-color="#0E321E"></stop>
<stop offset="0.2136" stop-color="#1A5F39"></stop>
<stop offset="0.328" stop-color="#258550"></stop>
<stop offset="0.4456" stop-color="#2EA563"></stop>
<stop offset="0.5675" stop-color="#34BD71"></stop>
<stop offset="0.6955" stop-color="#39CE7C"></stop>
<stop offset="0.8335" stop-color="#3CD982"></stop>
<stop offset="1" stop-color="#3DDC84"></stop>
</linearGradient>
<linearGradient id="SvgjsLinearGradient1051" x1="57.0361" y1="91.4854" x2="113.573" y2="91.4854" gradientUnits="userSpaceOnUse">
<stop offset="0.052" stop-color="#3BD680"></stop>
<stop offset="0.099" stop-color="#3BD580"></stop>
<stop offset="0.433" stop-color="#31B46B"></stop>
<stop offset="0.4885" stop-color="#31B46B"></stop>
<stop offset="0.637" stop-color="#31B56C"></stop>
<stop offset="1" stop-color="#3DDC84"></stop>
</linearGradient>
<linearGradient id="SvgjsLinearGradient1050" x1="6.99758" y1="3.64503" x2="37.0426" y2="67.8863" gradientUnits="userSpaceOnUse">
<stop offset="0.002" stop-color="#0D1B2A"></stop>
<stop offset="0.0544416" stop-color="#133235"></stop>
<stop offset="0.1701" stop-color="#1E5F4A"></stop>
<stop offset="0.2908" stop-color="#27855C"></stop>
<stop offset="0.4149" stop-color="#2FA56A"></stop>
<stop offset="0.5436" stop-color="#35BD76"></stop>
<stop offset="0.6786" stop-color="#3ACE7E"></stop>
<stop offset="0.8243" stop-color="#3CD982"></stop>
<stop offset="1" stop-color="#3DDC84"></stop>
</linearGradient>
<linearGradient id="SvgjsLinearGradient1049" x1="27.5642" y1="-5.9742" x2="57.6092" y2="58.267" gradientUnits="userSpaceOnUse">
<stop offset="0.002" stop-color="#0D1B2A"></stop>
<stop offset="0.0544416" stop-color="#133235"></stop>
<stop offset="0.1701" stop-color="#1E5F4A"></stop>
<stop offset="0.2908" stop-color="#27855C"></stop>
<stop offset="0.4149" stop-color="#2FA56A"></stop>
<stop offset="0.5436" stop-color="#35BD76"></stop>
<stop offset="0.6786" stop-color="#3ACE7E"></stop>
<stop offset="0.8243" stop-color="#3CD982"></stop>
<stop offset="1" stop-color="#3DDC84"></stop>
</linearGradient>
<linearGradient id="SvgjsLinearGradient1048" x1="82.192" y1="80.4288" x2="120.138" y2="41.0201" gradientUnits="userSpaceOnUse">
<stop offset="0.2398" stop-color="#0D1B2A"></stop>
<stop offset="0.8085" stop-color="#35BD76"></stop>
<stop offset="0.8432" stop-color="#1E5F4A"></stop>
<stop offset="1" stop-color="#3DDC84"></stop>
</linearGradient>
<linearGradient id="SvgjsLinearGradient1047" x1="102.573" y1="22.0024" x2="77.9672" y2="41.2507" gradientUnits="userSpaceOnUse">
<stop offset="0.002" stop-color="#0D1B2A"></stop>
<stop offset="0.1701" stop-color="#1E5F4A"></stop>
<stop offset="0.2908" stop-color="#27855C"></stop>
<stop offset="0.4149" stop-color="#2FA56A"></stop>
<stop offset="0.5436" stop-color="#35BD76"></stop>
<stop offset="0.6786" stop-color="#3ACE7E"></stop>
<stop offset="0.8243" stop-color="#3CD982"></stop>
<stop offset="1" stop-color="#3DDC84"></stop>
</linearGradient>
<linearGradient id="SvgjsLinearGradient1046" x1="79.4082" y1="10.9719" x2="60.3783" y2="39.8067" gradientUnits="userSpaceOnUse">
<stop offset="0.002" stop-color="#0D1B2A"></stop>
<stop offset="0.1701" stop-color="#1E5F4A"></stop>
<stop offset="0.2908" stop-color="#27855C"></stop>
<stop offset="0.4149" stop-color="#2FA56A"></stop>
<stop offset="0.5436" stop-color="#35BD76"></stop>
<stop offset="0.6786" stop-color="#3ACE7E"></stop>
<stop offset="0.8243" stop-color="#3CD982"></stop>
<stop offset="1" stop-color="#3DDC84"></stop>
</linearGradient>
<linearGradient id="SvgjsLinearGradient1045" x1="107.699" y1="-0.263946" x2="36.0871" y2="115.173" gradientUnits="userSpaceOnUse">
<stop offset="0.002" stop-color="#0D1B2A"></stop>
<stop offset="0.1514" stop-color="#1E5F4A"></stop>
<stop offset="0.507" stop-color="#27855C"></stop>
<stop offset="0.8085" stop-color="#35BD76"></stop>
<stop offset="1" stop-color="#3DDC84"></stop>
</linearGradient>
<linearGradient id="SvgjsLinearGradient1044" x1="62.4061" y1="92.4119" x2="99.1536" y2="100.565" gradientUnits="userSpaceOnUse">
<stop offset="0.002" stop-color="#0D1B2A"></stop>
<stop offset="0.0544416" stop-color="#133235"></stop>
<stop offset="0.1701" stop-color="#1E5F4A"></stop>
<stop offset="0.2908" stop-color="#27855C"></stop>
<stop offset="0.4149" stop-color="#2FA56A"></stop>
<stop offset="0.5436" stop-color="#35BD76"></stop>
<stop offset="0.6786" stop-color="#3ACE7E"></stop>
<stop offset="0.8243" stop-color="#3CD982"></stop>
<stop offset="1" stop-color="#3DDC84"></stop>
</linearGradient>
<linearGradient id="SvgjsLinearGradient1043" x1="70.6275" y1="135.259" x2="91.4059" y2="55.0755" gradientUnits="userSpaceOnUse">
<stop offset="0.002" stop-color="#0D1B2A"></stop>
<stop offset="0.3405" stop-color="#1E5F4A"></stop>
<stop offset="0.507" stop-color="#27855C"></stop>
<stop offset="0.8085" stop-color="#35BD76"></stop>
<stop offset="1" stop-color="#3DDC84"></stop>
</linearGradient>
<linearGradient id="SvgjsLinearGradient1042" x1="56.534" y1="117.63" x2="67.9312" y2="117.63" gradientUnits="userSpaceOnUse">
<stop offset="0.052" stop-color="#3BD680"></stop>
<stop offset="0.099" stop-color="#3BD580"></stop>
<stop offset="0.433" stop-color="#31B46B"></stop>
<stop offset="0.4885" stop-color="#31B46B"></stop>
<stop offset="0.637" stop-color="#31B56C"></stop>
<stop offset="1" stop-color="#3DDC84"></stop>
</linearGradient>
<linearGradient id="SvgjsLinearGradient1041" x1="24.018" y1="71.0182" x2="61.8415" y2="148.11" gradientUnits="userSpaceOnUse">
<stop offset="0.1047" stop-color="#0D1B2A"></stop>
<stop offset="0.2246" stop-color="#0E1F2C"></stop>
<stop offset="0.3343" stop-color="#112A31"></stop>
<stop offset="0.4401" stop-color="#153C3A"></stop>
<stop offset="0.5436" stop-color="#1C5746"></stop>
<stop offset="0.6453" stop-color="#247856"></stop>
<stop offset="0.8432" stop-color="#3AD27F"></stop>
<stop offset="0.8622" stop-color="#3DDC84"></stop>
<stop offset="0.8706" stop-color="#3DDC84"></stop>
<stop offset="0.9676" stop-color="#3DDC84"></stop>
</linearGradient>
<linearGradient id="SvgjsLinearGradient1040" x1="35.367" y1="36.1779" x2="31.5763" y2="63.9432" gradientUnits="userSpaceOnUse">
<stop offset="0.1047" stop-color="#0D1B2A"></stop>
<stop offset="0.2246" stop-color="#0E1F2C"></stop>
<stop offset="0.3343" stop-color="#112A31"></stop>
<stop offset="0.4401" stop-color="#153C3A"></stop>
<stop offset="0.5436" stop-color="#1C5746"></stop>
<stop offset="0.6453" stop-color="#247856"></stop>
<stop offset="0.7457" stop-color="#2EA269"></stop>
<stop offset="0.8432" stop-color="#3AD27F"></stop>
<stop offset="0.8622" stop-color="#3DDC84"></stop>
<stop offset="0.8706" stop-color="#3DDC84"></stop>
<stop offset="0.9676" stop-color="#3DDC84"></stop>
</linearGradient>
<linearGradient id="SvgjsLinearGradient1039" x1="19.5305" y1="137.761" x2="39.7309" y2="-3.93168" gradientUnits="userSpaceOnUse">
<stop offset="0.002" stop-color="#0D1B2A"></stop>
<stop offset="0.0544416" stop-color="#133235"></stop>
<stop offset="0.1701" stop-color="#1E5F4A"></stop>
<stop offset="0.2908" stop-color="#27855C"></stop>
<stop offset="0.4149" stop-color="#2FA56A"></stop>
<stop offset="0.5436" stop-color="#35BD76"></stop>
<stop offset="0.6786" stop-color="#3ACE7E"></stop>
<stop offset="0.8243" stop-color="#3CD982"></stop>
<stop offset="1" stop-color="#3DDC84"></stop>
</linearGradient>
<linearGradient id="SvgjsLinearGradient1038" x1="27.8643" y1="103.803" x2="55.5601" y2="38.7858" gradientUnits="userSpaceOnUse">
<stop offset="0.002" stop-color="#0D1B2A"></stop>
<stop offset="0.0544416" stop-color="#133235"></stop>
<stop offset="0.1701" stop-color="#1E5F4A"></stop>
<stop offset="0.2908" stop-color="#27855C"></stop>
<stop offset="0.4149" stop-color="#2FA56A"></stop>
<stop offset="0.5436" stop-color="#35BD76"></stop>
<stop offset="0.6786" stop-color="#3ACE7E"></stop>
<stop offset="0.8243" stop-color="#3CD982"></stop>
<stop offset="1" stop-color="#3DDC84"></stop>
</linearGradient>
<linearGradient id="SvgjsLinearGradient1037" x1="79.5771" y1="90.6777" x2="48.6586" y2="156.157" gradientUnits="userSpaceOnUse">
<stop offset="0.0074054" stop-color="#0D1B2A"></stop>
<stop offset="0.1514" stop-color="#1E5F4A"></stop>
<stop offset="0.507" stop-color="#27855C"></stop>
<stop offset="0.8085" stop-color="#35BD76"></stop>
<stop offset="1" stop-color="#3DDC84"></stop>
</linearGradient>
<linearGradient id="SvgjsLinearGradient1036" x1="78.8612" y1="35.8793" x2="75.3395" y2="62.7991" gradientUnits="userSpaceOnUse">
<stop offset="0.1047" stop-color="#0D1B2A"></stop>
<stop offset="0.2246" stop-color="#0E1F2C"></stop>
<stop offset="0.3343" stop-color="#112A31"></stop>
<stop offset="0.4401" stop-color="#153C3A"></stop>
<stop offset="0.5436" stop-color="#1C5746"></stop>
<stop offset="0.6453" stop-color="#247856"></stop>
<stop offset="0.7457" stop-color="#2EA269"></stop>
<stop offset="0.8432" stop-color="#3AD27F"></stop>
<stop offset="0.8622" stop-color="#3DDC84"></stop>
<stop offset="0.8706" stop-color="#3DDC84"></stop>
<stop offset="0.9676" stop-color="#3DDC84"></stop>
</linearGradient>
<linearGradient id="SvgjsLinearGradient1035" x1="41.9501" y1="67.2534" x2="95.9606" y2="125.338" gradientUnits="userSpaceOnUse">
<stop offset="0.0648649" stop-color="#0D1B2A"></stop>
<stop offset="0.2079" stop-color="#1E5F4A"></stop>
<stop offset="0.2908" stop-color="#27855C"></stop>
<stop offset="0.4149" stop-color="#2FA56A"></stop>
<stop offset="0.5436" stop-color="#35BD76"></stop>
<stop offset="0.6786" stop-color="#3ACE7E"></stop>
<stop offset="0.8108" stop-color="#133235"></stop>
<stop offset="0.8243" stop-color="#3CD982"></stop>
<stop offset="1" stop-color="#3DDC84"></stop>
</linearGradient>
<linearGradient id="SvgjsLinearGradient1034" x1="54.7459" y1="53.5965" x2="36.9801" y2="34.717" gradientUnits="userSpaceOnUse">
<stop stop-color="#133235"></stop>
<stop offset="0.1047" stop-color="#0D1B2A"></stop>
<stop offset="0.2246" stop-color="#0E1F2C"></stop>
<stop offset="0.3343" stop-color="#112A31"></stop>
<stop offset="0.4401" stop-color="#153C3A"></stop>
<stop offset="0.5436" stop-color="#1C5746"></stop>
<stop offset="0.6453" stop-color="#247856"></stop>
<stop offset="0.7457" stop-color="#2EA269"></stop>
<stop offset="0.8432" stop-color="#3AD27F"></stop>
<stop offset="0.849" stop-color="#3DDC84"></stop>
<stop offset="0.8622" stop-color="#3DDC84"></stop>
<stop offset="0.9676" stop-color="#3DDC84"></stop>
</linearGradient>
<linearGradient id="SvgjsLinearGradient1033" x1="63.0222" y1="76.8741" x2="70.247" y2="99.3839" gradientUnits="userSpaceOnUse">
<stop offset="0.002" stop-color="#0D1B2A"></stop>
<stop offset="0.0544416" stop-color="#133235"></stop>
<stop offset="0.1701" stop-color="#1E5F4A"></stop>
<stop offset="0.2908" stop-color="#27855C"></stop>
<stop offset="0.4149" stop-color="#2FA56A"></stop>
<stop offset="0.5436" stop-color="#35BD76"></stop>
<stop offset="0.6786" stop-color="#3ACE7E"></stop>
<stop offset="0.8243" stop-color="#3CD982"></stop>
<stop offset="1" stop-color="#3DDC84"></stop>
</linearGradient>
<linearGradient id="SvgjsLinearGradient1032" x1="57.5141" y1="72.3837" x2="90.9104" y2="45.5041" gradientUnits="userSpaceOnUse">
<stop stop-color="#133235"></stop>
<stop offset="0.1047" stop-color="#0D1B2A"></stop>
<stop offset="0.2246" stop-color="#0E1F2C"></stop>
<stop offset="0.3343" stop-color="#112A31"></stop>
<stop offset="0.4401" stop-color="#153C3A"></stop>
<stop offset="0.5436" stop-color="#1C5746"></stop>
<stop offset="0.6453" stop-color="#247856"></stop>
<stop offset="0.7457" stop-color="#2EA269"></stop>
<stop offset="0.8432" stop-color="#3AD27F"></stop>
<stop offset="0.849" stop-color="#3DDC84"></stop>
<stop offset="0.8622" stop-color="#3DDC84"></stop>
<stop offset="0.9676" stop-color="#3DDC84"></stop>
</linearGradient>
<linearGradient id="SvgjsLinearGradient1031" x1="57.0314" y1="62.9299" x2="74.47" y2="30.7098" gradientUnits="userSpaceOnUse">
<stop stop-color="#133235"></stop>
<stop offset="0.1047" stop-color="#0D1B2A"></stop>
<stop offset="0.2246" stop-color="#0E1F2C"></stop>
<stop offset="0.3343" stop-color="#112A31"></stop>
<stop offset="0.4401" stop-color="#153C3A"></stop>
<stop offset="0.5436" stop-color="#1C5746"></stop>
<stop offset="0.6453" stop-color="#247856"></stop>
<stop offset="0.7457" stop-color="#2EA269"></stop>
<stop offset="0.8432" stop-color="#3AD27F"></stop>
<stop offset="0.849" stop-color="#3DDC84"></stop>
<stop offset="0.8622" stop-color="#3DDC84"></stop>
<stop offset="0.9676" stop-color="#3DDC84"></stop>
</linearGradient>
</defs>
</svg><style>@media (prefers-color-scheme: light) { :root { filter: none; } }
@media (prefers-color-scheme: dark) { :root { filter: none; } }
</style></svg>